%TF.GenerationSoftware,KiCad,Pcbnew,7.0.6*%
%TF.CreationDate,2023-11-25T17:25:05+01:00*%
%TF.ProjectId,gamepad,67616d65-7061-4642-9e6b-696361645f70,rev?*%
%TF.SameCoordinates,Original*%
%TF.FileFunction,Copper,L2,Inr*%
%TF.FilePolarity,Positive*%
%FSLAX46Y46*%
G04 Gerber Fmt 4.6, Leading zero omitted, Abs format (unit mm)*
G04 Created by KiCad (PCBNEW 7.0.6) date 2023-11-25 17:25:05*
%MOMM*%
%LPD*%
G01*
G04 APERTURE LIST*
G04 Aperture macros list*
%AMRoundRect*
0 Rectangle with rounded corners*
0 $1 Rounding radius*
0 $2 $3 $4 $5 $6 $7 $8 $9 X,Y pos of 4 corners*
0 Add a 4 corners polygon primitive as box body*
4,1,4,$2,$3,$4,$5,$6,$7,$8,$9,$2,$3,0*
0 Add four circle primitives for the rounded corners*
1,1,$1+$1,$2,$3*
1,1,$1+$1,$4,$5*
1,1,$1+$1,$6,$7*
1,1,$1+$1,$8,$9*
0 Add four rect primitives between the rounded corners*
20,1,$1+$1,$2,$3,$4,$5,0*
20,1,$1+$1,$4,$5,$6,$7,0*
20,1,$1+$1,$6,$7,$8,$9,0*
20,1,$1+$1,$8,$9,$2,$3,0*%
G04 Aperture macros list end*
%TA.AperFunction,ComponentPad*%
%ADD10O,1.600000X2.000000*%
%TD*%
%TA.AperFunction,ComponentPad*%
%ADD11O,2.000000X1.600000*%
%TD*%
%TA.AperFunction,ComponentPad*%
%ADD12C,1.000000*%
%TD*%
%TA.AperFunction,ComponentPad*%
%ADD13RoundRect,0.250000X-0.600000X-0.725000X0.600000X-0.725000X0.600000X0.725000X-0.600000X0.725000X0*%
%TD*%
%TA.AperFunction,ComponentPad*%
%ADD14O,1.700000X1.950000*%
%TD*%
%TA.AperFunction,ComponentPad*%
%ADD15O,0.900000X2.000000*%
%TD*%
%TA.AperFunction,ComponentPad*%
%ADD16O,0.900000X1.700000*%
%TD*%
%TA.AperFunction,ComponentPad*%
%ADD17O,1.600000X1.000000*%
%TD*%
%TA.AperFunction,ViaPad*%
%ADD18C,0.800000*%
%TD*%
%TA.AperFunction,ViaPad*%
%ADD19C,1.000000*%
%TD*%
%TA.AperFunction,ViaPad*%
%ADD20C,0.600000*%
%TD*%
G04 APERTURE END LIST*
D10*
%TO.N,/B_A*%
%TO.C,SW3*%
X172500000Y-131250000D03*
X185000000Y-131250000D03*
%TO.N,GND*%
X172500000Y-126250000D03*
X185000000Y-126250000D03*
%TD*%
D11*
%TO.N,/B_L*%
%TO.C,SW5*%
X142500000Y-120775000D03*
X142500000Y-133275000D03*
%TO.N,GND*%
X147500000Y-120775000D03*
X147500000Y-133275000D03*
D12*
%TO.N,Net-(SW5-A)*%
X151800000Y-127025000D03*
%TO.N,GND*%
X138200000Y-127025000D03*
%TD*%
D13*
%TO.N,+3.3VA*%
%TO.C,XT2*%
X126950000Y-139650000D03*
D14*
%TO.N,Net-(XT2-Pin_2)*%
X129450000Y-139650000D03*
%TO.N,Net-(XT2-Pin_3)*%
X131950000Y-139650000D03*
%TO.N,GND*%
X134450000Y-139650000D03*
%TD*%
D15*
%TO.N,Net-(XT1-SHIELD)*%
%TO.C,XT1*%
X149325000Y-101725000D03*
D16*
X149325000Y-97550000D03*
D15*
X140675000Y-101725000D03*
D16*
X140675000Y-97550000D03*
%TD*%
D10*
%TO.N,/B_Y*%
%TO.C,SW2*%
X155000000Y-118725000D03*
X167500000Y-118725000D03*
%TO.N,GND*%
X155000000Y-113725000D03*
X167500000Y-113725000D03*
%TD*%
%TO.N,/B_B*%
%TO.C,SW4*%
X155000000Y-136225000D03*
X167500000Y-136225000D03*
%TO.N,GND*%
X155000000Y-131225000D03*
X167500000Y-131225000D03*
%TD*%
D17*
%TO.N,/J_X*%
%TO.C,J1*%
X121500000Y-131175000D03*
%TO.N,GND*%
X119500000Y-131175000D03*
%TO.N,/J_B*%
X117500000Y-131175000D03*
%TO.N,/J_Y*%
X115500000Y-131175000D03*
%TO.N,GND*%
X113500000Y-131175000D03*
%TO.N,+3.3VA*%
X111500000Y-131175000D03*
%TD*%
D10*
%TO.N,/B_X*%
%TO.C,SW1*%
X172450000Y-113725000D03*
X184950000Y-113725000D03*
%TO.N,GND*%
X172450000Y-108725000D03*
X184950000Y-108725000D03*
%TD*%
D18*
%TO.N,+3.3VA*%
X176300000Y-120200000D03*
X142650000Y-118250000D03*
D19*
X142100000Y-113775000D03*
D18*
X181100000Y-137700000D03*
X128425000Y-116825000D03*
X131025000Y-130650000D03*
X135250000Y-123650000D03*
X158800000Y-125200000D03*
X110075000Y-137175000D03*
D19*
X161000000Y-109200000D03*
D18*
X160400000Y-140950000D03*
%TO.N,GND*%
X136775000Y-122075000D03*
X158850000Y-140950000D03*
X111925000Y-137175000D03*
X127825000Y-123650000D03*
D19*
X140550000Y-113775000D03*
D18*
X158800000Y-123450000D03*
X181100000Y-135950000D03*
X142650000Y-116500000D03*
X127900000Y-114875000D03*
X129450000Y-130650000D03*
X130600000Y-111925000D03*
X176300000Y-118450000D03*
D20*
%TO.N,/B_X*%
X126025000Y-120200000D03*
D18*
X171225000Y-119275000D03*
D20*
%TO.N,/B_Y*%
X124250000Y-131750000D03*
D18*
X153750000Y-124275000D03*
%TO.N,/B_A*%
X176000000Y-136825000D03*
D20*
X125000000Y-132500000D03*
%TO.N,/B_B*%
X125750000Y-133000000D03*
D18*
X153750000Y-141775000D03*
D20*
%TO.N,/J_X*%
X124725000Y-117300000D03*
%TO.N,/J_Y*%
X120175000Y-118125000D03*
D19*
%TO.N,+5V*%
X146850000Y-103600000D03*
X148200000Y-109275000D03*
X142600000Y-103600000D03*
X158000000Y-109275000D03*
D20*
%TO.N,/B_L*%
X124900000Y-119550000D03*
D18*
X138050000Y-117325000D03*
D20*
%TO.N,/LED*%
X142225000Y-135725000D03*
X126500000Y-133500000D03*
%TO.N,/D+*%
X143824007Y-100603997D03*
X145225000Y-100600000D03*
%TD*%
%TA.AperFunction,Conductor*%
%TO.N,GND*%
G36*
X168459191Y-96019407D02*
G01*
X168495155Y-96068907D01*
X168500000Y-96099499D01*
X168500000Y-104500000D01*
X168500001Y-104500000D01*
X175499999Y-104500000D01*
X175500000Y-104500000D01*
X175500000Y-96766826D01*
X175518907Y-96708636D01*
X175568407Y-96672672D01*
X175620749Y-96670246D01*
X175743456Y-96697882D01*
X176677080Y-96948046D01*
X177599874Y-97235600D01*
X178510340Y-97560078D01*
X179407003Y-97920953D01*
X180288407Y-98317641D01*
X181153124Y-98749498D01*
X181999750Y-99215823D01*
X182826913Y-99715861D01*
X183633270Y-100248799D01*
X184417514Y-100813773D01*
X185178373Y-101409868D01*
X185914612Y-102036116D01*
X186223542Y-102321112D01*
X186625038Y-102691503D01*
X187308497Y-103374962D01*
X187516101Y-103600000D01*
X187963884Y-104085388D01*
X188590132Y-104821627D01*
X189186227Y-105582486D01*
X189751201Y-106366730D01*
X190284139Y-107173087D01*
X190784177Y-108000250D01*
X191250502Y-108846876D01*
X191682359Y-109711593D01*
X192079047Y-110592997D01*
X192439922Y-111489660D01*
X192764400Y-112400126D01*
X193051954Y-113322920D01*
X193302118Y-114256544D01*
X193514486Y-115199483D01*
X193688713Y-116150209D01*
X193824517Y-117107180D01*
X193921677Y-118068843D01*
X193980036Y-119033638D01*
X193999500Y-120000000D01*
X193980036Y-120966362D01*
X193921677Y-121931157D01*
X193824517Y-122892820D01*
X193688713Y-123849791D01*
X193514486Y-124800517D01*
X193302118Y-125743456D01*
X193051954Y-126677080D01*
X192764400Y-127599874D01*
X192439922Y-128510340D01*
X192079047Y-129407003D01*
X191682359Y-130288407D01*
X191250502Y-131153124D01*
X190784177Y-131999750D01*
X190284139Y-132826913D01*
X189751201Y-133633270D01*
X189186227Y-134417514D01*
X188590132Y-135178373D01*
X187963884Y-135914612D01*
X187707130Y-136192929D01*
X187308497Y-136625038D01*
X186625038Y-137308497D01*
X186325729Y-137584618D01*
X185914612Y-137963884D01*
X185182557Y-138586573D01*
X185178373Y-138590132D01*
X184417514Y-139186227D01*
X183633270Y-139751201D01*
X182826913Y-140284139D01*
X181999750Y-140784177D01*
X181153124Y-141250502D01*
X180288407Y-141682359D01*
X179407003Y-142079047D01*
X178510340Y-142439922D01*
X177599874Y-142764400D01*
X176677080Y-143051954D01*
X175743456Y-143302118D01*
X175620751Y-143329752D01*
X175559828Y-143324092D01*
X175513867Y-143283703D01*
X175500000Y-143233171D01*
X175500000Y-137700000D01*
X180294435Y-137700000D01*
X180314632Y-137879257D01*
X180314633Y-137879261D01*
X180374211Y-138049522D01*
X180374211Y-138049523D01*
X180385614Y-138067670D01*
X180470184Y-138202262D01*
X180597738Y-138329816D01*
X180597740Y-138329817D01*
X180597741Y-138329818D01*
X180720446Y-138406919D01*
X180750478Y-138425789D01*
X180818657Y-138449646D01*
X180920738Y-138485366D01*
X180920742Y-138485367D01*
X180920745Y-138485368D01*
X181100000Y-138505565D01*
X181279255Y-138485368D01*
X181449522Y-138425789D01*
X181602262Y-138329816D01*
X181729816Y-138202262D01*
X181825789Y-138049522D01*
X181885368Y-137879255D01*
X181905565Y-137700000D01*
X181885368Y-137520745D01*
X181878476Y-137501050D01*
X181838612Y-137387124D01*
X181825789Y-137350478D01*
X181811201Y-137327262D01*
X181729818Y-137197741D01*
X181729817Y-137197740D01*
X181729816Y-137197738D01*
X181602262Y-137070184D01*
X181602259Y-137070182D01*
X181602258Y-137070181D01*
X181449523Y-136974211D01*
X181279261Y-136914633D01*
X181279257Y-136914632D01*
X181100000Y-136894435D01*
X180920742Y-136914632D01*
X180920738Y-136914633D01*
X180750477Y-136974211D01*
X180750476Y-136974211D01*
X180597741Y-137070181D01*
X180470181Y-137197741D01*
X180374211Y-137350476D01*
X180374211Y-137350477D01*
X180314633Y-137520738D01*
X180314632Y-137520742D01*
X180294435Y-137700000D01*
X175500000Y-137700000D01*
X175500000Y-137635364D01*
X175518907Y-137577173D01*
X175568407Y-137541209D01*
X175629593Y-137541209D01*
X175645359Y-137548587D01*
X175645462Y-137548374D01*
X175650474Y-137550786D01*
X175650478Y-137550789D01*
X175744658Y-137583744D01*
X175820738Y-137610366D01*
X175820742Y-137610367D01*
X175820745Y-137610368D01*
X176000000Y-137630565D01*
X176179255Y-137610368D01*
X176349522Y-137550789D01*
X176502262Y-137454816D01*
X176629816Y-137327262D01*
X176725789Y-137174522D01*
X176785368Y-137004255D01*
X176805565Y-136825000D01*
X176785368Y-136645745D01*
X176778122Y-136625038D01*
X176750179Y-136545181D01*
X176725789Y-136475478D01*
X176709284Y-136449211D01*
X176629818Y-136322741D01*
X176629817Y-136322740D01*
X176629816Y-136322738D01*
X176502262Y-136195184D01*
X176502259Y-136195182D01*
X176502258Y-136195181D01*
X176349523Y-136099211D01*
X176179261Y-136039633D01*
X176179257Y-136039632D01*
X176000000Y-136019435D01*
X175820742Y-136039632D01*
X175820738Y-136039633D01*
X175650474Y-136099212D01*
X175645466Y-136101624D01*
X175644780Y-136100199D01*
X175592328Y-136113410D01*
X175535544Y-136090624D01*
X175502998Y-136038813D01*
X175500000Y-136014635D01*
X175500000Y-135500001D01*
X175500000Y-135500000D01*
X175499999Y-135500000D01*
X168640975Y-135500000D01*
X168582784Y-135481093D01*
X168552354Y-135445128D01*
X168544578Y-135429512D01*
X168525058Y-135390311D01*
X168390981Y-135212764D01*
X168226562Y-135062876D01*
X168037401Y-134945753D01*
X167829940Y-134865382D01*
X167829939Y-134865381D01*
X167829937Y-134865381D01*
X167611243Y-134824500D01*
X167388757Y-134824500D01*
X167170062Y-134865381D01*
X167093797Y-134894926D01*
X166962599Y-134945753D01*
X166773438Y-135062876D01*
X166609019Y-135212764D01*
X166575560Y-135257071D01*
X166474943Y-135390309D01*
X166474938Y-135390318D01*
X166375772Y-135589469D01*
X166314885Y-135803464D01*
X166304586Y-135914613D01*
X166299500Y-135969497D01*
X166299500Y-136480503D01*
X166314885Y-136646536D01*
X166375771Y-136860528D01*
X166474942Y-137059689D01*
X166609019Y-137237236D01*
X166773438Y-137387124D01*
X166962599Y-137504247D01*
X167170060Y-137584618D01*
X167388757Y-137625500D01*
X167611243Y-137625500D01*
X167829940Y-137584618D01*
X168037401Y-137504247D01*
X168226562Y-137387124D01*
X168334306Y-137288902D01*
X168390045Y-137263673D01*
X168449971Y-137276025D01*
X168491191Y-137321242D01*
X168500000Y-137362065D01*
X168500000Y-143900500D01*
X168481093Y-143958691D01*
X168431593Y-143994655D01*
X168401000Y-143999500D01*
X121599000Y-143999500D01*
X121540809Y-143980593D01*
X121504845Y-143931093D01*
X121500000Y-143900500D01*
X121500000Y-141775000D01*
X152944435Y-141775000D01*
X152964632Y-141954257D01*
X152964633Y-141954261D01*
X153024211Y-142124522D01*
X153024211Y-142124523D01*
X153120181Y-142277258D01*
X153120184Y-142277262D01*
X153247738Y-142404816D01*
X153400478Y-142500789D01*
X153468657Y-142524646D01*
X153570738Y-142560366D01*
X153570742Y-142560367D01*
X153570745Y-142560368D01*
X153750000Y-142580565D01*
X153929255Y-142560368D01*
X154099522Y-142500789D01*
X154252262Y-142404816D01*
X154379816Y-142277262D01*
X154475789Y-142124522D01*
X154535368Y-141954255D01*
X154555565Y-141775000D01*
X154535368Y-141595745D01*
X154529794Y-141579816D01*
X154485161Y-141452262D01*
X154475789Y-141425478D01*
X154379816Y-141272738D01*
X154252262Y-141145184D01*
X154252259Y-141145182D01*
X154252258Y-141145181D01*
X154099523Y-141049211D01*
X153929261Y-140989633D01*
X153929257Y-140989632D01*
X153750000Y-140969435D01*
X153570742Y-140989632D01*
X153570738Y-140989633D01*
X153400477Y-141049211D01*
X153400476Y-141049211D01*
X153247741Y-141145181D01*
X153120181Y-141272741D01*
X153024211Y-141425476D01*
X153024211Y-141425477D01*
X152964633Y-141595738D01*
X152964632Y-141595742D01*
X152944435Y-141775000D01*
X121500000Y-141775000D01*
X121500000Y-140440690D01*
X125699500Y-140440690D01*
X125702401Y-140477565D01*
X125702401Y-140477568D01*
X125702402Y-140477569D01*
X125748256Y-140635398D01*
X125831919Y-140776865D01*
X125948135Y-140893081D01*
X126089602Y-140976744D01*
X126247431Y-141022598D01*
X126284306Y-141025500D01*
X126284310Y-141025500D01*
X127615690Y-141025500D01*
X127615694Y-141025500D01*
X127652569Y-141022598D01*
X127810398Y-140976744D01*
X127951865Y-140893081D01*
X128068081Y-140776865D01*
X128151744Y-140635398D01*
X128197598Y-140477569D01*
X128197766Y-140475432D01*
X128198162Y-140474475D01*
X128198507Y-140472590D01*
X128198912Y-140472664D01*
X128221178Y-140418904D01*
X128273346Y-140386932D01*
X128334343Y-140391730D01*
X128376552Y-140425004D01*
X128504478Y-140601078D01*
X128667175Y-140756632D01*
X128855032Y-140880635D01*
X128855035Y-140880636D01*
X128855036Y-140880637D01*
X129062012Y-140969103D01*
X129281463Y-141019191D01*
X129468852Y-141027606D01*
X129506328Y-141029290D01*
X129506328Y-141029289D01*
X129506330Y-141029290D01*
X129729387Y-140999075D01*
X129943464Y-140929517D01*
X130141681Y-140822852D01*
X130317666Y-140682508D01*
X130465765Y-140512996D01*
X130581215Y-140319764D01*
X130606340Y-140252816D01*
X130644486Y-140204983D01*
X130703466Y-140188705D01*
X130760750Y-140210203D01*
X130788222Y-140244651D01*
X130872169Y-140418970D01*
X130872170Y-140418972D01*
X130872171Y-140418973D01*
X131004478Y-140601078D01*
X131167175Y-140756632D01*
X131355032Y-140880635D01*
X131355035Y-140880636D01*
X131355036Y-140880637D01*
X131562011Y-140969103D01*
X131562012Y-140969103D01*
X131781463Y-141019191D01*
X131968852Y-141027606D01*
X132006328Y-141029290D01*
X132006328Y-141029289D01*
X132006330Y-141029290D01*
X132229387Y-140999075D01*
X132380424Y-140950000D01*
X159594435Y-140950000D01*
X159614632Y-141129257D01*
X159614633Y-141129261D01*
X159674211Y-141299522D01*
X159674211Y-141299523D01*
X159753354Y-141425478D01*
X159770184Y-141452262D01*
X159897738Y-141579816D01*
X159897740Y-141579817D01*
X159897741Y-141579818D01*
X159923077Y-141595738D01*
X160050478Y-141675789D01*
X160118657Y-141699646D01*
X160220738Y-141735366D01*
X160220742Y-141735367D01*
X160220745Y-141735368D01*
X160400000Y-141755565D01*
X160579255Y-141735368D01*
X160749522Y-141675789D01*
X160902262Y-141579816D01*
X161029816Y-141452262D01*
X161125789Y-141299522D01*
X161185368Y-141129255D01*
X161205565Y-140950000D01*
X161185368Y-140770745D01*
X161180428Y-140756628D01*
X161161014Y-140701145D01*
X161125789Y-140600478D01*
X161070820Y-140512996D01*
X161029818Y-140447741D01*
X161029817Y-140447740D01*
X161029816Y-140447738D01*
X160902262Y-140320184D01*
X160902259Y-140320182D01*
X160902258Y-140320181D01*
X160749523Y-140224211D01*
X160579261Y-140164633D01*
X160579257Y-140164632D01*
X160400000Y-140144435D01*
X160220742Y-140164632D01*
X160220738Y-140164633D01*
X160050477Y-140224211D01*
X160050476Y-140224211D01*
X159897741Y-140320181D01*
X159770181Y-140447741D01*
X159674211Y-140600476D01*
X159674211Y-140600477D01*
X159614633Y-140770738D01*
X159614632Y-140770742D01*
X159594435Y-140950000D01*
X132380424Y-140950000D01*
X132443464Y-140929517D01*
X132641681Y-140822852D01*
X132817666Y-140682508D01*
X132965765Y-140512996D01*
X133081215Y-140319764D01*
X133160307Y-140109024D01*
X133200500Y-139887547D01*
X133200500Y-139826595D01*
X133400000Y-139826595D01*
X133415190Y-139980831D01*
X133415191Y-139980836D01*
X133475232Y-140178762D01*
X133475234Y-140178767D01*
X133572724Y-140361160D01*
X133572731Y-140361170D01*
X133703940Y-140521050D01*
X133703949Y-140521059D01*
X133863829Y-140652268D01*
X133863839Y-140652275D01*
X134046232Y-140749765D01*
X134046237Y-140749767D01*
X134244166Y-140809808D01*
X134349998Y-140820231D01*
X134350000Y-140820230D01*
X134350000Y-140115506D01*
X134416025Y-140125000D01*
X134483975Y-140125000D01*
X134550000Y-140115506D01*
X134550000Y-140820230D01*
X134550001Y-140820231D01*
X134655833Y-140809808D01*
X134853762Y-140749767D01*
X134853767Y-140749765D01*
X135036160Y-140652275D01*
X135036170Y-140652268D01*
X135196050Y-140521059D01*
X135196059Y-140521050D01*
X135327268Y-140361170D01*
X135327275Y-140361160D01*
X135424765Y-140178767D01*
X135424767Y-140178762D01*
X135484808Y-139980836D01*
X135484809Y-139980831D01*
X135500000Y-139826595D01*
X135500000Y-139750001D01*
X135499999Y-139750000D01*
X134915691Y-139750000D01*
X134925000Y-139718295D01*
X134925000Y-139581705D01*
X134915691Y-139550000D01*
X135499999Y-139550000D01*
X135500000Y-139549999D01*
X135500000Y-139473404D01*
X135484809Y-139319168D01*
X135484808Y-139319163D01*
X135424767Y-139121237D01*
X135424765Y-139121232D01*
X135327275Y-138938839D01*
X135327268Y-138938829D01*
X135196059Y-138778949D01*
X135196050Y-138778940D01*
X135036170Y-138647731D01*
X135036160Y-138647724D01*
X134853767Y-138550234D01*
X134853762Y-138550232D01*
X134655836Y-138490191D01*
X134655831Y-138490190D01*
X134550000Y-138479767D01*
X134550000Y-139184493D01*
X134483975Y-139175000D01*
X134416025Y-139175000D01*
X134350000Y-139184493D01*
X134350000Y-138479767D01*
X134349999Y-138479767D01*
X134244168Y-138490190D01*
X134244163Y-138490191D01*
X134046237Y-138550232D01*
X134046232Y-138550234D01*
X133863839Y-138647724D01*
X133863829Y-138647731D01*
X133703949Y-138778940D01*
X133703940Y-138778949D01*
X133572731Y-138938829D01*
X133572724Y-138938839D01*
X133475234Y-139121232D01*
X133475232Y-139121237D01*
X133415191Y-139319163D01*
X133415190Y-139319168D01*
X133400000Y-139473404D01*
X133400000Y-139549999D01*
X133400001Y-139550000D01*
X133984309Y-139550000D01*
X133975000Y-139581705D01*
X133975000Y-139718295D01*
X133984309Y-139750000D01*
X133400000Y-139750000D01*
X133400000Y-139826595D01*
X133200500Y-139826595D01*
X133200500Y-139468845D01*
X133187029Y-139319163D01*
X133185378Y-139300819D01*
X133185376Y-139300808D01*
X133135815Y-139121232D01*
X133125493Y-139083830D01*
X133027829Y-138881027D01*
X132895522Y-138698922D01*
X132732825Y-138543368D01*
X132544968Y-138419365D01*
X132544965Y-138419363D01*
X132544964Y-138419363D01*
X132544963Y-138419362D01*
X132337987Y-138330896D01*
X132182186Y-138295336D01*
X132118537Y-138280809D01*
X132118531Y-138280808D01*
X132118526Y-138280808D01*
X131893671Y-138270709D01*
X131670612Y-138300925D01*
X131456533Y-138370483D01*
X131258318Y-138477148D01*
X131258317Y-138477148D01*
X131082334Y-138617491D01*
X131082333Y-138617492D01*
X130934236Y-138787002D01*
X130934234Y-138787004D01*
X130934235Y-138787004D01*
X130843519Y-138938839D01*
X130818783Y-138980240D01*
X130793660Y-139047180D01*
X130755512Y-139095017D01*
X130696531Y-139111294D01*
X130639247Y-139089795D01*
X130611777Y-139055348D01*
X130527830Y-138881029D01*
X130517097Y-138866256D01*
X130395522Y-138698922D01*
X130232825Y-138543368D01*
X130044968Y-138419365D01*
X130044965Y-138419363D01*
X130044964Y-138419363D01*
X130044963Y-138419362D01*
X129837987Y-138330896D01*
X129682186Y-138295336D01*
X129618537Y-138280809D01*
X129618531Y-138280808D01*
X129618526Y-138280808D01*
X129393671Y-138270709D01*
X129170612Y-138300925D01*
X128956533Y-138370483D01*
X128758318Y-138477148D01*
X128758317Y-138477148D01*
X128582334Y-138617491D01*
X128582333Y-138617492D01*
X128434234Y-138787004D01*
X128381987Y-138874451D01*
X128335910Y-138914707D01*
X128274971Y-138920191D01*
X128222446Y-138888808D01*
X128198399Y-138832547D01*
X128198314Y-138831541D01*
X128197598Y-138822431D01*
X128151744Y-138664602D01*
X128068081Y-138523135D01*
X127951865Y-138406919D01*
X127810398Y-138323256D01*
X127652569Y-138277402D01*
X127652568Y-138277401D01*
X127652565Y-138277401D01*
X127627298Y-138275413D01*
X127615694Y-138274500D01*
X126284306Y-138274500D01*
X126273548Y-138275346D01*
X126247434Y-138277401D01*
X126247427Y-138277403D01*
X126089602Y-138323256D01*
X125948136Y-138406918D01*
X125831918Y-138523136D01*
X125748256Y-138664602D01*
X125702403Y-138822427D01*
X125702401Y-138822434D01*
X125699500Y-138859310D01*
X125699500Y-140440690D01*
X121500000Y-140440690D01*
X121500000Y-138172400D01*
X160145746Y-138172400D01*
X160155746Y-138382330D01*
X160155747Y-138382337D01*
X160205295Y-138586573D01*
X160205300Y-138586586D01*
X160292602Y-138777751D01*
X160292604Y-138777754D01*
X160414511Y-138948949D01*
X160414513Y-138948951D01*
X160414514Y-138948952D01*
X160566622Y-139093986D01*
X160743428Y-139207613D01*
X160938543Y-139285725D01*
X161144915Y-139325500D01*
X161144918Y-139325500D01*
X161302425Y-139325500D01*
X161459218Y-139310528D01*
X161660875Y-139251316D01*
X161670615Y-139246295D01*
X161679944Y-139241485D01*
X161847682Y-139155011D01*
X162012886Y-139025092D01*
X162150519Y-138866256D01*
X162255604Y-138684244D01*
X162324344Y-138485633D01*
X162354254Y-138277602D01*
X162344254Y-138067670D01*
X162294704Y-137863424D01*
X162294699Y-137863413D01*
X162207397Y-137672248D01*
X162207395Y-137672245D01*
X162085488Y-137501050D01*
X161966005Y-137387124D01*
X161933378Y-137356014D01*
X161756572Y-137242387D01*
X161756569Y-137242386D01*
X161756568Y-137242385D01*
X161647409Y-137198685D01*
X161561457Y-137164275D01*
X161355085Y-137124500D01*
X161197575Y-137124500D01*
X161040781Y-137139472D01*
X160839120Y-137198685D01*
X160652320Y-137294987D01*
X160652317Y-137294989D01*
X160487113Y-137424907D01*
X160349480Y-137583744D01*
X160244397Y-137765753D01*
X160244394Y-137765760D01*
X160175657Y-137964362D01*
X160175655Y-137964368D01*
X160145746Y-138172393D01*
X160145746Y-138172400D01*
X121500000Y-138172400D01*
X121500000Y-136480503D01*
X153799500Y-136480503D01*
X153814885Y-136646536D01*
X153875771Y-136860528D01*
X153974942Y-137059689D01*
X154109019Y-137237236D01*
X154273438Y-137387124D01*
X154462599Y-137504247D01*
X154670060Y-137584618D01*
X154888757Y-137625500D01*
X155111243Y-137625500D01*
X155329940Y-137584618D01*
X155537401Y-137504247D01*
X155726562Y-137387124D01*
X155890981Y-137237236D01*
X156025058Y-137059689D01*
X156124229Y-136860528D01*
X156185115Y-136646536D01*
X156200500Y-136480503D01*
X156200500Y-135969497D01*
X156185115Y-135803464D01*
X156124229Y-135589472D01*
X156025058Y-135390311D01*
X155890981Y-135212764D01*
X155726562Y-135062876D01*
X155537401Y-134945753D01*
X155329940Y-134865382D01*
X155329939Y-134865381D01*
X155329937Y-134865381D01*
X155111243Y-134824500D01*
X154888757Y-134824500D01*
X154670062Y-134865381D01*
X154593797Y-134894926D01*
X154462599Y-134945753D01*
X154273438Y-135062876D01*
X154109019Y-135212764D01*
X154075560Y-135257071D01*
X153974943Y-135390309D01*
X153974938Y-135390318D01*
X153875772Y-135589469D01*
X153814885Y-135803464D01*
X153804586Y-135914613D01*
X153799500Y-135969497D01*
X153799500Y-136480503D01*
X121500000Y-136480503D01*
X121500000Y-135725000D01*
X141519355Y-135725000D01*
X141539860Y-135893872D01*
X141600182Y-136052930D01*
X141696817Y-136192929D01*
X141824148Y-136305734D01*
X141974775Y-136384790D01*
X142139944Y-136425500D01*
X142139947Y-136425500D01*
X142310053Y-136425500D01*
X142310056Y-136425500D01*
X142475225Y-136384790D01*
X142625852Y-136305734D01*
X142753183Y-136192929D01*
X142849818Y-136052930D01*
X142910140Y-135893872D01*
X142930645Y-135725000D01*
X142910140Y-135556128D01*
X142849818Y-135397070D01*
X142753183Y-135257071D01*
X142703169Y-135212763D01*
X142625853Y-135144267D01*
X142625852Y-135144266D01*
X142475225Y-135065210D01*
X142475224Y-135065209D01*
X142475223Y-135065209D01*
X142310058Y-135024500D01*
X142310056Y-135024500D01*
X142139944Y-135024500D01*
X142139941Y-135024500D01*
X141974776Y-135065209D01*
X141824146Y-135144267D01*
X141696818Y-135257069D01*
X141696816Y-135257071D01*
X141696817Y-135257071D01*
X141600182Y-135397070D01*
X141539860Y-135556128D01*
X141519355Y-135725000D01*
X121500000Y-135725000D01*
X121500000Y-135500001D01*
X121500000Y-135500000D01*
X114500000Y-135500000D01*
X114500000Y-135500001D01*
X114500000Y-143233171D01*
X114481093Y-143291362D01*
X114431593Y-143327326D01*
X114379249Y-143329752D01*
X114256544Y-143302118D01*
X113322920Y-143051954D01*
X112400126Y-142764400D01*
X111489660Y-142439922D01*
X110592997Y-142079047D01*
X109711593Y-141682359D01*
X108846876Y-141250502D01*
X108000250Y-140784177D01*
X107173087Y-140284139D01*
X106366730Y-139751201D01*
X105582486Y-139186227D01*
X104821627Y-138590132D01*
X104817443Y-138586573D01*
X104085388Y-137963884D01*
X103674271Y-137584618D01*
X103374962Y-137308497D01*
X103241465Y-137175000D01*
X109269435Y-137175000D01*
X109289632Y-137354257D01*
X109289633Y-137354261D01*
X109349211Y-137524522D01*
X109349211Y-137524523D01*
X109442033Y-137672248D01*
X109445184Y-137677262D01*
X109572738Y-137804816D01*
X109725478Y-137900789D01*
X109793657Y-137924646D01*
X109895738Y-137960366D01*
X109895742Y-137960367D01*
X109895745Y-137960368D01*
X110075000Y-137980565D01*
X110254255Y-137960368D01*
X110424522Y-137900789D01*
X110577262Y-137804816D01*
X110704816Y-137677262D01*
X110800789Y-137524522D01*
X110859752Y-137356015D01*
X110860366Y-137354261D01*
X110860367Y-137354257D01*
X110860368Y-137354255D01*
X110880565Y-137175000D01*
X110860368Y-136995745D01*
X110800789Y-136825478D01*
X110704816Y-136672738D01*
X110577262Y-136545184D01*
X110577259Y-136545182D01*
X110577258Y-136545181D01*
X110424523Y-136449211D01*
X110254261Y-136389633D01*
X110254257Y-136389632D01*
X110075000Y-136369435D01*
X109895742Y-136389632D01*
X109895738Y-136389633D01*
X109725477Y-136449211D01*
X109725476Y-136449211D01*
X109572741Y-136545181D01*
X109445181Y-136672741D01*
X109349211Y-136825476D01*
X109349211Y-136825477D01*
X109289633Y-136995738D01*
X109289632Y-136995742D01*
X109269435Y-137175000D01*
X103241465Y-137175000D01*
X102691503Y-136625038D01*
X102292870Y-136192929D01*
X102036116Y-135914612D01*
X101409868Y-135178373D01*
X100813773Y-134417514D01*
X100248799Y-133633270D01*
X99715861Y-132826913D01*
X99215823Y-131999750D01*
X98813679Y-131269646D01*
X110299500Y-131269646D01*
X110322061Y-131375788D01*
X110338855Y-131454799D01*
X110338857Y-131454805D01*
X110395100Y-131581129D01*
X110415849Y-131627730D01*
X110441507Y-131663045D01*
X110527111Y-131780870D01*
X110527116Y-131780875D01*
X110593013Y-131840209D01*
X110667784Y-131907533D01*
X110727597Y-131942066D01*
X110831706Y-132002174D01*
X110831711Y-132002176D01*
X110831716Y-132002179D01*
X111011744Y-132060674D01*
X111152808Y-132075500D01*
X111152811Y-132075500D01*
X111847189Y-132075500D01*
X111847192Y-132075500D01*
X111988256Y-132060674D01*
X112168284Y-132002179D01*
X112332216Y-131907533D01*
X112472888Y-131780871D01*
X112548529Y-131676759D01*
X112598027Y-131640797D01*
X112659212Y-131640796D01*
X112702722Y-131669301D01*
X112732403Y-131702804D01*
X112732405Y-131702805D01*
X112872306Y-131799371D01*
X112872309Y-131799373D01*
X113031241Y-131859648D01*
X113031251Y-131859651D01*
X113157648Y-131874999D01*
X113157665Y-131875000D01*
X113399999Y-131875000D01*
X113400000Y-131874999D01*
X113400000Y-131375000D01*
X113599999Y-131375000D01*
X113599999Y-131874999D01*
X113600001Y-131875000D01*
X113842335Y-131875000D01*
X113842351Y-131874999D01*
X113968748Y-131859651D01*
X113968758Y-131859648D01*
X114127690Y-131799373D01*
X114127693Y-131799371D01*
X114267594Y-131702805D01*
X114267595Y-131702805D01*
X114297276Y-131669302D01*
X114350016Y-131638284D01*
X114410915Y-131644188D01*
X114451470Y-131676758D01*
X114527112Y-131780871D01*
X114527115Y-131780873D01*
X114527116Y-131780875D01*
X114593013Y-131840209D01*
X114667784Y-131907533D01*
X114727597Y-131942066D01*
X114831706Y-132002174D01*
X114831711Y-132002176D01*
X114831716Y-132002179D01*
X115011744Y-132060674D01*
X115152808Y-132075500D01*
X115152811Y-132075500D01*
X115847189Y-132075500D01*
X115847192Y-132075500D01*
X115988256Y-132060674D01*
X116168284Y-132002179D01*
X116332216Y-131907533D01*
X116433757Y-131816104D01*
X116489651Y-131791218D01*
X116549500Y-131803939D01*
X116566239Y-131816102D01*
X116667784Y-131907533D01*
X116727597Y-131942066D01*
X116831706Y-132002174D01*
X116831711Y-132002176D01*
X116831716Y-132002179D01*
X117011744Y-132060674D01*
X117152808Y-132075500D01*
X117152811Y-132075500D01*
X117847189Y-132075500D01*
X117847192Y-132075500D01*
X117988256Y-132060674D01*
X118168284Y-132002179D01*
X118332216Y-131907533D01*
X118472888Y-131780871D01*
X118548529Y-131676759D01*
X118598027Y-131640797D01*
X118659212Y-131640796D01*
X118702722Y-131669301D01*
X118732403Y-131702804D01*
X118732405Y-131702805D01*
X118872306Y-131799371D01*
X118872309Y-131799373D01*
X119031241Y-131859648D01*
X119031251Y-131859651D01*
X119157648Y-131874999D01*
X119157665Y-131875000D01*
X119399999Y-131875000D01*
X119400000Y-131874999D01*
X119400000Y-131375000D01*
X119600000Y-131375000D01*
X119600000Y-131874999D01*
X119600001Y-131875000D01*
X119842335Y-131875000D01*
X119842351Y-131874999D01*
X119968748Y-131859651D01*
X119968758Y-131859648D01*
X120127690Y-131799373D01*
X120127693Y-131799371D01*
X120267594Y-131702805D01*
X120267595Y-131702805D01*
X120297276Y-131669302D01*
X120350016Y-131638284D01*
X120410915Y-131644188D01*
X120451470Y-131676758D01*
X120527112Y-131780871D01*
X120527115Y-131780873D01*
X120527116Y-131780875D01*
X120593013Y-131840209D01*
X120667784Y-131907533D01*
X120727597Y-131942066D01*
X120831706Y-132002174D01*
X120831711Y-132002176D01*
X120831716Y-132002179D01*
X121011744Y-132060674D01*
X121152808Y-132075500D01*
X121152811Y-132075500D01*
X121847189Y-132075500D01*
X121847192Y-132075500D01*
X121988256Y-132060674D01*
X122168284Y-132002179D01*
X122332216Y-131907533D01*
X122472888Y-131780871D01*
X122495317Y-131750000D01*
X123544355Y-131750000D01*
X123564860Y-131918872D01*
X123625182Y-132077930D01*
X123721817Y-132217929D01*
X123849148Y-132330734D01*
X123999775Y-132409790D01*
X124164944Y-132450500D01*
X124200638Y-132450500D01*
X124258829Y-132469407D01*
X124294793Y-132518907D01*
X124298916Y-132537566D01*
X124304370Y-132582479D01*
X124314860Y-132668872D01*
X124375182Y-132827930D01*
X124471817Y-132967929D01*
X124599148Y-133080734D01*
X124749775Y-133159790D01*
X124914944Y-133200500D01*
X125008520Y-133200500D01*
X125066711Y-133219407D01*
X125101086Y-133264394D01*
X125125182Y-133327930D01*
X125221817Y-133467929D01*
X125349148Y-133580734D01*
X125499775Y-133659790D01*
X125664944Y-133700500D01*
X125758520Y-133700500D01*
X125816711Y-133719407D01*
X125851086Y-133764394D01*
X125875182Y-133827930D01*
X125971530Y-133967513D01*
X125971816Y-133967927D01*
X125971818Y-133967930D01*
X126009780Y-134001561D01*
X126099148Y-134080734D01*
X126249775Y-134159790D01*
X126414944Y-134200500D01*
X126414947Y-134200500D01*
X126585053Y-134200500D01*
X126585056Y-134200500D01*
X126750225Y-134159790D01*
X126900852Y-134080734D01*
X127028183Y-133967929D01*
X127124818Y-133827930D01*
X127185140Y-133668872D01*
X127205645Y-133500000D01*
X127191832Y-133386242D01*
X141099500Y-133386242D01*
X141135856Y-133580732D01*
X141140382Y-133604940D01*
X141220753Y-133812401D01*
X141337876Y-134001562D01*
X141487764Y-134165981D01*
X141665311Y-134300058D01*
X141864472Y-134399229D01*
X142078464Y-134460115D01*
X142244497Y-134475500D01*
X142244502Y-134475500D01*
X142755498Y-134475500D01*
X142755503Y-134475500D01*
X142921536Y-134460115D01*
X143135528Y-134399229D01*
X143334689Y-134300058D01*
X143512236Y-134165981D01*
X143662124Y-134001562D01*
X143779247Y-133812401D01*
X143859618Y-133604940D01*
X143900500Y-133386243D01*
X143900500Y-133325913D01*
X146296132Y-133325913D01*
X146326930Y-133526941D01*
X146397566Y-133717666D01*
X146505147Y-133890264D01*
X146505152Y-133890270D01*
X146621212Y-134012363D01*
X147046444Y-133587130D01*
X147061955Y-133602641D01*
X147174852Y-133660165D01*
X147245124Y-133671294D01*
X146782932Y-134133487D01*
X146812199Y-134153858D01*
X146999094Y-134234060D01*
X146999097Y-134234061D01*
X147198303Y-134274999D01*
X147198311Y-134275000D01*
X147750714Y-134275000D01*
X147902335Y-134259581D01*
X147902337Y-134259580D01*
X148096391Y-134198696D01*
X148096392Y-134198695D01*
X148215926Y-134132348D01*
X147754873Y-133671295D01*
X147825148Y-133660165D01*
X147938045Y-133602641D01*
X147953554Y-133587132D01*
X148377634Y-134011212D01*
X148428529Y-133967520D01*
X148428536Y-133967513D01*
X148553019Y-133806693D01*
X148553020Y-133806691D01*
X148642586Y-133624097D01*
X148693566Y-133427206D01*
X148693566Y-133427202D01*
X148703866Y-133224085D01*
X148699778Y-133197400D01*
X177645746Y-133197400D01*
X177655746Y-133407330D01*
X177655747Y-133407337D01*
X177705295Y-133611573D01*
X177705300Y-133611586D01*
X177792602Y-133802751D01*
X177792604Y-133802754D01*
X177914511Y-133973949D01*
X177914513Y-133973951D01*
X177914514Y-133973952D01*
X178066622Y-134118986D01*
X178243428Y-134232613D01*
X178438543Y-134310725D01*
X178644915Y-134350500D01*
X178644918Y-134350500D01*
X178802425Y-134350500D01*
X178959218Y-134335528D01*
X179160875Y-134276316D01*
X179347682Y-134180011D01*
X179512886Y-134050092D01*
X179650519Y-133891256D01*
X179755604Y-133709244D01*
X179824344Y-133510633D01*
X179854254Y-133302602D01*
X179844254Y-133092670D01*
X179794704Y-132888424D01*
X179750102Y-132790760D01*
X179707397Y-132697248D01*
X179707395Y-132697245D01*
X179585488Y-132526050D01*
X179577997Y-132518907D01*
X179433378Y-132381014D01*
X179256572Y-132267387D01*
X179256569Y-132267386D01*
X179256568Y-132267385D01*
X179147409Y-132223685D01*
X179061457Y-132189275D01*
X178855085Y-132149500D01*
X178697575Y-132149500D01*
X178540781Y-132164472D01*
X178339120Y-132223685D01*
X178152320Y-132319987D01*
X178152317Y-132319989D01*
X177987113Y-132449907D01*
X177849480Y-132608744D01*
X177744397Y-132790753D01*
X177744394Y-132790760D01*
X177675657Y-132989362D01*
X177675655Y-132989368D01*
X177645746Y-133197393D01*
X177645746Y-133197400D01*
X148699778Y-133197400D01*
X148673069Y-133023058D01*
X148602433Y-132832333D01*
X148494852Y-132659735D01*
X148494847Y-132659729D01*
X148378785Y-132537635D01*
X147953553Y-132962867D01*
X147938045Y-132947359D01*
X147825148Y-132889835D01*
X147754871Y-132878704D01*
X148217066Y-132416510D01*
X148187812Y-132396148D01*
X148187801Y-132396142D01*
X148000905Y-132315939D01*
X148000902Y-132315938D01*
X147801696Y-132275000D01*
X147249286Y-132275000D01*
X147097664Y-132290418D01*
X147097662Y-132290419D01*
X146903609Y-132351303D01*
X146784072Y-132417650D01*
X147245126Y-132878704D01*
X147174852Y-132889835D01*
X147061955Y-132947359D01*
X147046446Y-132962867D01*
X146622364Y-132538786D01*
X146571469Y-132582479D01*
X146571468Y-132582480D01*
X146446980Y-132743306D01*
X146446979Y-132743308D01*
X146357413Y-132925902D01*
X146306433Y-133122793D01*
X146306433Y-133122797D01*
X146296133Y-133325910D01*
X146296132Y-133325913D01*
X143900500Y-133325913D01*
X143900500Y-133163757D01*
X143859618Y-132945060D01*
X143779247Y-132737599D01*
X143662124Y-132548438D01*
X143512236Y-132384019D01*
X143334689Y-132249942D01*
X143274258Y-132219851D01*
X143135530Y-132150772D01*
X143135528Y-132150771D01*
X142921536Y-132089885D01*
X142865375Y-132084681D01*
X142755505Y-132074500D01*
X142755503Y-132074500D01*
X142244497Y-132074500D01*
X142244494Y-132074500D01*
X142078464Y-132089885D01*
X141864472Y-132150771D01*
X141864471Y-132150771D01*
X141864469Y-132150772D01*
X141665318Y-132249938D01*
X141665309Y-132249943D01*
X141558325Y-132330734D01*
X141487764Y-132384019D01*
X141337876Y-132548438D01*
X141220753Y-132737599D01*
X141185759Y-132827929D01*
X141140381Y-132945062D01*
X141099500Y-133163757D01*
X141099500Y-133386242D01*
X127191832Y-133386242D01*
X127185140Y-133331128D01*
X127124818Y-133172070D01*
X127028183Y-133032071D01*
X127018009Y-133023058D01*
X126929970Y-132945062D01*
X126900852Y-132919266D01*
X126750225Y-132840210D01*
X126750224Y-132840209D01*
X126750223Y-132840209D01*
X126585058Y-132799500D01*
X126585056Y-132799500D01*
X126491480Y-132799500D01*
X126433289Y-132780593D01*
X126398913Y-132735605D01*
X126374818Y-132672070D01*
X126278183Y-132532071D01*
X126274995Y-132529247D01*
X126150853Y-132419267D01*
X126150852Y-132419266D01*
X126000225Y-132340210D01*
X126000224Y-132340209D01*
X126000223Y-132340209D01*
X125835058Y-132299500D01*
X125835056Y-132299500D01*
X125741480Y-132299500D01*
X125683289Y-132280593D01*
X125648913Y-132235605D01*
X125624818Y-132172070D01*
X125528183Y-132032071D01*
X125400852Y-131919266D01*
X125250225Y-131840210D01*
X125250224Y-131840209D01*
X125250223Y-131840209D01*
X125085058Y-131799500D01*
X125085056Y-131799500D01*
X125049362Y-131799500D01*
X124991171Y-131780593D01*
X124955207Y-131731093D01*
X124951084Y-131712434D01*
X124946118Y-131671536D01*
X124935140Y-131581128D01*
X124895162Y-131475713D01*
X154000000Y-131475713D01*
X154015418Y-131627335D01*
X154015419Y-131627337D01*
X154076302Y-131821387D01*
X154142650Y-131940926D01*
X154603704Y-131479871D01*
X154614835Y-131550148D01*
X154672359Y-131663045D01*
X154687866Y-131678552D01*
X154263786Y-132102632D01*
X154263786Y-132102634D01*
X154307482Y-132153533D01*
X154468306Y-132278019D01*
X154468308Y-132278020D01*
X154650902Y-132367586D01*
X154847795Y-132418566D01*
X155050914Y-132428866D01*
X155251941Y-132398069D01*
X155442666Y-132327433D01*
X155615263Y-132219853D01*
X155615265Y-132219851D01*
X155737364Y-132103786D01*
X155312132Y-131678554D01*
X155327641Y-131663045D01*
X155385165Y-131550148D01*
X155396295Y-131479873D01*
X155858488Y-131942066D01*
X155878856Y-131912805D01*
X155959060Y-131725905D01*
X155959061Y-131725902D01*
X155999999Y-131526696D01*
X156000000Y-131526688D01*
X156000000Y-131475713D01*
X166500000Y-131475713D01*
X166515418Y-131627335D01*
X166515419Y-131627337D01*
X166576302Y-131821387D01*
X166642650Y-131940926D01*
X167103704Y-131479871D01*
X167114835Y-131550148D01*
X167172359Y-131663045D01*
X167187866Y-131678552D01*
X166763786Y-132102632D01*
X166763786Y-132102634D01*
X166807482Y-132153533D01*
X166968306Y-132278019D01*
X166968308Y-132278020D01*
X167150902Y-132367586D01*
X167347795Y-132418566D01*
X167550914Y-132428866D01*
X167751941Y-132398069D01*
X167942666Y-132327433D01*
X168115263Y-132219853D01*
X168115265Y-132219851D01*
X168237364Y-132103786D01*
X167812132Y-131678554D01*
X167827641Y-131663045D01*
X167885165Y-131550148D01*
X167896295Y-131479873D01*
X168358488Y-131942066D01*
X168378856Y-131912805D01*
X168459060Y-131725905D01*
X168459061Y-131725902D01*
X168499999Y-131526696D01*
X168500000Y-131526688D01*
X168500000Y-131505503D01*
X171299500Y-131505503D01*
X171314885Y-131671536D01*
X171375771Y-131885528D01*
X171474942Y-132084689D01*
X171609019Y-132262236D01*
X171773438Y-132412124D01*
X171962599Y-132529247D01*
X172170060Y-132609618D01*
X172388757Y-132650500D01*
X172611243Y-132650500D01*
X172829940Y-132609618D01*
X173037401Y-132529247D01*
X173226562Y-132412124D01*
X173390981Y-132262236D01*
X173525058Y-132084689D01*
X173624229Y-131885528D01*
X173685115Y-131671536D01*
X173700500Y-131505503D01*
X183799500Y-131505503D01*
X183814885Y-131671536D01*
X183875771Y-131885528D01*
X183974942Y-132084689D01*
X184109019Y-132262236D01*
X184273438Y-132412124D01*
X184462599Y-132529247D01*
X184670060Y-132609618D01*
X184888757Y-132650500D01*
X185111243Y-132650500D01*
X185329940Y-132609618D01*
X185537401Y-132529247D01*
X185726562Y-132412124D01*
X185890981Y-132262236D01*
X186025058Y-132084689D01*
X186124229Y-131885528D01*
X186185115Y-131671536D01*
X186200500Y-131505503D01*
X186200500Y-130994497D01*
X186185115Y-130828464D01*
X186124229Y-130614472D01*
X186025058Y-130415311D01*
X185890981Y-130237764D01*
X185726562Y-130087876D01*
X185537401Y-129970753D01*
X185329940Y-129890382D01*
X185329939Y-129890381D01*
X185329937Y-129890381D01*
X185111243Y-129849500D01*
X184888757Y-129849500D01*
X184670062Y-129890381D01*
X184593797Y-129919926D01*
X184462599Y-129970753D01*
X184273438Y-130087876D01*
X184109019Y-130237764D01*
X184070775Y-130288407D01*
X183974943Y-130415309D01*
X183974938Y-130415318D01*
X183898349Y-130569129D01*
X183875771Y-130614472D01*
X183859051Y-130673238D01*
X183814885Y-130828464D01*
X183799591Y-130993519D01*
X183799500Y-130994497D01*
X183799500Y-131505503D01*
X173700500Y-131505503D01*
X173700500Y-130994497D01*
X173685115Y-130828464D01*
X173624229Y-130614472D01*
X173525058Y-130415311D01*
X173390981Y-130237764D01*
X173226562Y-130087876D01*
X173037401Y-129970753D01*
X172829940Y-129890382D01*
X172829939Y-129890381D01*
X172829937Y-129890381D01*
X172611243Y-129849500D01*
X172388757Y-129849500D01*
X172170062Y-129890381D01*
X172093797Y-129919926D01*
X171962599Y-129970753D01*
X171773438Y-130087876D01*
X171609019Y-130237764D01*
X171570775Y-130288407D01*
X171474943Y-130415309D01*
X171474938Y-130415318D01*
X171398349Y-130569129D01*
X171375771Y-130614472D01*
X171359051Y-130673238D01*
X171314885Y-130828464D01*
X171299591Y-130993519D01*
X171299500Y-130994497D01*
X171299500Y-131505503D01*
X168500000Y-131505503D01*
X168500000Y-130974286D01*
X168484581Y-130822664D01*
X168484580Y-130822662D01*
X168423696Y-130628608D01*
X168423695Y-130628607D01*
X168357348Y-130509072D01*
X167896294Y-130970125D01*
X167885165Y-130899852D01*
X167827641Y-130786955D01*
X167812131Y-130771445D01*
X168236212Y-130347364D01*
X168236212Y-130347363D01*
X168192524Y-130296472D01*
X168192520Y-130296468D01*
X168031693Y-130171980D01*
X168031691Y-130171979D01*
X167849097Y-130082413D01*
X167652204Y-130031433D01*
X167449085Y-130021133D01*
X167248058Y-130051930D01*
X167057333Y-130122566D01*
X166884735Y-130230147D01*
X166884734Y-130230148D01*
X166762634Y-130346212D01*
X167187868Y-130771446D01*
X167172359Y-130786955D01*
X167114835Y-130899852D01*
X167103704Y-130970126D01*
X166641510Y-130507932D01*
X166621143Y-130537196D01*
X166540939Y-130724094D01*
X166540938Y-130724097D01*
X166500000Y-130923303D01*
X166500000Y-131475713D01*
X156000000Y-131475713D01*
X156000000Y-130974286D01*
X155984581Y-130822664D01*
X155984580Y-130822662D01*
X155923696Y-130628608D01*
X155923695Y-130628607D01*
X155857348Y-130509072D01*
X155396294Y-130970125D01*
X155385165Y-130899852D01*
X155327641Y-130786955D01*
X155312130Y-130771444D01*
X155736212Y-130347364D01*
X155736212Y-130347363D01*
X155692524Y-130296472D01*
X155692520Y-130296468D01*
X155531693Y-130171980D01*
X155531691Y-130171979D01*
X155349097Y-130082413D01*
X155152204Y-130031433D01*
X154949085Y-130021133D01*
X154748058Y-130051930D01*
X154557333Y-130122566D01*
X154384735Y-130230147D01*
X154384734Y-130230148D01*
X154262634Y-130346212D01*
X154687868Y-130771446D01*
X154672359Y-130786955D01*
X154614835Y-130899852D01*
X154603704Y-130970126D01*
X154141510Y-130507932D01*
X154121143Y-130537196D01*
X154040939Y-130724094D01*
X154040938Y-130724097D01*
X154000000Y-130923303D01*
X154000000Y-131475713D01*
X124895162Y-131475713D01*
X124874818Y-131422070D01*
X124790559Y-131300000D01*
X128800000Y-131300000D01*
X128800001Y-131300000D01*
X130124999Y-131300000D01*
X130125000Y-131300000D01*
X130125000Y-131065903D01*
X130143907Y-131007713D01*
X130193407Y-130971749D01*
X130254593Y-130971749D01*
X130304093Y-131007713D01*
X130307826Y-131013233D01*
X130340921Y-131065904D01*
X130395184Y-131152262D01*
X130522738Y-131279816D01*
X130522740Y-131279817D01*
X130522741Y-131279818D01*
X130650074Y-131359827D01*
X130675478Y-131375789D01*
X130743657Y-131399646D01*
X130845738Y-131435366D01*
X130845742Y-131435367D01*
X130845745Y-131435368D01*
X131025000Y-131455565D01*
X131204255Y-131435368D01*
X131374522Y-131375789D01*
X131527262Y-131279816D01*
X131654816Y-131152262D01*
X131750789Y-130999522D01*
X131810368Y-130829255D01*
X131830565Y-130650000D01*
X131810368Y-130470745D01*
X131800472Y-130442465D01*
X131767195Y-130347364D01*
X131750789Y-130300478D01*
X131748269Y-130296468D01*
X131654818Y-130147741D01*
X131654817Y-130147740D01*
X131654816Y-130147738D01*
X131527262Y-130020184D01*
X131527259Y-130020182D01*
X131527258Y-130020181D01*
X131374523Y-129924211D01*
X131204261Y-129864633D01*
X131204257Y-129864632D01*
X131025000Y-129844435D01*
X130845742Y-129864632D01*
X130845738Y-129864633D01*
X130675477Y-129924211D01*
X130675476Y-129924211D01*
X130522741Y-130020181D01*
X130395181Y-130147741D01*
X130307826Y-130286766D01*
X130260857Y-130325979D01*
X130199810Y-130330094D01*
X130148003Y-130297541D01*
X130125224Y-130240754D01*
X130125000Y-130234095D01*
X130125000Y-130000001D01*
X130125000Y-130000000D01*
X128800000Y-130000000D01*
X128800000Y-131300000D01*
X124790559Y-131300000D01*
X124778183Y-131282071D01*
X124650852Y-131169266D01*
X124500225Y-131090210D01*
X124500224Y-131090209D01*
X124500223Y-131090209D01*
X124335058Y-131049500D01*
X124335056Y-131049500D01*
X124164944Y-131049500D01*
X124164941Y-131049500D01*
X123999776Y-131090209D01*
X123849146Y-131169267D01*
X123721818Y-131282069D01*
X123721816Y-131282072D01*
X123663594Y-131366421D01*
X123625182Y-131422070D01*
X123593541Y-131505503D01*
X123564860Y-131581129D01*
X123545138Y-131743554D01*
X123544355Y-131750000D01*
X122495317Y-131750000D01*
X122584151Y-131627730D01*
X122661144Y-131454803D01*
X122700500Y-131269646D01*
X122700500Y-131080354D01*
X122661144Y-130895197D01*
X122584151Y-130722270D01*
X122472888Y-130569129D01*
X122472884Y-130569125D01*
X122472883Y-130569124D01*
X122332218Y-130442469D01*
X122332216Y-130442467D01*
X122298525Y-130423015D01*
X122168293Y-130347825D01*
X122168279Y-130347819D01*
X121988261Y-130289327D01*
X121988258Y-130289326D01*
X121988256Y-130289326D01*
X121872773Y-130277188D01*
X121847193Y-130274500D01*
X121847192Y-130274500D01*
X121152808Y-130274500D01*
X121152806Y-130274500D01*
X121101644Y-130279877D01*
X121011744Y-130289326D01*
X121011742Y-130289326D01*
X121011738Y-130289327D01*
X120831720Y-130347819D01*
X120831706Y-130347825D01*
X120667787Y-130442465D01*
X120667781Y-130442469D01*
X120527116Y-130569124D01*
X120527115Y-130569125D01*
X120527112Y-130569128D01*
X120527112Y-130569129D01*
X120494171Y-130614469D01*
X120451472Y-130673239D01*
X120401971Y-130709203D01*
X120340786Y-130709203D01*
X120297277Y-130680698D01*
X120267596Y-130647195D01*
X120267594Y-130647194D01*
X120127693Y-130550628D01*
X120127690Y-130550626D01*
X119968758Y-130490351D01*
X119968748Y-130490348D01*
X119842351Y-130475000D01*
X119600001Y-130475000D01*
X119600000Y-130475001D01*
X119600000Y-130975000D01*
X119400000Y-130975000D01*
X119400000Y-130475001D01*
X119399999Y-130475000D01*
X119157648Y-130475000D01*
X119031251Y-130490348D01*
X119031241Y-130490351D01*
X118872309Y-130550626D01*
X118872306Y-130550628D01*
X118732405Y-130647194D01*
X118732402Y-130647196D01*
X118702721Y-130680699D01*
X118649981Y-130711716D01*
X118589081Y-130705810D01*
X118548527Y-130673238D01*
X118529606Y-130647196D01*
X118472888Y-130569129D01*
X118472884Y-130569125D01*
X118472883Y-130569124D01*
X118332218Y-130442469D01*
X118332216Y-130442467D01*
X118298525Y-130423015D01*
X118168293Y-130347825D01*
X118168279Y-130347819D01*
X117988261Y-130289327D01*
X117988258Y-130289326D01*
X117988256Y-130289326D01*
X117872773Y-130277188D01*
X117847193Y-130274500D01*
X117847192Y-130274500D01*
X117152808Y-130274500D01*
X117152806Y-130274500D01*
X117101644Y-130279877D01*
X117011744Y-130289326D01*
X117011742Y-130289326D01*
X117011738Y-130289327D01*
X116831720Y-130347819D01*
X116831706Y-130347825D01*
X116667787Y-130442465D01*
X116667786Y-130442465D01*
X116566244Y-130533894D01*
X116510348Y-130558780D01*
X116450500Y-130546058D01*
X116433756Y-130533894D01*
X116385396Y-130490351D01*
X116332216Y-130442467D01*
X116298525Y-130423015D01*
X116168293Y-130347825D01*
X116168279Y-130347819D01*
X115988261Y-130289327D01*
X115988258Y-130289326D01*
X115988256Y-130289326D01*
X115872773Y-130277188D01*
X115847193Y-130274500D01*
X115847192Y-130274500D01*
X115152808Y-130274500D01*
X115152806Y-130274500D01*
X115101644Y-130279877D01*
X115011744Y-130289326D01*
X115011742Y-130289326D01*
X115011738Y-130289327D01*
X114831720Y-130347819D01*
X114831706Y-130347825D01*
X114667787Y-130442465D01*
X114667781Y-130442469D01*
X114527116Y-130569124D01*
X114527115Y-130569125D01*
X114527112Y-130569128D01*
X114527112Y-130569129D01*
X114494171Y-130614469D01*
X114451472Y-130673239D01*
X114401971Y-130709203D01*
X114340786Y-130709203D01*
X114297277Y-130680698D01*
X114267596Y-130647195D01*
X114267594Y-130647194D01*
X114127693Y-130550628D01*
X114127690Y-130550626D01*
X113968758Y-130490351D01*
X113968748Y-130490348D01*
X113842351Y-130475000D01*
X113600001Y-130475000D01*
X113599999Y-130475001D01*
X113599999Y-130975000D01*
X113400000Y-130975000D01*
X113400000Y-130475001D01*
X113399999Y-130475000D01*
X113157648Y-130475000D01*
X113031251Y-130490348D01*
X113031241Y-130490351D01*
X112872309Y-130550626D01*
X112872306Y-130550628D01*
X112732405Y-130647194D01*
X112732402Y-130647196D01*
X112702721Y-130680699D01*
X112649981Y-130711716D01*
X112589081Y-130705810D01*
X112548527Y-130673238D01*
X112529606Y-130647196D01*
X112472888Y-130569129D01*
X112472884Y-130569125D01*
X112472883Y-130569124D01*
X112332218Y-130442469D01*
X112332216Y-130442467D01*
X112298525Y-130423015D01*
X112168293Y-130347825D01*
X112168279Y-130347819D01*
X111988261Y-130289327D01*
X111988258Y-130289326D01*
X111988256Y-130289326D01*
X111872773Y-130277188D01*
X111847193Y-130274500D01*
X111847192Y-130274500D01*
X111152808Y-130274500D01*
X111152806Y-130274500D01*
X111101644Y-130279877D01*
X111011744Y-130289326D01*
X111011742Y-130289326D01*
X111011738Y-130289327D01*
X110831720Y-130347819D01*
X110831706Y-130347825D01*
X110667787Y-130442465D01*
X110667781Y-130442469D01*
X110527116Y-130569124D01*
X110527111Y-130569129D01*
X110415850Y-130722268D01*
X110415845Y-130722277D01*
X110338857Y-130895194D01*
X110338855Y-130895200D01*
X110332882Y-130923303D01*
X110299500Y-131080354D01*
X110299500Y-131269646D01*
X98813679Y-131269646D01*
X98749498Y-131153124D01*
X98317641Y-130288407D01*
X97920953Y-129407003D01*
X97826534Y-129172400D01*
X160145746Y-129172400D01*
X160155746Y-129382330D01*
X160155747Y-129382337D01*
X160205295Y-129586573D01*
X160205300Y-129586586D01*
X160292602Y-129777751D01*
X160292604Y-129777754D01*
X160414511Y-129948949D01*
X160414513Y-129948951D01*
X160414514Y-129948952D01*
X160566622Y-130093986D01*
X160743428Y-130207613D01*
X160938543Y-130285725D01*
X161144915Y-130325500D01*
X161144918Y-130325500D01*
X161302425Y-130325500D01*
X161459218Y-130310528D01*
X161660875Y-130251316D01*
X161847682Y-130155011D01*
X162012886Y-130025092D01*
X162150519Y-129866256D01*
X162255604Y-129684244D01*
X162324344Y-129485633D01*
X162354254Y-129277602D01*
X162344254Y-129067670D01*
X162294704Y-128863424D01*
X162250102Y-128765760D01*
X162207397Y-128672248D01*
X162207395Y-128672245D01*
X162085488Y-128501050D01*
X162005631Y-128424907D01*
X161933378Y-128356014D01*
X161756572Y-128242387D01*
X161756569Y-128242386D01*
X161756568Y-128242385D01*
X161647409Y-128198685D01*
X161561457Y-128164275D01*
X161355085Y-128124500D01*
X161197575Y-128124500D01*
X161040781Y-128139472D01*
X160839120Y-128198685D01*
X160652320Y-128294987D01*
X160652317Y-128294989D01*
X160487113Y-128424907D01*
X160349480Y-128583744D01*
X160244397Y-128765753D01*
X160244394Y-128765760D01*
X160175657Y-128964362D01*
X160175655Y-128964368D01*
X160145746Y-129172393D01*
X160145746Y-129172400D01*
X97826534Y-129172400D01*
X97560078Y-128510340D01*
X97235600Y-127599874D01*
X97056462Y-127025001D01*
X137494859Y-127025001D01*
X137515348Y-127193749D01*
X137515351Y-127193758D01*
X137575626Y-127352688D01*
X137575630Y-127352696D01*
X137639029Y-127444547D01*
X137891245Y-127192331D01*
X137938936Y-127265327D01*
X138030121Y-127336299D01*
X137779108Y-127587313D01*
X137799434Y-127605319D01*
X137799438Y-127605322D01*
X137949952Y-127684317D01*
X137949955Y-127684318D01*
X138115002Y-127724999D01*
X138115008Y-127725000D01*
X138284992Y-127725000D01*
X138284997Y-127724999D01*
X138450044Y-127684318D01*
X138450047Y-127684317D01*
X138600565Y-127605320D01*
X138600566Y-127605319D01*
X138620890Y-127587313D01*
X138620890Y-127587312D01*
X138366460Y-127332881D01*
X138417947Y-127305019D01*
X138497060Y-127219079D01*
X138508780Y-127192357D01*
X138760969Y-127444546D01*
X138824371Y-127352693D01*
X138824373Y-127352690D01*
X138884648Y-127193758D01*
X138884651Y-127193749D01*
X138905141Y-127025001D01*
X138905141Y-127024998D01*
X138898754Y-126972400D01*
X139395746Y-126972400D01*
X139405746Y-127182330D01*
X139405747Y-127182337D01*
X139455295Y-127386573D01*
X139455300Y-127386586D01*
X139542602Y-127577751D01*
X139542604Y-127577754D01*
X139664511Y-127748949D01*
X139664513Y-127748951D01*
X139664514Y-127748952D01*
X139816622Y-127893986D01*
X139993428Y-128007613D01*
X140188543Y-128085725D01*
X140394915Y-128125500D01*
X140394918Y-128125500D01*
X140552425Y-128125500D01*
X140709218Y-128110528D01*
X140910875Y-128051316D01*
X141097682Y-127955011D01*
X141262886Y-127825092D01*
X141400519Y-127666256D01*
X141505604Y-127484244D01*
X141574344Y-127285633D01*
X141604254Y-127077602D01*
X141599243Y-126972400D01*
X148395746Y-126972400D01*
X148405746Y-127182330D01*
X148405747Y-127182337D01*
X148455295Y-127386573D01*
X148455300Y-127386586D01*
X148542602Y-127577751D01*
X148542604Y-127577754D01*
X148664511Y-127748949D01*
X148664513Y-127748951D01*
X148664514Y-127748952D01*
X148816622Y-127893986D01*
X148993428Y-128007613D01*
X149188543Y-128085725D01*
X149394915Y-128125500D01*
X149394918Y-128125500D01*
X149552425Y-128125500D01*
X149709218Y-128110528D01*
X149910875Y-128051316D01*
X150097682Y-127955011D01*
X150262886Y-127825092D01*
X150400519Y-127666256D01*
X150505604Y-127484244D01*
X150574344Y-127285633D01*
X150604254Y-127077602D01*
X150601748Y-127025000D01*
X150894540Y-127025000D01*
X150911076Y-127182337D01*
X150914327Y-127213261D01*
X150972819Y-127393279D01*
X150972825Y-127393293D01*
X151048015Y-127523525D01*
X151067467Y-127557216D01*
X151067469Y-127557218D01*
X151181909Y-127684317D01*
X151194129Y-127697888D01*
X151347270Y-127809151D01*
X151520197Y-127886144D01*
X151705354Y-127925500D01*
X151705357Y-127925500D01*
X151894643Y-127925500D01*
X151894646Y-127925500D01*
X152079803Y-127886144D01*
X152252730Y-127809151D01*
X152405871Y-127697888D01*
X152532533Y-127557216D01*
X152627179Y-127393284D01*
X152685674Y-127213256D01*
X152705460Y-127025000D01*
X152685674Y-126836744D01*
X152627179Y-126656716D01*
X152627176Y-126656711D01*
X152627174Y-126656706D01*
X152566541Y-126551688D01*
X152537111Y-126500713D01*
X171500000Y-126500713D01*
X171515418Y-126652335D01*
X171515419Y-126652337D01*
X171576302Y-126846387D01*
X171642650Y-126965926D01*
X172103704Y-126504871D01*
X172114835Y-126575148D01*
X172172359Y-126688045D01*
X172187866Y-126703552D01*
X171763786Y-127127632D01*
X171763786Y-127127634D01*
X171807482Y-127178533D01*
X171968306Y-127303019D01*
X171968308Y-127303020D01*
X172150902Y-127392586D01*
X172347795Y-127443566D01*
X172550914Y-127453866D01*
X172751941Y-127423069D01*
X172942666Y-127352433D01*
X173115263Y-127244853D01*
X173115265Y-127244851D01*
X173237364Y-127128786D01*
X172812131Y-126703553D01*
X172827641Y-126688045D01*
X172885165Y-126575148D01*
X172896295Y-126504873D01*
X173358488Y-126967066D01*
X173378856Y-126937805D01*
X173459060Y-126750905D01*
X173459061Y-126750902D01*
X173499999Y-126551696D01*
X173500000Y-126551688D01*
X173500000Y-126500713D01*
X184000000Y-126500713D01*
X184015418Y-126652335D01*
X184015419Y-126652337D01*
X184076302Y-126846387D01*
X184142650Y-126965926D01*
X184603704Y-126504871D01*
X184614835Y-126575148D01*
X184672359Y-126688045D01*
X184687866Y-126703552D01*
X184263786Y-127127632D01*
X184263786Y-127127634D01*
X184307482Y-127178533D01*
X184468306Y-127303019D01*
X184468308Y-127303020D01*
X184650902Y-127392586D01*
X184847795Y-127443566D01*
X185050914Y-127453866D01*
X185251941Y-127423069D01*
X185442666Y-127352433D01*
X185615263Y-127244853D01*
X185615265Y-127244851D01*
X185737364Y-127128786D01*
X185312132Y-126703554D01*
X185327641Y-126688045D01*
X185385165Y-126575148D01*
X185396295Y-126504873D01*
X185858488Y-126967066D01*
X185878856Y-126937805D01*
X185959060Y-126750905D01*
X185959061Y-126750902D01*
X185999999Y-126551696D01*
X186000000Y-126551688D01*
X186000000Y-125999286D01*
X185984581Y-125847664D01*
X185984580Y-125847662D01*
X185923696Y-125653608D01*
X185923695Y-125653607D01*
X185857348Y-125534072D01*
X185396294Y-125995125D01*
X185385165Y-125924852D01*
X185327641Y-125811955D01*
X185312131Y-125796445D01*
X185736212Y-125372364D01*
X185736212Y-125372363D01*
X185692524Y-125321472D01*
X185692520Y-125321468D01*
X185531693Y-125196980D01*
X185531691Y-125196979D01*
X185349097Y-125107413D01*
X185152204Y-125056433D01*
X184949085Y-125046133D01*
X184748058Y-125076930D01*
X184557333Y-125147566D01*
X184384735Y-125255147D01*
X184384734Y-125255148D01*
X184262634Y-125371212D01*
X184687868Y-125796446D01*
X184672359Y-125811955D01*
X184614835Y-125924852D01*
X184603704Y-125995126D01*
X184141510Y-125532932D01*
X184121143Y-125562196D01*
X184040939Y-125749094D01*
X184040938Y-125749097D01*
X184000000Y-125948303D01*
X184000000Y-126500713D01*
X173500000Y-126500713D01*
X173500000Y-125999286D01*
X173484581Y-125847664D01*
X173484580Y-125847662D01*
X173423696Y-125653608D01*
X173423695Y-125653607D01*
X173357348Y-125534072D01*
X172896294Y-125995125D01*
X172885165Y-125924852D01*
X172827641Y-125811955D01*
X172812131Y-125796444D01*
X173236212Y-125372364D01*
X173236212Y-125372363D01*
X173192524Y-125321472D01*
X173192520Y-125321468D01*
X173031693Y-125196980D01*
X173031691Y-125196979D01*
X172849097Y-125107413D01*
X172652204Y-125056433D01*
X172449085Y-125046133D01*
X172248058Y-125076930D01*
X172057333Y-125147566D01*
X171884735Y-125255147D01*
X171884734Y-125255148D01*
X171762634Y-125371212D01*
X172187868Y-125796446D01*
X172172359Y-125811955D01*
X172114835Y-125924852D01*
X172103704Y-125995126D01*
X171641510Y-125532932D01*
X171621143Y-125562196D01*
X171540939Y-125749094D01*
X171540938Y-125749097D01*
X171500000Y-125948303D01*
X171500000Y-126500713D01*
X152537111Y-126500713D01*
X152532533Y-126492784D01*
X152478249Y-126432495D01*
X152405875Y-126352116D01*
X152405870Y-126352111D01*
X152273999Y-126256302D01*
X152252730Y-126240849D01*
X152252725Y-126240847D01*
X152252722Y-126240845D01*
X152079805Y-126163857D01*
X152079803Y-126163856D01*
X152079800Y-126163855D01*
X152079799Y-126163855D01*
X152042909Y-126156014D01*
X151894646Y-126124500D01*
X151705354Y-126124500D01*
X151587289Y-126149595D01*
X151520200Y-126163855D01*
X151520194Y-126163857D01*
X151347277Y-126240845D01*
X151347268Y-126240850D01*
X151194129Y-126352111D01*
X151194124Y-126352116D01*
X151067469Y-126492781D01*
X151067465Y-126492787D01*
X150972825Y-126656706D01*
X150972819Y-126656720D01*
X150914327Y-126836738D01*
X150914326Y-126836742D01*
X150914326Y-126836744D01*
X150894540Y-127025000D01*
X150601748Y-127025000D01*
X150594254Y-126867670D01*
X150544704Y-126663424D01*
X150539640Y-126652335D01*
X150457397Y-126472248D01*
X150457395Y-126472245D01*
X150335488Y-126301050D01*
X150334635Y-126300237D01*
X150183378Y-126156014D01*
X150006572Y-126042387D01*
X150006569Y-126042386D01*
X150006568Y-126042385D01*
X149941713Y-126016421D01*
X149811457Y-125964275D01*
X149605085Y-125924500D01*
X149447575Y-125924500D01*
X149290781Y-125939472D01*
X149089120Y-125998685D01*
X148902320Y-126094987D01*
X148902317Y-126094989D01*
X148737113Y-126224907D01*
X148599480Y-126383744D01*
X148494397Y-126565753D01*
X148494394Y-126565760D01*
X148425657Y-126764362D01*
X148425655Y-126764368D01*
X148395746Y-126972393D01*
X148395746Y-126972400D01*
X141599243Y-126972400D01*
X141594254Y-126867670D01*
X141544704Y-126663424D01*
X141539640Y-126652335D01*
X141457397Y-126472248D01*
X141457395Y-126472245D01*
X141335488Y-126301050D01*
X141334635Y-126300237D01*
X141183378Y-126156014D01*
X141006572Y-126042387D01*
X141006569Y-126042386D01*
X141006568Y-126042385D01*
X140941713Y-126016421D01*
X140811457Y-125964275D01*
X140605085Y-125924500D01*
X140447575Y-125924500D01*
X140290781Y-125939472D01*
X140089120Y-125998685D01*
X139902320Y-126094987D01*
X139902317Y-126094989D01*
X139737113Y-126224907D01*
X139599480Y-126383744D01*
X139494397Y-126565753D01*
X139494394Y-126565760D01*
X139425657Y-126764362D01*
X139425655Y-126764368D01*
X139395746Y-126972393D01*
X139395746Y-126972400D01*
X138898754Y-126972400D01*
X138884651Y-126856250D01*
X138884648Y-126856241D01*
X138824371Y-126697305D01*
X138824371Y-126697304D01*
X138760970Y-126605451D01*
X138760969Y-126605451D01*
X138508753Y-126857666D01*
X138461064Y-126784673D01*
X138369876Y-126713700D01*
X138620891Y-126462686D01*
X138600564Y-126444678D01*
X138450042Y-126365680D01*
X138284997Y-126325000D01*
X138115002Y-126325000D01*
X137949955Y-126365681D01*
X137949952Y-126365682D01*
X137799439Y-126444676D01*
X137799430Y-126444682D01*
X137779108Y-126462685D01*
X138033540Y-126717117D01*
X137982053Y-126744981D01*
X137902940Y-126830921D01*
X137891219Y-126857642D01*
X137639028Y-126605451D01*
X137575632Y-126697298D01*
X137575626Y-126697311D01*
X137515351Y-126856241D01*
X137515348Y-126856250D01*
X137494859Y-127024998D01*
X137494859Y-127025001D01*
X97056462Y-127025001D01*
X96948046Y-126677080D01*
X96697882Y-125743456D01*
X96681098Y-125668931D01*
X122995668Y-125668931D01*
X123026133Y-125841707D01*
X123095622Y-126002802D01*
X123095623Y-126002804D01*
X123200389Y-126143529D01*
X123200391Y-126143531D01*
X123334783Y-126256300D01*
X123334784Y-126256300D01*
X123334786Y-126256302D01*
X123491567Y-126335040D01*
X123491572Y-126335041D01*
X123491576Y-126335043D01*
X123662277Y-126375500D01*
X123662279Y-126375500D01*
X123793704Y-126375500D01*
X123793709Y-126375500D01*
X123924255Y-126360241D01*
X124089117Y-126300237D01*
X124235696Y-126203830D01*
X124356092Y-126076218D01*
X124443812Y-125924281D01*
X124494130Y-125756210D01*
X124504331Y-125581065D01*
X124473865Y-125408289D01*
X124404377Y-125247196D01*
X124369241Y-125200000D01*
X157994435Y-125200000D01*
X158014632Y-125379257D01*
X158014633Y-125379261D01*
X158074211Y-125549522D01*
X158074211Y-125549523D01*
X158149243Y-125668935D01*
X158170184Y-125702262D01*
X158297738Y-125829816D01*
X158297740Y-125829817D01*
X158297741Y-125829818D01*
X158448986Y-125924852D01*
X158450478Y-125925789D01*
X158489582Y-125939472D01*
X158620738Y-125985366D01*
X158620742Y-125985367D01*
X158620745Y-125985368D01*
X158800000Y-126005565D01*
X158979255Y-125985368D01*
X159149522Y-125925789D01*
X159302262Y-125829816D01*
X159429816Y-125702262D01*
X159525789Y-125549522D01*
X159585368Y-125379255D01*
X159605565Y-125200000D01*
X159585368Y-125020745D01*
X159568994Y-124973952D01*
X159544803Y-124904818D01*
X159525789Y-124850478D01*
X159495801Y-124802753D01*
X159429818Y-124697741D01*
X159429817Y-124697740D01*
X159429816Y-124697738D01*
X159302262Y-124570184D01*
X159302259Y-124570182D01*
X159302258Y-124570181D01*
X159149523Y-124474211D01*
X158979261Y-124414633D01*
X158979257Y-124414632D01*
X158800000Y-124394435D01*
X158620742Y-124414632D01*
X158620738Y-124414633D01*
X158450477Y-124474211D01*
X158450476Y-124474211D01*
X158297741Y-124570181D01*
X158170181Y-124697741D01*
X158074211Y-124850476D01*
X158074211Y-124850477D01*
X158014633Y-125020738D01*
X158014632Y-125020742D01*
X157994435Y-125200000D01*
X124369241Y-125200000D01*
X124299610Y-125106470D01*
X124264406Y-125076930D01*
X124165216Y-124993699D01*
X124125890Y-124973949D01*
X124008433Y-124914960D01*
X124008429Y-124914959D01*
X124008423Y-124914956D01*
X123837723Y-124874500D01*
X123837721Y-124874500D01*
X123706291Y-124874500D01*
X123575745Y-124889759D01*
X123575742Y-124889759D01*
X123575741Y-124889760D01*
X123410883Y-124949762D01*
X123264306Y-125046168D01*
X123264303Y-125046170D01*
X123143909Y-125173780D01*
X123143908Y-125173780D01*
X123056188Y-125325719D01*
X123005870Y-125493786D01*
X123005869Y-125493793D01*
X122995668Y-125668931D01*
X96681098Y-125668931D01*
X96485514Y-124800517D01*
X96311287Y-123849791D01*
X96282935Y-123650000D01*
X134444435Y-123650000D01*
X134464632Y-123829257D01*
X134464633Y-123829261D01*
X134524211Y-123999522D01*
X134524211Y-123999523D01*
X134620181Y-124152258D01*
X134620184Y-124152262D01*
X134747738Y-124279816D01*
X134747740Y-124279817D01*
X134747741Y-124279818D01*
X134784001Y-124302602D01*
X134900478Y-124375789D01*
X134953765Y-124394435D01*
X135070738Y-124435366D01*
X135070742Y-124435367D01*
X135070745Y-124435368D01*
X135250000Y-124455565D01*
X135429255Y-124435368D01*
X135599522Y-124375789D01*
X135752262Y-124279816D01*
X135757078Y-124275000D01*
X152944435Y-124275000D01*
X152964632Y-124454257D01*
X152964633Y-124454261D01*
X153024211Y-124624522D01*
X153024211Y-124624523D01*
X153120181Y-124777258D01*
X153120184Y-124777262D01*
X153247738Y-124904816D01*
X153247740Y-124904817D01*
X153247741Y-124904818D01*
X153389192Y-124993698D01*
X153400478Y-125000789D01*
X153457509Y-125020745D01*
X153570738Y-125060366D01*
X153570742Y-125060367D01*
X153570745Y-125060368D01*
X153750000Y-125080565D01*
X153929255Y-125060368D01*
X154099522Y-125000789D01*
X154252262Y-124904816D01*
X154379816Y-124777262D01*
X154475789Y-124624522D01*
X154535368Y-124454255D01*
X154555565Y-124275000D01*
X154546822Y-124197400D01*
X177645746Y-124197400D01*
X177655746Y-124407330D01*
X177655747Y-124407337D01*
X177705295Y-124611573D01*
X177705300Y-124611586D01*
X177792602Y-124802751D01*
X177792604Y-124802754D01*
X177914511Y-124973949D01*
X177914513Y-124973951D01*
X177914514Y-124973952D01*
X178066622Y-125118986D01*
X178243428Y-125232613D01*
X178438543Y-125310725D01*
X178644915Y-125350500D01*
X178644918Y-125350500D01*
X178802425Y-125350500D01*
X178959218Y-125335528D01*
X179160875Y-125276316D01*
X179347682Y-125180011D01*
X179512886Y-125050092D01*
X179650519Y-124891256D01*
X179755604Y-124709244D01*
X179824344Y-124510633D01*
X179854254Y-124302602D01*
X179844254Y-124092670D01*
X179794704Y-123888424D01*
X179750102Y-123790760D01*
X179707397Y-123697248D01*
X179707395Y-123697245D01*
X179585488Y-123526050D01*
X179547295Y-123489633D01*
X179433378Y-123381014D01*
X179256572Y-123267387D01*
X179256569Y-123267386D01*
X179256568Y-123267385D01*
X179147409Y-123223685D01*
X179061457Y-123189275D01*
X178855085Y-123149500D01*
X178697575Y-123149500D01*
X178540781Y-123164472D01*
X178339120Y-123223685D01*
X178152320Y-123319987D01*
X178152317Y-123319989D01*
X177987113Y-123449907D01*
X177849480Y-123608744D01*
X177744397Y-123790753D01*
X177744394Y-123790760D01*
X177675657Y-123989362D01*
X177675655Y-123989368D01*
X177645746Y-124197393D01*
X177645746Y-124197400D01*
X154546822Y-124197400D01*
X154535368Y-124095745D01*
X154534289Y-124092662D01*
X154498145Y-123989368D01*
X154475789Y-123925478D01*
X154452506Y-123888424D01*
X154379818Y-123772741D01*
X154379817Y-123772740D01*
X154379816Y-123772738D01*
X154252262Y-123645184D01*
X154252259Y-123645182D01*
X154252258Y-123645181D01*
X154099523Y-123549211D01*
X153929261Y-123489633D01*
X153929257Y-123489632D01*
X153750000Y-123469435D01*
X153570742Y-123489632D01*
X153570738Y-123489633D01*
X153400477Y-123549211D01*
X153400476Y-123549211D01*
X153247741Y-123645181D01*
X153120181Y-123772741D01*
X153024211Y-123925476D01*
X153024211Y-123925477D01*
X152964633Y-124095738D01*
X152964632Y-124095742D01*
X152944435Y-124275000D01*
X135757078Y-124275000D01*
X135879816Y-124152262D01*
X135975789Y-123999522D01*
X136035368Y-123829255D01*
X136055565Y-123650000D01*
X136035368Y-123470745D01*
X136028076Y-123449907D01*
X135982615Y-123319987D01*
X135975789Y-123300478D01*
X135905915Y-123189275D01*
X135879818Y-123147741D01*
X135879817Y-123147740D01*
X135879816Y-123147738D01*
X135752262Y-123020184D01*
X135752259Y-123020182D01*
X135752258Y-123020181D01*
X135599523Y-122924211D01*
X135429261Y-122864633D01*
X135429257Y-122864632D01*
X135250000Y-122844435D01*
X135070742Y-122864632D01*
X135070738Y-122864633D01*
X134900477Y-122924211D01*
X134900476Y-122924211D01*
X134747741Y-123020181D01*
X134620181Y-123147741D01*
X134524211Y-123300476D01*
X134524211Y-123300477D01*
X134464633Y-123470738D01*
X134464632Y-123470742D01*
X134444435Y-123650000D01*
X96282935Y-123650000D01*
X96175483Y-122892820D01*
X96078323Y-121931157D01*
X96019964Y-120966362D01*
X96000500Y-120000000D01*
X96009564Y-119550001D01*
X124194355Y-119550001D01*
X124196805Y-119570181D01*
X124214860Y-119718872D01*
X124275182Y-119877930D01*
X124362373Y-120004247D01*
X124371816Y-120017927D01*
X124371818Y-120017930D01*
X124395360Y-120038786D01*
X124499148Y-120130734D01*
X124649775Y-120209790D01*
X124814944Y-120250500D01*
X124814947Y-120250500D01*
X124985053Y-120250500D01*
X124985056Y-120250500D01*
X125150225Y-120209790D01*
X125183344Y-120192407D01*
X125243653Y-120182107D01*
X125298502Y-120209223D01*
X125326937Y-120263399D01*
X125327628Y-120268134D01*
X125339860Y-120368872D01*
X125400182Y-120527930D01*
X125496817Y-120667929D01*
X125624148Y-120780734D01*
X125774775Y-120859790D01*
X125939944Y-120900500D01*
X125939947Y-120900500D01*
X126110053Y-120900500D01*
X126110056Y-120900500D01*
X126167904Y-120886242D01*
X141099500Y-120886242D01*
X141136948Y-121086573D01*
X141140382Y-121104940D01*
X141220753Y-121312401D01*
X141337876Y-121501562D01*
X141487764Y-121665981D01*
X141665311Y-121800058D01*
X141864472Y-121899229D01*
X142078464Y-121960115D01*
X142244497Y-121975500D01*
X142244502Y-121975500D01*
X142755498Y-121975500D01*
X142755503Y-121975500D01*
X142921536Y-121960115D01*
X143135528Y-121899229D01*
X143334689Y-121800058D01*
X143512236Y-121665981D01*
X143662124Y-121501562D01*
X143779247Y-121312401D01*
X143859618Y-121104940D01*
X143900500Y-120886243D01*
X143900500Y-120825913D01*
X146296132Y-120825913D01*
X146326930Y-121026941D01*
X146397566Y-121217666D01*
X146505147Y-121390264D01*
X146505152Y-121390270D01*
X146621212Y-121512363D01*
X147046444Y-121087130D01*
X147061955Y-121102641D01*
X147174852Y-121160165D01*
X147245124Y-121171294D01*
X146782932Y-121633487D01*
X146812199Y-121653858D01*
X146999094Y-121734060D01*
X146999097Y-121734061D01*
X147198303Y-121774999D01*
X147198311Y-121775000D01*
X147750714Y-121775000D01*
X147902335Y-121759581D01*
X147902337Y-121759580D01*
X148096391Y-121698696D01*
X148096392Y-121698695D01*
X148215926Y-121632348D01*
X147754873Y-121171295D01*
X147825148Y-121160165D01*
X147938045Y-121102641D01*
X147953554Y-121087132D01*
X148377634Y-121511212D01*
X148428529Y-121467520D01*
X148428536Y-121467513D01*
X148553019Y-121306693D01*
X148553020Y-121306691D01*
X148642586Y-121124097D01*
X148693566Y-120927206D01*
X148693566Y-120927202D01*
X148703866Y-120724085D01*
X148695948Y-120672400D01*
X160145746Y-120672400D01*
X160155746Y-120882330D01*
X160155747Y-120882337D01*
X160205295Y-121086573D01*
X160205300Y-121086586D01*
X160292602Y-121277751D01*
X160292604Y-121277754D01*
X160414511Y-121448949D01*
X160414513Y-121448951D01*
X160414514Y-121448952D01*
X160566622Y-121593986D01*
X160743428Y-121707613D01*
X160938543Y-121785725D01*
X161144915Y-121825500D01*
X161144918Y-121825500D01*
X161302425Y-121825500D01*
X161459218Y-121810528D01*
X161660875Y-121751316D01*
X161847682Y-121655011D01*
X162012886Y-121525092D01*
X162150519Y-121366256D01*
X162255604Y-121184244D01*
X162324344Y-120985633D01*
X162354254Y-120777602D01*
X162344254Y-120567670D01*
X162294704Y-120363424D01*
X162280505Y-120332333D01*
X162220071Y-120200000D01*
X175494435Y-120200000D01*
X175514632Y-120379257D01*
X175514633Y-120379261D01*
X175574211Y-120549522D01*
X175574211Y-120549523D01*
X175651416Y-120672393D01*
X175670184Y-120702262D01*
X175797738Y-120829816D01*
X175797740Y-120829817D01*
X175797741Y-120829818D01*
X175910230Y-120900500D01*
X175950478Y-120925789D01*
X175954528Y-120927206D01*
X176120738Y-120985366D01*
X176120742Y-120985367D01*
X176120745Y-120985368D01*
X176300000Y-121005565D01*
X176479255Y-120985368D01*
X176649522Y-120925789D01*
X176802262Y-120829816D01*
X176929816Y-120702262D01*
X177025789Y-120549522D01*
X177085368Y-120379255D01*
X177105565Y-120200000D01*
X177085368Y-120020745D01*
X177078476Y-120001050D01*
X177049293Y-119917650D01*
X177025789Y-119850478D01*
X176988051Y-119790419D01*
X176929818Y-119697741D01*
X176929817Y-119697740D01*
X176929816Y-119697738D01*
X176802262Y-119570184D01*
X176802259Y-119570182D01*
X176802258Y-119570181D01*
X176649523Y-119474211D01*
X176479261Y-119414633D01*
X176479257Y-119414632D01*
X176300000Y-119394435D01*
X176120742Y-119414632D01*
X176120738Y-119414633D01*
X175950477Y-119474211D01*
X175950476Y-119474211D01*
X175797741Y-119570181D01*
X175670181Y-119697741D01*
X175574211Y-119850476D01*
X175574211Y-119850477D01*
X175514633Y-120020738D01*
X175514632Y-120020742D01*
X175494435Y-120200000D01*
X162220071Y-120200000D01*
X162207397Y-120172248D01*
X162207395Y-120172245D01*
X162085488Y-120001050D01*
X161998020Y-119917650D01*
X161933378Y-119856014D01*
X161756572Y-119742387D01*
X161756569Y-119742386D01*
X161756568Y-119742385D01*
X161647409Y-119698685D01*
X161561457Y-119664275D01*
X161355085Y-119624500D01*
X161197575Y-119624500D01*
X161040781Y-119639472D01*
X160839120Y-119698685D01*
X160652320Y-119794987D01*
X160652317Y-119794989D01*
X160487113Y-119924907D01*
X160349480Y-120083744D01*
X160244397Y-120265753D01*
X160244394Y-120265760D01*
X160175657Y-120464362D01*
X160175655Y-120464368D01*
X160145746Y-120672393D01*
X160145746Y-120672400D01*
X148695948Y-120672400D01*
X148673069Y-120523058D01*
X148602433Y-120332333D01*
X148494852Y-120159735D01*
X148494847Y-120159729D01*
X148378785Y-120037635D01*
X147953553Y-120462867D01*
X147938045Y-120447359D01*
X147825148Y-120389835D01*
X147754871Y-120378704D01*
X148217066Y-119916510D01*
X148187812Y-119896148D01*
X148187801Y-119896142D01*
X148000905Y-119815939D01*
X148000902Y-119815938D01*
X147801696Y-119775000D01*
X147249286Y-119775000D01*
X147097664Y-119790418D01*
X147097662Y-119790419D01*
X146903609Y-119851303D01*
X146784072Y-119917650D01*
X147245126Y-120378704D01*
X147174852Y-120389835D01*
X147061955Y-120447359D01*
X147046446Y-120462868D01*
X146622364Y-120038786D01*
X146571469Y-120082479D01*
X146571468Y-120082480D01*
X146446980Y-120243306D01*
X146446979Y-120243308D01*
X146357413Y-120425902D01*
X146306433Y-120622793D01*
X146306433Y-120622797D01*
X146296133Y-120825910D01*
X146296132Y-120825913D01*
X143900500Y-120825913D01*
X143900500Y-120663757D01*
X143859618Y-120445060D01*
X143779247Y-120237599D01*
X143662124Y-120048438D01*
X143512236Y-119884019D01*
X143334689Y-119749942D01*
X143135528Y-119650771D01*
X142921536Y-119589885D01*
X142866191Y-119584756D01*
X142755505Y-119574500D01*
X142755503Y-119574500D01*
X142244497Y-119574500D01*
X142244494Y-119574500D01*
X142078464Y-119589884D01*
X142078464Y-119589885D01*
X141864472Y-119650771D01*
X141864471Y-119650771D01*
X141864469Y-119650772D01*
X141665318Y-119749938D01*
X141665309Y-119749943D01*
X141545326Y-119840549D01*
X141495829Y-119877929D01*
X141487763Y-119884020D01*
X141365689Y-120017929D01*
X141337876Y-120048438D01*
X141220753Y-120237599D01*
X141208924Y-120268134D01*
X141140381Y-120445062D01*
X141099500Y-120663757D01*
X141099500Y-120886242D01*
X126167904Y-120886242D01*
X126275225Y-120859790D01*
X126425852Y-120780734D01*
X126553183Y-120667929D01*
X126649818Y-120527930D01*
X126710140Y-120368872D01*
X126730645Y-120200000D01*
X126710140Y-120031128D01*
X126649818Y-119872070D01*
X126553183Y-119732071D01*
X126538284Y-119718872D01*
X126425853Y-119619267D01*
X126425852Y-119619266D01*
X126275225Y-119540210D01*
X126275224Y-119540209D01*
X126275223Y-119540209D01*
X126110058Y-119499500D01*
X126110056Y-119499500D01*
X125939944Y-119499500D01*
X125939941Y-119499500D01*
X125774776Y-119540209D01*
X125741655Y-119557592D01*
X125681343Y-119567892D01*
X125626495Y-119540774D01*
X125598062Y-119486597D01*
X125597375Y-119481892D01*
X125585140Y-119381128D01*
X125524818Y-119222070D01*
X125428183Y-119082071D01*
X125300852Y-118969266D01*
X125150225Y-118890210D01*
X125150224Y-118890209D01*
X125150223Y-118890209D01*
X124985058Y-118849500D01*
X124985056Y-118849500D01*
X124814944Y-118849500D01*
X124814941Y-118849500D01*
X124649776Y-118890209D01*
X124499146Y-118969267D01*
X124371818Y-119082069D01*
X124371816Y-119082072D01*
X124362378Y-119095745D01*
X124275182Y-119222070D01*
X124222673Y-119360528D01*
X124214860Y-119381129D01*
X124194355Y-119549998D01*
X124194355Y-119550001D01*
X96009564Y-119550001D01*
X96019964Y-119033638D01*
X96074926Y-118125001D01*
X119469355Y-118125001D01*
X119470031Y-118130565D01*
X119489860Y-118293872D01*
X119550182Y-118452930D01*
X119646817Y-118592929D01*
X119774148Y-118705734D01*
X119924775Y-118784790D01*
X120089944Y-118825500D01*
X120089947Y-118825500D01*
X120260053Y-118825500D01*
X120260056Y-118825500D01*
X120425225Y-118784790D01*
X120575852Y-118705734D01*
X120703183Y-118592929D01*
X120799818Y-118452930D01*
X120860140Y-118293872D01*
X120865467Y-118250000D01*
X141844435Y-118250000D01*
X141864632Y-118429257D01*
X141864633Y-118429261D01*
X141924211Y-118599522D01*
X141924211Y-118599523D01*
X141952900Y-118645181D01*
X142020184Y-118752262D01*
X142147738Y-118879816D01*
X142147740Y-118879817D01*
X142147741Y-118879818D01*
X142290096Y-118969266D01*
X142300478Y-118975789D01*
X142313956Y-118980505D01*
X142470738Y-119035366D01*
X142470742Y-119035367D01*
X142470745Y-119035368D01*
X142650000Y-119055565D01*
X142829255Y-119035368D01*
X142986050Y-118980503D01*
X153799500Y-118980503D01*
X153814885Y-119146536D01*
X153875771Y-119360528D01*
X153974942Y-119559689D01*
X154109019Y-119737236D01*
X154273438Y-119887124D01*
X154462599Y-120004247D01*
X154670060Y-120084618D01*
X154888757Y-120125500D01*
X155111243Y-120125500D01*
X155329940Y-120084618D01*
X155537401Y-120004247D01*
X155726562Y-119887124D01*
X155890981Y-119737236D01*
X156025058Y-119559689D01*
X156124229Y-119360528D01*
X156185115Y-119146536D01*
X156200500Y-118980503D01*
X166299500Y-118980503D01*
X166314885Y-119146536D01*
X166375771Y-119360528D01*
X166474942Y-119559689D01*
X166609019Y-119737236D01*
X166773438Y-119887124D01*
X166962599Y-120004247D01*
X167170060Y-120084618D01*
X167388757Y-120125500D01*
X167611243Y-120125500D01*
X167829940Y-120084618D01*
X168037401Y-120004247D01*
X168226562Y-119887124D01*
X168390981Y-119737236D01*
X168525058Y-119559689D01*
X168624229Y-119360528D01*
X168648564Y-119275000D01*
X170419435Y-119275000D01*
X170439632Y-119454257D01*
X170439633Y-119454261D01*
X170499211Y-119624522D01*
X170499211Y-119624523D01*
X170595181Y-119777258D01*
X170595184Y-119777262D01*
X170722738Y-119904816D01*
X170722740Y-119904817D01*
X170722741Y-119904818D01*
X170754712Y-119924907D01*
X170875478Y-120000789D01*
X170932509Y-120020745D01*
X171045738Y-120060366D01*
X171045742Y-120060367D01*
X171045745Y-120060368D01*
X171225000Y-120080565D01*
X171404255Y-120060368D01*
X171574522Y-120000789D01*
X171727262Y-119904816D01*
X171854816Y-119777262D01*
X171950789Y-119624522D01*
X172010368Y-119454255D01*
X172030565Y-119275000D01*
X172010368Y-119095745D01*
X172005583Y-119082071D01*
X171986014Y-119026145D01*
X171950789Y-118925478D01*
X171854816Y-118772738D01*
X171727262Y-118645184D01*
X171727259Y-118645182D01*
X171727258Y-118645181D01*
X171574523Y-118549211D01*
X171404261Y-118489633D01*
X171404257Y-118489632D01*
X171225000Y-118469435D01*
X171045742Y-118489632D01*
X171045738Y-118489633D01*
X170875477Y-118549211D01*
X170875476Y-118549211D01*
X170722741Y-118645181D01*
X170595181Y-118772741D01*
X170499211Y-118925476D01*
X170499211Y-118925477D01*
X170439633Y-119095738D01*
X170439632Y-119095742D01*
X170419435Y-119275000D01*
X168648564Y-119275000D01*
X168685115Y-119146536D01*
X168700500Y-118980503D01*
X168700500Y-118469497D01*
X168685115Y-118303464D01*
X168624229Y-118089472D01*
X168525058Y-117890311D01*
X168390981Y-117712764D01*
X168226562Y-117562876D01*
X168037401Y-117445753D01*
X167829940Y-117365382D01*
X167829939Y-117365381D01*
X167829937Y-117365381D01*
X167611243Y-117324500D01*
X167388757Y-117324500D01*
X167170062Y-117365381D01*
X167093797Y-117394926D01*
X166962599Y-117445753D01*
X166803494Y-117544266D01*
X166773438Y-117562876D01*
X166609020Y-117712763D01*
X166474943Y-117890309D01*
X166474938Y-117890318D01*
X166375772Y-118089469D01*
X166375771Y-118089472D01*
X166365662Y-118125001D01*
X166314885Y-118303464D01*
X166299506Y-118469435D01*
X166299500Y-118469497D01*
X166299500Y-118980503D01*
X156200500Y-118980503D01*
X156200500Y-118469497D01*
X156185115Y-118303464D01*
X156124229Y-118089472D01*
X156025058Y-117890311D01*
X155890981Y-117712764D01*
X155726562Y-117562876D01*
X155537401Y-117445753D01*
X155329940Y-117365382D01*
X155329939Y-117365381D01*
X155329937Y-117365381D01*
X155111243Y-117324500D01*
X154888757Y-117324500D01*
X154670062Y-117365381D01*
X154593797Y-117394926D01*
X154462599Y-117445753D01*
X154303494Y-117544266D01*
X154273438Y-117562876D01*
X154109020Y-117712763D01*
X153974943Y-117890309D01*
X153974938Y-117890318D01*
X153875772Y-118089469D01*
X153875771Y-118089472D01*
X153865662Y-118125001D01*
X153814885Y-118303464D01*
X153799506Y-118469435D01*
X153799500Y-118469497D01*
X153799500Y-118980503D01*
X142986050Y-118980503D01*
X142999522Y-118975789D01*
X143152262Y-118879816D01*
X143279816Y-118752262D01*
X143375789Y-118599522D01*
X143435368Y-118429255D01*
X143455565Y-118250000D01*
X143435368Y-118070745D01*
X143434702Y-118068843D01*
X143395262Y-117956129D01*
X143375789Y-117900478D01*
X143369399Y-117890309D01*
X143279818Y-117747741D01*
X143279817Y-117747740D01*
X143279816Y-117747738D01*
X143152262Y-117620184D01*
X143152259Y-117620182D01*
X143152258Y-117620181D01*
X142999523Y-117524211D01*
X142829261Y-117464633D01*
X142829257Y-117464632D01*
X142650000Y-117444435D01*
X142470742Y-117464632D01*
X142470738Y-117464633D01*
X142300477Y-117524211D01*
X142300476Y-117524211D01*
X142147741Y-117620181D01*
X142020181Y-117747741D01*
X141924211Y-117900476D01*
X141924211Y-117900477D01*
X141864633Y-118070738D01*
X141864632Y-118070742D01*
X141844435Y-118250000D01*
X120865467Y-118250000D01*
X120880645Y-118125000D01*
X120860140Y-117956128D01*
X120799818Y-117797070D01*
X120703183Y-117657071D01*
X120670289Y-117627930D01*
X120575853Y-117544267D01*
X120575852Y-117544266D01*
X120425225Y-117465210D01*
X120425224Y-117465209D01*
X120425223Y-117465209D01*
X120260058Y-117424500D01*
X120260056Y-117424500D01*
X120089944Y-117424500D01*
X120089941Y-117424500D01*
X119924776Y-117465209D01*
X119774146Y-117544267D01*
X119646818Y-117657069D01*
X119646816Y-117657072D01*
X119570298Y-117767927D01*
X119550182Y-117797070D01*
X119510966Y-117900477D01*
X119489860Y-117956129D01*
X119469355Y-118124998D01*
X119469355Y-118125001D01*
X96074926Y-118125001D01*
X96078323Y-118068843D01*
X96156002Y-117300000D01*
X124019355Y-117300000D01*
X124039860Y-117468872D01*
X124100182Y-117627930D01*
X124196816Y-117767927D01*
X124196818Y-117767930D01*
X124239260Y-117805530D01*
X124324148Y-117880734D01*
X124474775Y-117959790D01*
X124639944Y-118000500D01*
X124639947Y-118000500D01*
X124810053Y-118000500D01*
X124810056Y-118000500D01*
X124975225Y-117959790D01*
X125125852Y-117880734D01*
X125253183Y-117767929D01*
X125349818Y-117627930D01*
X125410140Y-117468872D01*
X125430645Y-117300000D01*
X125410140Y-117131128D01*
X125349818Y-116972070D01*
X125253183Y-116832071D01*
X125245201Y-116825000D01*
X127619435Y-116825000D01*
X127639632Y-117004257D01*
X127639633Y-117004261D01*
X127699211Y-117174522D01*
X127699211Y-117174523D01*
X127795181Y-117327258D01*
X127795184Y-117327262D01*
X127922738Y-117454816D01*
X127922740Y-117454817D01*
X127922741Y-117454818D01*
X128065096Y-117544266D01*
X128075478Y-117550789D01*
X128110021Y-117562876D01*
X128245738Y-117610366D01*
X128245742Y-117610367D01*
X128245745Y-117610368D01*
X128425000Y-117630565D01*
X128604255Y-117610368D01*
X128774522Y-117550789D01*
X128927262Y-117454816D01*
X129054816Y-117327262D01*
X129056237Y-117325000D01*
X137244435Y-117325000D01*
X137264632Y-117504257D01*
X137264633Y-117504261D01*
X137324211Y-117674522D01*
X137324211Y-117674523D01*
X137382903Y-117767930D01*
X137420184Y-117827262D01*
X137547738Y-117954816D01*
X137547740Y-117954817D01*
X137547741Y-117954818D01*
X137620443Y-118000500D01*
X137700478Y-118050789D01*
X137757509Y-118070745D01*
X137870738Y-118110366D01*
X137870742Y-118110367D01*
X137870745Y-118110368D01*
X138050000Y-118130565D01*
X138229255Y-118110368D01*
X138399522Y-118050789D01*
X138552262Y-117954816D01*
X138679816Y-117827262D01*
X138775789Y-117674522D01*
X138835368Y-117504255D01*
X138855565Y-117325000D01*
X138835368Y-117145745D01*
X138830253Y-117131128D01*
X138811014Y-117076145D01*
X138775789Y-116975478D01*
X138681551Y-116825500D01*
X138679818Y-116822741D01*
X138679817Y-116822740D01*
X138679816Y-116822738D01*
X138552262Y-116695184D01*
X138552259Y-116695182D01*
X138552258Y-116695181D01*
X138399523Y-116599211D01*
X138229261Y-116539633D01*
X138229257Y-116539632D01*
X138050000Y-116519435D01*
X137870742Y-116539632D01*
X137870738Y-116539633D01*
X137700477Y-116599211D01*
X137700476Y-116599211D01*
X137547741Y-116695181D01*
X137420181Y-116822741D01*
X137324211Y-116975476D01*
X137324211Y-116975477D01*
X137264633Y-117145738D01*
X137264632Y-117145742D01*
X137244435Y-117325000D01*
X129056237Y-117325000D01*
X129150789Y-117174522D01*
X129210368Y-117004255D01*
X129230565Y-116825000D01*
X129210368Y-116645745D01*
X129208431Y-116640210D01*
X129173237Y-116539632D01*
X129150789Y-116475478D01*
X129054816Y-116322738D01*
X128927262Y-116195184D01*
X128927259Y-116195182D01*
X128927258Y-116195181D01*
X128774523Y-116099211D01*
X128604261Y-116039633D01*
X128604257Y-116039632D01*
X128425000Y-116019435D01*
X128245742Y-116039632D01*
X128245738Y-116039633D01*
X128075477Y-116099211D01*
X128075476Y-116099211D01*
X127922741Y-116195181D01*
X127795181Y-116322741D01*
X127699211Y-116475476D01*
X127699211Y-116475477D01*
X127639633Y-116645738D01*
X127639632Y-116645742D01*
X127619435Y-116825000D01*
X125245201Y-116825000D01*
X125125853Y-116719267D01*
X125125852Y-116719266D01*
X124975225Y-116640210D01*
X124975224Y-116640209D01*
X124975223Y-116640209D01*
X124810058Y-116599500D01*
X124810056Y-116599500D01*
X124639944Y-116599500D01*
X124639941Y-116599500D01*
X124474776Y-116640209D01*
X124324146Y-116719267D01*
X124196818Y-116832069D01*
X124196816Y-116832071D01*
X124196817Y-116832071D01*
X124100182Y-116972070D01*
X124039860Y-117131128D01*
X124019355Y-117300000D01*
X96156002Y-117300000D01*
X96175483Y-117107180D01*
X96311287Y-116150209D01*
X96398849Y-115672400D01*
X177595746Y-115672400D01*
X177605746Y-115882330D01*
X177605747Y-115882337D01*
X177655295Y-116086573D01*
X177655300Y-116086586D01*
X177742602Y-116277751D01*
X177742604Y-116277754D01*
X177864511Y-116448949D01*
X177864513Y-116448951D01*
X177864514Y-116448952D01*
X178016622Y-116593986D01*
X178193428Y-116707613D01*
X178388543Y-116785725D01*
X178594915Y-116825500D01*
X178594918Y-116825500D01*
X178752425Y-116825500D01*
X178909218Y-116810528D01*
X179110875Y-116751316D01*
X179297682Y-116655011D01*
X179462886Y-116525092D01*
X179600519Y-116366256D01*
X179705604Y-116184244D01*
X179774344Y-115985633D01*
X179804254Y-115777602D01*
X179794254Y-115567670D01*
X179744704Y-115363424D01*
X179700102Y-115265760D01*
X179657397Y-115172248D01*
X179657395Y-115172245D01*
X179535488Y-115001050D01*
X179455631Y-114924907D01*
X179383378Y-114856014D01*
X179206572Y-114742387D01*
X179206569Y-114742386D01*
X179206568Y-114742385D01*
X179097409Y-114698685D01*
X179011457Y-114664275D01*
X178805085Y-114624500D01*
X178647575Y-114624500D01*
X178490781Y-114639472D01*
X178289120Y-114698685D01*
X178102320Y-114794987D01*
X178102317Y-114794989D01*
X177937113Y-114924907D01*
X177799480Y-115083744D01*
X177694397Y-115265753D01*
X177694394Y-115265760D01*
X177625657Y-115464362D01*
X177625655Y-115464368D01*
X177595746Y-115672393D01*
X177595746Y-115672400D01*
X96398849Y-115672400D01*
X96485514Y-115199483D01*
X96697882Y-114256544D01*
X96699635Y-114250000D01*
X127250000Y-114250000D01*
X127250000Y-115550000D01*
X127250001Y-115550000D01*
X128549999Y-115550000D01*
X128550000Y-115550000D01*
X128550000Y-114250000D01*
X127250000Y-114250000D01*
X96699635Y-114250000D01*
X96826911Y-113775000D01*
X141194540Y-113775000D01*
X141204148Y-113866421D01*
X141214327Y-113963261D01*
X141272819Y-114143279D01*
X141272825Y-114143293D01*
X141348015Y-114273525D01*
X141367467Y-114307216D01*
X141367469Y-114307218D01*
X141488886Y-114442066D01*
X141494129Y-114447888D01*
X141647270Y-114559151D01*
X141820197Y-114636144D01*
X142005354Y-114675500D01*
X142005357Y-114675500D01*
X142194643Y-114675500D01*
X142194646Y-114675500D01*
X142379803Y-114636144D01*
X142552730Y-114559151D01*
X142705871Y-114447888D01*
X142832533Y-114307216D01*
X142915770Y-114163045D01*
X142927174Y-114143293D01*
X142927174Y-114143291D01*
X142927179Y-114143284D01*
X142981626Y-113975713D01*
X154000000Y-113975713D01*
X154015418Y-114127335D01*
X154015419Y-114127337D01*
X154076302Y-114321387D01*
X154142650Y-114440926D01*
X154603704Y-113979871D01*
X154614835Y-114050148D01*
X154672359Y-114163045D01*
X154687866Y-114178552D01*
X154263786Y-114602632D01*
X154263786Y-114602634D01*
X154307482Y-114653533D01*
X154468306Y-114778019D01*
X154468308Y-114778020D01*
X154650902Y-114867586D01*
X154847795Y-114918566D01*
X155050914Y-114928866D01*
X155251941Y-114898069D01*
X155442666Y-114827433D01*
X155615263Y-114719853D01*
X155615265Y-114719851D01*
X155737364Y-114603786D01*
X155312132Y-114178554D01*
X155327641Y-114163045D01*
X155385165Y-114050148D01*
X155396295Y-113979873D01*
X155858488Y-114442066D01*
X155878856Y-114412805D01*
X155959060Y-114225905D01*
X155959061Y-114225902D01*
X155999999Y-114026696D01*
X156000000Y-114026688D01*
X156000000Y-113975713D01*
X166500000Y-113975713D01*
X166515418Y-114127335D01*
X166515419Y-114127337D01*
X166576302Y-114321387D01*
X166642650Y-114440926D01*
X167103704Y-113979871D01*
X167114835Y-114050148D01*
X167172359Y-114163045D01*
X167187866Y-114178552D01*
X166763786Y-114602632D01*
X166763786Y-114602634D01*
X166807482Y-114653533D01*
X166968306Y-114778019D01*
X166968308Y-114778020D01*
X167150902Y-114867586D01*
X167347795Y-114918566D01*
X167550914Y-114928866D01*
X167751941Y-114898069D01*
X167942666Y-114827433D01*
X168115263Y-114719853D01*
X168115265Y-114719851D01*
X168237364Y-114603786D01*
X167812132Y-114178553D01*
X167827641Y-114163045D01*
X167885165Y-114050148D01*
X167896295Y-113979873D01*
X168358488Y-114442066D01*
X168378856Y-114412805D01*
X168459060Y-114225905D01*
X168459061Y-114225902D01*
X168499999Y-114026696D01*
X168500000Y-114026688D01*
X168500000Y-113980503D01*
X171249500Y-113980503D01*
X171264885Y-114146536D01*
X171325771Y-114360528D01*
X171424942Y-114559689D01*
X171559019Y-114737236D01*
X171723438Y-114887124D01*
X171912599Y-115004247D01*
X172120060Y-115084618D01*
X172338757Y-115125500D01*
X172561243Y-115125500D01*
X172779940Y-115084618D01*
X172987401Y-115004247D01*
X173176562Y-114887124D01*
X173340981Y-114737236D01*
X173475058Y-114559689D01*
X173574229Y-114360528D01*
X173635115Y-114146536D01*
X173650500Y-113980503D01*
X183749500Y-113980503D01*
X183764885Y-114146536D01*
X183825771Y-114360528D01*
X183924942Y-114559689D01*
X184059019Y-114737236D01*
X184223438Y-114887124D01*
X184412599Y-115004247D01*
X184620060Y-115084618D01*
X184838757Y-115125500D01*
X185061243Y-115125500D01*
X185279940Y-115084618D01*
X185487401Y-115004247D01*
X185676562Y-114887124D01*
X185840981Y-114737236D01*
X185975058Y-114559689D01*
X186074229Y-114360528D01*
X186135115Y-114146536D01*
X186150500Y-113980503D01*
X186150500Y-113469497D01*
X186135115Y-113303464D01*
X186074229Y-113089472D01*
X185975058Y-112890311D01*
X185840981Y-112712764D01*
X185676562Y-112562876D01*
X185487401Y-112445753D01*
X185279940Y-112365382D01*
X185279939Y-112365381D01*
X185279937Y-112365381D01*
X185061243Y-112324500D01*
X184838757Y-112324500D01*
X184620062Y-112365381D01*
X184543797Y-112394926D01*
X184412599Y-112445753D01*
X184223438Y-112562876D01*
X184064672Y-112707611D01*
X184059019Y-112712764D01*
X184029906Y-112751316D01*
X183924943Y-112890309D01*
X183924938Y-112890318D01*
X183825772Y-113089469D01*
X183825771Y-113089472D01*
X183764885Y-113303464D01*
X183749500Y-113469497D01*
X183749500Y-113980503D01*
X173650500Y-113980503D01*
X173650500Y-113469497D01*
X173635115Y-113303464D01*
X173574229Y-113089472D01*
X173475058Y-112890311D01*
X173340981Y-112712764D01*
X173176562Y-112562876D01*
X172987401Y-112445753D01*
X172779940Y-112365382D01*
X172779939Y-112365381D01*
X172779937Y-112365381D01*
X172561243Y-112324500D01*
X172338757Y-112324500D01*
X172120062Y-112365381D01*
X172043797Y-112394926D01*
X171912599Y-112445753D01*
X171723438Y-112562875D01*
X171723438Y-112562876D01*
X171564672Y-112707611D01*
X171559019Y-112712764D01*
X171529906Y-112751316D01*
X171424943Y-112890309D01*
X171424938Y-112890318D01*
X171325772Y-113089469D01*
X171325771Y-113089472D01*
X171264885Y-113303464D01*
X171249500Y-113469497D01*
X171249500Y-113980503D01*
X168500000Y-113980503D01*
X168500000Y-113474286D01*
X168484581Y-113322664D01*
X168484580Y-113322662D01*
X168423696Y-113128608D01*
X168423695Y-113128607D01*
X168357348Y-113009072D01*
X167896294Y-113470125D01*
X167885165Y-113399852D01*
X167827641Y-113286955D01*
X167812131Y-113271444D01*
X168236212Y-112847364D01*
X168236212Y-112847363D01*
X168192524Y-112796472D01*
X168192520Y-112796468D01*
X168031693Y-112671980D01*
X168031691Y-112671979D01*
X167849097Y-112582413D01*
X167652204Y-112531433D01*
X167449085Y-112521133D01*
X167248058Y-112551930D01*
X167057333Y-112622566D01*
X166884735Y-112730147D01*
X166884734Y-112730148D01*
X166762634Y-112846212D01*
X167187868Y-113271446D01*
X167172359Y-113286955D01*
X167114835Y-113399852D01*
X167103704Y-113470126D01*
X166641510Y-113007932D01*
X166621143Y-113037196D01*
X166540939Y-113224094D01*
X166540938Y-113224097D01*
X166500000Y-113423303D01*
X166500000Y-113975713D01*
X156000000Y-113975713D01*
X156000000Y-113474286D01*
X155984581Y-113322664D01*
X155984580Y-113322662D01*
X155923696Y-113128608D01*
X155923695Y-113128607D01*
X155857348Y-113009072D01*
X155396294Y-113470125D01*
X155385165Y-113399852D01*
X155327641Y-113286955D01*
X155312131Y-113271445D01*
X155736212Y-112847364D01*
X155736212Y-112847363D01*
X155692524Y-112796472D01*
X155692520Y-112796468D01*
X155531693Y-112671980D01*
X155531691Y-112671979D01*
X155349097Y-112582413D01*
X155152204Y-112531433D01*
X154949085Y-112521133D01*
X154748058Y-112551930D01*
X154557333Y-112622566D01*
X154384735Y-112730147D01*
X154384734Y-112730148D01*
X154262634Y-112846212D01*
X154687868Y-113271446D01*
X154672359Y-113286955D01*
X154614835Y-113399852D01*
X154603704Y-113470126D01*
X154141510Y-113007932D01*
X154121143Y-113037196D01*
X154040939Y-113224094D01*
X154040938Y-113224097D01*
X154000000Y-113423303D01*
X154000000Y-113975713D01*
X142981626Y-113975713D01*
X142985674Y-113963256D01*
X143005460Y-113775000D01*
X142985674Y-113586744D01*
X142927179Y-113406716D01*
X142927176Y-113406711D01*
X142927174Y-113406706D01*
X142878551Y-113322490D01*
X142832533Y-113242784D01*
X142729728Y-113128608D01*
X142705875Y-113102116D01*
X142705870Y-113102111D01*
X142552731Y-112990850D01*
X142552732Y-112990850D01*
X142552730Y-112990849D01*
X142552725Y-112990847D01*
X142552722Y-112990845D01*
X142379805Y-112913857D01*
X142379803Y-112913856D01*
X142379800Y-112913855D01*
X142379799Y-112913855D01*
X142344580Y-112906369D01*
X142194646Y-112874500D01*
X142005354Y-112874500D01*
X141887288Y-112899595D01*
X141820200Y-112913855D01*
X141820194Y-112913857D01*
X141647277Y-112990845D01*
X141647268Y-112990850D01*
X141494129Y-113102111D01*
X141494124Y-113102116D01*
X141367469Y-113242781D01*
X141367465Y-113242787D01*
X141272825Y-113406706D01*
X141272819Y-113406720D01*
X141214327Y-113586738D01*
X141214326Y-113586742D01*
X141214326Y-113586744D01*
X141194540Y-113775000D01*
X96826911Y-113775000D01*
X96948046Y-113322920D01*
X97235600Y-112400126D01*
X97494952Y-111672400D01*
X160145746Y-111672400D01*
X160155746Y-111882330D01*
X160155747Y-111882337D01*
X160205295Y-112086573D01*
X160205300Y-112086586D01*
X160292602Y-112277751D01*
X160292604Y-112277754D01*
X160414511Y-112448949D01*
X160414513Y-112448951D01*
X160414514Y-112448952D01*
X160566622Y-112593986D01*
X160743428Y-112707613D01*
X160938543Y-112785725D01*
X161144915Y-112825500D01*
X161144918Y-112825500D01*
X161302425Y-112825500D01*
X161459218Y-112810528D01*
X161660875Y-112751316D01*
X161847682Y-112655011D01*
X162012886Y-112525092D01*
X162150519Y-112366256D01*
X162255604Y-112184244D01*
X162324344Y-111985633D01*
X162354254Y-111777602D01*
X162344254Y-111567670D01*
X162294704Y-111363424D01*
X162250102Y-111265760D01*
X162207397Y-111172248D01*
X162207395Y-111172245D01*
X162085488Y-111001050D01*
X162005631Y-110924907D01*
X161933378Y-110856014D01*
X161756572Y-110742387D01*
X161756569Y-110742386D01*
X161756568Y-110742385D01*
X161647409Y-110698685D01*
X161561457Y-110664275D01*
X161355085Y-110624500D01*
X161197575Y-110624500D01*
X161040781Y-110639472D01*
X160839120Y-110698685D01*
X160652320Y-110794987D01*
X160652317Y-110794989D01*
X160487113Y-110924907D01*
X160349480Y-111083744D01*
X160244397Y-111265753D01*
X160244394Y-111265760D01*
X160175657Y-111464362D01*
X160175655Y-111464368D01*
X160145746Y-111672393D01*
X160145746Y-111672400D01*
X97494952Y-111672400D01*
X97560078Y-111489660D01*
X97920953Y-110592997D01*
X98317641Y-109711593D01*
X98438831Y-109468931D01*
X104945668Y-109468931D01*
X104976133Y-109641707D01*
X105045622Y-109802802D01*
X105045623Y-109802804D01*
X105150389Y-109943529D01*
X105150391Y-109943531D01*
X105284783Y-110056300D01*
X105284784Y-110056300D01*
X105284786Y-110056302D01*
X105441567Y-110135040D01*
X105441572Y-110135041D01*
X105441576Y-110135043D01*
X105612277Y-110175500D01*
X105612279Y-110175500D01*
X105743704Y-110175500D01*
X105743709Y-110175500D01*
X105874255Y-110160241D01*
X106039117Y-110100237D01*
X106185696Y-110003830D01*
X106306092Y-109876218D01*
X106393812Y-109724281D01*
X106444130Y-109556210D01*
X106454331Y-109381065D01*
X106438941Y-109293786D01*
X106435628Y-109275000D01*
X147294540Y-109275000D01*
X147311979Y-109440926D01*
X147314327Y-109463261D01*
X147372819Y-109643279D01*
X147372825Y-109643293D01*
X147424167Y-109732218D01*
X147467467Y-109807216D01*
X147467469Y-109807218D01*
X147590205Y-109943531D01*
X147594129Y-109947888D01*
X147747270Y-110059151D01*
X147920197Y-110136144D01*
X148105354Y-110175500D01*
X148105357Y-110175500D01*
X148294643Y-110175500D01*
X148294646Y-110175500D01*
X148479803Y-110136144D01*
X148652730Y-110059151D01*
X148805871Y-109947888D01*
X148932533Y-109807216D01*
X149027179Y-109643284D01*
X149085674Y-109463256D01*
X149105460Y-109275000D01*
X157094540Y-109275000D01*
X157111979Y-109440926D01*
X157114327Y-109463261D01*
X157172819Y-109643279D01*
X157172825Y-109643293D01*
X157224167Y-109732218D01*
X157267467Y-109807216D01*
X157267469Y-109807218D01*
X157390205Y-109943531D01*
X157394129Y-109947888D01*
X157547270Y-110059151D01*
X157720197Y-110136144D01*
X157905354Y-110175500D01*
X157905357Y-110175500D01*
X158094643Y-110175500D01*
X158094646Y-110175500D01*
X158279803Y-110136144D01*
X158452730Y-110059151D01*
X158605871Y-109947888D01*
X158732533Y-109807216D01*
X158827179Y-109643284D01*
X158885674Y-109463256D01*
X158905460Y-109275000D01*
X158897577Y-109200000D01*
X160094540Y-109200000D01*
X160113570Y-109381065D01*
X160114327Y-109388261D01*
X160172819Y-109568279D01*
X160172825Y-109568293D01*
X160216119Y-109643279D01*
X160267467Y-109732216D01*
X160394129Y-109872888D01*
X160547270Y-109984151D01*
X160720197Y-110061144D01*
X160905354Y-110100500D01*
X160905357Y-110100500D01*
X161094643Y-110100500D01*
X161094646Y-110100500D01*
X161279803Y-110061144D01*
X161452730Y-109984151D01*
X161605871Y-109872888D01*
X161732533Y-109732216D01*
X161827179Y-109568284D01*
X161885674Y-109388256D01*
X161905460Y-109200000D01*
X161885674Y-109011744D01*
X161873967Y-108975713D01*
X171450000Y-108975713D01*
X171465418Y-109127335D01*
X171465419Y-109127337D01*
X171526302Y-109321387D01*
X171592650Y-109440926D01*
X172053704Y-108979871D01*
X172064835Y-109050148D01*
X172122359Y-109163045D01*
X172137866Y-109178552D01*
X171713786Y-109602632D01*
X171713786Y-109602634D01*
X171757482Y-109653533D01*
X171918306Y-109778019D01*
X171918308Y-109778020D01*
X172100902Y-109867586D01*
X172297795Y-109918566D01*
X172500914Y-109928866D01*
X172701941Y-109898069D01*
X172892666Y-109827433D01*
X173065263Y-109719853D01*
X173065265Y-109719851D01*
X173187364Y-109603786D01*
X172762132Y-109178554D01*
X172777641Y-109163045D01*
X172835165Y-109050148D01*
X172846295Y-108979873D01*
X173308488Y-109442066D01*
X173328856Y-109412805D01*
X173409060Y-109225905D01*
X173409061Y-109225902D01*
X173449999Y-109026696D01*
X173450000Y-109026688D01*
X173450000Y-108975713D01*
X183950000Y-108975713D01*
X183965418Y-109127335D01*
X183965419Y-109127337D01*
X184026302Y-109321387D01*
X184092650Y-109440926D01*
X184553704Y-108979871D01*
X184564835Y-109050148D01*
X184622359Y-109163045D01*
X184637866Y-109178552D01*
X184213786Y-109602632D01*
X184213786Y-109602634D01*
X184257482Y-109653533D01*
X184418306Y-109778019D01*
X184418308Y-109778020D01*
X184600902Y-109867586D01*
X184797795Y-109918566D01*
X185000914Y-109928866D01*
X185201941Y-109898069D01*
X185392666Y-109827433D01*
X185565263Y-109719853D01*
X185565265Y-109719851D01*
X185687364Y-109603786D01*
X185262132Y-109178554D01*
X185277641Y-109163045D01*
X185335165Y-109050148D01*
X185346295Y-108979873D01*
X185808488Y-109442066D01*
X185828856Y-109412805D01*
X185909060Y-109225905D01*
X185909061Y-109225902D01*
X185949999Y-109026696D01*
X185950000Y-109026688D01*
X185950000Y-108474286D01*
X185934581Y-108322664D01*
X185934580Y-108322662D01*
X185873696Y-108128608D01*
X185873695Y-108128607D01*
X185807348Y-108009072D01*
X185346294Y-108470125D01*
X185335165Y-108399852D01*
X185277641Y-108286955D01*
X185262130Y-108271445D01*
X185686212Y-107847364D01*
X185686212Y-107847363D01*
X185642524Y-107796472D01*
X185642520Y-107796468D01*
X185481693Y-107671980D01*
X185481691Y-107671979D01*
X185299097Y-107582413D01*
X185102204Y-107531433D01*
X184899085Y-107521133D01*
X184698058Y-107551930D01*
X184507333Y-107622566D01*
X184334735Y-107730147D01*
X184334734Y-107730148D01*
X184212634Y-107846212D01*
X184637868Y-108271446D01*
X184622359Y-108286955D01*
X184564835Y-108399852D01*
X184553704Y-108470126D01*
X184091510Y-108007932D01*
X184071143Y-108037196D01*
X183990939Y-108224094D01*
X183990938Y-108224097D01*
X183950000Y-108423303D01*
X183950000Y-108975713D01*
X173450000Y-108975713D01*
X173450000Y-108474286D01*
X173434581Y-108322664D01*
X173434580Y-108322662D01*
X173373696Y-108128608D01*
X173373695Y-108128607D01*
X173307348Y-108009072D01*
X172846294Y-108470125D01*
X172835165Y-108399852D01*
X172777641Y-108286955D01*
X172762131Y-108271445D01*
X173186212Y-107847364D01*
X173186212Y-107847363D01*
X173142524Y-107796472D01*
X173142520Y-107796468D01*
X172981693Y-107671980D01*
X172981691Y-107671979D01*
X172799097Y-107582413D01*
X172602204Y-107531433D01*
X172399085Y-107521133D01*
X172198058Y-107551930D01*
X172007333Y-107622566D01*
X171834735Y-107730147D01*
X171834734Y-107730148D01*
X171712634Y-107846212D01*
X172137868Y-108271446D01*
X172122359Y-108286955D01*
X172064835Y-108399852D01*
X172053704Y-108470126D01*
X171591510Y-108007932D01*
X171571143Y-108037196D01*
X171490939Y-108224094D01*
X171490938Y-108224097D01*
X171450000Y-108423303D01*
X171450000Y-108975713D01*
X161873967Y-108975713D01*
X161827179Y-108831716D01*
X161827176Y-108831711D01*
X161827174Y-108831706D01*
X161759769Y-108714959D01*
X161732533Y-108667784D01*
X161673405Y-108602116D01*
X161605875Y-108527116D01*
X161605870Y-108527111D01*
X161529300Y-108471480D01*
X161452730Y-108415849D01*
X161452725Y-108415847D01*
X161452722Y-108415845D01*
X161279805Y-108338857D01*
X161279803Y-108338856D01*
X161279800Y-108338855D01*
X161279799Y-108338855D01*
X161244580Y-108331369D01*
X161094646Y-108299500D01*
X160905354Y-108299500D01*
X160796375Y-108322664D01*
X160720200Y-108338855D01*
X160720194Y-108338857D01*
X160547277Y-108415845D01*
X160547268Y-108415850D01*
X160394129Y-108527111D01*
X160394124Y-108527116D01*
X160267469Y-108667781D01*
X160267465Y-108667787D01*
X160172825Y-108831706D01*
X160172819Y-108831720D01*
X160114327Y-109011738D01*
X160114326Y-109011742D01*
X160114326Y-109011744D01*
X160094540Y-109200000D01*
X158897577Y-109200000D01*
X158885674Y-109086744D01*
X158827179Y-108906716D01*
X158827176Y-108906711D01*
X158827174Y-108906706D01*
X158778551Y-108822490D01*
X158732533Y-108742784D01*
X158605871Y-108602112D01*
X158452730Y-108490849D01*
X158452725Y-108490847D01*
X158452722Y-108490845D01*
X158301021Y-108423303D01*
X158279803Y-108413856D01*
X158279800Y-108413855D01*
X158279799Y-108413855D01*
X158244580Y-108406369D01*
X158094646Y-108374500D01*
X157905354Y-108374500D01*
X157787288Y-108399595D01*
X157720200Y-108413855D01*
X157720194Y-108413857D01*
X157547277Y-108490845D01*
X157547268Y-108490850D01*
X157394129Y-108602111D01*
X157394124Y-108602116D01*
X157267469Y-108742781D01*
X157267465Y-108742787D01*
X157172825Y-108906706D01*
X157172819Y-108906720D01*
X157114327Y-109086738D01*
X157114326Y-109086742D01*
X157114326Y-109086744D01*
X157094540Y-109275000D01*
X149105460Y-109275000D01*
X149085674Y-109086744D01*
X149027179Y-108906716D01*
X149027176Y-108906711D01*
X149027174Y-108906706D01*
X148978551Y-108822490D01*
X148932533Y-108742784D01*
X148805871Y-108602112D01*
X148652730Y-108490849D01*
X148652725Y-108490847D01*
X148652722Y-108490845D01*
X148501021Y-108423303D01*
X148479803Y-108413856D01*
X148479800Y-108413855D01*
X148479799Y-108413855D01*
X148444580Y-108406369D01*
X148294646Y-108374500D01*
X148105354Y-108374500D01*
X147987289Y-108399595D01*
X147920200Y-108413855D01*
X147920194Y-108413857D01*
X147747277Y-108490845D01*
X147747268Y-108490850D01*
X147594129Y-108602111D01*
X147594124Y-108602116D01*
X147467469Y-108742781D01*
X147467465Y-108742787D01*
X147372825Y-108906706D01*
X147372819Y-108906720D01*
X147314327Y-109086738D01*
X147314326Y-109086742D01*
X147314326Y-109086744D01*
X147294540Y-109275000D01*
X106435628Y-109275000D01*
X106423866Y-109208292D01*
X106423865Y-109208289D01*
X106354377Y-109047196D01*
X106249610Y-108906470D01*
X106178589Y-108846876D01*
X106115216Y-108793699D01*
X106114530Y-108793354D01*
X105958433Y-108714960D01*
X105958429Y-108714959D01*
X105958423Y-108714956D01*
X105787723Y-108674500D01*
X105787721Y-108674500D01*
X105656291Y-108674500D01*
X105525745Y-108689759D01*
X105525742Y-108689759D01*
X105525741Y-108689760D01*
X105360883Y-108749762D01*
X105214306Y-108846168D01*
X105214303Y-108846170D01*
X105093909Y-108973780D01*
X105093908Y-108973780D01*
X105006188Y-109125719D01*
X104955870Y-109293786D01*
X104955869Y-109293793D01*
X104945668Y-109468931D01*
X98438831Y-109468931D01*
X98749498Y-108846876D01*
X99215823Y-108000250D01*
X99715861Y-107173087D01*
X100046775Y-106672400D01*
X177595746Y-106672400D01*
X177605746Y-106882330D01*
X177605747Y-106882337D01*
X177655295Y-107086573D01*
X177655300Y-107086586D01*
X177742602Y-107277751D01*
X177742604Y-107277754D01*
X177864511Y-107448949D01*
X177864513Y-107448951D01*
X177864514Y-107448952D01*
X178016622Y-107593986D01*
X178193428Y-107707613D01*
X178388543Y-107785725D01*
X178594915Y-107825500D01*
X178594918Y-107825500D01*
X178752425Y-107825500D01*
X178909218Y-107810528D01*
X179110875Y-107751316D01*
X179297682Y-107655011D01*
X179462886Y-107525092D01*
X179600519Y-107366256D01*
X179705604Y-107184244D01*
X179774344Y-106985633D01*
X179804254Y-106777602D01*
X179794254Y-106567670D01*
X179744704Y-106363424D01*
X179700102Y-106265760D01*
X179657397Y-106172248D01*
X179657395Y-106172245D01*
X179535488Y-106001050D01*
X179455631Y-105924907D01*
X179383378Y-105856014D01*
X179206572Y-105742387D01*
X179206569Y-105742386D01*
X179206568Y-105742385D01*
X179097409Y-105698685D01*
X179011457Y-105664275D01*
X178805085Y-105624500D01*
X178647575Y-105624500D01*
X178490781Y-105639472D01*
X178289120Y-105698685D01*
X178102320Y-105794987D01*
X178102317Y-105794989D01*
X177937113Y-105924907D01*
X177799480Y-106083744D01*
X177694397Y-106265753D01*
X177694394Y-106265760D01*
X177625657Y-106464362D01*
X177625655Y-106464368D01*
X177595746Y-106672393D01*
X177595746Y-106672400D01*
X100046775Y-106672400D01*
X100248799Y-106366730D01*
X100813773Y-105582486D01*
X101409868Y-104821627D01*
X102036116Y-104085388D01*
X102483899Y-103600000D01*
X102691503Y-103374962D01*
X103374962Y-102691503D01*
X103776458Y-102321112D01*
X104085388Y-102036116D01*
X104821627Y-101409868D01*
X105582486Y-100813773D01*
X106366730Y-100248799D01*
X107173087Y-99715861D01*
X108000250Y-99215823D01*
X108846876Y-98749498D01*
X109711593Y-98317641D01*
X110592997Y-97920953D01*
X111489660Y-97560078D01*
X112400126Y-97235600D01*
X113322920Y-96948046D01*
X114256544Y-96697882D01*
X114379250Y-96670246D01*
X114440171Y-96675906D01*
X114486132Y-96716294D01*
X114500000Y-96766827D01*
X114500000Y-104500000D01*
X114500001Y-104500000D01*
X121499999Y-104500000D01*
X121500000Y-104500000D01*
X121500000Y-102321113D01*
X139824500Y-102321113D01*
X139839486Y-102458910D01*
X139847720Y-102483346D01*
X139898555Y-102634219D01*
X139898556Y-102634222D01*
X139993927Y-102792733D01*
X139993931Y-102792737D01*
X140121149Y-102927039D01*
X140121148Y-102927039D01*
X140274267Y-103030857D01*
X140274270Y-103030858D01*
X140446125Y-103099331D01*
X140628683Y-103129260D01*
X140813407Y-103119245D01*
X140991659Y-103069754D01*
X141155104Y-102983100D01*
X141296100Y-102863337D01*
X141322188Y-102829018D01*
X141372454Y-102794137D01*
X141433625Y-102795462D01*
X141482334Y-102832490D01*
X141500000Y-102888931D01*
X141500000Y-102900000D01*
X141796183Y-102900000D01*
X141854374Y-102918907D01*
X141890338Y-102968407D01*
X141890338Y-103029593D01*
X141869754Y-103065244D01*
X141867469Y-103067781D01*
X141867465Y-103067787D01*
X141772825Y-103231706D01*
X141772819Y-103231720D01*
X141714327Y-103411738D01*
X141694540Y-103600000D01*
X141714327Y-103788261D01*
X141772819Y-103968279D01*
X141772825Y-103968293D01*
X141840430Y-104085387D01*
X141867467Y-104132216D01*
X141994129Y-104272888D01*
X142147270Y-104384151D01*
X142320197Y-104461144D01*
X142505354Y-104500500D01*
X142505357Y-104500500D01*
X142694643Y-104500500D01*
X142694646Y-104500500D01*
X142879803Y-104461144D01*
X143052730Y-104384151D01*
X143205871Y-104272888D01*
X143332533Y-104132216D01*
X143427179Y-103968284D01*
X143485674Y-103788256D01*
X143505460Y-103600000D01*
X145944540Y-103600000D01*
X145964327Y-103788261D01*
X146022819Y-103968279D01*
X146022825Y-103968293D01*
X146090430Y-104085387D01*
X146117467Y-104132216D01*
X146244129Y-104272888D01*
X146397270Y-104384151D01*
X146570197Y-104461144D01*
X146755354Y-104500500D01*
X146755357Y-104500500D01*
X146944643Y-104500500D01*
X146944646Y-104500500D01*
X147129803Y-104461144D01*
X147302730Y-104384151D01*
X147455871Y-104272888D01*
X147582533Y-104132216D01*
X147677179Y-103968284D01*
X147735674Y-103788256D01*
X147755460Y-103600000D01*
X147735674Y-103411744D01*
X147677179Y-103231716D01*
X147677176Y-103231711D01*
X147677174Y-103231706D01*
X147612243Y-103119244D01*
X147582533Y-103067784D01*
X147580246Y-103065244D01*
X147579547Y-103063675D01*
X147579482Y-103063585D01*
X147579501Y-103063571D01*
X147555359Y-103009348D01*
X147568080Y-102949500D01*
X147613550Y-102908559D01*
X147653817Y-102900000D01*
X148499999Y-102900000D01*
X148500000Y-102900000D01*
X148500000Y-102889260D01*
X148518907Y-102831070D01*
X148568407Y-102795106D01*
X148629593Y-102795106D01*
X148670870Y-102821177D01*
X148753644Y-102908559D01*
X148771151Y-102927041D01*
X148924267Y-103030857D01*
X148924270Y-103030858D01*
X149096125Y-103099331D01*
X149278683Y-103129260D01*
X149463407Y-103119245D01*
X149641659Y-103069754D01*
X149805104Y-102983100D01*
X149946100Y-102863337D01*
X149982199Y-102815849D01*
X150058052Y-102716067D01*
X150058053Y-102716065D01*
X150058052Y-102716065D01*
X150058054Y-102716064D01*
X150135732Y-102548167D01*
X150175500Y-102367497D01*
X150175500Y-101128887D01*
X150160514Y-100991090D01*
X150101444Y-100815779D01*
X150100237Y-100813773D01*
X150006072Y-100657266D01*
X150006068Y-100657262D01*
X149993883Y-100644399D01*
X149878850Y-100522960D01*
X149878851Y-100522960D01*
X149725732Y-100419142D01*
X149553875Y-100350669D01*
X149465045Y-100336106D01*
X149371317Y-100320740D01*
X149371316Y-100320740D01*
X149325135Y-100323243D01*
X149186593Y-100330755D01*
X149008341Y-100380246D01*
X149008340Y-100380246D01*
X149008338Y-100380247D01*
X149008332Y-100380250D01*
X148844896Y-100466899D01*
X148844895Y-100466900D01*
X148703901Y-100586661D01*
X148703900Y-100586662D01*
X148677813Y-100620980D01*
X148627545Y-100655862D01*
X148566374Y-100654537D01*
X148517665Y-100617508D01*
X148500000Y-100561067D01*
X148500000Y-100400001D01*
X148500000Y-100400000D01*
X146900000Y-100400000D01*
X146900000Y-100400001D01*
X146900000Y-102600500D01*
X146881093Y-102658691D01*
X146831593Y-102694655D01*
X146801000Y-102699500D01*
X146755354Y-102699500D01*
X146637289Y-102724595D01*
X146570200Y-102738855D01*
X146570194Y-102738857D01*
X146397277Y-102815845D01*
X146397268Y-102815850D01*
X146244129Y-102927111D01*
X146244124Y-102927116D01*
X146117469Y-103067781D01*
X146117465Y-103067787D01*
X146022825Y-103231706D01*
X146022819Y-103231720D01*
X145964327Y-103411738D01*
X145944540Y-103600000D01*
X143505460Y-103600000D01*
X143485674Y-103411744D01*
X143427179Y-103231716D01*
X143427176Y-103231711D01*
X143427174Y-103231706D01*
X143362243Y-103119244D01*
X143332533Y-103067784D01*
X143243053Y-102968407D01*
X143205875Y-102927116D01*
X143205872Y-102927113D01*
X143205869Y-102927111D01*
X143168555Y-102900000D01*
X143140808Y-102879840D01*
X143104845Y-102830339D01*
X143100000Y-102799748D01*
X143100000Y-101105927D01*
X143118907Y-101047736D01*
X143168407Y-101011772D01*
X143229593Y-101011772D01*
X143279093Y-101047736D01*
X143280428Y-101049621D01*
X143295824Y-101071926D01*
X143423155Y-101184731D01*
X143573782Y-101263787D01*
X143738951Y-101304497D01*
X143738954Y-101304497D01*
X143909060Y-101304497D01*
X143909063Y-101304497D01*
X144074232Y-101263787D01*
X144224859Y-101184731D01*
X144352190Y-101071926D01*
X144444410Y-100938322D01*
X144493023Y-100901176D01*
X144554190Y-100899698D01*
X144604545Y-100934455D01*
X144607357Y-100938325D01*
X144696817Y-101067929D01*
X144824148Y-101180734D01*
X144974775Y-101259790D01*
X145139944Y-101300500D01*
X145139947Y-101300500D01*
X145310053Y-101300500D01*
X145310056Y-101300500D01*
X145475225Y-101259790D01*
X145625852Y-101180734D01*
X145753183Y-101067929D01*
X145849818Y-100927930D01*
X145910140Y-100768872D01*
X145930645Y-100600000D01*
X145929025Y-100586662D01*
X145925739Y-100559597D01*
X145910140Y-100431128D01*
X145849818Y-100272070D01*
X145753183Y-100132071D01*
X145625852Y-100019266D01*
X145475225Y-99940210D01*
X145475224Y-99940209D01*
X145475223Y-99940209D01*
X145310058Y-99899500D01*
X145310056Y-99899500D01*
X145139944Y-99899500D01*
X145139941Y-99899500D01*
X144974776Y-99940209D01*
X144824146Y-100019267D01*
X144696818Y-100132069D01*
X144696816Y-100132072D01*
X144604599Y-100265671D01*
X144555982Y-100302820D01*
X144494815Y-100304298D01*
X144444461Y-100269541D01*
X144441649Y-100265671D01*
X144430003Y-100248799D01*
X144352190Y-100136068D01*
X144347679Y-100132072D01*
X144224860Y-100023264D01*
X144224859Y-100023263D01*
X144074232Y-99944207D01*
X144074231Y-99944206D01*
X144074230Y-99944206D01*
X143909065Y-99903497D01*
X143909063Y-99903497D01*
X143738951Y-99903497D01*
X143738948Y-99903497D01*
X143573783Y-99944206D01*
X143423153Y-100023264D01*
X143295825Y-100136066D01*
X143295823Y-100136069D01*
X143199189Y-100276065D01*
X143185563Y-100311995D01*
X143176419Y-100336107D01*
X143138106Y-100383810D01*
X143083853Y-100400000D01*
X141500000Y-100400000D01*
X141500000Y-100400001D01*
X141500000Y-100560738D01*
X141481093Y-100618929D01*
X141431593Y-100654893D01*
X141370407Y-100654893D01*
X141329127Y-100628820D01*
X141228850Y-100522960D01*
X141228851Y-100522960D01*
X141075732Y-100419142D01*
X140903875Y-100350669D01*
X140815045Y-100336106D01*
X140721317Y-100320740D01*
X140721316Y-100320740D01*
X140675135Y-100323243D01*
X140536593Y-100330755D01*
X140358341Y-100380246D01*
X140358340Y-100380246D01*
X140358338Y-100380247D01*
X140358332Y-100380250D01*
X140194896Y-100466899D01*
X140194895Y-100466900D01*
X140053901Y-100586661D01*
X140053896Y-100586666D01*
X139941947Y-100733932D01*
X139941946Y-100733934D01*
X139864269Y-100901829D01*
X139864268Y-100901831D01*
X139856235Y-100938326D01*
X139824500Y-101082503D01*
X139824500Y-102321113D01*
X121500000Y-102321113D01*
X121500000Y-97996113D01*
X139824500Y-97996113D01*
X139839486Y-98133910D01*
X139869561Y-98223167D01*
X139898555Y-98309219D01*
X139898556Y-98309222D01*
X139993927Y-98467733D01*
X139993931Y-98467737D01*
X140121149Y-98602039D01*
X140121148Y-98602039D01*
X140274267Y-98705857D01*
X140274270Y-98705858D01*
X140446125Y-98774331D01*
X140628683Y-98804260D01*
X140813407Y-98794245D01*
X140991659Y-98744754D01*
X141155104Y-98658100D01*
X141296100Y-98538337D01*
X141349769Y-98467737D01*
X141408052Y-98391067D01*
X141408053Y-98391065D01*
X141408052Y-98391065D01*
X141408054Y-98391064D01*
X141485732Y-98223167D01*
X141525500Y-98042497D01*
X141525500Y-97996113D01*
X148474500Y-97996113D01*
X148489486Y-98133910D01*
X148519561Y-98223167D01*
X148548555Y-98309219D01*
X148548556Y-98309222D01*
X148643927Y-98467733D01*
X148643931Y-98467737D01*
X148771149Y-98602039D01*
X148771148Y-98602039D01*
X148924267Y-98705857D01*
X148924270Y-98705858D01*
X149096125Y-98774331D01*
X149278683Y-98804260D01*
X149463407Y-98794245D01*
X149641659Y-98744754D01*
X149805104Y-98658100D01*
X149946100Y-98538337D01*
X149999769Y-98467737D01*
X150058052Y-98391067D01*
X150058053Y-98391065D01*
X150058052Y-98391065D01*
X150058054Y-98391064D01*
X150135732Y-98223167D01*
X150175500Y-98042497D01*
X150175500Y-97103887D01*
X150160514Y-96966090D01*
X150101444Y-96790779D01*
X150087033Y-96766827D01*
X150006072Y-96632266D01*
X150006068Y-96632262D01*
X149878850Y-96497960D01*
X149878851Y-96497960D01*
X149725732Y-96394142D01*
X149553875Y-96325669D01*
X149553874Y-96325669D01*
X149371317Y-96295740D01*
X149371316Y-96295740D01*
X149325135Y-96298243D01*
X149186593Y-96305755D01*
X149008341Y-96355246D01*
X149008340Y-96355246D01*
X149008338Y-96355247D01*
X149008332Y-96355250D01*
X148844896Y-96441899D01*
X148844895Y-96441900D01*
X148703901Y-96561661D01*
X148703896Y-96561666D01*
X148591947Y-96708932D01*
X148591946Y-96708934D01*
X148514269Y-96876829D01*
X148514268Y-96876831D01*
X148514268Y-96876833D01*
X148474500Y-97057503D01*
X148474500Y-97996113D01*
X141525500Y-97996113D01*
X141525500Y-97103887D01*
X141510514Y-96966090D01*
X141451444Y-96790779D01*
X141437033Y-96766827D01*
X141356072Y-96632266D01*
X141356068Y-96632262D01*
X141228850Y-96497960D01*
X141228851Y-96497960D01*
X141075732Y-96394142D01*
X140903875Y-96325669D01*
X140903874Y-96325669D01*
X140721317Y-96295740D01*
X140721316Y-96295740D01*
X140675135Y-96298243D01*
X140536593Y-96305755D01*
X140358341Y-96355246D01*
X140358340Y-96355246D01*
X140358338Y-96355247D01*
X140358332Y-96355250D01*
X140194896Y-96441899D01*
X140194895Y-96441900D01*
X140053901Y-96561661D01*
X140053896Y-96561666D01*
X139941947Y-96708932D01*
X139941946Y-96708934D01*
X139864269Y-96876829D01*
X139864268Y-96876831D01*
X139864268Y-96876833D01*
X139824500Y-97057503D01*
X139824500Y-97996113D01*
X121500000Y-97996113D01*
X121500000Y-96099500D01*
X121518907Y-96041309D01*
X121568407Y-96005345D01*
X121599000Y-96000500D01*
X168401000Y-96000500D01*
X168459191Y-96019407D01*
G37*
%TD.AperFunction*%
%TD*%
M02*
