%TF.GenerationSoftware,KiCad,Pcbnew,7.0.6*%
%TF.CreationDate,2023-11-25T17:25:05+01:00*%
%TF.ProjectId,gamepad,67616d65-7061-4642-9e6b-696361645f70,rev?*%
%TF.SameCoordinates,Original*%
%TF.FileFunction,Paste,Top*%
%TF.FilePolarity,Positive*%
%FSLAX46Y46*%
G04 Gerber Fmt 4.6, Leading zero omitted, Abs format (unit mm)*
G04 Created by KiCad (PCBNEW 7.0.6) date 2023-11-25 17:25:05*
%MOMM*%
%LPD*%
G01*
G04 APERTURE LIST*
G04 Aperture macros list*
%AMRoundRect*
0 Rectangle with rounded corners*
0 $1 Rounding radius*
0 $2 $3 $4 $5 $6 $7 $8 $9 X,Y pos of 4 corners*
0 Add a 4 corners polygon primitive as box body*
4,1,4,$2,$3,$4,$5,$6,$7,$8,$9,$2,$3,0*
0 Add four circle primitives for the rounded corners*
1,1,$1+$1,$2,$3*
1,1,$1+$1,$4,$5*
1,1,$1+$1,$6,$7*
1,1,$1+$1,$8,$9*
0 Add four rect primitives between the rounded corners*
20,1,$1+$1,$2,$3,$4,$5,0*
20,1,$1+$1,$4,$5,$6,$7,0*
20,1,$1+$1,$6,$7,$8,$9,0*
20,1,$1+$1,$8,$9,$2,$3,0*%
G04 Aperture macros list end*
%ADD10R,2.000000X2.400000*%
%ADD11RoundRect,0.225000X-0.250000X0.225000X-0.250000X-0.225000X0.250000X-0.225000X0.250000X0.225000X0*%
%ADD12RoundRect,0.243750X-0.456250X0.243750X-0.456250X-0.243750X0.456250X-0.243750X0.456250X0.243750X0*%
%ADD13RoundRect,0.200000X-0.275000X0.200000X-0.275000X-0.200000X0.275000X-0.200000X0.275000X0.200000X0*%
%ADD14RoundRect,0.200000X0.275000X-0.200000X0.275000X0.200000X-0.275000X0.200000X-0.275000X-0.200000X0*%
%ADD15RoundRect,0.225000X-0.225000X-0.250000X0.225000X-0.250000X0.225000X0.250000X-0.225000X0.250000X0*%
%ADD16RoundRect,0.200000X0.200000X0.275000X-0.200000X0.275000X-0.200000X-0.275000X0.200000X-0.275000X0*%
%ADD17RoundRect,0.225000X0.225000X0.250000X-0.225000X0.250000X-0.225000X-0.250000X0.225000X-0.250000X0*%
%ADD18RoundRect,0.225000X0.250000X-0.225000X0.250000X0.225000X-0.250000X0.225000X-0.250000X-0.225000X0*%
%ADD19RoundRect,0.150000X-0.150000X0.512500X-0.150000X-0.512500X0.150000X-0.512500X0.150000X0.512500X0*%
%ADD20RoundRect,0.200000X-0.200000X-0.275000X0.200000X-0.275000X0.200000X0.275000X-0.200000X0.275000X0*%
%ADD21R,0.300000X1.140000*%
%ADD22RoundRect,0.100000X-0.100000X0.637500X-0.100000X-0.637500X0.100000X-0.637500X0.100000X0.637500X0*%
G04 APERTURE END LIST*
D10*
%TO.C,Y1*%
X136700000Y-113675000D03*
X133000000Y-113675000D03*
%TD*%
D11*
%TO.C,C4*%
X136700000Y-108900000D03*
X136700000Y-110450000D03*
%TD*%
D12*
%TO.C,D2*%
X161000000Y-96862500D03*
X161000000Y-98737500D03*
%TD*%
D13*
%TO.C,R1*%
X135200000Y-120425000D03*
X135200000Y-122075000D03*
%TD*%
D14*
%TO.C,R12*%
X131425000Y-134150000D03*
X131425000Y-132500000D03*
%TD*%
D15*
%TO.C,C7*%
X155650000Y-123450000D03*
X157200000Y-123450000D03*
%TD*%
D16*
%TO.C,R4*%
X157300000Y-125200000D03*
X155650000Y-125200000D03*
%TD*%
D17*
%TO.C,C13*%
X142100000Y-112000000D03*
X140550000Y-112000000D03*
%TD*%
D11*
%TO.C,C5*%
X133000000Y-108900000D03*
X133000000Y-110450000D03*
%TD*%
D18*
%TO.C,C2*%
X130575000Y-118400000D03*
X130575000Y-116850000D03*
%TD*%
%TO.C,C11*%
X148200000Y-107550000D03*
X148200000Y-106000000D03*
%TD*%
D11*
%TO.C,C10*%
X111925000Y-134000000D03*
X111925000Y-135550000D03*
%TD*%
D13*
%TO.C,R9*%
X151750000Y-100225000D03*
X151750000Y-101875000D03*
%TD*%
D15*
%TO.C,C9*%
X155650000Y-140950000D03*
X157200000Y-140950000D03*
%TD*%
%TO.C,C6*%
X173125000Y-118450000D03*
X174675000Y-118450000D03*
%TD*%
D17*
%TO.C,C1*%
X131025000Y-129075000D03*
X129475000Y-129075000D03*
%TD*%
D15*
%TO.C,C8*%
X177900000Y-135975000D03*
X179450000Y-135975000D03*
%TD*%
D16*
%TO.C,R8*%
X138600000Y-97550000D03*
X136950000Y-97550000D03*
%TD*%
%TO.C,R6*%
X157300000Y-142700000D03*
X155650000Y-142700000D03*
%TD*%
D14*
%TO.C,R16*%
X161000000Y-102225000D03*
X161000000Y-100575000D03*
%TD*%
%TO.C,R7*%
X110075000Y-135650000D03*
X110075000Y-134000000D03*
%TD*%
D19*
%TO.C,U1*%
X145950000Y-105062500D03*
X145000000Y-105062500D03*
X144050000Y-105062500D03*
X144050000Y-107337500D03*
X145000000Y-107337500D03*
X145950000Y-107337500D03*
%TD*%
D12*
%TO.C,D1*%
X158000000Y-96862500D03*
X158000000Y-98737500D03*
%TD*%
D16*
%TO.C,R5*%
X179550000Y-137725000D03*
X177900000Y-137725000D03*
%TD*%
%TO.C,R14*%
X141150000Y-118225000D03*
X139500000Y-118225000D03*
%TD*%
D20*
%TO.C,R15*%
X148700000Y-135725000D03*
X150350000Y-135725000D03*
%TD*%
D14*
%TO.C,R11*%
X158000000Y-102225000D03*
X158000000Y-100575000D03*
%TD*%
D15*
%TO.C,C14*%
X139500000Y-116475000D03*
X141050000Y-116475000D03*
%TD*%
D21*
%TO.C,XT1*%
X148350000Y-102300000D03*
X147550000Y-102300000D03*
X146250000Y-102300000D03*
X145250000Y-102300000D03*
X144750000Y-102300000D03*
X143750000Y-102300000D03*
X142450000Y-102300000D03*
X141650000Y-102300000D03*
X141950000Y-102300000D03*
X142750000Y-102300000D03*
X143250000Y-102300000D03*
X144250000Y-102300000D03*
X145750000Y-102300000D03*
X146750000Y-102300000D03*
X147250000Y-102300000D03*
X148050000Y-102300000D03*
%TD*%
D17*
%TO.C,C12*%
X142100000Y-104900000D03*
X140550000Y-104900000D03*
%TD*%
D16*
%TO.C,R3*%
X174775000Y-120200000D03*
X173125000Y-120200000D03*
%TD*%
D13*
%TO.C,R10*%
X138475000Y-100225000D03*
X138475000Y-101875000D03*
%TD*%
%TO.C,R2*%
X133000000Y-116800000D03*
X133000000Y-118450000D03*
%TD*%
D14*
%TO.C,R13*%
X133175000Y-134150000D03*
X133175000Y-132500000D03*
%TD*%
D19*
%TO.C,U3*%
X142100000Y-107312500D03*
X141150000Y-107312500D03*
X140200000Y-107312500D03*
X140200000Y-109587500D03*
X142100000Y-109587500D03*
%TD*%
D18*
%TO.C,C3*%
X130600000Y-114875000D03*
X130600000Y-113325000D03*
%TD*%
D22*
%TO.C,U2*%
X133175000Y-120737500D03*
X132525000Y-120737500D03*
X131875000Y-120737500D03*
X131225000Y-120737500D03*
X130575000Y-120737500D03*
X129925000Y-120737500D03*
X129275000Y-120737500D03*
X128625000Y-120737500D03*
X127975000Y-120737500D03*
X127325000Y-120737500D03*
X127325000Y-126462500D03*
X127975000Y-126462500D03*
X128625000Y-126462500D03*
X129275000Y-126462500D03*
X129925000Y-126462500D03*
X130575000Y-126462500D03*
X131225000Y-126462500D03*
X131875000Y-126462500D03*
X132525000Y-126462500D03*
X133175000Y-126462500D03*
%TD*%
M02*
