%TF.GenerationSoftware,KiCad,Pcbnew,7.0.6*%
%TF.CreationDate,2023-11-25T17:25:05+01:00*%
%TF.ProjectId,gamepad,67616d65-7061-4642-9e6b-696361645f70,rev?*%
%TF.SameCoordinates,Original*%
%TF.FileFunction,Legend,Top*%
%TF.FilePolarity,Positive*%
%FSLAX46Y46*%
G04 Gerber Fmt 4.6, Leading zero omitted, Abs format (unit mm)*
G04 Created by KiCad (PCBNEW 7.0.6) date 2023-11-25 17:25:05*
%MOMM*%
%LPD*%
G01*
G04 APERTURE LIST*
%ADD10C,0.100000*%
%ADD11C,0.150000*%
%ADD12C,0.200000*%
%ADD13C,0.120000*%
G04 APERTURE END LIST*
D10*
X185666667Y-134309800D02*
X185809524Y-134357419D01*
X185809524Y-134357419D02*
X186047619Y-134357419D01*
X186047619Y-134357419D02*
X186142857Y-134309800D01*
X186142857Y-134309800D02*
X186190476Y-134262180D01*
X186190476Y-134262180D02*
X186238095Y-134166942D01*
X186238095Y-134166942D02*
X186238095Y-134071704D01*
X186238095Y-134071704D02*
X186190476Y-133976466D01*
X186190476Y-133976466D02*
X186142857Y-133928847D01*
X186142857Y-133928847D02*
X186047619Y-133881228D01*
X186047619Y-133881228D02*
X185857143Y-133833609D01*
X185857143Y-133833609D02*
X185761905Y-133785990D01*
X185761905Y-133785990D02*
X185714286Y-133738371D01*
X185714286Y-133738371D02*
X185666667Y-133643133D01*
X185666667Y-133643133D02*
X185666667Y-133547895D01*
X185666667Y-133547895D02*
X185714286Y-133452657D01*
X185714286Y-133452657D02*
X185761905Y-133405038D01*
X185761905Y-133405038D02*
X185857143Y-133357419D01*
X185857143Y-133357419D02*
X186095238Y-133357419D01*
X186095238Y-133357419D02*
X186238095Y-133405038D01*
X186571429Y-133357419D02*
X186809524Y-134357419D01*
X186809524Y-134357419D02*
X187000000Y-133643133D01*
X187000000Y-133643133D02*
X187190476Y-134357419D01*
X187190476Y-134357419D02*
X187428572Y-133357419D01*
X187714286Y-133357419D02*
X188333333Y-133357419D01*
X188333333Y-133357419D02*
X188000000Y-133738371D01*
X188000000Y-133738371D02*
X188142857Y-133738371D01*
X188142857Y-133738371D02*
X188238095Y-133785990D01*
X188238095Y-133785990D02*
X188285714Y-133833609D01*
X188285714Y-133833609D02*
X188333333Y-133928847D01*
X188333333Y-133928847D02*
X188333333Y-134166942D01*
X188333333Y-134166942D02*
X188285714Y-134262180D01*
X188285714Y-134262180D02*
X188238095Y-134309800D01*
X188238095Y-134309800D02*
X188142857Y-134357419D01*
X188142857Y-134357419D02*
X187857143Y-134357419D01*
X187857143Y-134357419D02*
X187761905Y-134309800D01*
X187761905Y-134309800D02*
X187714286Y-134262180D01*
D11*
X134323809Y-110903628D02*
X134323809Y-111379819D01*
X133990476Y-110379819D02*
X134323809Y-110903628D01*
X134323809Y-110903628D02*
X134657142Y-110379819D01*
X135514285Y-111379819D02*
X134942857Y-111379819D01*
X135228571Y-111379819D02*
X135228571Y-110379819D01*
X135228571Y-110379819D02*
X135133333Y-110522676D01*
X135133333Y-110522676D02*
X135038095Y-110617914D01*
X135038095Y-110617914D02*
X134942857Y-110665533D01*
X137059580Y-107266666D02*
X137107200Y-107314285D01*
X137107200Y-107314285D02*
X137154819Y-107457142D01*
X137154819Y-107457142D02*
X137154819Y-107552380D01*
X137154819Y-107552380D02*
X137107200Y-107695237D01*
X137107200Y-107695237D02*
X137011961Y-107790475D01*
X137011961Y-107790475D02*
X136916723Y-107838094D01*
X136916723Y-107838094D02*
X136726247Y-107885713D01*
X136726247Y-107885713D02*
X136583390Y-107885713D01*
X136583390Y-107885713D02*
X136392914Y-107838094D01*
X136392914Y-107838094D02*
X136297676Y-107790475D01*
X136297676Y-107790475D02*
X136202438Y-107695237D01*
X136202438Y-107695237D02*
X136154819Y-107552380D01*
X136154819Y-107552380D02*
X136154819Y-107457142D01*
X136154819Y-107457142D02*
X136202438Y-107314285D01*
X136202438Y-107314285D02*
X136250057Y-107266666D01*
X136488152Y-106409523D02*
X137154819Y-106409523D01*
X136107200Y-106647618D02*
X136821485Y-106885713D01*
X136821485Y-106885713D02*
X136821485Y-106266666D01*
X163254819Y-99338094D02*
X162254819Y-99338094D01*
X162254819Y-99338094D02*
X162254819Y-99099999D01*
X162254819Y-99099999D02*
X162302438Y-98957142D01*
X162302438Y-98957142D02*
X162397676Y-98861904D01*
X162397676Y-98861904D02*
X162492914Y-98814285D01*
X162492914Y-98814285D02*
X162683390Y-98766666D01*
X162683390Y-98766666D02*
X162826247Y-98766666D01*
X162826247Y-98766666D02*
X163016723Y-98814285D01*
X163016723Y-98814285D02*
X163111961Y-98861904D01*
X163111961Y-98861904D02*
X163207200Y-98957142D01*
X163207200Y-98957142D02*
X163254819Y-99099999D01*
X163254819Y-99099999D02*
X163254819Y-99338094D01*
X162350057Y-98385713D02*
X162302438Y-98338094D01*
X162302438Y-98338094D02*
X162254819Y-98242856D01*
X162254819Y-98242856D02*
X162254819Y-98004761D01*
X162254819Y-98004761D02*
X162302438Y-97909523D01*
X162302438Y-97909523D02*
X162350057Y-97861904D01*
X162350057Y-97861904D02*
X162445295Y-97814285D01*
X162445295Y-97814285D02*
X162540533Y-97814285D01*
X162540533Y-97814285D02*
X162683390Y-97861904D01*
X162683390Y-97861904D02*
X163254819Y-98433332D01*
X163254819Y-98433332D02*
X163254819Y-97814285D01*
X137154819Y-120666666D02*
X136678628Y-120999999D01*
X137154819Y-121238094D02*
X136154819Y-121238094D01*
X136154819Y-121238094D02*
X136154819Y-120857142D01*
X136154819Y-120857142D02*
X136202438Y-120761904D01*
X136202438Y-120761904D02*
X136250057Y-120714285D01*
X136250057Y-120714285D02*
X136345295Y-120666666D01*
X136345295Y-120666666D02*
X136488152Y-120666666D01*
X136488152Y-120666666D02*
X136583390Y-120714285D01*
X136583390Y-120714285D02*
X136631009Y-120761904D01*
X136631009Y-120761904D02*
X136678628Y-120857142D01*
X136678628Y-120857142D02*
X136678628Y-121238094D01*
X137154819Y-119714285D02*
X137154819Y-120285713D01*
X137154819Y-119999999D02*
X136154819Y-119999999D01*
X136154819Y-119999999D02*
X136297676Y-120095237D01*
X136297676Y-120095237D02*
X136392914Y-120190475D01*
X136392914Y-120190475D02*
X136440533Y-120285713D01*
D10*
X138766667Y-135109800D02*
X138909524Y-135157419D01*
X138909524Y-135157419D02*
X139147619Y-135157419D01*
X139147619Y-135157419D02*
X139242857Y-135109800D01*
X139242857Y-135109800D02*
X139290476Y-135062180D01*
X139290476Y-135062180D02*
X139338095Y-134966942D01*
X139338095Y-134966942D02*
X139338095Y-134871704D01*
X139338095Y-134871704D02*
X139290476Y-134776466D01*
X139290476Y-134776466D02*
X139242857Y-134728847D01*
X139242857Y-134728847D02*
X139147619Y-134681228D01*
X139147619Y-134681228D02*
X138957143Y-134633609D01*
X138957143Y-134633609D02*
X138861905Y-134585990D01*
X138861905Y-134585990D02*
X138814286Y-134538371D01*
X138814286Y-134538371D02*
X138766667Y-134443133D01*
X138766667Y-134443133D02*
X138766667Y-134347895D01*
X138766667Y-134347895D02*
X138814286Y-134252657D01*
X138814286Y-134252657D02*
X138861905Y-134205038D01*
X138861905Y-134205038D02*
X138957143Y-134157419D01*
X138957143Y-134157419D02*
X139195238Y-134157419D01*
X139195238Y-134157419D02*
X139338095Y-134205038D01*
X139671429Y-134157419D02*
X139909524Y-135157419D01*
X139909524Y-135157419D02*
X140100000Y-134443133D01*
X140100000Y-134443133D02*
X140290476Y-135157419D01*
X140290476Y-135157419D02*
X140528572Y-134157419D01*
X141385714Y-134157419D02*
X140909524Y-134157419D01*
X140909524Y-134157419D02*
X140861905Y-134633609D01*
X140861905Y-134633609D02*
X140909524Y-134585990D01*
X140909524Y-134585990D02*
X141004762Y-134538371D01*
X141004762Y-134538371D02*
X141242857Y-134538371D01*
X141242857Y-134538371D02*
X141338095Y-134585990D01*
X141338095Y-134585990D02*
X141385714Y-134633609D01*
X141385714Y-134633609D02*
X141433333Y-134728847D01*
X141433333Y-134728847D02*
X141433333Y-134966942D01*
X141433333Y-134966942D02*
X141385714Y-135062180D01*
X141385714Y-135062180D02*
X141338095Y-135109800D01*
X141338095Y-135109800D02*
X141242857Y-135157419D01*
X141242857Y-135157419D02*
X141004762Y-135157419D01*
X141004762Y-135157419D02*
X140909524Y-135109800D01*
X140909524Y-135109800D02*
X140861905Y-135062180D01*
D11*
X130354819Y-134142857D02*
X129878628Y-134476190D01*
X130354819Y-134714285D02*
X129354819Y-134714285D01*
X129354819Y-134714285D02*
X129354819Y-134333333D01*
X129354819Y-134333333D02*
X129402438Y-134238095D01*
X129402438Y-134238095D02*
X129450057Y-134190476D01*
X129450057Y-134190476D02*
X129545295Y-134142857D01*
X129545295Y-134142857D02*
X129688152Y-134142857D01*
X129688152Y-134142857D02*
X129783390Y-134190476D01*
X129783390Y-134190476D02*
X129831009Y-134238095D01*
X129831009Y-134238095D02*
X129878628Y-134333333D01*
X129878628Y-134333333D02*
X129878628Y-134714285D01*
X130354819Y-133190476D02*
X130354819Y-133761904D01*
X130354819Y-133476190D02*
X129354819Y-133476190D01*
X129354819Y-133476190D02*
X129497676Y-133571428D01*
X129497676Y-133571428D02*
X129592914Y-133666666D01*
X129592914Y-133666666D02*
X129640533Y-133761904D01*
X129450057Y-132809523D02*
X129402438Y-132761904D01*
X129402438Y-132761904D02*
X129354819Y-132666666D01*
X129354819Y-132666666D02*
X129354819Y-132428571D01*
X129354819Y-132428571D02*
X129402438Y-132333333D01*
X129402438Y-132333333D02*
X129450057Y-132285714D01*
X129450057Y-132285714D02*
X129545295Y-132238095D01*
X129545295Y-132238095D02*
X129640533Y-132238095D01*
X129640533Y-132238095D02*
X129783390Y-132285714D01*
X129783390Y-132285714D02*
X130354819Y-132857142D01*
X130354819Y-132857142D02*
X130354819Y-132238095D01*
X157809523Y-106554819D02*
X157333333Y-106554819D01*
X157333333Y-106554819D02*
X157285714Y-107031009D01*
X157285714Y-107031009D02*
X157333333Y-106983390D01*
X157333333Y-106983390D02*
X157428571Y-106935771D01*
X157428571Y-106935771D02*
X157666666Y-106935771D01*
X157666666Y-106935771D02*
X157761904Y-106983390D01*
X157761904Y-106983390D02*
X157809523Y-107031009D01*
X157809523Y-107031009D02*
X157857142Y-107126247D01*
X157857142Y-107126247D02*
X157857142Y-107364342D01*
X157857142Y-107364342D02*
X157809523Y-107459580D01*
X157809523Y-107459580D02*
X157761904Y-107507200D01*
X157761904Y-107507200D02*
X157666666Y-107554819D01*
X157666666Y-107554819D02*
X157428571Y-107554819D01*
X157428571Y-107554819D02*
X157333333Y-107507200D01*
X157333333Y-107507200D02*
X157285714Y-107459580D01*
X158142857Y-106554819D02*
X158476190Y-107554819D01*
X158476190Y-107554819D02*
X158809523Y-106554819D01*
X160333333Y-123759580D02*
X160285714Y-123807200D01*
X160285714Y-123807200D02*
X160142857Y-123854819D01*
X160142857Y-123854819D02*
X160047619Y-123854819D01*
X160047619Y-123854819D02*
X159904762Y-123807200D01*
X159904762Y-123807200D02*
X159809524Y-123711961D01*
X159809524Y-123711961D02*
X159761905Y-123616723D01*
X159761905Y-123616723D02*
X159714286Y-123426247D01*
X159714286Y-123426247D02*
X159714286Y-123283390D01*
X159714286Y-123283390D02*
X159761905Y-123092914D01*
X159761905Y-123092914D02*
X159809524Y-122997676D01*
X159809524Y-122997676D02*
X159904762Y-122902438D01*
X159904762Y-122902438D02*
X160047619Y-122854819D01*
X160047619Y-122854819D02*
X160142857Y-122854819D01*
X160142857Y-122854819D02*
X160285714Y-122902438D01*
X160285714Y-122902438D02*
X160333333Y-122950057D01*
X160666667Y-122854819D02*
X161333333Y-122854819D01*
X161333333Y-122854819D02*
X160904762Y-123854819D01*
X160333333Y-125654819D02*
X160000000Y-125178628D01*
X159761905Y-125654819D02*
X159761905Y-124654819D01*
X159761905Y-124654819D02*
X160142857Y-124654819D01*
X160142857Y-124654819D02*
X160238095Y-124702438D01*
X160238095Y-124702438D02*
X160285714Y-124750057D01*
X160285714Y-124750057D02*
X160333333Y-124845295D01*
X160333333Y-124845295D02*
X160333333Y-124988152D01*
X160333333Y-124988152D02*
X160285714Y-125083390D01*
X160285714Y-125083390D02*
X160238095Y-125131009D01*
X160238095Y-125131009D02*
X160142857Y-125178628D01*
X160142857Y-125178628D02*
X159761905Y-125178628D01*
X161190476Y-124988152D02*
X161190476Y-125654819D01*
X160952381Y-124607200D02*
X160714286Y-125321485D01*
X160714286Y-125321485D02*
X161333333Y-125321485D01*
X143757142Y-112359580D02*
X143709523Y-112407200D01*
X143709523Y-112407200D02*
X143566666Y-112454819D01*
X143566666Y-112454819D02*
X143471428Y-112454819D01*
X143471428Y-112454819D02*
X143328571Y-112407200D01*
X143328571Y-112407200D02*
X143233333Y-112311961D01*
X143233333Y-112311961D02*
X143185714Y-112216723D01*
X143185714Y-112216723D02*
X143138095Y-112026247D01*
X143138095Y-112026247D02*
X143138095Y-111883390D01*
X143138095Y-111883390D02*
X143185714Y-111692914D01*
X143185714Y-111692914D02*
X143233333Y-111597676D01*
X143233333Y-111597676D02*
X143328571Y-111502438D01*
X143328571Y-111502438D02*
X143471428Y-111454819D01*
X143471428Y-111454819D02*
X143566666Y-111454819D01*
X143566666Y-111454819D02*
X143709523Y-111502438D01*
X143709523Y-111502438D02*
X143757142Y-111550057D01*
X144709523Y-112454819D02*
X144138095Y-112454819D01*
X144423809Y-112454819D02*
X144423809Y-111454819D01*
X144423809Y-111454819D02*
X144328571Y-111597676D01*
X144328571Y-111597676D02*
X144233333Y-111692914D01*
X144233333Y-111692914D02*
X144138095Y-111740533D01*
X145042857Y-111454819D02*
X145661904Y-111454819D01*
X145661904Y-111454819D02*
X145328571Y-111835771D01*
X145328571Y-111835771D02*
X145471428Y-111835771D01*
X145471428Y-111835771D02*
X145566666Y-111883390D01*
X145566666Y-111883390D02*
X145614285Y-111931009D01*
X145614285Y-111931009D02*
X145661904Y-112026247D01*
X145661904Y-112026247D02*
X145661904Y-112264342D01*
X145661904Y-112264342D02*
X145614285Y-112359580D01*
X145614285Y-112359580D02*
X145566666Y-112407200D01*
X145566666Y-112407200D02*
X145471428Y-112454819D01*
X145471428Y-112454819D02*
X145185714Y-112454819D01*
X145185714Y-112454819D02*
X145090476Y-112407200D01*
X145090476Y-112407200D02*
X145042857Y-112359580D01*
X160238095Y-106554819D02*
X160857142Y-106554819D01*
X160857142Y-106554819D02*
X160523809Y-106935771D01*
X160523809Y-106935771D02*
X160666666Y-106935771D01*
X160666666Y-106935771D02*
X160761904Y-106983390D01*
X160761904Y-106983390D02*
X160809523Y-107031009D01*
X160809523Y-107031009D02*
X160857142Y-107126247D01*
X160857142Y-107126247D02*
X160857142Y-107364342D01*
X160857142Y-107364342D02*
X160809523Y-107459580D01*
X160809523Y-107459580D02*
X160761904Y-107507200D01*
X160761904Y-107507200D02*
X160666666Y-107554819D01*
X160666666Y-107554819D02*
X160380952Y-107554819D01*
X160380952Y-107554819D02*
X160285714Y-107507200D01*
X160285714Y-107507200D02*
X160238095Y-107459580D01*
X161142857Y-106554819D02*
X161476190Y-107554819D01*
X161476190Y-107554819D02*
X161809523Y-106554819D01*
X133359580Y-107266666D02*
X133407200Y-107314285D01*
X133407200Y-107314285D02*
X133454819Y-107457142D01*
X133454819Y-107457142D02*
X133454819Y-107552380D01*
X133454819Y-107552380D02*
X133407200Y-107695237D01*
X133407200Y-107695237D02*
X133311961Y-107790475D01*
X133311961Y-107790475D02*
X133216723Y-107838094D01*
X133216723Y-107838094D02*
X133026247Y-107885713D01*
X133026247Y-107885713D02*
X132883390Y-107885713D01*
X132883390Y-107885713D02*
X132692914Y-107838094D01*
X132692914Y-107838094D02*
X132597676Y-107790475D01*
X132597676Y-107790475D02*
X132502438Y-107695237D01*
X132502438Y-107695237D02*
X132454819Y-107552380D01*
X132454819Y-107552380D02*
X132454819Y-107457142D01*
X132454819Y-107457142D02*
X132502438Y-107314285D01*
X132502438Y-107314285D02*
X132550057Y-107266666D01*
X132454819Y-106361904D02*
X132454819Y-106838094D01*
X132454819Y-106838094D02*
X132931009Y-106885713D01*
X132931009Y-106885713D02*
X132883390Y-106838094D01*
X132883390Y-106838094D02*
X132835771Y-106742856D01*
X132835771Y-106742856D02*
X132835771Y-106504761D01*
X132835771Y-106504761D02*
X132883390Y-106409523D01*
X132883390Y-106409523D02*
X132931009Y-106361904D01*
X132931009Y-106361904D02*
X133026247Y-106314285D01*
X133026247Y-106314285D02*
X133264342Y-106314285D01*
X133264342Y-106314285D02*
X133359580Y-106361904D01*
X133359580Y-106361904D02*
X133407200Y-106409523D01*
X133407200Y-106409523D02*
X133454819Y-106504761D01*
X133454819Y-106504761D02*
X133454819Y-106742856D01*
X133454819Y-106742856D02*
X133407200Y-106838094D01*
X133407200Y-106838094D02*
X133359580Y-106885713D01*
X129559580Y-118466666D02*
X129607200Y-118514285D01*
X129607200Y-118514285D02*
X129654819Y-118657142D01*
X129654819Y-118657142D02*
X129654819Y-118752380D01*
X129654819Y-118752380D02*
X129607200Y-118895237D01*
X129607200Y-118895237D02*
X129511961Y-118990475D01*
X129511961Y-118990475D02*
X129416723Y-119038094D01*
X129416723Y-119038094D02*
X129226247Y-119085713D01*
X129226247Y-119085713D02*
X129083390Y-119085713D01*
X129083390Y-119085713D02*
X128892914Y-119038094D01*
X128892914Y-119038094D02*
X128797676Y-118990475D01*
X128797676Y-118990475D02*
X128702438Y-118895237D01*
X128702438Y-118895237D02*
X128654819Y-118752380D01*
X128654819Y-118752380D02*
X128654819Y-118657142D01*
X128654819Y-118657142D02*
X128702438Y-118514285D01*
X128702438Y-118514285D02*
X128750057Y-118466666D01*
X128750057Y-118085713D02*
X128702438Y-118038094D01*
X128702438Y-118038094D02*
X128654819Y-117942856D01*
X128654819Y-117942856D02*
X128654819Y-117704761D01*
X128654819Y-117704761D02*
X128702438Y-117609523D01*
X128702438Y-117609523D02*
X128750057Y-117561904D01*
X128750057Y-117561904D02*
X128845295Y-117514285D01*
X128845295Y-117514285D02*
X128940533Y-117514285D01*
X128940533Y-117514285D02*
X129083390Y-117561904D01*
X129083390Y-117561904D02*
X129654819Y-118133332D01*
X129654819Y-118133332D02*
X129654819Y-117514285D01*
X150159580Y-107542857D02*
X150207200Y-107590476D01*
X150207200Y-107590476D02*
X150254819Y-107733333D01*
X150254819Y-107733333D02*
X150254819Y-107828571D01*
X150254819Y-107828571D02*
X150207200Y-107971428D01*
X150207200Y-107971428D02*
X150111961Y-108066666D01*
X150111961Y-108066666D02*
X150016723Y-108114285D01*
X150016723Y-108114285D02*
X149826247Y-108161904D01*
X149826247Y-108161904D02*
X149683390Y-108161904D01*
X149683390Y-108161904D02*
X149492914Y-108114285D01*
X149492914Y-108114285D02*
X149397676Y-108066666D01*
X149397676Y-108066666D02*
X149302438Y-107971428D01*
X149302438Y-107971428D02*
X149254819Y-107828571D01*
X149254819Y-107828571D02*
X149254819Y-107733333D01*
X149254819Y-107733333D02*
X149302438Y-107590476D01*
X149302438Y-107590476D02*
X149350057Y-107542857D01*
X150254819Y-106590476D02*
X150254819Y-107161904D01*
X150254819Y-106876190D02*
X149254819Y-106876190D01*
X149254819Y-106876190D02*
X149397676Y-106971428D01*
X149397676Y-106971428D02*
X149492914Y-107066666D01*
X149492914Y-107066666D02*
X149540533Y-107161904D01*
X150254819Y-105638095D02*
X150254819Y-106209523D01*
X150254819Y-105923809D02*
X149254819Y-105923809D01*
X149254819Y-105923809D02*
X149397676Y-106019047D01*
X149397676Y-106019047D02*
X149492914Y-106114285D01*
X149492914Y-106114285D02*
X149540533Y-106209523D01*
X113959580Y-135642857D02*
X114007200Y-135690476D01*
X114007200Y-135690476D02*
X114054819Y-135833333D01*
X114054819Y-135833333D02*
X114054819Y-135928571D01*
X114054819Y-135928571D02*
X114007200Y-136071428D01*
X114007200Y-136071428D02*
X113911961Y-136166666D01*
X113911961Y-136166666D02*
X113816723Y-136214285D01*
X113816723Y-136214285D02*
X113626247Y-136261904D01*
X113626247Y-136261904D02*
X113483390Y-136261904D01*
X113483390Y-136261904D02*
X113292914Y-136214285D01*
X113292914Y-136214285D02*
X113197676Y-136166666D01*
X113197676Y-136166666D02*
X113102438Y-136071428D01*
X113102438Y-136071428D02*
X113054819Y-135928571D01*
X113054819Y-135928571D02*
X113054819Y-135833333D01*
X113054819Y-135833333D02*
X113102438Y-135690476D01*
X113102438Y-135690476D02*
X113150057Y-135642857D01*
X114054819Y-134690476D02*
X114054819Y-135261904D01*
X114054819Y-134976190D02*
X113054819Y-134976190D01*
X113054819Y-134976190D02*
X113197676Y-135071428D01*
X113197676Y-135071428D02*
X113292914Y-135166666D01*
X113292914Y-135166666D02*
X113340533Y-135261904D01*
X113054819Y-134071428D02*
X113054819Y-133976190D01*
X113054819Y-133976190D02*
X113102438Y-133880952D01*
X113102438Y-133880952D02*
X113150057Y-133833333D01*
X113150057Y-133833333D02*
X113245295Y-133785714D01*
X113245295Y-133785714D02*
X113435771Y-133738095D01*
X113435771Y-133738095D02*
X113673866Y-133738095D01*
X113673866Y-133738095D02*
X113864342Y-133785714D01*
X113864342Y-133785714D02*
X113959580Y-133833333D01*
X113959580Y-133833333D02*
X114007200Y-133880952D01*
X114007200Y-133880952D02*
X114054819Y-133976190D01*
X114054819Y-133976190D02*
X114054819Y-134071428D01*
X114054819Y-134071428D02*
X114007200Y-134166666D01*
X114007200Y-134166666D02*
X113959580Y-134214285D01*
X113959580Y-134214285D02*
X113864342Y-134261904D01*
X113864342Y-134261904D02*
X113673866Y-134309523D01*
X113673866Y-134309523D02*
X113435771Y-134309523D01*
X113435771Y-134309523D02*
X113245295Y-134261904D01*
X113245295Y-134261904D02*
X113150057Y-134214285D01*
X113150057Y-134214285D02*
X113102438Y-134166666D01*
X113102438Y-134166666D02*
X113054819Y-134071428D01*
X153754819Y-101866666D02*
X153278628Y-102199999D01*
X153754819Y-102438094D02*
X152754819Y-102438094D01*
X152754819Y-102438094D02*
X152754819Y-102057142D01*
X152754819Y-102057142D02*
X152802438Y-101961904D01*
X152802438Y-101961904D02*
X152850057Y-101914285D01*
X152850057Y-101914285D02*
X152945295Y-101866666D01*
X152945295Y-101866666D02*
X153088152Y-101866666D01*
X153088152Y-101866666D02*
X153183390Y-101914285D01*
X153183390Y-101914285D02*
X153231009Y-101961904D01*
X153231009Y-101961904D02*
X153278628Y-102057142D01*
X153278628Y-102057142D02*
X153278628Y-102438094D01*
X153754819Y-101390475D02*
X153754819Y-101199999D01*
X153754819Y-101199999D02*
X153707200Y-101104761D01*
X153707200Y-101104761D02*
X153659580Y-101057142D01*
X153659580Y-101057142D02*
X153516723Y-100961904D01*
X153516723Y-100961904D02*
X153326247Y-100914285D01*
X153326247Y-100914285D02*
X152945295Y-100914285D01*
X152945295Y-100914285D02*
X152850057Y-100961904D01*
X152850057Y-100961904D02*
X152802438Y-101009523D01*
X152802438Y-101009523D02*
X152754819Y-101104761D01*
X152754819Y-101104761D02*
X152754819Y-101295237D01*
X152754819Y-101295237D02*
X152802438Y-101390475D01*
X152802438Y-101390475D02*
X152850057Y-101438094D01*
X152850057Y-101438094D02*
X152945295Y-101485713D01*
X152945295Y-101485713D02*
X153183390Y-101485713D01*
X153183390Y-101485713D02*
X153278628Y-101438094D01*
X153278628Y-101438094D02*
X153326247Y-101390475D01*
X153326247Y-101390475D02*
X153373866Y-101295237D01*
X153373866Y-101295237D02*
X153373866Y-101104761D01*
X153373866Y-101104761D02*
X153326247Y-101009523D01*
X153326247Y-101009523D02*
X153278628Y-100961904D01*
X153278628Y-100961904D02*
X153183390Y-100914285D01*
X163238095Y-106602438D02*
X163142857Y-106554819D01*
X163142857Y-106554819D02*
X163000000Y-106554819D01*
X163000000Y-106554819D02*
X162857143Y-106602438D01*
X162857143Y-106602438D02*
X162761905Y-106697676D01*
X162761905Y-106697676D02*
X162714286Y-106792914D01*
X162714286Y-106792914D02*
X162666667Y-106983390D01*
X162666667Y-106983390D02*
X162666667Y-107126247D01*
X162666667Y-107126247D02*
X162714286Y-107316723D01*
X162714286Y-107316723D02*
X162761905Y-107411961D01*
X162761905Y-107411961D02*
X162857143Y-107507200D01*
X162857143Y-107507200D02*
X163000000Y-107554819D01*
X163000000Y-107554819D02*
X163095238Y-107554819D01*
X163095238Y-107554819D02*
X163238095Y-107507200D01*
X163238095Y-107507200D02*
X163285714Y-107459580D01*
X163285714Y-107459580D02*
X163285714Y-107126247D01*
X163285714Y-107126247D02*
X163095238Y-107126247D01*
X163714286Y-107554819D02*
X163714286Y-106554819D01*
X163714286Y-106554819D02*
X164285714Y-107554819D01*
X164285714Y-107554819D02*
X164285714Y-106554819D01*
X164761905Y-107554819D02*
X164761905Y-106554819D01*
X164761905Y-106554819D02*
X165000000Y-106554819D01*
X165000000Y-106554819D02*
X165142857Y-106602438D01*
X165142857Y-106602438D02*
X165238095Y-106697676D01*
X165238095Y-106697676D02*
X165285714Y-106792914D01*
X165285714Y-106792914D02*
X165333333Y-106983390D01*
X165333333Y-106983390D02*
X165333333Y-107126247D01*
X165333333Y-107126247D02*
X165285714Y-107316723D01*
X165285714Y-107316723D02*
X165238095Y-107411961D01*
X165238095Y-107411961D02*
X165142857Y-107507200D01*
X165142857Y-107507200D02*
X165000000Y-107554819D01*
X165000000Y-107554819D02*
X164761905Y-107554819D01*
X153633333Y-140759580D02*
X153585714Y-140807200D01*
X153585714Y-140807200D02*
X153442857Y-140854819D01*
X153442857Y-140854819D02*
X153347619Y-140854819D01*
X153347619Y-140854819D02*
X153204762Y-140807200D01*
X153204762Y-140807200D02*
X153109524Y-140711961D01*
X153109524Y-140711961D02*
X153061905Y-140616723D01*
X153061905Y-140616723D02*
X153014286Y-140426247D01*
X153014286Y-140426247D02*
X153014286Y-140283390D01*
X153014286Y-140283390D02*
X153061905Y-140092914D01*
X153061905Y-140092914D02*
X153109524Y-139997676D01*
X153109524Y-139997676D02*
X153204762Y-139902438D01*
X153204762Y-139902438D02*
X153347619Y-139854819D01*
X153347619Y-139854819D02*
X153442857Y-139854819D01*
X153442857Y-139854819D02*
X153585714Y-139902438D01*
X153585714Y-139902438D02*
X153633333Y-139950057D01*
X154109524Y-140854819D02*
X154300000Y-140854819D01*
X154300000Y-140854819D02*
X154395238Y-140807200D01*
X154395238Y-140807200D02*
X154442857Y-140759580D01*
X154442857Y-140759580D02*
X154538095Y-140616723D01*
X154538095Y-140616723D02*
X154585714Y-140426247D01*
X154585714Y-140426247D02*
X154585714Y-140045295D01*
X154585714Y-140045295D02*
X154538095Y-139950057D01*
X154538095Y-139950057D02*
X154490476Y-139902438D01*
X154490476Y-139902438D02*
X154395238Y-139854819D01*
X154395238Y-139854819D02*
X154204762Y-139854819D01*
X154204762Y-139854819D02*
X154109524Y-139902438D01*
X154109524Y-139902438D02*
X154061905Y-139950057D01*
X154061905Y-139950057D02*
X154014286Y-140045295D01*
X154014286Y-140045295D02*
X154014286Y-140283390D01*
X154014286Y-140283390D02*
X154061905Y-140378628D01*
X154061905Y-140378628D02*
X154109524Y-140426247D01*
X154109524Y-140426247D02*
X154204762Y-140473866D01*
X154204762Y-140473866D02*
X154395238Y-140473866D01*
X154395238Y-140473866D02*
X154490476Y-140426247D01*
X154490476Y-140426247D02*
X154538095Y-140378628D01*
X154538095Y-140378628D02*
X154585714Y-140283390D01*
X177933333Y-118759580D02*
X177885714Y-118807200D01*
X177885714Y-118807200D02*
X177742857Y-118854819D01*
X177742857Y-118854819D02*
X177647619Y-118854819D01*
X177647619Y-118854819D02*
X177504762Y-118807200D01*
X177504762Y-118807200D02*
X177409524Y-118711961D01*
X177409524Y-118711961D02*
X177361905Y-118616723D01*
X177361905Y-118616723D02*
X177314286Y-118426247D01*
X177314286Y-118426247D02*
X177314286Y-118283390D01*
X177314286Y-118283390D02*
X177361905Y-118092914D01*
X177361905Y-118092914D02*
X177409524Y-117997676D01*
X177409524Y-117997676D02*
X177504762Y-117902438D01*
X177504762Y-117902438D02*
X177647619Y-117854819D01*
X177647619Y-117854819D02*
X177742857Y-117854819D01*
X177742857Y-117854819D02*
X177885714Y-117902438D01*
X177885714Y-117902438D02*
X177933333Y-117950057D01*
X178790476Y-117854819D02*
X178600000Y-117854819D01*
X178600000Y-117854819D02*
X178504762Y-117902438D01*
X178504762Y-117902438D02*
X178457143Y-117950057D01*
X178457143Y-117950057D02*
X178361905Y-118092914D01*
X178361905Y-118092914D02*
X178314286Y-118283390D01*
X178314286Y-118283390D02*
X178314286Y-118664342D01*
X178314286Y-118664342D02*
X178361905Y-118759580D01*
X178361905Y-118759580D02*
X178409524Y-118807200D01*
X178409524Y-118807200D02*
X178504762Y-118854819D01*
X178504762Y-118854819D02*
X178695238Y-118854819D01*
X178695238Y-118854819D02*
X178790476Y-118807200D01*
X178790476Y-118807200D02*
X178838095Y-118759580D01*
X178838095Y-118759580D02*
X178885714Y-118664342D01*
X178885714Y-118664342D02*
X178885714Y-118426247D01*
X178885714Y-118426247D02*
X178838095Y-118331009D01*
X178838095Y-118331009D02*
X178790476Y-118283390D01*
X178790476Y-118283390D02*
X178695238Y-118235771D01*
X178695238Y-118235771D02*
X178504762Y-118235771D01*
X178504762Y-118235771D02*
X178409524Y-118283390D01*
X178409524Y-118283390D02*
X178361905Y-118331009D01*
X178361905Y-118331009D02*
X178314286Y-118426247D01*
X132733333Y-129459580D02*
X132685714Y-129507200D01*
X132685714Y-129507200D02*
X132542857Y-129554819D01*
X132542857Y-129554819D02*
X132447619Y-129554819D01*
X132447619Y-129554819D02*
X132304762Y-129507200D01*
X132304762Y-129507200D02*
X132209524Y-129411961D01*
X132209524Y-129411961D02*
X132161905Y-129316723D01*
X132161905Y-129316723D02*
X132114286Y-129126247D01*
X132114286Y-129126247D02*
X132114286Y-128983390D01*
X132114286Y-128983390D02*
X132161905Y-128792914D01*
X132161905Y-128792914D02*
X132209524Y-128697676D01*
X132209524Y-128697676D02*
X132304762Y-128602438D01*
X132304762Y-128602438D02*
X132447619Y-128554819D01*
X132447619Y-128554819D02*
X132542857Y-128554819D01*
X132542857Y-128554819D02*
X132685714Y-128602438D01*
X132685714Y-128602438D02*
X132733333Y-128650057D01*
X133685714Y-129554819D02*
X133114286Y-129554819D01*
X133400000Y-129554819D02*
X133400000Y-128554819D01*
X133400000Y-128554819D02*
X133304762Y-128697676D01*
X133304762Y-128697676D02*
X133209524Y-128792914D01*
X133209524Y-128792914D02*
X133114286Y-128840533D01*
X182783333Y-136359580D02*
X182735714Y-136407200D01*
X182735714Y-136407200D02*
X182592857Y-136454819D01*
X182592857Y-136454819D02*
X182497619Y-136454819D01*
X182497619Y-136454819D02*
X182354762Y-136407200D01*
X182354762Y-136407200D02*
X182259524Y-136311961D01*
X182259524Y-136311961D02*
X182211905Y-136216723D01*
X182211905Y-136216723D02*
X182164286Y-136026247D01*
X182164286Y-136026247D02*
X182164286Y-135883390D01*
X182164286Y-135883390D02*
X182211905Y-135692914D01*
X182211905Y-135692914D02*
X182259524Y-135597676D01*
X182259524Y-135597676D02*
X182354762Y-135502438D01*
X182354762Y-135502438D02*
X182497619Y-135454819D01*
X182497619Y-135454819D02*
X182592857Y-135454819D01*
X182592857Y-135454819D02*
X182735714Y-135502438D01*
X182735714Y-135502438D02*
X182783333Y-135550057D01*
X183354762Y-135883390D02*
X183259524Y-135835771D01*
X183259524Y-135835771D02*
X183211905Y-135788152D01*
X183211905Y-135788152D02*
X183164286Y-135692914D01*
X183164286Y-135692914D02*
X183164286Y-135645295D01*
X183164286Y-135645295D02*
X183211905Y-135550057D01*
X183211905Y-135550057D02*
X183259524Y-135502438D01*
X183259524Y-135502438D02*
X183354762Y-135454819D01*
X183354762Y-135454819D02*
X183545238Y-135454819D01*
X183545238Y-135454819D02*
X183640476Y-135502438D01*
X183640476Y-135502438D02*
X183688095Y-135550057D01*
X183688095Y-135550057D02*
X183735714Y-135645295D01*
X183735714Y-135645295D02*
X183735714Y-135692914D01*
X183735714Y-135692914D02*
X183688095Y-135788152D01*
X183688095Y-135788152D02*
X183640476Y-135835771D01*
X183640476Y-135835771D02*
X183545238Y-135883390D01*
X183545238Y-135883390D02*
X183354762Y-135883390D01*
X183354762Y-135883390D02*
X183259524Y-135931009D01*
X183259524Y-135931009D02*
X183211905Y-135978628D01*
X183211905Y-135978628D02*
X183164286Y-136073866D01*
X183164286Y-136073866D02*
X183164286Y-136264342D01*
X183164286Y-136264342D02*
X183211905Y-136359580D01*
X183211905Y-136359580D02*
X183259524Y-136407200D01*
X183259524Y-136407200D02*
X183354762Y-136454819D01*
X183354762Y-136454819D02*
X183545238Y-136454819D01*
X183545238Y-136454819D02*
X183640476Y-136407200D01*
X183640476Y-136407200D02*
X183688095Y-136359580D01*
X183688095Y-136359580D02*
X183735714Y-136264342D01*
X183735714Y-136264342D02*
X183735714Y-136073866D01*
X183735714Y-136073866D02*
X183688095Y-135978628D01*
X183688095Y-135978628D02*
X183640476Y-135931009D01*
X183640476Y-135931009D02*
X183545238Y-135883390D01*
X134933333Y-98054819D02*
X134600000Y-97578628D01*
X134361905Y-98054819D02*
X134361905Y-97054819D01*
X134361905Y-97054819D02*
X134742857Y-97054819D01*
X134742857Y-97054819D02*
X134838095Y-97102438D01*
X134838095Y-97102438D02*
X134885714Y-97150057D01*
X134885714Y-97150057D02*
X134933333Y-97245295D01*
X134933333Y-97245295D02*
X134933333Y-97388152D01*
X134933333Y-97388152D02*
X134885714Y-97483390D01*
X134885714Y-97483390D02*
X134838095Y-97531009D01*
X134838095Y-97531009D02*
X134742857Y-97578628D01*
X134742857Y-97578628D02*
X134361905Y-97578628D01*
X135504762Y-97483390D02*
X135409524Y-97435771D01*
X135409524Y-97435771D02*
X135361905Y-97388152D01*
X135361905Y-97388152D02*
X135314286Y-97292914D01*
X135314286Y-97292914D02*
X135314286Y-97245295D01*
X135314286Y-97245295D02*
X135361905Y-97150057D01*
X135361905Y-97150057D02*
X135409524Y-97102438D01*
X135409524Y-97102438D02*
X135504762Y-97054819D01*
X135504762Y-97054819D02*
X135695238Y-97054819D01*
X135695238Y-97054819D02*
X135790476Y-97102438D01*
X135790476Y-97102438D02*
X135838095Y-97150057D01*
X135838095Y-97150057D02*
X135885714Y-97245295D01*
X135885714Y-97245295D02*
X135885714Y-97292914D01*
X135885714Y-97292914D02*
X135838095Y-97388152D01*
X135838095Y-97388152D02*
X135790476Y-97435771D01*
X135790476Y-97435771D02*
X135695238Y-97483390D01*
X135695238Y-97483390D02*
X135504762Y-97483390D01*
X135504762Y-97483390D02*
X135409524Y-97531009D01*
X135409524Y-97531009D02*
X135361905Y-97578628D01*
X135361905Y-97578628D02*
X135314286Y-97673866D01*
X135314286Y-97673866D02*
X135314286Y-97864342D01*
X135314286Y-97864342D02*
X135361905Y-97959580D01*
X135361905Y-97959580D02*
X135409524Y-98007200D01*
X135409524Y-98007200D02*
X135504762Y-98054819D01*
X135504762Y-98054819D02*
X135695238Y-98054819D01*
X135695238Y-98054819D02*
X135790476Y-98007200D01*
X135790476Y-98007200D02*
X135838095Y-97959580D01*
X135838095Y-97959580D02*
X135885714Y-97864342D01*
X135885714Y-97864342D02*
X135885714Y-97673866D01*
X135885714Y-97673866D02*
X135838095Y-97578628D01*
X135838095Y-97578628D02*
X135790476Y-97531009D01*
X135790476Y-97531009D02*
X135695238Y-97483390D01*
X159333333Y-143154819D02*
X159000000Y-142678628D01*
X158761905Y-143154819D02*
X158761905Y-142154819D01*
X158761905Y-142154819D02*
X159142857Y-142154819D01*
X159142857Y-142154819D02*
X159238095Y-142202438D01*
X159238095Y-142202438D02*
X159285714Y-142250057D01*
X159285714Y-142250057D02*
X159333333Y-142345295D01*
X159333333Y-142345295D02*
X159333333Y-142488152D01*
X159333333Y-142488152D02*
X159285714Y-142583390D01*
X159285714Y-142583390D02*
X159238095Y-142631009D01*
X159238095Y-142631009D02*
X159142857Y-142678628D01*
X159142857Y-142678628D02*
X158761905Y-142678628D01*
X160190476Y-142154819D02*
X160000000Y-142154819D01*
X160000000Y-142154819D02*
X159904762Y-142202438D01*
X159904762Y-142202438D02*
X159857143Y-142250057D01*
X159857143Y-142250057D02*
X159761905Y-142392914D01*
X159761905Y-142392914D02*
X159714286Y-142583390D01*
X159714286Y-142583390D02*
X159714286Y-142964342D01*
X159714286Y-142964342D02*
X159761905Y-143059580D01*
X159761905Y-143059580D02*
X159809524Y-143107200D01*
X159809524Y-143107200D02*
X159904762Y-143154819D01*
X159904762Y-143154819D02*
X160095238Y-143154819D01*
X160095238Y-143154819D02*
X160190476Y-143107200D01*
X160190476Y-143107200D02*
X160238095Y-143059580D01*
X160238095Y-143059580D02*
X160285714Y-142964342D01*
X160285714Y-142964342D02*
X160285714Y-142726247D01*
X160285714Y-142726247D02*
X160238095Y-142631009D01*
X160238095Y-142631009D02*
X160190476Y-142583390D01*
X160190476Y-142583390D02*
X160095238Y-142535771D01*
X160095238Y-142535771D02*
X159904762Y-142535771D01*
X159904762Y-142535771D02*
X159809524Y-142583390D01*
X159809524Y-142583390D02*
X159761905Y-142631009D01*
X159761905Y-142631009D02*
X159714286Y-142726247D01*
X162954819Y-102342857D02*
X162478628Y-102676190D01*
X162954819Y-102914285D02*
X161954819Y-102914285D01*
X161954819Y-102914285D02*
X161954819Y-102533333D01*
X161954819Y-102533333D02*
X162002438Y-102438095D01*
X162002438Y-102438095D02*
X162050057Y-102390476D01*
X162050057Y-102390476D02*
X162145295Y-102342857D01*
X162145295Y-102342857D02*
X162288152Y-102342857D01*
X162288152Y-102342857D02*
X162383390Y-102390476D01*
X162383390Y-102390476D02*
X162431009Y-102438095D01*
X162431009Y-102438095D02*
X162478628Y-102533333D01*
X162478628Y-102533333D02*
X162478628Y-102914285D01*
X162954819Y-101390476D02*
X162954819Y-101961904D01*
X162954819Y-101676190D02*
X161954819Y-101676190D01*
X161954819Y-101676190D02*
X162097676Y-101771428D01*
X162097676Y-101771428D02*
X162192914Y-101866666D01*
X162192914Y-101866666D02*
X162240533Y-101961904D01*
X161954819Y-100533333D02*
X161954819Y-100723809D01*
X161954819Y-100723809D02*
X162002438Y-100819047D01*
X162002438Y-100819047D02*
X162050057Y-100866666D01*
X162050057Y-100866666D02*
X162192914Y-100961904D01*
X162192914Y-100961904D02*
X162383390Y-101009523D01*
X162383390Y-101009523D02*
X162764342Y-101009523D01*
X162764342Y-101009523D02*
X162859580Y-100961904D01*
X162859580Y-100961904D02*
X162907200Y-100914285D01*
X162907200Y-100914285D02*
X162954819Y-100819047D01*
X162954819Y-100819047D02*
X162954819Y-100628571D01*
X162954819Y-100628571D02*
X162907200Y-100533333D01*
X162907200Y-100533333D02*
X162859580Y-100485714D01*
X162859580Y-100485714D02*
X162764342Y-100438095D01*
X162764342Y-100438095D02*
X162526247Y-100438095D01*
X162526247Y-100438095D02*
X162431009Y-100485714D01*
X162431009Y-100485714D02*
X162383390Y-100533333D01*
X162383390Y-100533333D02*
X162335771Y-100628571D01*
X162335771Y-100628571D02*
X162335771Y-100819047D01*
X162335771Y-100819047D02*
X162383390Y-100914285D01*
X162383390Y-100914285D02*
X162431009Y-100961904D01*
X162431009Y-100961904D02*
X162526247Y-101009523D01*
X108954819Y-135566666D02*
X108478628Y-135899999D01*
X108954819Y-136138094D02*
X107954819Y-136138094D01*
X107954819Y-136138094D02*
X107954819Y-135757142D01*
X107954819Y-135757142D02*
X108002438Y-135661904D01*
X108002438Y-135661904D02*
X108050057Y-135614285D01*
X108050057Y-135614285D02*
X108145295Y-135566666D01*
X108145295Y-135566666D02*
X108288152Y-135566666D01*
X108288152Y-135566666D02*
X108383390Y-135614285D01*
X108383390Y-135614285D02*
X108431009Y-135661904D01*
X108431009Y-135661904D02*
X108478628Y-135757142D01*
X108478628Y-135757142D02*
X108478628Y-136138094D01*
X107954819Y-135233332D02*
X107954819Y-134566666D01*
X107954819Y-134566666D02*
X108954819Y-134995237D01*
X143338095Y-108554819D02*
X143338095Y-109364342D01*
X143338095Y-109364342D02*
X143385714Y-109459580D01*
X143385714Y-109459580D02*
X143433333Y-109507200D01*
X143433333Y-109507200D02*
X143528571Y-109554819D01*
X143528571Y-109554819D02*
X143719047Y-109554819D01*
X143719047Y-109554819D02*
X143814285Y-109507200D01*
X143814285Y-109507200D02*
X143861904Y-109459580D01*
X143861904Y-109459580D02*
X143909523Y-109364342D01*
X143909523Y-109364342D02*
X143909523Y-108554819D01*
X144909523Y-109554819D02*
X144338095Y-109554819D01*
X144623809Y-109554819D02*
X144623809Y-108554819D01*
X144623809Y-108554819D02*
X144528571Y-108697676D01*
X144528571Y-108697676D02*
X144433333Y-108792914D01*
X144433333Y-108792914D02*
X144338095Y-108840533D01*
X156754819Y-99338094D02*
X155754819Y-99338094D01*
X155754819Y-99338094D02*
X155754819Y-99099999D01*
X155754819Y-99099999D02*
X155802438Y-98957142D01*
X155802438Y-98957142D02*
X155897676Y-98861904D01*
X155897676Y-98861904D02*
X155992914Y-98814285D01*
X155992914Y-98814285D02*
X156183390Y-98766666D01*
X156183390Y-98766666D02*
X156326247Y-98766666D01*
X156326247Y-98766666D02*
X156516723Y-98814285D01*
X156516723Y-98814285D02*
X156611961Y-98861904D01*
X156611961Y-98861904D02*
X156707200Y-98957142D01*
X156707200Y-98957142D02*
X156754819Y-99099999D01*
X156754819Y-99099999D02*
X156754819Y-99338094D01*
X156754819Y-97814285D02*
X156754819Y-98385713D01*
X156754819Y-98099999D02*
X155754819Y-98099999D01*
X155754819Y-98099999D02*
X155897676Y-98195237D01*
X155897676Y-98195237D02*
X155992914Y-98290475D01*
X155992914Y-98290475D02*
X156040533Y-98385713D01*
X124209524Y-142754819D02*
X124876190Y-143754819D01*
X124876190Y-142754819D02*
X124209524Y-143754819D01*
X125114286Y-142754819D02*
X125685714Y-142754819D01*
X125400000Y-143754819D02*
X125400000Y-142754819D01*
X125971429Y-142850057D02*
X126019048Y-142802438D01*
X126019048Y-142802438D02*
X126114286Y-142754819D01*
X126114286Y-142754819D02*
X126352381Y-142754819D01*
X126352381Y-142754819D02*
X126447619Y-142802438D01*
X126447619Y-142802438D02*
X126495238Y-142850057D01*
X126495238Y-142850057D02*
X126542857Y-142945295D01*
X126542857Y-142945295D02*
X126542857Y-143040533D01*
X126542857Y-143040533D02*
X126495238Y-143183390D01*
X126495238Y-143183390D02*
X125923810Y-143754819D01*
X125923810Y-143754819D02*
X126542857Y-143754819D01*
X182883333Y-138154819D02*
X182550000Y-137678628D01*
X182311905Y-138154819D02*
X182311905Y-137154819D01*
X182311905Y-137154819D02*
X182692857Y-137154819D01*
X182692857Y-137154819D02*
X182788095Y-137202438D01*
X182788095Y-137202438D02*
X182835714Y-137250057D01*
X182835714Y-137250057D02*
X182883333Y-137345295D01*
X182883333Y-137345295D02*
X182883333Y-137488152D01*
X182883333Y-137488152D02*
X182835714Y-137583390D01*
X182835714Y-137583390D02*
X182788095Y-137631009D01*
X182788095Y-137631009D02*
X182692857Y-137678628D01*
X182692857Y-137678628D02*
X182311905Y-137678628D01*
X183788095Y-137154819D02*
X183311905Y-137154819D01*
X183311905Y-137154819D02*
X183264286Y-137631009D01*
X183264286Y-137631009D02*
X183311905Y-137583390D01*
X183311905Y-137583390D02*
X183407143Y-137535771D01*
X183407143Y-137535771D02*
X183645238Y-137535771D01*
X183645238Y-137535771D02*
X183740476Y-137583390D01*
X183740476Y-137583390D02*
X183788095Y-137631009D01*
X183788095Y-137631009D02*
X183835714Y-137726247D01*
X183835714Y-137726247D02*
X183835714Y-137964342D01*
X183835714Y-137964342D02*
X183788095Y-138059580D01*
X183788095Y-138059580D02*
X183740476Y-138107200D01*
X183740476Y-138107200D02*
X183645238Y-138154819D01*
X183645238Y-138154819D02*
X183407143Y-138154819D01*
X183407143Y-138154819D02*
X183311905Y-138107200D01*
X183311905Y-138107200D02*
X183264286Y-138059580D01*
X139682142Y-120109819D02*
X139348809Y-119633628D01*
X139110714Y-120109819D02*
X139110714Y-119109819D01*
X139110714Y-119109819D02*
X139491666Y-119109819D01*
X139491666Y-119109819D02*
X139586904Y-119157438D01*
X139586904Y-119157438D02*
X139634523Y-119205057D01*
X139634523Y-119205057D02*
X139682142Y-119300295D01*
X139682142Y-119300295D02*
X139682142Y-119443152D01*
X139682142Y-119443152D02*
X139634523Y-119538390D01*
X139634523Y-119538390D02*
X139586904Y-119586009D01*
X139586904Y-119586009D02*
X139491666Y-119633628D01*
X139491666Y-119633628D02*
X139110714Y-119633628D01*
X140634523Y-120109819D02*
X140063095Y-120109819D01*
X140348809Y-120109819D02*
X140348809Y-119109819D01*
X140348809Y-119109819D02*
X140253571Y-119252676D01*
X140253571Y-119252676D02*
X140158333Y-119347914D01*
X140158333Y-119347914D02*
X140063095Y-119395533D01*
X141491666Y-119443152D02*
X141491666Y-120109819D01*
X141253571Y-119062200D02*
X141015476Y-119776485D01*
X141015476Y-119776485D02*
X141634523Y-119776485D01*
X148857142Y-137854819D02*
X148523809Y-137378628D01*
X148285714Y-137854819D02*
X148285714Y-136854819D01*
X148285714Y-136854819D02*
X148666666Y-136854819D01*
X148666666Y-136854819D02*
X148761904Y-136902438D01*
X148761904Y-136902438D02*
X148809523Y-136950057D01*
X148809523Y-136950057D02*
X148857142Y-137045295D01*
X148857142Y-137045295D02*
X148857142Y-137188152D01*
X148857142Y-137188152D02*
X148809523Y-137283390D01*
X148809523Y-137283390D02*
X148761904Y-137331009D01*
X148761904Y-137331009D02*
X148666666Y-137378628D01*
X148666666Y-137378628D02*
X148285714Y-137378628D01*
X149809523Y-137854819D02*
X149238095Y-137854819D01*
X149523809Y-137854819D02*
X149523809Y-136854819D01*
X149523809Y-136854819D02*
X149428571Y-136997676D01*
X149428571Y-136997676D02*
X149333333Y-137092914D01*
X149333333Y-137092914D02*
X149238095Y-137140533D01*
X150714285Y-136854819D02*
X150238095Y-136854819D01*
X150238095Y-136854819D02*
X150190476Y-137331009D01*
X150190476Y-137331009D02*
X150238095Y-137283390D01*
X150238095Y-137283390D02*
X150333333Y-137235771D01*
X150333333Y-137235771D02*
X150571428Y-137235771D01*
X150571428Y-137235771D02*
X150666666Y-137283390D01*
X150666666Y-137283390D02*
X150714285Y-137331009D01*
X150714285Y-137331009D02*
X150761904Y-137426247D01*
X150761904Y-137426247D02*
X150761904Y-137664342D01*
X150761904Y-137664342D02*
X150714285Y-137759580D01*
X150714285Y-137759580D02*
X150666666Y-137807200D01*
X150666666Y-137807200D02*
X150571428Y-137854819D01*
X150571428Y-137854819D02*
X150333333Y-137854819D01*
X150333333Y-137854819D02*
X150238095Y-137807200D01*
X150238095Y-137807200D02*
X150190476Y-137759580D01*
X157024819Y-102042857D02*
X156548628Y-102376190D01*
X157024819Y-102614285D02*
X156024819Y-102614285D01*
X156024819Y-102614285D02*
X156024819Y-102233333D01*
X156024819Y-102233333D02*
X156072438Y-102138095D01*
X156072438Y-102138095D02*
X156120057Y-102090476D01*
X156120057Y-102090476D02*
X156215295Y-102042857D01*
X156215295Y-102042857D02*
X156358152Y-102042857D01*
X156358152Y-102042857D02*
X156453390Y-102090476D01*
X156453390Y-102090476D02*
X156501009Y-102138095D01*
X156501009Y-102138095D02*
X156548628Y-102233333D01*
X156548628Y-102233333D02*
X156548628Y-102614285D01*
X157024819Y-101090476D02*
X157024819Y-101661904D01*
X157024819Y-101376190D02*
X156024819Y-101376190D01*
X156024819Y-101376190D02*
X156167676Y-101471428D01*
X156167676Y-101471428D02*
X156262914Y-101566666D01*
X156262914Y-101566666D02*
X156310533Y-101661904D01*
X157024819Y-100138095D02*
X157024819Y-100709523D01*
X157024819Y-100423809D02*
X156024819Y-100423809D01*
X156024819Y-100423809D02*
X156167676Y-100519047D01*
X156167676Y-100519047D02*
X156262914Y-100614285D01*
X156262914Y-100614285D02*
X156310533Y-100709523D01*
X139632142Y-115404580D02*
X139584523Y-115452200D01*
X139584523Y-115452200D02*
X139441666Y-115499819D01*
X139441666Y-115499819D02*
X139346428Y-115499819D01*
X139346428Y-115499819D02*
X139203571Y-115452200D01*
X139203571Y-115452200D02*
X139108333Y-115356961D01*
X139108333Y-115356961D02*
X139060714Y-115261723D01*
X139060714Y-115261723D02*
X139013095Y-115071247D01*
X139013095Y-115071247D02*
X139013095Y-114928390D01*
X139013095Y-114928390D02*
X139060714Y-114737914D01*
X139060714Y-114737914D02*
X139108333Y-114642676D01*
X139108333Y-114642676D02*
X139203571Y-114547438D01*
X139203571Y-114547438D02*
X139346428Y-114499819D01*
X139346428Y-114499819D02*
X139441666Y-114499819D01*
X139441666Y-114499819D02*
X139584523Y-114547438D01*
X139584523Y-114547438D02*
X139632142Y-114595057D01*
X140584523Y-115499819D02*
X140013095Y-115499819D01*
X140298809Y-115499819D02*
X140298809Y-114499819D01*
X140298809Y-114499819D02*
X140203571Y-114642676D01*
X140203571Y-114642676D02*
X140108333Y-114737914D01*
X140108333Y-114737914D02*
X140013095Y-114785533D01*
X141441666Y-114833152D02*
X141441666Y-115499819D01*
X141203571Y-114452200D02*
X140965476Y-115166485D01*
X140965476Y-115166485D02*
X141584523Y-115166485D01*
D10*
X150209524Y-96057419D02*
X150876190Y-97057419D01*
X150876190Y-96057419D02*
X150209524Y-97057419D01*
X151114286Y-96057419D02*
X151685714Y-96057419D01*
X151400000Y-97057419D02*
X151400000Y-96057419D01*
X152542857Y-97057419D02*
X151971429Y-97057419D01*
X152257143Y-97057419D02*
X152257143Y-96057419D01*
X152257143Y-96057419D02*
X152161905Y-96200276D01*
X152161905Y-96200276D02*
X152066667Y-96295514D01*
X152066667Y-96295514D02*
X151971429Y-96343133D01*
D11*
X137657142Y-105259580D02*
X137609523Y-105307200D01*
X137609523Y-105307200D02*
X137466666Y-105354819D01*
X137466666Y-105354819D02*
X137371428Y-105354819D01*
X137371428Y-105354819D02*
X137228571Y-105307200D01*
X137228571Y-105307200D02*
X137133333Y-105211961D01*
X137133333Y-105211961D02*
X137085714Y-105116723D01*
X137085714Y-105116723D02*
X137038095Y-104926247D01*
X137038095Y-104926247D02*
X137038095Y-104783390D01*
X137038095Y-104783390D02*
X137085714Y-104592914D01*
X137085714Y-104592914D02*
X137133333Y-104497676D01*
X137133333Y-104497676D02*
X137228571Y-104402438D01*
X137228571Y-104402438D02*
X137371428Y-104354819D01*
X137371428Y-104354819D02*
X137466666Y-104354819D01*
X137466666Y-104354819D02*
X137609523Y-104402438D01*
X137609523Y-104402438D02*
X137657142Y-104450057D01*
X138609523Y-105354819D02*
X138038095Y-105354819D01*
X138323809Y-105354819D02*
X138323809Y-104354819D01*
X138323809Y-104354819D02*
X138228571Y-104497676D01*
X138228571Y-104497676D02*
X138133333Y-104592914D01*
X138133333Y-104592914D02*
X138038095Y-104640533D01*
X138990476Y-104450057D02*
X139038095Y-104402438D01*
X139038095Y-104402438D02*
X139133333Y-104354819D01*
X139133333Y-104354819D02*
X139371428Y-104354819D01*
X139371428Y-104354819D02*
X139466666Y-104402438D01*
X139466666Y-104402438D02*
X139514285Y-104450057D01*
X139514285Y-104450057D02*
X139561904Y-104545295D01*
X139561904Y-104545295D02*
X139561904Y-104640533D01*
X139561904Y-104640533D02*
X139514285Y-104783390D01*
X139514285Y-104783390D02*
X138942857Y-105354819D01*
X138942857Y-105354819D02*
X139561904Y-105354819D01*
X178033333Y-120654819D02*
X177700000Y-120178628D01*
X177461905Y-120654819D02*
X177461905Y-119654819D01*
X177461905Y-119654819D02*
X177842857Y-119654819D01*
X177842857Y-119654819D02*
X177938095Y-119702438D01*
X177938095Y-119702438D02*
X177985714Y-119750057D01*
X177985714Y-119750057D02*
X178033333Y-119845295D01*
X178033333Y-119845295D02*
X178033333Y-119988152D01*
X178033333Y-119988152D02*
X177985714Y-120083390D01*
X177985714Y-120083390D02*
X177938095Y-120131009D01*
X177938095Y-120131009D02*
X177842857Y-120178628D01*
X177842857Y-120178628D02*
X177461905Y-120178628D01*
X178366667Y-119654819D02*
X178985714Y-119654819D01*
X178985714Y-119654819D02*
X178652381Y-120035771D01*
X178652381Y-120035771D02*
X178795238Y-120035771D01*
X178795238Y-120035771D02*
X178890476Y-120083390D01*
X178890476Y-120083390D02*
X178938095Y-120131009D01*
X178938095Y-120131009D02*
X178985714Y-120226247D01*
X178985714Y-120226247D02*
X178985714Y-120464342D01*
X178985714Y-120464342D02*
X178938095Y-120559580D01*
X178938095Y-120559580D02*
X178890476Y-120607200D01*
X178890476Y-120607200D02*
X178795238Y-120654819D01*
X178795238Y-120654819D02*
X178509524Y-120654819D01*
X178509524Y-120654819D02*
X178414286Y-120607200D01*
X178414286Y-120607200D02*
X178366667Y-120559580D01*
X137454819Y-101842857D02*
X136978628Y-102176190D01*
X137454819Y-102414285D02*
X136454819Y-102414285D01*
X136454819Y-102414285D02*
X136454819Y-102033333D01*
X136454819Y-102033333D02*
X136502438Y-101938095D01*
X136502438Y-101938095D02*
X136550057Y-101890476D01*
X136550057Y-101890476D02*
X136645295Y-101842857D01*
X136645295Y-101842857D02*
X136788152Y-101842857D01*
X136788152Y-101842857D02*
X136883390Y-101890476D01*
X136883390Y-101890476D02*
X136931009Y-101938095D01*
X136931009Y-101938095D02*
X136978628Y-102033333D01*
X136978628Y-102033333D02*
X136978628Y-102414285D01*
X137454819Y-100890476D02*
X137454819Y-101461904D01*
X137454819Y-101176190D02*
X136454819Y-101176190D01*
X136454819Y-101176190D02*
X136597676Y-101271428D01*
X136597676Y-101271428D02*
X136692914Y-101366666D01*
X136692914Y-101366666D02*
X136740533Y-101461904D01*
X136454819Y-100271428D02*
X136454819Y-100176190D01*
X136454819Y-100176190D02*
X136502438Y-100080952D01*
X136502438Y-100080952D02*
X136550057Y-100033333D01*
X136550057Y-100033333D02*
X136645295Y-99985714D01*
X136645295Y-99985714D02*
X136835771Y-99938095D01*
X136835771Y-99938095D02*
X137073866Y-99938095D01*
X137073866Y-99938095D02*
X137264342Y-99985714D01*
X137264342Y-99985714D02*
X137359580Y-100033333D01*
X137359580Y-100033333D02*
X137407200Y-100080952D01*
X137407200Y-100080952D02*
X137454819Y-100176190D01*
X137454819Y-100176190D02*
X137454819Y-100271428D01*
X137454819Y-100271428D02*
X137407200Y-100366666D01*
X137407200Y-100366666D02*
X137359580Y-100414285D01*
X137359580Y-100414285D02*
X137264342Y-100461904D01*
X137264342Y-100461904D02*
X137073866Y-100509523D01*
X137073866Y-100509523D02*
X136835771Y-100509523D01*
X136835771Y-100509523D02*
X136645295Y-100461904D01*
X136645295Y-100461904D02*
X136550057Y-100414285D01*
X136550057Y-100414285D02*
X136502438Y-100366666D01*
X136502438Y-100366666D02*
X136454819Y-100271428D01*
D10*
X164966667Y-123709800D02*
X165109524Y-123757419D01*
X165109524Y-123757419D02*
X165347619Y-123757419D01*
X165347619Y-123757419D02*
X165442857Y-123709800D01*
X165442857Y-123709800D02*
X165490476Y-123662180D01*
X165490476Y-123662180D02*
X165538095Y-123566942D01*
X165538095Y-123566942D02*
X165538095Y-123471704D01*
X165538095Y-123471704D02*
X165490476Y-123376466D01*
X165490476Y-123376466D02*
X165442857Y-123328847D01*
X165442857Y-123328847D02*
X165347619Y-123281228D01*
X165347619Y-123281228D02*
X165157143Y-123233609D01*
X165157143Y-123233609D02*
X165061905Y-123185990D01*
X165061905Y-123185990D02*
X165014286Y-123138371D01*
X165014286Y-123138371D02*
X164966667Y-123043133D01*
X164966667Y-123043133D02*
X164966667Y-122947895D01*
X164966667Y-122947895D02*
X165014286Y-122852657D01*
X165014286Y-122852657D02*
X165061905Y-122805038D01*
X165061905Y-122805038D02*
X165157143Y-122757419D01*
X165157143Y-122757419D02*
X165395238Y-122757419D01*
X165395238Y-122757419D02*
X165538095Y-122805038D01*
X165871429Y-122757419D02*
X166109524Y-123757419D01*
X166109524Y-123757419D02*
X166300000Y-123043133D01*
X166300000Y-123043133D02*
X166490476Y-123757419D01*
X166490476Y-123757419D02*
X166728572Y-122757419D01*
X167061905Y-122852657D02*
X167109524Y-122805038D01*
X167109524Y-122805038D02*
X167204762Y-122757419D01*
X167204762Y-122757419D02*
X167442857Y-122757419D01*
X167442857Y-122757419D02*
X167538095Y-122805038D01*
X167538095Y-122805038D02*
X167585714Y-122852657D01*
X167585714Y-122852657D02*
X167633333Y-122947895D01*
X167633333Y-122947895D02*
X167633333Y-123043133D01*
X167633333Y-123043133D02*
X167585714Y-123185990D01*
X167585714Y-123185990D02*
X167014286Y-123757419D01*
X167014286Y-123757419D02*
X167633333Y-123757419D01*
X162566667Y-141109800D02*
X162709524Y-141157419D01*
X162709524Y-141157419D02*
X162947619Y-141157419D01*
X162947619Y-141157419D02*
X163042857Y-141109800D01*
X163042857Y-141109800D02*
X163090476Y-141062180D01*
X163090476Y-141062180D02*
X163138095Y-140966942D01*
X163138095Y-140966942D02*
X163138095Y-140871704D01*
X163138095Y-140871704D02*
X163090476Y-140776466D01*
X163090476Y-140776466D02*
X163042857Y-140728847D01*
X163042857Y-140728847D02*
X162947619Y-140681228D01*
X162947619Y-140681228D02*
X162757143Y-140633609D01*
X162757143Y-140633609D02*
X162661905Y-140585990D01*
X162661905Y-140585990D02*
X162614286Y-140538371D01*
X162614286Y-140538371D02*
X162566667Y-140443133D01*
X162566667Y-140443133D02*
X162566667Y-140347895D01*
X162566667Y-140347895D02*
X162614286Y-140252657D01*
X162614286Y-140252657D02*
X162661905Y-140205038D01*
X162661905Y-140205038D02*
X162757143Y-140157419D01*
X162757143Y-140157419D02*
X162995238Y-140157419D01*
X162995238Y-140157419D02*
X163138095Y-140205038D01*
X163471429Y-140157419D02*
X163709524Y-141157419D01*
X163709524Y-141157419D02*
X163900000Y-140443133D01*
X163900000Y-140443133D02*
X164090476Y-141157419D01*
X164090476Y-141157419D02*
X164328572Y-140157419D01*
X165138095Y-140490752D02*
X165138095Y-141157419D01*
X164900000Y-140109800D02*
X164661905Y-140824085D01*
X164661905Y-140824085D02*
X165280952Y-140824085D01*
D11*
X134954819Y-118466666D02*
X134478628Y-118799999D01*
X134954819Y-119038094D02*
X133954819Y-119038094D01*
X133954819Y-119038094D02*
X133954819Y-118657142D01*
X133954819Y-118657142D02*
X134002438Y-118561904D01*
X134002438Y-118561904D02*
X134050057Y-118514285D01*
X134050057Y-118514285D02*
X134145295Y-118466666D01*
X134145295Y-118466666D02*
X134288152Y-118466666D01*
X134288152Y-118466666D02*
X134383390Y-118514285D01*
X134383390Y-118514285D02*
X134431009Y-118561904D01*
X134431009Y-118561904D02*
X134478628Y-118657142D01*
X134478628Y-118657142D02*
X134478628Y-119038094D01*
X134050057Y-118085713D02*
X134002438Y-118038094D01*
X134002438Y-118038094D02*
X133954819Y-117942856D01*
X133954819Y-117942856D02*
X133954819Y-117704761D01*
X133954819Y-117704761D02*
X134002438Y-117609523D01*
X134002438Y-117609523D02*
X134050057Y-117561904D01*
X134050057Y-117561904D02*
X134145295Y-117514285D01*
X134145295Y-117514285D02*
X134240533Y-117514285D01*
X134240533Y-117514285D02*
X134383390Y-117561904D01*
X134383390Y-117561904D02*
X134954819Y-118133332D01*
X134954819Y-118133332D02*
X134954819Y-117514285D01*
D10*
X104266666Y-131757419D02*
X104266666Y-132471704D01*
X104266666Y-132471704D02*
X104219047Y-132614561D01*
X104219047Y-132614561D02*
X104123809Y-132709800D01*
X104123809Y-132709800D02*
X103980952Y-132757419D01*
X103980952Y-132757419D02*
X103885714Y-132757419D01*
X105266666Y-132757419D02*
X104695238Y-132757419D01*
X104980952Y-132757419D02*
X104980952Y-131757419D01*
X104980952Y-131757419D02*
X104885714Y-131900276D01*
X104885714Y-131900276D02*
X104790476Y-131995514D01*
X104790476Y-131995514D02*
X104695238Y-132043133D01*
D11*
X135254819Y-134142857D02*
X134778628Y-134476190D01*
X135254819Y-134714285D02*
X134254819Y-134714285D01*
X134254819Y-134714285D02*
X134254819Y-134333333D01*
X134254819Y-134333333D02*
X134302438Y-134238095D01*
X134302438Y-134238095D02*
X134350057Y-134190476D01*
X134350057Y-134190476D02*
X134445295Y-134142857D01*
X134445295Y-134142857D02*
X134588152Y-134142857D01*
X134588152Y-134142857D02*
X134683390Y-134190476D01*
X134683390Y-134190476D02*
X134731009Y-134238095D01*
X134731009Y-134238095D02*
X134778628Y-134333333D01*
X134778628Y-134333333D02*
X134778628Y-134714285D01*
X135254819Y-133190476D02*
X135254819Y-133761904D01*
X135254819Y-133476190D02*
X134254819Y-133476190D01*
X134254819Y-133476190D02*
X134397676Y-133571428D01*
X134397676Y-133571428D02*
X134492914Y-133666666D01*
X134492914Y-133666666D02*
X134540533Y-133761904D01*
X134254819Y-132857142D02*
X134254819Y-132238095D01*
X134254819Y-132238095D02*
X134635771Y-132571428D01*
X134635771Y-132571428D02*
X134635771Y-132428571D01*
X134635771Y-132428571D02*
X134683390Y-132333333D01*
X134683390Y-132333333D02*
X134731009Y-132285714D01*
X134731009Y-132285714D02*
X134826247Y-132238095D01*
X134826247Y-132238095D02*
X135064342Y-132238095D01*
X135064342Y-132238095D02*
X135159580Y-132285714D01*
X135159580Y-132285714D02*
X135207200Y-132333333D01*
X135207200Y-132333333D02*
X135254819Y-132428571D01*
X135254819Y-132428571D02*
X135254819Y-132714285D01*
X135254819Y-132714285D02*
X135207200Y-132809523D01*
X135207200Y-132809523D02*
X135159580Y-132857142D01*
D10*
X182466667Y-118709800D02*
X182609524Y-118757419D01*
X182609524Y-118757419D02*
X182847619Y-118757419D01*
X182847619Y-118757419D02*
X182942857Y-118709800D01*
X182942857Y-118709800D02*
X182990476Y-118662180D01*
X182990476Y-118662180D02*
X183038095Y-118566942D01*
X183038095Y-118566942D02*
X183038095Y-118471704D01*
X183038095Y-118471704D02*
X182990476Y-118376466D01*
X182990476Y-118376466D02*
X182942857Y-118328847D01*
X182942857Y-118328847D02*
X182847619Y-118281228D01*
X182847619Y-118281228D02*
X182657143Y-118233609D01*
X182657143Y-118233609D02*
X182561905Y-118185990D01*
X182561905Y-118185990D02*
X182514286Y-118138371D01*
X182514286Y-118138371D02*
X182466667Y-118043133D01*
X182466667Y-118043133D02*
X182466667Y-117947895D01*
X182466667Y-117947895D02*
X182514286Y-117852657D01*
X182514286Y-117852657D02*
X182561905Y-117805038D01*
X182561905Y-117805038D02*
X182657143Y-117757419D01*
X182657143Y-117757419D02*
X182895238Y-117757419D01*
X182895238Y-117757419D02*
X183038095Y-117805038D01*
X183371429Y-117757419D02*
X183609524Y-118757419D01*
X183609524Y-118757419D02*
X183800000Y-118043133D01*
X183800000Y-118043133D02*
X183990476Y-118757419D01*
X183990476Y-118757419D02*
X184228572Y-117757419D01*
X185133333Y-118757419D02*
X184561905Y-118757419D01*
X184847619Y-118757419D02*
X184847619Y-117757419D01*
X184847619Y-117757419D02*
X184752381Y-117900276D01*
X184752381Y-117900276D02*
X184657143Y-117995514D01*
X184657143Y-117995514D02*
X184561905Y-118043133D01*
D11*
X138154819Y-110461904D02*
X138964342Y-110461904D01*
X138964342Y-110461904D02*
X139059580Y-110414285D01*
X139059580Y-110414285D02*
X139107200Y-110366666D01*
X139107200Y-110366666D02*
X139154819Y-110271428D01*
X139154819Y-110271428D02*
X139154819Y-110080952D01*
X139154819Y-110080952D02*
X139107200Y-109985714D01*
X139107200Y-109985714D02*
X139059580Y-109938095D01*
X139059580Y-109938095D02*
X138964342Y-109890476D01*
X138964342Y-109890476D02*
X138154819Y-109890476D01*
X138154819Y-109509523D02*
X138154819Y-108890476D01*
X138154819Y-108890476D02*
X138535771Y-109223809D01*
X138535771Y-109223809D02*
X138535771Y-109080952D01*
X138535771Y-109080952D02*
X138583390Y-108985714D01*
X138583390Y-108985714D02*
X138631009Y-108938095D01*
X138631009Y-108938095D02*
X138726247Y-108890476D01*
X138726247Y-108890476D02*
X138964342Y-108890476D01*
X138964342Y-108890476D02*
X139059580Y-108938095D01*
X139059580Y-108938095D02*
X139107200Y-108985714D01*
X139107200Y-108985714D02*
X139154819Y-109080952D01*
X139154819Y-109080952D02*
X139154819Y-109366666D01*
X139154819Y-109366666D02*
X139107200Y-109461904D01*
X139107200Y-109461904D02*
X139059580Y-109509523D01*
X129559580Y-114266666D02*
X129607200Y-114314285D01*
X129607200Y-114314285D02*
X129654819Y-114457142D01*
X129654819Y-114457142D02*
X129654819Y-114552380D01*
X129654819Y-114552380D02*
X129607200Y-114695237D01*
X129607200Y-114695237D02*
X129511961Y-114790475D01*
X129511961Y-114790475D02*
X129416723Y-114838094D01*
X129416723Y-114838094D02*
X129226247Y-114885713D01*
X129226247Y-114885713D02*
X129083390Y-114885713D01*
X129083390Y-114885713D02*
X128892914Y-114838094D01*
X128892914Y-114838094D02*
X128797676Y-114790475D01*
X128797676Y-114790475D02*
X128702438Y-114695237D01*
X128702438Y-114695237D02*
X128654819Y-114552380D01*
X128654819Y-114552380D02*
X128654819Y-114457142D01*
X128654819Y-114457142D02*
X128702438Y-114314285D01*
X128702438Y-114314285D02*
X128750057Y-114266666D01*
X128654819Y-113933332D02*
X128654819Y-113314285D01*
X128654819Y-113314285D02*
X129035771Y-113647618D01*
X129035771Y-113647618D02*
X129035771Y-113504761D01*
X129035771Y-113504761D02*
X129083390Y-113409523D01*
X129083390Y-113409523D02*
X129131009Y-113361904D01*
X129131009Y-113361904D02*
X129226247Y-113314285D01*
X129226247Y-113314285D02*
X129464342Y-113314285D01*
X129464342Y-113314285D02*
X129559580Y-113361904D01*
X129559580Y-113361904D02*
X129607200Y-113409523D01*
X129607200Y-113409523D02*
X129654819Y-113504761D01*
X129654819Y-113504761D02*
X129654819Y-113790475D01*
X129654819Y-113790475D02*
X129607200Y-113885713D01*
X129607200Y-113885713D02*
X129559580Y-113933332D01*
X134154819Y-127361904D02*
X134964342Y-127361904D01*
X134964342Y-127361904D02*
X135059580Y-127314285D01*
X135059580Y-127314285D02*
X135107200Y-127266666D01*
X135107200Y-127266666D02*
X135154819Y-127171428D01*
X135154819Y-127171428D02*
X135154819Y-126980952D01*
X135154819Y-126980952D02*
X135107200Y-126885714D01*
X135107200Y-126885714D02*
X135059580Y-126838095D01*
X135059580Y-126838095D02*
X134964342Y-126790476D01*
X134964342Y-126790476D02*
X134154819Y-126790476D01*
X134250057Y-126361904D02*
X134202438Y-126314285D01*
X134202438Y-126314285D02*
X134154819Y-126219047D01*
X134154819Y-126219047D02*
X134154819Y-125980952D01*
X134154819Y-125980952D02*
X134202438Y-125885714D01*
X134202438Y-125885714D02*
X134250057Y-125838095D01*
X134250057Y-125838095D02*
X134345295Y-125790476D01*
X134345295Y-125790476D02*
X134440533Y-125790476D01*
X134440533Y-125790476D02*
X134583390Y-125838095D01*
X134583390Y-125838095D02*
X135154819Y-126409523D01*
X135154819Y-126409523D02*
X135154819Y-125790476D01*
D12*
%TO.C,SW3*%
X172500000Y-122750000D02*
X172500000Y-124850000D01*
X172500000Y-122750000D02*
X185000000Y-122750000D01*
X172500000Y-129850000D02*
X172500000Y-127650000D01*
X172500000Y-132650000D02*
X172500000Y-134750000D01*
X185000000Y-122750000D02*
X185000000Y-124850000D01*
X185000000Y-129850000D02*
X185000000Y-127650000D01*
X185000000Y-132650000D02*
X185000000Y-134750000D01*
X185000000Y-134750000D02*
X172500000Y-134750000D01*
D13*
%TO.C,Y1*%
X137900000Y-115475000D02*
X137900000Y-111875000D01*
X137900000Y-111875000D02*
X132150000Y-111875000D01*
X132150000Y-115475000D02*
X137900000Y-115475000D01*
%TO.C,C4*%
X137210000Y-109534420D02*
X137210000Y-109815580D01*
X136190000Y-109534420D02*
X136190000Y-109815580D01*
%TO.C,D2*%
X161960000Y-96115000D02*
X160040000Y-96115000D01*
X160040000Y-96115000D02*
X160040000Y-98800000D01*
X161960000Y-98800000D02*
X161960000Y-96115000D01*
%TO.C,R1*%
X135722500Y-121012742D02*
X135722500Y-121487258D01*
X134677500Y-121012742D02*
X134677500Y-121487258D01*
D12*
%TO.C,SW5*%
X151000000Y-120775000D02*
X148900000Y-120775000D01*
X151000000Y-120775000D02*
X151000000Y-133275000D01*
X143900000Y-120775000D02*
X146100000Y-120775000D01*
X141100000Y-120775000D02*
X139000000Y-120775000D01*
X142000000Y-125125000D02*
X142000000Y-129125000D01*
X151000000Y-133275000D02*
X148900000Y-133275000D01*
X143900000Y-133275000D02*
X146100000Y-133275000D01*
X141100000Y-133275000D02*
X139000000Y-133275000D01*
X139000000Y-133275000D02*
X139000000Y-120775000D01*
D13*
%TO.C,R12*%
X130902500Y-133562258D02*
X130902500Y-133087742D01*
X131947500Y-133562258D02*
X131947500Y-133087742D01*
%TO.C,5V*%
X158700000Y-105000000D02*
G75*
G03*
X158700000Y-105000000I-700000J0D01*
G01*
%TO.C,C7*%
X156284420Y-122940000D02*
X156565580Y-122940000D01*
X156284420Y-123960000D02*
X156565580Y-123960000D01*
%TO.C,R4*%
X156712258Y-125722500D02*
X156237742Y-125722500D01*
X156712258Y-124677500D02*
X156237742Y-124677500D01*
%TO.C,C13*%
X141465580Y-112510000D02*
X141184420Y-112510000D01*
X141465580Y-111490000D02*
X141184420Y-111490000D01*
%TO.C,3V*%
X161700000Y-105000000D02*
G75*
G03*
X161700000Y-105000000I-700000J0D01*
G01*
%TO.C,C5*%
X133510000Y-109534420D02*
X133510000Y-109815580D01*
X132490000Y-109534420D02*
X132490000Y-109815580D01*
%TO.C,C2*%
X130065000Y-117765580D02*
X130065000Y-117484420D01*
X131085000Y-117765580D02*
X131085000Y-117484420D01*
%TO.C,C11*%
X147690000Y-106915580D02*
X147690000Y-106634420D01*
X148710000Y-106915580D02*
X148710000Y-106634420D01*
%TO.C,C10*%
X112435000Y-134634420D02*
X112435000Y-134915580D01*
X111415000Y-134634420D02*
X111415000Y-134915580D01*
%TO.C,R9*%
X152272500Y-100812742D02*
X152272500Y-101287258D01*
X151227500Y-100812742D02*
X151227500Y-101287258D01*
%TO.C,GND*%
X164700000Y-105000000D02*
G75*
G03*
X164700000Y-105000000I-700000J0D01*
G01*
%TO.C,C9*%
X156284420Y-140440000D02*
X156565580Y-140440000D01*
X156284420Y-141460000D02*
X156565580Y-141460000D01*
%TO.C,C6*%
X173759420Y-117940000D02*
X174040580Y-117940000D01*
X173759420Y-118960000D02*
X174040580Y-118960000D01*
%TO.C,C1*%
X130390580Y-129585000D02*
X130109420Y-129585000D01*
X130390580Y-128565000D02*
X130109420Y-128565000D01*
%TO.C,C8*%
X178534420Y-135465000D02*
X178815580Y-135465000D01*
X178534420Y-136485000D02*
X178815580Y-136485000D01*
%TO.C,R8*%
X138012258Y-98072500D02*
X137537742Y-98072500D01*
X138012258Y-97027500D02*
X137537742Y-97027500D01*
%TO.C,R6*%
X156712258Y-143222500D02*
X156237742Y-143222500D01*
X156712258Y-142177500D02*
X156237742Y-142177500D01*
%TO.C,R16*%
X160477500Y-101637258D02*
X160477500Y-101162742D01*
X161522500Y-101637258D02*
X161522500Y-101162742D01*
%TO.C,R7*%
X109552500Y-135062258D02*
X109552500Y-134587742D01*
X110597500Y-135062258D02*
X110597500Y-134587742D01*
%TO.C,U1*%
X146560000Y-106200000D02*
X146560000Y-104400000D01*
X146560000Y-106200000D02*
X146560000Y-107000000D01*
X143440000Y-106200000D02*
X143440000Y-105400000D01*
X143440000Y-106200000D02*
X143440000Y-107000000D01*
%TO.C,D1*%
X158960000Y-96115000D02*
X157040000Y-96115000D01*
X157040000Y-96115000D02*
X157040000Y-98800000D01*
X158960000Y-98800000D02*
X158960000Y-96115000D01*
%TO.C,XT2*%
X124040000Y-139760000D02*
X124040000Y-142260000D01*
X124040000Y-142260000D02*
X126540000Y-142260000D01*
X124340000Y-137940000D02*
X124340000Y-141960000D01*
X124340000Y-139650000D02*
X124840000Y-139650000D01*
X124340000Y-140460000D02*
X125340000Y-140460000D01*
X124340000Y-141960000D02*
X137060000Y-141960000D01*
X124840000Y-138440000D02*
X136560000Y-138440000D01*
X124840000Y-139650000D02*
X124840000Y-138440000D01*
X125340000Y-140460000D02*
X125340000Y-141960000D01*
X136060000Y-140460000D02*
X136060000Y-141960000D01*
X136560000Y-138440000D02*
X136560000Y-139650000D01*
X136560000Y-139650000D02*
X137060000Y-139650000D01*
X137060000Y-137940000D02*
X124340000Y-137940000D01*
X137060000Y-140460000D02*
X136060000Y-140460000D01*
X137060000Y-141960000D02*
X137060000Y-137940000D01*
%TO.C,R5*%
X178962258Y-138247500D02*
X178487742Y-138247500D01*
X178962258Y-137202500D02*
X178487742Y-137202500D01*
%TO.C,R14*%
X140562258Y-118747500D02*
X140087742Y-118747500D01*
X140562258Y-117702500D02*
X140087742Y-117702500D01*
%TO.C,R15*%
X149287742Y-135202500D02*
X149762258Y-135202500D01*
X149287742Y-136247500D02*
X149762258Y-136247500D01*
%TO.C,R11*%
X157477500Y-101637258D02*
X157477500Y-101162742D01*
X158522500Y-101637258D02*
X158522500Y-101162742D01*
%TO.C,C14*%
X140134420Y-115965000D02*
X140415580Y-115965000D01*
X140134420Y-116985000D02*
X140415580Y-116985000D01*
D10*
%TO.C,XT1*%
X149350000Y-98625000D02*
X149350000Y-100525000D01*
X149350000Y-96525000D02*
X149350000Y-95325000D01*
X140650000Y-100425000D02*
X140650000Y-100525000D01*
X140650000Y-98625000D02*
X140650000Y-100425000D01*
X140650000Y-96525000D02*
X140650000Y-95325000D01*
D13*
%TO.C,C12*%
X141465580Y-105410000D02*
X141184420Y-105410000D01*
X141465580Y-104390000D02*
X141184420Y-104390000D01*
%TO.C,R3*%
X174187258Y-120722500D02*
X173712742Y-120722500D01*
X174187258Y-119677500D02*
X173712742Y-119677500D01*
%TO.C,R10*%
X138997500Y-100812742D02*
X138997500Y-101287258D01*
X137952500Y-100812742D02*
X137952500Y-101287258D01*
D12*
%TO.C,SW2*%
X155000000Y-110225000D02*
X155000000Y-112325000D01*
X155000000Y-110225000D02*
X167500000Y-110225000D01*
X155000000Y-117325000D02*
X155000000Y-115125000D01*
X155000000Y-120125000D02*
X155000000Y-122225000D01*
X167500000Y-110225000D02*
X167500000Y-112325000D01*
X167500000Y-117325000D02*
X167500000Y-115125000D01*
X167500000Y-120125000D02*
X167500000Y-122225000D01*
X167500000Y-122225000D02*
X155000000Y-122225000D01*
%TO.C,SW4*%
X155000000Y-127725000D02*
X155000000Y-129825000D01*
X155000000Y-127725000D02*
X167500000Y-127725000D01*
X155000000Y-134825000D02*
X155000000Y-132625000D01*
X155000000Y-137625000D02*
X155000000Y-139725000D01*
X167500000Y-127725000D02*
X167500000Y-129825000D01*
X167500000Y-134825000D02*
X167500000Y-132625000D01*
X167500000Y-137625000D02*
X167500000Y-139725000D01*
X167500000Y-139725000D02*
X155000000Y-139725000D01*
D13*
%TO.C,R2*%
X133522500Y-117387742D02*
X133522500Y-117862258D01*
X132477500Y-117387742D02*
X132477500Y-117862258D01*
D12*
%TO.C,J1*%
X103800000Y-109425000D02*
X103800000Y-131175000D01*
X103800000Y-131175000D02*
X110400000Y-131175000D01*
X122600000Y-131175000D02*
X123750000Y-131175000D01*
X123750000Y-109425000D02*
X107600000Y-109425000D01*
X123750000Y-123725000D02*
X123750000Y-109425000D01*
X123750000Y-131175000D02*
X123750000Y-127525000D01*
X107600000Y-109425000D02*
G75*
G03*
X103800000Y-109425000I-1900000J0D01*
G01*
X123750000Y-127525000D02*
G75*
G03*
X123750000Y-123725000I0J1900000D01*
G01*
X119550179Y-118175000D02*
G75*
G03*
X119550179Y-118175000I-7000179J0D01*
G01*
X120700000Y-118175000D02*
G75*
G03*
X120700000Y-118175000I-8150000J0D01*
G01*
D13*
%TO.C,R13*%
X132652500Y-133562258D02*
X132652500Y-133087742D01*
X133697500Y-133562258D02*
X133697500Y-133087742D01*
D12*
%TO.C,SW1*%
X172450000Y-105225000D02*
X172450000Y-107325000D01*
X172450000Y-105225000D02*
X184950000Y-105225000D01*
X172450000Y-112325000D02*
X172450000Y-110125000D01*
X172450000Y-115125000D02*
X172450000Y-117225000D01*
X184950000Y-105225000D02*
X184950000Y-107325000D01*
X184950000Y-112325000D02*
X184950000Y-110125000D01*
X184950000Y-115125000D02*
X184950000Y-117225000D01*
X184950000Y-117225000D02*
X172450000Y-117225000D01*
D13*
%TO.C,U3*%
X142710000Y-108450000D02*
X142710000Y-106650000D01*
X142710000Y-108450000D02*
X142710000Y-109250000D01*
X139590000Y-108450000D02*
X139590000Y-107650000D01*
X139590000Y-108450000D02*
X139590000Y-109250000D01*
%TO.C,C3*%
X130090000Y-114240580D02*
X130090000Y-113959420D01*
X131110000Y-114240580D02*
X131110000Y-113959420D01*
%TO.C,U2*%
X133635000Y-123600000D02*
X133635000Y-120000000D01*
X133635000Y-123600000D02*
X133635000Y-125800000D01*
X126865000Y-123600000D02*
X126865000Y-121400000D01*
X126865000Y-123600000D02*
X126865000Y-125800000D01*
%TD*%
M02*
