%TF.GenerationSoftware,KiCad,Pcbnew,7.0.6*%
%TF.CreationDate,2023-11-25T17:25:05+01:00*%
%TF.ProjectId,gamepad,67616d65-7061-4642-9e6b-696361645f70,rev?*%
%TF.SameCoordinates,Original*%
%TF.FileFunction,Copper,L3,Inr*%
%TF.FilePolarity,Positive*%
%FSLAX46Y46*%
G04 Gerber Fmt 4.6, Leading zero omitted, Abs format (unit mm)*
G04 Created by KiCad (PCBNEW 7.0.6) date 2023-11-25 17:25:05*
%MOMM*%
%LPD*%
G01*
G04 APERTURE LIST*
G04 Aperture macros list*
%AMRoundRect*
0 Rectangle with rounded corners*
0 $1 Rounding radius*
0 $2 $3 $4 $5 $6 $7 $8 $9 X,Y pos of 4 corners*
0 Add a 4 corners polygon primitive as box body*
4,1,4,$2,$3,$4,$5,$6,$7,$8,$9,$2,$3,0*
0 Add four circle primitives for the rounded corners*
1,1,$1+$1,$2,$3*
1,1,$1+$1,$4,$5*
1,1,$1+$1,$6,$7*
1,1,$1+$1,$8,$9*
0 Add four rect primitives between the rounded corners*
20,1,$1+$1,$2,$3,$4,$5,0*
20,1,$1+$1,$4,$5,$6,$7,0*
20,1,$1+$1,$6,$7,$8,$9,0*
20,1,$1+$1,$8,$9,$2,$3,0*%
G04 Aperture macros list end*
%TA.AperFunction,ComponentPad*%
%ADD10O,1.600000X2.000000*%
%TD*%
%TA.AperFunction,ComponentPad*%
%ADD11O,2.000000X1.600000*%
%TD*%
%TA.AperFunction,ComponentPad*%
%ADD12C,1.000000*%
%TD*%
%TA.AperFunction,ComponentPad*%
%ADD13RoundRect,0.250000X-0.600000X-0.725000X0.600000X-0.725000X0.600000X0.725000X-0.600000X0.725000X0*%
%TD*%
%TA.AperFunction,ComponentPad*%
%ADD14O,1.700000X1.950000*%
%TD*%
%TA.AperFunction,ComponentPad*%
%ADD15O,0.900000X2.000000*%
%TD*%
%TA.AperFunction,ComponentPad*%
%ADD16O,0.900000X1.700000*%
%TD*%
%TA.AperFunction,ComponentPad*%
%ADD17O,1.600000X1.000000*%
%TD*%
%TA.AperFunction,ViaPad*%
%ADD18C,0.800000*%
%TD*%
%TA.AperFunction,ViaPad*%
%ADD19C,1.000000*%
%TD*%
%TA.AperFunction,ViaPad*%
%ADD20C,0.600000*%
%TD*%
G04 APERTURE END LIST*
D10*
%TO.N,/B_A*%
%TO.C,SW3*%
X172500000Y-131250000D03*
X185000000Y-131250000D03*
%TO.N,GND*%
X172500000Y-126250000D03*
X185000000Y-126250000D03*
%TD*%
D11*
%TO.N,/B_L*%
%TO.C,SW5*%
X142500000Y-120775000D03*
X142500000Y-133275000D03*
%TO.N,GND*%
X147500000Y-120775000D03*
X147500000Y-133275000D03*
D12*
%TO.N,Net-(SW5-A)*%
X151800000Y-127025000D03*
%TO.N,GND*%
X138200000Y-127025000D03*
%TD*%
D13*
%TO.N,+3.3VA*%
%TO.C,XT2*%
X126950000Y-139650000D03*
D14*
%TO.N,Net-(XT2-Pin_2)*%
X129450000Y-139650000D03*
%TO.N,Net-(XT2-Pin_3)*%
X131950000Y-139650000D03*
%TO.N,GND*%
X134450000Y-139650000D03*
%TD*%
D15*
%TO.N,Net-(XT1-SHIELD)*%
%TO.C,XT1*%
X149325000Y-101725000D03*
D16*
X149325000Y-97550000D03*
D15*
X140675000Y-101725000D03*
D16*
X140675000Y-97550000D03*
%TD*%
D10*
%TO.N,/B_Y*%
%TO.C,SW2*%
X155000000Y-118725000D03*
X167500000Y-118725000D03*
%TO.N,GND*%
X155000000Y-113725000D03*
X167500000Y-113725000D03*
%TD*%
%TO.N,/B_B*%
%TO.C,SW4*%
X155000000Y-136225000D03*
X167500000Y-136225000D03*
%TO.N,GND*%
X155000000Y-131225000D03*
X167500000Y-131225000D03*
%TD*%
D17*
%TO.N,/J_X*%
%TO.C,J1*%
X121500000Y-131175000D03*
%TO.N,GND*%
X119500000Y-131175000D03*
%TO.N,/J_B*%
X117500000Y-131175000D03*
%TO.N,/J_Y*%
X115500000Y-131175000D03*
%TO.N,GND*%
X113500000Y-131175000D03*
%TO.N,+3.3VA*%
X111500000Y-131175000D03*
%TD*%
D10*
%TO.N,/B_X*%
%TO.C,SW1*%
X172450000Y-113725000D03*
X184950000Y-113725000D03*
%TO.N,GND*%
X172450000Y-108725000D03*
X184950000Y-108725000D03*
%TD*%
D18*
%TO.N,+3.3VA*%
X176300000Y-120200000D03*
X142650000Y-118250000D03*
D19*
X142100000Y-113775000D03*
D18*
X181100000Y-137700000D03*
X128425000Y-116825000D03*
X131025000Y-130650000D03*
X135250000Y-123650000D03*
X158800000Y-125200000D03*
X110075000Y-137175000D03*
D19*
X161000000Y-109200000D03*
D18*
X160400000Y-140950000D03*
%TO.N,GND*%
X158850000Y-140950000D03*
X111925000Y-137175000D03*
X127825000Y-123650000D03*
D19*
X140550000Y-113775000D03*
D18*
X158800000Y-123450000D03*
X181100000Y-135950000D03*
X142650000Y-116500000D03*
X127900000Y-114875000D03*
X129450000Y-130650000D03*
X176300000Y-118450000D03*
D20*
%TO.N,/B_X*%
X126025000Y-120200000D03*
D18*
X171225000Y-119275000D03*
D20*
%TO.N,/B_Y*%
X124250000Y-131750000D03*
D18*
X153750000Y-124275000D03*
%TO.N,/B_A*%
X176000000Y-136825000D03*
D20*
X125000000Y-132500000D03*
%TO.N,/B_B*%
X125750000Y-133000000D03*
D18*
X153750000Y-141775000D03*
D20*
%TO.N,/J_X*%
X124725000Y-117300000D03*
%TO.N,/J_Y*%
X120175000Y-118125000D03*
D19*
%TO.N,+5V*%
X146850000Y-103600000D03*
X148200000Y-109275000D03*
X142600000Y-103600000D03*
X158000000Y-109275000D03*
D20*
%TO.N,/B_L*%
X124900000Y-119550000D03*
D18*
X138050000Y-117325000D03*
D20*
%TO.N,/LED*%
X142225000Y-135725000D03*
X126500000Y-133500000D03*
%TO.N,/D+*%
X143824007Y-100603997D03*
X145225000Y-100600000D03*
%TD*%
%TA.AperFunction,Conductor*%
%TO.N,+3.3VA*%
G36*
X168459191Y-96019407D02*
G01*
X168495155Y-96068907D01*
X168500000Y-96099499D01*
X168500000Y-104500000D01*
X168500001Y-104500000D01*
X175499999Y-104500000D01*
X175500000Y-104500000D01*
X175500000Y-96766826D01*
X175518907Y-96708636D01*
X175568407Y-96672672D01*
X175620749Y-96670246D01*
X175743456Y-96697882D01*
X176677080Y-96948046D01*
X177599874Y-97235600D01*
X178510340Y-97560078D01*
X179407003Y-97920953D01*
X180288407Y-98317641D01*
X181153124Y-98749498D01*
X181999750Y-99215823D01*
X182826913Y-99715861D01*
X183633270Y-100248799D01*
X184417514Y-100813773D01*
X185178373Y-101409868D01*
X185914612Y-102036116D01*
X186223542Y-102321112D01*
X186625038Y-102691503D01*
X187308497Y-103374962D01*
X187516101Y-103600000D01*
X187963884Y-104085388D01*
X188590132Y-104821627D01*
X189186227Y-105582486D01*
X189751201Y-106366730D01*
X190284139Y-107173087D01*
X190784177Y-108000250D01*
X191250502Y-108846876D01*
X191682359Y-109711593D01*
X192079047Y-110592997D01*
X192439922Y-111489660D01*
X192764400Y-112400126D01*
X193051954Y-113322920D01*
X193302118Y-114256544D01*
X193514486Y-115199483D01*
X193688713Y-116150209D01*
X193824517Y-117107180D01*
X193921677Y-118068843D01*
X193980036Y-119033638D01*
X193999500Y-120000000D01*
X193980036Y-120966362D01*
X193921677Y-121931157D01*
X193824517Y-122892820D01*
X193688713Y-123849791D01*
X193514486Y-124800517D01*
X193302118Y-125743456D01*
X193051954Y-126677080D01*
X192764400Y-127599874D01*
X192439922Y-128510340D01*
X192079047Y-129407003D01*
X191682359Y-130288407D01*
X191250502Y-131153124D01*
X190784177Y-131999750D01*
X190284139Y-132826913D01*
X189751201Y-133633270D01*
X189186227Y-134417514D01*
X188590132Y-135178373D01*
X187963884Y-135914612D01*
X187707130Y-136192929D01*
X187308497Y-136625038D01*
X186625038Y-137308497D01*
X186325729Y-137584618D01*
X185914612Y-137963884D01*
X185233350Y-138543368D01*
X185178373Y-138590132D01*
X184417514Y-139186227D01*
X183633270Y-139751201D01*
X182826913Y-140284139D01*
X181999750Y-140784177D01*
X181153124Y-141250502D01*
X180288407Y-141682359D01*
X179407003Y-142079047D01*
X178510340Y-142439922D01*
X177599874Y-142764400D01*
X176677080Y-143051954D01*
X175743456Y-143302118D01*
X175620751Y-143329752D01*
X175559828Y-143324092D01*
X175513867Y-143283703D01*
X175500000Y-143233171D01*
X175500000Y-137635364D01*
X175518907Y-137577173D01*
X175568407Y-137541209D01*
X175629593Y-137541209D01*
X175645359Y-137548587D01*
X175645462Y-137548374D01*
X175650474Y-137550786D01*
X175650478Y-137550789D01*
X175744658Y-137583744D01*
X175820738Y-137610366D01*
X175820742Y-137610367D01*
X175820745Y-137610368D01*
X176000000Y-137630565D01*
X176179255Y-137610368D01*
X176349522Y-137550789D01*
X176502262Y-137454816D01*
X176629816Y-137327262D01*
X176725789Y-137174522D01*
X176785368Y-137004255D01*
X176805565Y-136825000D01*
X176785368Y-136645745D01*
X176778122Y-136625038D01*
X176750179Y-136545181D01*
X176725789Y-136475478D01*
X176711201Y-136452262D01*
X176629818Y-136322741D01*
X176629817Y-136322740D01*
X176629816Y-136322738D01*
X176502262Y-136195184D01*
X176502259Y-136195182D01*
X176502258Y-136195181D01*
X176349523Y-136099211D01*
X176179261Y-136039633D01*
X176179257Y-136039632D01*
X176000000Y-136019435D01*
X175820742Y-136039632D01*
X175820738Y-136039633D01*
X175650474Y-136099212D01*
X175645466Y-136101624D01*
X175644780Y-136100199D01*
X175592328Y-136113410D01*
X175535544Y-136090624D01*
X175502998Y-136038813D01*
X175500000Y-136014635D01*
X175500000Y-135950000D01*
X180294435Y-135950000D01*
X180314632Y-136129257D01*
X180314633Y-136129261D01*
X180374211Y-136299522D01*
X180374211Y-136299523D01*
X180470181Y-136452258D01*
X180470184Y-136452262D01*
X180597738Y-136579816D01*
X180597740Y-136579817D01*
X180597741Y-136579818D01*
X180703920Y-136646535D01*
X180750478Y-136675789D01*
X180818657Y-136699646D01*
X180920738Y-136735366D01*
X180920742Y-136735367D01*
X180920745Y-136735368D01*
X181100000Y-136755565D01*
X181279255Y-136735368D01*
X181449522Y-136675789D01*
X181602262Y-136579816D01*
X181729816Y-136452262D01*
X181825789Y-136299522D01*
X181885368Y-136129255D01*
X181905565Y-135950000D01*
X181885368Y-135770745D01*
X181869361Y-135725001D01*
X181861014Y-135701145D01*
X181825789Y-135600478D01*
X181818873Y-135589472D01*
X181729818Y-135447741D01*
X181729817Y-135447740D01*
X181729816Y-135447738D01*
X181602262Y-135320184D01*
X181602259Y-135320182D01*
X181602258Y-135320181D01*
X181449523Y-135224211D01*
X181279261Y-135164633D01*
X181279257Y-135164632D01*
X181100000Y-135144435D01*
X180920742Y-135164632D01*
X180920738Y-135164633D01*
X180750477Y-135224211D01*
X180750476Y-135224211D01*
X180597741Y-135320181D01*
X180470181Y-135447741D01*
X180374211Y-135600476D01*
X180374211Y-135600477D01*
X180314633Y-135770738D01*
X180314632Y-135770742D01*
X180294435Y-135950000D01*
X175500000Y-135950000D01*
X175500000Y-135500001D01*
X175500000Y-135500000D01*
X175499999Y-135500000D01*
X168640975Y-135500000D01*
X168582784Y-135481093D01*
X168552354Y-135445128D01*
X168544578Y-135429512D01*
X168525058Y-135390311D01*
X168390981Y-135212764D01*
X168226562Y-135062876D01*
X168037401Y-134945753D01*
X167829940Y-134865382D01*
X167829939Y-134865381D01*
X167829937Y-134865381D01*
X167611243Y-134824500D01*
X167388757Y-134824500D01*
X167170062Y-134865381D01*
X167093797Y-134894926D01*
X166962599Y-134945753D01*
X166773438Y-135062876D01*
X166609019Y-135212764D01*
X166575560Y-135257071D01*
X166474943Y-135390309D01*
X166474938Y-135390318D01*
X166375772Y-135589469D01*
X166314885Y-135803464D01*
X166301307Y-135950000D01*
X166299500Y-135969497D01*
X166299500Y-136480503D01*
X166314885Y-136646536D01*
X166375771Y-136860528D01*
X166474942Y-137059689D01*
X166609019Y-137237236D01*
X166773438Y-137387124D01*
X166962599Y-137504247D01*
X167170060Y-137584618D01*
X167388757Y-137625500D01*
X167611243Y-137625500D01*
X167829940Y-137584618D01*
X168037401Y-137504247D01*
X168226562Y-137387124D01*
X168334306Y-137288902D01*
X168390045Y-137263673D01*
X168449971Y-137276025D01*
X168491191Y-137321242D01*
X168500000Y-137362065D01*
X168500000Y-143900500D01*
X168481093Y-143958691D01*
X168431593Y-143994655D01*
X168401000Y-143999500D01*
X121599000Y-143999500D01*
X121540809Y-143980593D01*
X121504845Y-143931093D01*
X121500000Y-143900500D01*
X121500000Y-141775000D01*
X152944435Y-141775000D01*
X152964632Y-141954257D01*
X152964633Y-141954261D01*
X153024211Y-142124522D01*
X153024211Y-142124523D01*
X153120181Y-142277258D01*
X153120184Y-142277262D01*
X153247738Y-142404816D01*
X153400478Y-142500789D01*
X153468657Y-142524646D01*
X153570738Y-142560366D01*
X153570742Y-142560367D01*
X153570745Y-142560368D01*
X153750000Y-142580565D01*
X153929255Y-142560368D01*
X154099522Y-142500789D01*
X154252262Y-142404816D01*
X154379816Y-142277262D01*
X154475789Y-142124522D01*
X154535368Y-141954255D01*
X154555565Y-141775000D01*
X154535368Y-141595745D01*
X154529794Y-141579816D01*
X154485161Y-141452262D01*
X154475789Y-141425478D01*
X154379816Y-141272738D01*
X154252262Y-141145184D01*
X154252259Y-141145182D01*
X154252258Y-141145181D01*
X154099523Y-141049211D01*
X153929261Y-140989633D01*
X153929257Y-140989632D01*
X153750000Y-140969435D01*
X153570742Y-140989632D01*
X153570738Y-140989633D01*
X153400477Y-141049211D01*
X153400476Y-141049211D01*
X153247741Y-141145181D01*
X153120181Y-141272741D01*
X153024211Y-141425476D01*
X153024211Y-141425477D01*
X152964633Y-141595738D01*
X152964632Y-141595742D01*
X152944435Y-141775000D01*
X121500000Y-141775000D01*
X121500000Y-139750001D01*
X125900000Y-139750001D01*
X125900001Y-140429203D01*
X125902850Y-140459600D01*
X125902850Y-140459602D01*
X125947654Y-140587647D01*
X126028207Y-140696790D01*
X126028209Y-140696792D01*
X126137352Y-140777345D01*
X126265398Y-140822149D01*
X126295789Y-140824999D01*
X126849998Y-140824999D01*
X126850000Y-140824998D01*
X126850000Y-140115506D01*
X126916025Y-140125000D01*
X126983975Y-140125000D01*
X127050000Y-140115506D01*
X127050000Y-140824998D01*
X127050001Y-140824999D01*
X127604203Y-140824999D01*
X127634600Y-140822149D01*
X127634602Y-140822149D01*
X127762647Y-140777345D01*
X127871790Y-140696792D01*
X127871792Y-140696790D01*
X127952345Y-140587647D01*
X127997149Y-140459601D01*
X127999999Y-140429211D01*
X128000000Y-140429210D01*
X128000000Y-139831151D01*
X128199500Y-139831151D01*
X128199501Y-139831176D01*
X128214621Y-139999180D01*
X128214623Y-139999191D01*
X128274506Y-140216168D01*
X128274509Y-140216175D01*
X128372169Y-140418970D01*
X128372170Y-140418972D01*
X128372171Y-140418973D01*
X128504478Y-140601078D01*
X128667175Y-140756632D01*
X128855032Y-140880635D01*
X128855035Y-140880636D01*
X128855036Y-140880637D01*
X129062012Y-140969103D01*
X129281463Y-141019191D01*
X129468852Y-141027606D01*
X129506328Y-141029290D01*
X129506328Y-141029289D01*
X129506330Y-141029290D01*
X129729387Y-140999075D01*
X129943464Y-140929517D01*
X130141681Y-140822852D01*
X130317666Y-140682508D01*
X130465765Y-140512996D01*
X130581215Y-140319764D01*
X130606340Y-140252816D01*
X130644486Y-140204983D01*
X130703466Y-140188705D01*
X130760750Y-140210203D01*
X130788222Y-140244651D01*
X130872169Y-140418970D01*
X130872170Y-140418972D01*
X130872171Y-140418973D01*
X131004478Y-140601078D01*
X131167175Y-140756632D01*
X131355032Y-140880635D01*
X131355035Y-140880636D01*
X131355036Y-140880637D01*
X131562011Y-140969103D01*
X131562012Y-140969103D01*
X131781463Y-141019191D01*
X131968852Y-141027606D01*
X132006328Y-141029290D01*
X132006328Y-141029289D01*
X132006330Y-141029290D01*
X132229387Y-140999075D01*
X132443464Y-140929517D01*
X132641681Y-140822852D01*
X132817666Y-140682508D01*
X132965765Y-140512996D01*
X133081215Y-140319764D01*
X133106340Y-140252816D01*
X133144486Y-140204983D01*
X133203466Y-140188705D01*
X133260750Y-140210203D01*
X133288222Y-140244651D01*
X133372169Y-140418970D01*
X133372170Y-140418972D01*
X133372171Y-140418973D01*
X133504478Y-140601078D01*
X133667175Y-140756632D01*
X133855032Y-140880635D01*
X133855035Y-140880636D01*
X133855036Y-140880637D01*
X134062012Y-140969103D01*
X134281463Y-141019191D01*
X134468852Y-141027606D01*
X134506328Y-141029290D01*
X134506328Y-141029289D01*
X134506330Y-141029290D01*
X134729387Y-140999075D01*
X134880424Y-140950000D01*
X158044435Y-140950000D01*
X158064632Y-141129257D01*
X158064633Y-141129261D01*
X158124211Y-141299522D01*
X158124211Y-141299523D01*
X158203354Y-141425478D01*
X158220184Y-141452262D01*
X158347738Y-141579816D01*
X158347740Y-141579817D01*
X158347741Y-141579818D01*
X158373077Y-141595738D01*
X158500478Y-141675789D01*
X158568657Y-141699646D01*
X158670738Y-141735366D01*
X158670742Y-141735367D01*
X158670745Y-141735368D01*
X158850000Y-141755565D01*
X159029255Y-141735368D01*
X159199522Y-141675789D01*
X159352262Y-141579816D01*
X159479816Y-141452262D01*
X159575789Y-141299522D01*
X159635368Y-141129255D01*
X159655565Y-140950000D01*
X159635368Y-140770745D01*
X159630428Y-140756628D01*
X159609490Y-140696790D01*
X159575789Y-140600478D01*
X159520820Y-140512996D01*
X159479818Y-140447741D01*
X159479817Y-140447740D01*
X159479816Y-140447738D01*
X159352262Y-140320184D01*
X159352259Y-140320182D01*
X159352258Y-140320181D01*
X159199523Y-140224211D01*
X159029261Y-140164633D01*
X159029257Y-140164632D01*
X158850000Y-140144435D01*
X158670742Y-140164632D01*
X158670738Y-140164633D01*
X158500477Y-140224211D01*
X158500476Y-140224211D01*
X158347741Y-140320181D01*
X158220181Y-140447741D01*
X158124211Y-140600476D01*
X158124211Y-140600477D01*
X158064633Y-140770738D01*
X158064632Y-140770742D01*
X158044435Y-140950000D01*
X134880424Y-140950000D01*
X134943464Y-140929517D01*
X135141681Y-140822852D01*
X135317666Y-140682508D01*
X135465765Y-140512996D01*
X135581215Y-140319764D01*
X135660307Y-140109024D01*
X135700500Y-139887547D01*
X135700500Y-139468845D01*
X135687599Y-139325500D01*
X135685378Y-139300819D01*
X135685376Y-139300808D01*
X135645138Y-139155010D01*
X135625493Y-139083830D01*
X135527829Y-138881027D01*
X135395522Y-138698922D01*
X135232825Y-138543368D01*
X135044968Y-138419365D01*
X135044965Y-138419363D01*
X135044964Y-138419363D01*
X135044963Y-138419362D01*
X134837987Y-138330896D01*
X134682186Y-138295336D01*
X134618537Y-138280809D01*
X134618531Y-138280808D01*
X134618526Y-138280808D01*
X134393671Y-138270709D01*
X134170612Y-138300925D01*
X133956533Y-138370483D01*
X133758318Y-138477148D01*
X133758317Y-138477148D01*
X133582334Y-138617491D01*
X133582333Y-138617492D01*
X133434236Y-138787002D01*
X133318783Y-138980240D01*
X133293660Y-139047180D01*
X133255512Y-139095017D01*
X133196531Y-139111294D01*
X133139247Y-139089795D01*
X133111777Y-139055348D01*
X133027830Y-138881029D01*
X133027829Y-138881027D01*
X132895522Y-138698922D01*
X132732825Y-138543368D01*
X132544968Y-138419365D01*
X132544965Y-138419363D01*
X132544964Y-138419363D01*
X132544963Y-138419362D01*
X132337987Y-138330896D01*
X132182186Y-138295336D01*
X132118537Y-138280809D01*
X132118531Y-138280808D01*
X132118526Y-138280808D01*
X131893671Y-138270709D01*
X131670612Y-138300925D01*
X131456533Y-138370483D01*
X131258318Y-138477148D01*
X131258317Y-138477148D01*
X131082334Y-138617491D01*
X131082333Y-138617492D01*
X130934236Y-138787002D01*
X130818783Y-138980240D01*
X130793660Y-139047180D01*
X130755512Y-139095017D01*
X130696531Y-139111294D01*
X130639247Y-139089795D01*
X130611777Y-139055348D01*
X130527830Y-138881029D01*
X130527829Y-138881027D01*
X130395522Y-138698922D01*
X130232825Y-138543368D01*
X130044968Y-138419365D01*
X130044965Y-138419363D01*
X130044964Y-138419363D01*
X130044963Y-138419362D01*
X129837987Y-138330896D01*
X129682186Y-138295336D01*
X129618537Y-138280809D01*
X129618531Y-138280808D01*
X129618526Y-138280808D01*
X129393671Y-138270709D01*
X129170612Y-138300925D01*
X128956533Y-138370483D01*
X128758318Y-138477148D01*
X128758317Y-138477148D01*
X128582334Y-138617491D01*
X128582333Y-138617492D01*
X128434236Y-138787002D01*
X128318783Y-138980240D01*
X128239696Y-139190967D01*
X128239693Y-139190976D01*
X128239692Y-139190982D01*
X128199500Y-139412448D01*
X128199500Y-139831151D01*
X128000000Y-139831151D01*
X128000000Y-139750001D01*
X127999999Y-139750000D01*
X127415691Y-139750000D01*
X127425000Y-139718295D01*
X127425000Y-139581705D01*
X127415691Y-139550000D01*
X127999998Y-139550000D01*
X127999999Y-139549999D01*
X127999998Y-138870796D01*
X127997149Y-138840399D01*
X127997149Y-138840397D01*
X127952345Y-138712352D01*
X127871792Y-138603209D01*
X127871790Y-138603207D01*
X127762647Y-138522654D01*
X127634601Y-138477850D01*
X127604211Y-138475000D01*
X127050000Y-138475000D01*
X127050000Y-139184493D01*
X126983975Y-139175000D01*
X126916025Y-139175000D01*
X126850000Y-139184493D01*
X126850000Y-138475001D01*
X126849999Y-138475000D01*
X126295796Y-138475000D01*
X126265399Y-138477850D01*
X126265397Y-138477850D01*
X126137352Y-138522654D01*
X126028209Y-138603207D01*
X126028207Y-138603209D01*
X125947654Y-138712352D01*
X125902850Y-138840398D01*
X125900000Y-138870788D01*
X125900000Y-139549999D01*
X125900001Y-139550000D01*
X126484309Y-139550000D01*
X126475000Y-139581705D01*
X126475000Y-139718295D01*
X126484309Y-139750000D01*
X125900002Y-139750000D01*
X125900000Y-139750001D01*
X121500000Y-139750001D01*
X121500000Y-138172400D01*
X160145746Y-138172400D01*
X160155746Y-138382330D01*
X160155747Y-138382337D01*
X160205295Y-138586573D01*
X160205300Y-138586586D01*
X160292602Y-138777751D01*
X160292604Y-138777754D01*
X160414511Y-138948949D01*
X160414513Y-138948951D01*
X160414514Y-138948952D01*
X160566622Y-139093986D01*
X160743428Y-139207613D01*
X160938543Y-139285725D01*
X161144915Y-139325500D01*
X161144918Y-139325500D01*
X161302425Y-139325500D01*
X161459218Y-139310528D01*
X161660875Y-139251316D01*
X161670615Y-139246295D01*
X161679944Y-139241485D01*
X161847682Y-139155011D01*
X162012886Y-139025092D01*
X162150519Y-138866256D01*
X162255604Y-138684244D01*
X162324344Y-138485633D01*
X162354254Y-138277602D01*
X162344254Y-138067670D01*
X162294704Y-137863424D01*
X162294699Y-137863413D01*
X162207397Y-137672248D01*
X162207395Y-137672245D01*
X162085488Y-137501050D01*
X161966005Y-137387124D01*
X161933378Y-137356014D01*
X161756572Y-137242387D01*
X161756569Y-137242386D01*
X161756568Y-137242385D01*
X161647409Y-137198685D01*
X161561457Y-137164275D01*
X161355085Y-137124500D01*
X161197575Y-137124500D01*
X161040781Y-137139472D01*
X160839120Y-137198685D01*
X160652320Y-137294987D01*
X160652317Y-137294989D01*
X160487113Y-137424907D01*
X160349480Y-137583744D01*
X160244397Y-137765753D01*
X160244394Y-137765760D01*
X160175657Y-137964362D01*
X160175655Y-137964368D01*
X160145746Y-138172393D01*
X160145746Y-138172400D01*
X121500000Y-138172400D01*
X121500000Y-136480503D01*
X153799500Y-136480503D01*
X153814885Y-136646536D01*
X153875771Y-136860528D01*
X153974942Y-137059689D01*
X154109019Y-137237236D01*
X154273438Y-137387124D01*
X154462599Y-137504247D01*
X154670060Y-137584618D01*
X154888757Y-137625500D01*
X155111243Y-137625500D01*
X155329940Y-137584618D01*
X155537401Y-137504247D01*
X155726562Y-137387124D01*
X155890981Y-137237236D01*
X156025058Y-137059689D01*
X156124229Y-136860528D01*
X156185115Y-136646536D01*
X156200500Y-136480503D01*
X156200500Y-135969497D01*
X156185115Y-135803464D01*
X156124229Y-135589472D01*
X156025058Y-135390311D01*
X155890981Y-135212764D01*
X155726562Y-135062876D01*
X155537401Y-134945753D01*
X155329940Y-134865382D01*
X155329939Y-134865381D01*
X155329937Y-134865381D01*
X155111243Y-134824500D01*
X154888757Y-134824500D01*
X154670062Y-134865381D01*
X154593797Y-134894926D01*
X154462599Y-134945753D01*
X154273438Y-135062876D01*
X154109019Y-135212764D01*
X154075560Y-135257071D01*
X153974943Y-135390309D01*
X153974938Y-135390318D01*
X153875772Y-135589469D01*
X153814885Y-135803464D01*
X153801307Y-135950000D01*
X153799500Y-135969497D01*
X153799500Y-136480503D01*
X121500000Y-136480503D01*
X121500000Y-135725001D01*
X141519355Y-135725001D01*
X141526190Y-135781290D01*
X141539860Y-135893872D01*
X141600182Y-136052930D01*
X141696817Y-136192929D01*
X141824148Y-136305734D01*
X141974775Y-136384790D01*
X142139944Y-136425500D01*
X142139947Y-136425500D01*
X142310053Y-136425500D01*
X142310056Y-136425500D01*
X142475225Y-136384790D01*
X142625852Y-136305734D01*
X142753183Y-136192929D01*
X142849818Y-136052930D01*
X142910140Y-135893872D01*
X142930645Y-135725000D01*
X142910140Y-135556128D01*
X142849818Y-135397070D01*
X142753183Y-135257071D01*
X142703169Y-135212763D01*
X142648842Y-135164633D01*
X142625852Y-135144266D01*
X142475225Y-135065210D01*
X142475224Y-135065209D01*
X142475223Y-135065209D01*
X142310058Y-135024500D01*
X142310056Y-135024500D01*
X142139944Y-135024500D01*
X142139941Y-135024500D01*
X141974776Y-135065209D01*
X141824146Y-135144267D01*
X141696818Y-135257069D01*
X141696816Y-135257071D01*
X141696817Y-135257071D01*
X141600182Y-135397070D01*
X141561147Y-135500000D01*
X141539860Y-135556129D01*
X141519355Y-135724998D01*
X141519355Y-135725001D01*
X121500000Y-135725001D01*
X121500000Y-135500001D01*
X121500000Y-135500000D01*
X114500000Y-135500000D01*
X114500000Y-135500001D01*
X114500000Y-143233171D01*
X114481093Y-143291362D01*
X114431593Y-143327326D01*
X114379249Y-143329752D01*
X114256544Y-143302118D01*
X113322920Y-143051954D01*
X112400126Y-142764400D01*
X111489660Y-142439922D01*
X110592997Y-142079047D01*
X109711593Y-141682359D01*
X108846876Y-141250502D01*
X108000250Y-140784177D01*
X107173087Y-140284139D01*
X106366730Y-139751201D01*
X105582486Y-139186227D01*
X104821627Y-138590132D01*
X104766650Y-138543368D01*
X104085388Y-137963884D01*
X103674271Y-137584618D01*
X103374962Y-137308497D01*
X103241465Y-137175000D01*
X111119435Y-137175000D01*
X111139632Y-137354257D01*
X111139633Y-137354261D01*
X111199211Y-137524522D01*
X111199211Y-137524523D01*
X111292033Y-137672248D01*
X111295184Y-137677262D01*
X111422738Y-137804816D01*
X111575478Y-137900789D01*
X111643657Y-137924646D01*
X111745738Y-137960366D01*
X111745742Y-137960367D01*
X111745745Y-137960368D01*
X111925000Y-137980565D01*
X112104255Y-137960368D01*
X112274522Y-137900789D01*
X112427262Y-137804816D01*
X112554816Y-137677262D01*
X112650789Y-137524522D01*
X112709752Y-137356015D01*
X112710366Y-137354261D01*
X112710367Y-137354257D01*
X112710368Y-137354255D01*
X112730565Y-137175000D01*
X112710368Y-136995745D01*
X112650789Y-136825478D01*
X112594168Y-136735367D01*
X112554818Y-136672741D01*
X112554817Y-136672740D01*
X112554816Y-136672738D01*
X112427262Y-136545184D01*
X112427259Y-136545182D01*
X112427258Y-136545181D01*
X112274523Y-136449211D01*
X112104261Y-136389633D01*
X112104257Y-136389632D01*
X111925000Y-136369435D01*
X111745742Y-136389632D01*
X111745738Y-136389633D01*
X111575477Y-136449211D01*
X111575476Y-136449211D01*
X111422741Y-136545181D01*
X111295181Y-136672741D01*
X111199211Y-136825476D01*
X111199211Y-136825477D01*
X111139633Y-136995738D01*
X111139632Y-136995742D01*
X111119435Y-137175000D01*
X103241465Y-137175000D01*
X102691503Y-136625038D01*
X102292870Y-136192929D01*
X102036116Y-135914612D01*
X101409868Y-135178373D01*
X100813773Y-134417514D01*
X100248799Y-133633270D01*
X99715861Y-132826913D01*
X99215823Y-131999750D01*
X98816628Y-131275000D01*
X110503698Y-131275000D01*
X110540682Y-131425046D01*
X110540682Y-131425047D01*
X110619681Y-131575568D01*
X110619681Y-131575569D01*
X110732399Y-131702800D01*
X110732405Y-131702805D01*
X110872306Y-131799371D01*
X110872309Y-131799373D01*
X111031241Y-131859648D01*
X111031251Y-131859651D01*
X111157648Y-131874999D01*
X111157665Y-131875000D01*
X111399999Y-131875000D01*
X111400000Y-131874998D01*
X111400000Y-131375000D01*
X111600000Y-131375000D01*
X111600000Y-131874999D01*
X111600001Y-131875000D01*
X111842335Y-131875000D01*
X111842351Y-131874999D01*
X111968748Y-131859651D01*
X111968758Y-131859648D01*
X112127690Y-131799373D01*
X112127693Y-131799371D01*
X112267594Y-131702805D01*
X112267595Y-131702805D01*
X112297276Y-131669302D01*
X112350016Y-131638284D01*
X112410915Y-131644188D01*
X112451470Y-131676758D01*
X112527112Y-131780871D01*
X112527115Y-131780873D01*
X112527116Y-131780875D01*
X112566243Y-131816105D01*
X112667784Y-131907533D01*
X112747490Y-131953551D01*
X112831706Y-132002174D01*
X112831711Y-132002176D01*
X112831716Y-132002179D01*
X113011744Y-132060674D01*
X113152808Y-132075500D01*
X113152811Y-132075500D01*
X113847189Y-132075500D01*
X113847192Y-132075500D01*
X113988256Y-132060674D01*
X114168284Y-132002179D01*
X114332216Y-131907533D01*
X114433757Y-131816104D01*
X114489651Y-131791218D01*
X114549500Y-131803939D01*
X114566239Y-131816102D01*
X114667784Y-131907533D01*
X114747490Y-131953551D01*
X114831706Y-132002174D01*
X114831711Y-132002176D01*
X114831716Y-132002179D01*
X115011744Y-132060674D01*
X115152808Y-132075500D01*
X115152811Y-132075500D01*
X115847189Y-132075500D01*
X115847192Y-132075500D01*
X115988256Y-132060674D01*
X116168284Y-132002179D01*
X116332216Y-131907533D01*
X116433757Y-131816104D01*
X116489651Y-131791218D01*
X116549500Y-131803939D01*
X116566239Y-131816102D01*
X116667784Y-131907533D01*
X116747490Y-131953551D01*
X116831706Y-132002174D01*
X116831711Y-132002176D01*
X116831716Y-132002179D01*
X117011744Y-132060674D01*
X117152808Y-132075500D01*
X117152811Y-132075500D01*
X117847189Y-132075500D01*
X117847192Y-132075500D01*
X117988256Y-132060674D01*
X118168284Y-132002179D01*
X118332216Y-131907533D01*
X118433757Y-131816104D01*
X118489651Y-131791218D01*
X118549500Y-131803939D01*
X118566239Y-131816102D01*
X118667784Y-131907533D01*
X118747490Y-131953551D01*
X118831706Y-132002174D01*
X118831711Y-132002176D01*
X118831716Y-132002179D01*
X119011744Y-132060674D01*
X119152808Y-132075500D01*
X119152811Y-132075500D01*
X119847189Y-132075500D01*
X119847192Y-132075500D01*
X119988256Y-132060674D01*
X120168284Y-132002179D01*
X120332216Y-131907533D01*
X120433757Y-131816104D01*
X120489651Y-131791218D01*
X120549500Y-131803939D01*
X120566239Y-131816102D01*
X120667784Y-131907533D01*
X120747490Y-131953551D01*
X120831706Y-132002174D01*
X120831711Y-132002176D01*
X120831716Y-132002179D01*
X121011744Y-132060674D01*
X121152808Y-132075500D01*
X121152811Y-132075500D01*
X121847189Y-132075500D01*
X121847192Y-132075500D01*
X121988256Y-132060674D01*
X122168284Y-132002179D01*
X122332216Y-131907533D01*
X122472888Y-131780871D01*
X122495317Y-131750000D01*
X123544355Y-131750000D01*
X123564860Y-131918872D01*
X123625182Y-132077930D01*
X123721817Y-132217929D01*
X123849148Y-132330734D01*
X123999775Y-132409790D01*
X124164944Y-132450500D01*
X124200638Y-132450500D01*
X124258829Y-132469407D01*
X124294793Y-132518907D01*
X124298916Y-132537566D01*
X124307559Y-132608744D01*
X124314860Y-132668872D01*
X124375182Y-132827930D01*
X124471817Y-132967929D01*
X124599148Y-133080734D01*
X124749775Y-133159790D01*
X124914944Y-133200500D01*
X125008520Y-133200500D01*
X125066711Y-133219407D01*
X125101086Y-133264394D01*
X125125182Y-133327930D01*
X125221817Y-133467929D01*
X125349148Y-133580734D01*
X125499775Y-133659790D01*
X125664944Y-133700500D01*
X125758520Y-133700500D01*
X125816711Y-133719407D01*
X125851086Y-133764394D01*
X125875182Y-133827930D01*
X125971816Y-133967927D01*
X125971818Y-133967930D01*
X126009780Y-134001561D01*
X126099148Y-134080734D01*
X126249775Y-134159790D01*
X126414944Y-134200500D01*
X126414947Y-134200500D01*
X126585053Y-134200500D01*
X126585056Y-134200500D01*
X126750225Y-134159790D01*
X126900852Y-134080734D01*
X127028183Y-133967929D01*
X127124818Y-133827930D01*
X127185140Y-133668872D01*
X127205645Y-133500000D01*
X127191832Y-133386242D01*
X141099500Y-133386242D01*
X141135856Y-133580732D01*
X141140382Y-133604940D01*
X141220753Y-133812401D01*
X141337876Y-134001562D01*
X141487764Y-134165981D01*
X141665311Y-134300058D01*
X141864472Y-134399229D01*
X142078464Y-134460115D01*
X142244497Y-134475500D01*
X142244502Y-134475500D01*
X142755498Y-134475500D01*
X142755503Y-134475500D01*
X142921536Y-134460115D01*
X143135528Y-134399229D01*
X143334689Y-134300058D01*
X143512236Y-134165981D01*
X143662124Y-134001562D01*
X143779247Y-133812401D01*
X143859618Y-133604940D01*
X143900500Y-133386243D01*
X143900500Y-133386242D01*
X146099500Y-133386242D01*
X146135856Y-133580732D01*
X146140382Y-133604940D01*
X146220753Y-133812401D01*
X146337876Y-134001562D01*
X146487764Y-134165981D01*
X146665311Y-134300058D01*
X146864472Y-134399229D01*
X147078464Y-134460115D01*
X147244497Y-134475500D01*
X147244502Y-134475500D01*
X147755498Y-134475500D01*
X147755503Y-134475500D01*
X147921536Y-134460115D01*
X148135528Y-134399229D01*
X148334689Y-134300058D01*
X148512236Y-134165981D01*
X148662124Y-134001562D01*
X148779247Y-133812401D01*
X148859618Y-133604940D01*
X148900500Y-133386243D01*
X148900500Y-133197400D01*
X177645746Y-133197400D01*
X177655746Y-133407330D01*
X177655747Y-133407337D01*
X177705295Y-133611573D01*
X177705300Y-133611586D01*
X177792602Y-133802751D01*
X177792604Y-133802754D01*
X177914511Y-133973949D01*
X177914513Y-133973951D01*
X177914514Y-133973952D01*
X178066622Y-134118986D01*
X178243428Y-134232613D01*
X178438543Y-134310725D01*
X178644915Y-134350500D01*
X178644918Y-134350500D01*
X178802425Y-134350500D01*
X178959218Y-134335528D01*
X179160875Y-134276316D01*
X179347682Y-134180011D01*
X179512886Y-134050092D01*
X179650519Y-133891256D01*
X179755604Y-133709244D01*
X179824344Y-133510633D01*
X179854254Y-133302602D01*
X179844254Y-133092670D01*
X179794704Y-132888424D01*
X179750102Y-132790760D01*
X179707397Y-132697248D01*
X179707395Y-132697245D01*
X179585488Y-132526050D01*
X179577997Y-132518907D01*
X179433378Y-132381014D01*
X179256572Y-132267387D01*
X179256569Y-132267386D01*
X179256568Y-132267385D01*
X179147409Y-132223685D01*
X179061457Y-132189275D01*
X178855085Y-132149500D01*
X178697575Y-132149500D01*
X178540781Y-132164472D01*
X178339120Y-132223685D01*
X178152320Y-132319987D01*
X178152317Y-132319989D01*
X177987113Y-132449907D01*
X177849480Y-132608744D01*
X177744397Y-132790753D01*
X177744394Y-132790760D01*
X177675657Y-132989362D01*
X177675655Y-132989368D01*
X177645746Y-133197393D01*
X177645746Y-133197400D01*
X148900500Y-133197400D01*
X148900500Y-133163757D01*
X148859618Y-132945060D01*
X148779247Y-132737599D01*
X148662124Y-132548438D01*
X148512236Y-132384019D01*
X148334689Y-132249942D01*
X148135528Y-132150771D01*
X147921536Y-132089885D01*
X147865375Y-132084681D01*
X147755505Y-132074500D01*
X147755503Y-132074500D01*
X147244497Y-132074500D01*
X147244494Y-132074500D01*
X147078464Y-132089885D01*
X146864472Y-132150771D01*
X146864471Y-132150771D01*
X146864469Y-132150772D01*
X146665318Y-132249938D01*
X146665309Y-132249943D01*
X146558325Y-132330734D01*
X146487764Y-132384019D01*
X146337876Y-132548438D01*
X146220753Y-132737599D01*
X146185759Y-132827929D01*
X146140381Y-132945062D01*
X146099500Y-133163757D01*
X146099500Y-133386242D01*
X143900500Y-133386242D01*
X143900500Y-133163757D01*
X143859618Y-132945060D01*
X143779247Y-132737599D01*
X143662124Y-132548438D01*
X143512236Y-132384019D01*
X143334689Y-132249942D01*
X143135528Y-132150771D01*
X142921536Y-132089885D01*
X142865375Y-132084681D01*
X142755505Y-132074500D01*
X142755503Y-132074500D01*
X142244497Y-132074500D01*
X142244494Y-132074500D01*
X142078464Y-132089885D01*
X141864472Y-132150771D01*
X141864471Y-132150771D01*
X141864469Y-132150772D01*
X141665318Y-132249938D01*
X141665309Y-132249943D01*
X141558325Y-132330734D01*
X141487764Y-132384019D01*
X141337876Y-132548438D01*
X141220753Y-132737599D01*
X141185759Y-132827929D01*
X141140381Y-132945062D01*
X141099500Y-133163757D01*
X141099500Y-133386242D01*
X127191832Y-133386242D01*
X127185140Y-133331128D01*
X127124818Y-133172070D01*
X127028183Y-133032071D01*
X126900852Y-132919266D01*
X126750225Y-132840210D01*
X126750224Y-132840209D01*
X126750223Y-132840209D01*
X126585058Y-132799500D01*
X126585056Y-132799500D01*
X126491480Y-132799500D01*
X126433289Y-132780593D01*
X126398913Y-132735605D01*
X126374818Y-132672070D01*
X126278183Y-132532071D01*
X126274995Y-132529247D01*
X126150853Y-132419267D01*
X126150852Y-132419266D01*
X126000225Y-132340210D01*
X126000224Y-132340209D01*
X126000223Y-132340209D01*
X125835058Y-132299500D01*
X125835056Y-132299500D01*
X125741480Y-132299500D01*
X125683289Y-132280593D01*
X125648913Y-132235605D01*
X125624818Y-132172070D01*
X125528183Y-132032071D01*
X125400852Y-131919266D01*
X125250225Y-131840210D01*
X125250224Y-131840209D01*
X125250223Y-131840209D01*
X125085058Y-131799500D01*
X125085056Y-131799500D01*
X125049362Y-131799500D01*
X124991171Y-131780593D01*
X124955207Y-131731093D01*
X124951084Y-131712434D01*
X124946118Y-131671536D01*
X124935140Y-131581128D01*
X124874818Y-131422070D01*
X124778183Y-131282071D01*
X124770201Y-131275000D01*
X124650853Y-131169267D01*
X124650852Y-131169266D01*
X124500225Y-131090210D01*
X124500224Y-131090209D01*
X124500223Y-131090209D01*
X124335058Y-131049500D01*
X124335056Y-131049500D01*
X124164944Y-131049500D01*
X124164941Y-131049500D01*
X123999776Y-131090209D01*
X123849146Y-131169267D01*
X123721818Y-131282069D01*
X123721816Y-131282072D01*
X123657672Y-131375000D01*
X123625182Y-131422070D01*
X123566969Y-131575569D01*
X123564860Y-131581129D01*
X123545138Y-131743554D01*
X123544355Y-131750000D01*
X122495317Y-131750000D01*
X122584151Y-131627730D01*
X122661144Y-131454803D01*
X122700500Y-131269646D01*
X122700500Y-131080354D01*
X122661144Y-130895197D01*
X122584151Y-130722270D01*
X122472888Y-130569129D01*
X122472884Y-130569125D01*
X122472883Y-130569124D01*
X122332218Y-130442469D01*
X122332216Y-130442467D01*
X122298525Y-130423015D01*
X122168293Y-130347825D01*
X122168279Y-130347819D01*
X121988261Y-130289327D01*
X121988258Y-130289326D01*
X121988256Y-130289326D01*
X121872773Y-130277188D01*
X121847193Y-130274500D01*
X121847192Y-130274500D01*
X121152808Y-130274500D01*
X121152806Y-130274500D01*
X121101644Y-130279877D01*
X121011744Y-130289326D01*
X121011742Y-130289326D01*
X121011738Y-130289327D01*
X120831720Y-130347819D01*
X120831706Y-130347825D01*
X120667787Y-130442465D01*
X120667786Y-130442465D01*
X120566244Y-130533894D01*
X120510348Y-130558780D01*
X120450500Y-130546058D01*
X120433756Y-130533894D01*
X120385396Y-130490351D01*
X120332216Y-130442467D01*
X120298525Y-130423015D01*
X120168293Y-130347825D01*
X120168279Y-130347819D01*
X119988261Y-130289327D01*
X119988258Y-130289326D01*
X119988256Y-130289326D01*
X119872773Y-130277188D01*
X119847193Y-130274500D01*
X119847192Y-130274500D01*
X119152808Y-130274500D01*
X119152806Y-130274500D01*
X119101644Y-130279877D01*
X119011744Y-130289326D01*
X119011742Y-130289326D01*
X119011738Y-130289327D01*
X118831720Y-130347819D01*
X118831706Y-130347825D01*
X118667787Y-130442465D01*
X118667786Y-130442465D01*
X118566244Y-130533894D01*
X118510348Y-130558780D01*
X118450500Y-130546058D01*
X118433756Y-130533894D01*
X118385396Y-130490351D01*
X118332216Y-130442467D01*
X118298525Y-130423015D01*
X118168293Y-130347825D01*
X118168279Y-130347819D01*
X117988261Y-130289327D01*
X117988258Y-130289326D01*
X117988256Y-130289326D01*
X117872773Y-130277188D01*
X117847193Y-130274500D01*
X117847192Y-130274500D01*
X117152808Y-130274500D01*
X117152806Y-130274500D01*
X117101644Y-130279877D01*
X117011744Y-130289326D01*
X117011742Y-130289326D01*
X117011738Y-130289327D01*
X116831720Y-130347819D01*
X116831706Y-130347825D01*
X116667787Y-130442465D01*
X116667786Y-130442465D01*
X116566244Y-130533894D01*
X116510348Y-130558780D01*
X116450500Y-130546058D01*
X116433756Y-130533894D01*
X116385396Y-130490351D01*
X116332216Y-130442467D01*
X116298525Y-130423015D01*
X116168293Y-130347825D01*
X116168279Y-130347819D01*
X115988261Y-130289327D01*
X115988258Y-130289326D01*
X115988256Y-130289326D01*
X115872773Y-130277188D01*
X115847193Y-130274500D01*
X115847192Y-130274500D01*
X115152808Y-130274500D01*
X115152806Y-130274500D01*
X115101644Y-130279877D01*
X115011744Y-130289326D01*
X115011742Y-130289326D01*
X115011738Y-130289327D01*
X114831720Y-130347819D01*
X114831706Y-130347825D01*
X114667787Y-130442465D01*
X114667786Y-130442465D01*
X114566244Y-130533894D01*
X114510348Y-130558780D01*
X114450500Y-130546058D01*
X114433756Y-130533894D01*
X114385396Y-130490351D01*
X114332216Y-130442467D01*
X114298525Y-130423015D01*
X114168293Y-130347825D01*
X114168279Y-130347819D01*
X113988261Y-130289327D01*
X113988258Y-130289326D01*
X113988256Y-130289326D01*
X113872773Y-130277188D01*
X113847193Y-130274500D01*
X113847192Y-130274500D01*
X113152808Y-130274500D01*
X113152806Y-130274500D01*
X113101644Y-130279877D01*
X113011744Y-130289326D01*
X113011742Y-130289326D01*
X113011738Y-130289327D01*
X112831720Y-130347819D01*
X112831706Y-130347825D01*
X112667787Y-130442465D01*
X112667781Y-130442469D01*
X112527116Y-130569124D01*
X112527115Y-130569125D01*
X112527112Y-130569128D01*
X112527112Y-130569129D01*
X112494171Y-130614469D01*
X112451472Y-130673239D01*
X112401971Y-130709203D01*
X112340786Y-130709203D01*
X112297277Y-130680698D01*
X112267596Y-130647195D01*
X112267594Y-130647194D01*
X112127693Y-130550628D01*
X112127690Y-130550626D01*
X111968758Y-130490351D01*
X111968748Y-130490348D01*
X111842351Y-130475000D01*
X111600000Y-130475000D01*
X111600000Y-130975000D01*
X111400000Y-130975000D01*
X111400000Y-130475001D01*
X111399999Y-130475000D01*
X111157648Y-130475000D01*
X111031251Y-130490348D01*
X111031241Y-130490351D01*
X110872309Y-130550626D01*
X110872306Y-130550628D01*
X110732405Y-130647194D01*
X110732399Y-130647199D01*
X110619681Y-130774430D01*
X110619681Y-130774431D01*
X110540682Y-130924952D01*
X110540682Y-130924953D01*
X110503698Y-131075000D01*
X111126174Y-131075000D01*
X111100000Y-131129351D01*
X111100000Y-131220649D01*
X111126174Y-131275000D01*
X110503698Y-131275000D01*
X98816628Y-131275000D01*
X98749498Y-131153124D01*
X98317641Y-130288407D01*
X97920953Y-129407003D01*
X97560078Y-128510340D01*
X97235600Y-127599874D01*
X96948046Y-126677080D01*
X96697882Y-125743456D01*
X96681098Y-125668931D01*
X122995668Y-125668931D01*
X123026133Y-125841707D01*
X123095622Y-126002802D01*
X123095623Y-126002804D01*
X123200389Y-126143529D01*
X123200391Y-126143531D01*
X123334783Y-126256300D01*
X123334784Y-126256300D01*
X123334786Y-126256302D01*
X123491567Y-126335040D01*
X123491572Y-126335041D01*
X123491576Y-126335043D01*
X123662277Y-126375500D01*
X123662279Y-126375500D01*
X123793704Y-126375500D01*
X123793709Y-126375500D01*
X123924255Y-126360241D01*
X124089117Y-126300237D01*
X124235696Y-126203830D01*
X124356092Y-126076218D01*
X124443812Y-125924281D01*
X124494130Y-125756210D01*
X124502385Y-125614472D01*
X124504331Y-125581068D01*
X124504331Y-125581065D01*
X124473866Y-125408292D01*
X124473865Y-125408289D01*
X124404377Y-125247196D01*
X124299610Y-125106470D01*
X124268737Y-125080564D01*
X124165216Y-124993699D01*
X124125890Y-124973949D01*
X124008433Y-124914960D01*
X124008429Y-124914959D01*
X124008423Y-124914956D01*
X123837723Y-124874500D01*
X123837721Y-124874500D01*
X123706291Y-124874500D01*
X123575745Y-124889759D01*
X123575742Y-124889759D01*
X123575741Y-124889760D01*
X123410883Y-124949762D01*
X123264306Y-125046168D01*
X123264303Y-125046170D01*
X123143909Y-125173780D01*
X123143908Y-125173780D01*
X123056188Y-125325719D01*
X123005870Y-125493786D01*
X123005869Y-125493793D01*
X122995668Y-125668931D01*
X96681098Y-125668931D01*
X96485514Y-124800517D01*
X96311287Y-123849791D01*
X96282935Y-123650000D01*
X127019435Y-123650000D01*
X127039632Y-123829257D01*
X127039633Y-123829261D01*
X127099211Y-123999522D01*
X127099211Y-123999523D01*
X127195181Y-124152258D01*
X127195184Y-124152262D01*
X127322738Y-124279816D01*
X127322740Y-124279817D01*
X127322741Y-124279818D01*
X127440888Y-124354055D01*
X127475478Y-124375789D01*
X127543657Y-124399646D01*
X127645738Y-124435366D01*
X127645742Y-124435367D01*
X127645745Y-124435368D01*
X127825000Y-124455565D01*
X128004255Y-124435368D01*
X128174522Y-124375789D01*
X128327262Y-124279816D01*
X128454816Y-124152262D01*
X128550789Y-123999522D01*
X128610368Y-123829255D01*
X128630565Y-123650000D01*
X128630565Y-123649996D01*
X128630565Y-123649995D01*
X128611648Y-123482106D01*
X128623921Y-123422164D01*
X128669083Y-123380884D01*
X128729883Y-123374033D01*
X128780595Y-123401589D01*
X130470291Y-125118984D01*
X133571570Y-128271104D01*
X133598904Y-128325843D01*
X133600000Y-128340535D01*
X133600000Y-128955077D01*
X133581093Y-129013268D01*
X133566192Y-129029582D01*
X132827994Y-129675505D01*
X132771750Y-129699595D01*
X132762802Y-129700000D01*
X130300000Y-129700000D01*
X130299999Y-129700001D01*
X130299999Y-130154521D01*
X130281092Y-130212712D01*
X130231591Y-130248676D01*
X130170406Y-130248676D01*
X130120906Y-130212712D01*
X130117173Y-130207192D01*
X130079818Y-130147741D01*
X130079817Y-130147740D01*
X130079816Y-130147738D01*
X129952262Y-130020184D01*
X129952259Y-130020182D01*
X129952258Y-130020181D01*
X129799523Y-129924211D01*
X129629261Y-129864633D01*
X129629257Y-129864632D01*
X129450000Y-129844435D01*
X129270742Y-129864632D01*
X129270738Y-129864633D01*
X129100477Y-129924211D01*
X129100476Y-129924211D01*
X128947741Y-130020181D01*
X128820181Y-130147741D01*
X128724211Y-130300476D01*
X128724211Y-130300477D01*
X128664633Y-130470738D01*
X128664632Y-130470742D01*
X128644435Y-130650000D01*
X128664632Y-130829257D01*
X128664633Y-130829261D01*
X128724211Y-130999522D01*
X128724211Y-130999523D01*
X128820181Y-131152258D01*
X128820184Y-131152262D01*
X128947738Y-131279816D01*
X128947740Y-131279817D01*
X128947741Y-131279818D01*
X129075074Y-131359827D01*
X129100478Y-131375789D01*
X129168657Y-131399646D01*
X129270738Y-131435366D01*
X129270742Y-131435367D01*
X129270745Y-131435368D01*
X129450000Y-131455565D01*
X129629255Y-131435368D01*
X129799522Y-131375789D01*
X129952262Y-131279816D01*
X130079816Y-131152262D01*
X130117173Y-131092807D01*
X130164141Y-131053595D01*
X130225187Y-131049478D01*
X130276995Y-131082030D01*
X130299775Y-131138817D01*
X130299999Y-131145478D01*
X130299999Y-131499998D01*
X130300000Y-131499999D01*
X130300000Y-131500000D01*
X130300001Y-131500000D01*
X133299999Y-131500000D01*
X133300000Y-131500000D01*
X133319495Y-131480505D01*
X153799500Y-131480505D01*
X153801817Y-131505505D01*
X153814885Y-131646536D01*
X153875771Y-131860528D01*
X153974942Y-132059689D01*
X154109019Y-132237236D01*
X154273438Y-132387124D01*
X154462599Y-132504247D01*
X154670060Y-132584618D01*
X154888757Y-132625500D01*
X155111243Y-132625500D01*
X155329940Y-132584618D01*
X155537401Y-132504247D01*
X155726562Y-132387124D01*
X155890981Y-132237236D01*
X156025058Y-132059689D01*
X156124229Y-131860528D01*
X156185115Y-131646536D01*
X156200500Y-131480505D01*
X166299500Y-131480505D01*
X166301817Y-131505505D01*
X166314885Y-131646536D01*
X166375771Y-131860528D01*
X166474942Y-132059689D01*
X166609019Y-132237236D01*
X166773438Y-132387124D01*
X166962599Y-132504247D01*
X167170060Y-132584618D01*
X167388757Y-132625500D01*
X167611243Y-132625500D01*
X167829940Y-132584618D01*
X168037401Y-132504247D01*
X168226562Y-132387124D01*
X168390981Y-132237236D01*
X168525058Y-132059689D01*
X168624229Y-131860528D01*
X168685115Y-131646536D01*
X168698183Y-131505503D01*
X171299500Y-131505503D01*
X171314885Y-131671536D01*
X171375771Y-131885528D01*
X171474942Y-132084689D01*
X171609019Y-132262236D01*
X171773438Y-132412124D01*
X171962599Y-132529247D01*
X172170060Y-132609618D01*
X172388757Y-132650500D01*
X172611243Y-132650500D01*
X172829940Y-132609618D01*
X173037401Y-132529247D01*
X173226562Y-132412124D01*
X173390981Y-132262236D01*
X173525058Y-132084689D01*
X173624229Y-131885528D01*
X173685115Y-131671536D01*
X173700500Y-131505503D01*
X183799500Y-131505503D01*
X183814885Y-131671536D01*
X183875771Y-131885528D01*
X183974942Y-132084689D01*
X184109019Y-132262236D01*
X184273438Y-132412124D01*
X184462599Y-132529247D01*
X184670060Y-132609618D01*
X184888757Y-132650500D01*
X185111243Y-132650500D01*
X185329940Y-132609618D01*
X185537401Y-132529247D01*
X185726562Y-132412124D01*
X185890981Y-132262236D01*
X186025058Y-132084689D01*
X186124229Y-131885528D01*
X186185115Y-131671536D01*
X186200500Y-131505503D01*
X186200500Y-130994497D01*
X186185115Y-130828464D01*
X186124229Y-130614472D01*
X186025058Y-130415311D01*
X185890981Y-130237764D01*
X185726562Y-130087876D01*
X185537401Y-129970753D01*
X185329940Y-129890382D01*
X185329939Y-129890381D01*
X185329937Y-129890381D01*
X185111243Y-129849500D01*
X184888757Y-129849500D01*
X184670062Y-129890381D01*
X184593797Y-129919926D01*
X184462599Y-129970753D01*
X184313815Y-130062876D01*
X184273438Y-130087876D01*
X184109020Y-130237763D01*
X183974943Y-130415309D01*
X183974938Y-130415318D01*
X183879768Y-130606445D01*
X183875771Y-130614472D01*
X183859050Y-130673239D01*
X183814885Y-130828464D01*
X183799901Y-130990173D01*
X183799500Y-130994497D01*
X183799500Y-131505503D01*
X173700500Y-131505503D01*
X173700500Y-130994497D01*
X173685115Y-130828464D01*
X173624229Y-130614472D01*
X173525058Y-130415311D01*
X173390981Y-130237764D01*
X173226562Y-130087876D01*
X173037401Y-129970753D01*
X172829940Y-129890382D01*
X172829939Y-129890381D01*
X172829937Y-129890381D01*
X172611243Y-129849500D01*
X172388757Y-129849500D01*
X172170062Y-129890381D01*
X172093797Y-129919926D01*
X171962599Y-129970753D01*
X171813815Y-130062876D01*
X171773438Y-130087876D01*
X171609020Y-130237763D01*
X171474943Y-130415309D01*
X171474938Y-130415318D01*
X171379768Y-130606445D01*
X171375771Y-130614472D01*
X171359050Y-130673239D01*
X171314885Y-130828464D01*
X171299901Y-130990173D01*
X171299500Y-130994497D01*
X171299500Y-131505503D01*
X168698183Y-131505503D01*
X168700500Y-131480503D01*
X168700500Y-130969497D01*
X168685115Y-130803464D01*
X168624229Y-130589472D01*
X168525058Y-130390311D01*
X168390981Y-130212764D01*
X168226562Y-130062876D01*
X168037401Y-129945753D01*
X167829940Y-129865382D01*
X167829939Y-129865381D01*
X167829937Y-129865381D01*
X167611243Y-129824500D01*
X167388757Y-129824500D01*
X167170062Y-129865381D01*
X167105530Y-129890381D01*
X166962599Y-129945753D01*
X166834462Y-130025092D01*
X166773438Y-130062876D01*
X166614672Y-130207611D01*
X166609019Y-130212764D01*
X166579906Y-130251316D01*
X166474943Y-130390309D01*
X166474938Y-130390318D01*
X166375772Y-130589469D01*
X166314885Y-130803464D01*
X166299500Y-130969494D01*
X166299500Y-131480505D01*
X156200500Y-131480505D01*
X156200500Y-131480503D01*
X156200500Y-130969497D01*
X156185115Y-130803464D01*
X156124229Y-130589472D01*
X156025058Y-130390311D01*
X155890981Y-130212764D01*
X155726562Y-130062876D01*
X155537401Y-129945753D01*
X155329940Y-129865382D01*
X155329939Y-129865381D01*
X155329937Y-129865381D01*
X155111243Y-129824500D01*
X154888757Y-129824500D01*
X154670062Y-129865381D01*
X154605530Y-129890381D01*
X154462599Y-129945753D01*
X154334462Y-130025092D01*
X154273438Y-130062876D01*
X154114672Y-130207611D01*
X154109019Y-130212764D01*
X154079906Y-130251316D01*
X153974943Y-130390309D01*
X153974938Y-130390318D01*
X153875772Y-130589469D01*
X153814885Y-130803464D01*
X153799500Y-130969494D01*
X153799500Y-131480505D01*
X133319495Y-131480505D01*
X135200000Y-129600000D01*
X135200000Y-129172400D01*
X160145746Y-129172400D01*
X160155746Y-129382330D01*
X160155747Y-129382337D01*
X160205295Y-129586573D01*
X160205300Y-129586586D01*
X160292602Y-129777751D01*
X160292604Y-129777754D01*
X160414511Y-129948949D01*
X160414513Y-129948951D01*
X160414514Y-129948952D01*
X160566622Y-130093986D01*
X160743428Y-130207613D01*
X160938543Y-130285725D01*
X161144915Y-130325500D01*
X161144918Y-130325500D01*
X161302425Y-130325500D01*
X161459218Y-130310528D01*
X161660875Y-130251316D01*
X161847682Y-130155011D01*
X162012886Y-130025092D01*
X162150519Y-129866256D01*
X162255604Y-129684244D01*
X162324344Y-129485633D01*
X162354254Y-129277602D01*
X162344254Y-129067670D01*
X162294704Y-128863424D01*
X162250102Y-128765760D01*
X162207397Y-128672248D01*
X162207395Y-128672245D01*
X162085488Y-128501050D01*
X162005631Y-128424907D01*
X161933378Y-128356014D01*
X161756572Y-128242387D01*
X161756569Y-128242386D01*
X161756568Y-128242385D01*
X161647409Y-128198685D01*
X161561457Y-128164275D01*
X161355085Y-128124500D01*
X161197575Y-128124500D01*
X161040781Y-128139472D01*
X160839120Y-128198685D01*
X160652320Y-128294987D01*
X160652317Y-128294989D01*
X160487113Y-128424907D01*
X160349480Y-128583744D01*
X160244397Y-128765753D01*
X160244394Y-128765760D01*
X160175657Y-128964362D01*
X160175655Y-128964368D01*
X160145746Y-129172393D01*
X160145746Y-129172400D01*
X135200000Y-129172400D01*
X135200000Y-127600000D01*
X134625000Y-127025000D01*
X137294540Y-127025000D01*
X137311076Y-127182337D01*
X137314327Y-127213261D01*
X137372819Y-127393279D01*
X137372825Y-127393293D01*
X137448015Y-127523525D01*
X137467467Y-127557216D01*
X137467469Y-127557218D01*
X137551460Y-127650500D01*
X137594129Y-127697888D01*
X137747270Y-127809151D01*
X137920197Y-127886144D01*
X138105354Y-127925500D01*
X138105357Y-127925500D01*
X138294643Y-127925500D01*
X138294646Y-127925500D01*
X138479803Y-127886144D01*
X138652730Y-127809151D01*
X138805871Y-127697888D01*
X138932533Y-127557216D01*
X139027179Y-127393284D01*
X139085674Y-127213256D01*
X139105460Y-127025000D01*
X139099932Y-126972400D01*
X139395746Y-126972400D01*
X139405746Y-127182330D01*
X139405747Y-127182337D01*
X139455295Y-127386573D01*
X139455300Y-127386586D01*
X139542602Y-127577751D01*
X139542604Y-127577754D01*
X139664511Y-127748949D01*
X139664513Y-127748951D01*
X139664514Y-127748952D01*
X139816622Y-127893986D01*
X139993428Y-128007613D01*
X140188543Y-128085725D01*
X140394915Y-128125500D01*
X140394918Y-128125500D01*
X140552425Y-128125500D01*
X140709218Y-128110528D01*
X140910875Y-128051316D01*
X141097682Y-127955011D01*
X141262886Y-127825092D01*
X141400519Y-127666256D01*
X141505604Y-127484244D01*
X141574344Y-127285633D01*
X141604254Y-127077602D01*
X141599243Y-126972400D01*
X148395746Y-126972400D01*
X148405746Y-127182330D01*
X148405747Y-127182337D01*
X148455295Y-127386573D01*
X148455300Y-127386586D01*
X148542602Y-127577751D01*
X148542604Y-127577754D01*
X148664511Y-127748949D01*
X148664513Y-127748951D01*
X148664514Y-127748952D01*
X148816622Y-127893986D01*
X148993428Y-128007613D01*
X149188543Y-128085725D01*
X149394915Y-128125500D01*
X149394918Y-128125500D01*
X149552425Y-128125500D01*
X149709218Y-128110528D01*
X149910875Y-128051316D01*
X150097682Y-127955011D01*
X150262886Y-127825092D01*
X150400519Y-127666256D01*
X150505604Y-127484244D01*
X150574344Y-127285633D01*
X150604254Y-127077602D01*
X150601748Y-127025000D01*
X150894540Y-127025000D01*
X150911076Y-127182337D01*
X150914327Y-127213261D01*
X150972819Y-127393279D01*
X150972825Y-127393293D01*
X151048015Y-127523525D01*
X151067467Y-127557216D01*
X151067469Y-127557218D01*
X151151460Y-127650500D01*
X151194129Y-127697888D01*
X151347270Y-127809151D01*
X151520197Y-127886144D01*
X151705354Y-127925500D01*
X151705357Y-127925500D01*
X151894643Y-127925500D01*
X151894646Y-127925500D01*
X152079803Y-127886144D01*
X152252730Y-127809151D01*
X152405871Y-127697888D01*
X152532533Y-127557216D01*
X152627179Y-127393284D01*
X152685674Y-127213256D01*
X152705460Y-127025000D01*
X152685674Y-126836744D01*
X152627179Y-126656716D01*
X152627176Y-126656711D01*
X152627174Y-126656706D01*
X152539877Y-126505505D01*
X171299500Y-126505505D01*
X171309756Y-126616191D01*
X171314885Y-126671536D01*
X171375771Y-126885528D01*
X171474942Y-127084689D01*
X171609019Y-127262236D01*
X171773438Y-127412124D01*
X171962599Y-127529247D01*
X172170060Y-127609618D01*
X172388757Y-127650500D01*
X172611243Y-127650500D01*
X172829940Y-127609618D01*
X173037401Y-127529247D01*
X173226562Y-127412124D01*
X173390981Y-127262236D01*
X173525058Y-127084689D01*
X173624229Y-126885528D01*
X173685115Y-126671536D01*
X173700500Y-126505505D01*
X183799500Y-126505505D01*
X183809756Y-126616191D01*
X183814885Y-126671536D01*
X183875771Y-126885528D01*
X183974942Y-127084689D01*
X184109019Y-127262236D01*
X184273438Y-127412124D01*
X184462599Y-127529247D01*
X184670060Y-127609618D01*
X184888757Y-127650500D01*
X185111243Y-127650500D01*
X185329940Y-127609618D01*
X185537401Y-127529247D01*
X185726562Y-127412124D01*
X185890981Y-127262236D01*
X186025058Y-127084689D01*
X186124229Y-126885528D01*
X186185115Y-126671536D01*
X186200500Y-126505503D01*
X186200500Y-125994497D01*
X186185115Y-125828464D01*
X186124229Y-125614472D01*
X186025058Y-125415311D01*
X185890981Y-125237764D01*
X185726562Y-125087876D01*
X185537401Y-124970753D01*
X185329940Y-124890382D01*
X185329939Y-124890381D01*
X185329937Y-124890381D01*
X185111243Y-124849500D01*
X184888757Y-124849500D01*
X184670062Y-124890381D01*
X184606617Y-124914960D01*
X184462599Y-124970753D01*
X184317867Y-125060367D01*
X184273438Y-125087876D01*
X184114672Y-125232611D01*
X184109019Y-125237764D01*
X184079906Y-125276316D01*
X183974943Y-125415309D01*
X183974938Y-125415318D01*
X183875772Y-125614469D01*
X183814885Y-125828464D01*
X183799500Y-125994494D01*
X183799500Y-126505505D01*
X173700500Y-126505505D01*
X173700500Y-126505503D01*
X173700500Y-125994497D01*
X173685115Y-125828464D01*
X173624229Y-125614472D01*
X173525058Y-125415311D01*
X173390981Y-125237764D01*
X173226562Y-125087876D01*
X173037401Y-124970753D01*
X172829940Y-124890382D01*
X172829939Y-124890381D01*
X172829937Y-124890381D01*
X172611243Y-124849500D01*
X172388757Y-124849500D01*
X172170062Y-124890381D01*
X172106617Y-124914960D01*
X171962599Y-124970753D01*
X171817867Y-125060367D01*
X171773438Y-125087876D01*
X171614672Y-125232611D01*
X171609019Y-125237764D01*
X171579906Y-125276316D01*
X171474943Y-125415309D01*
X171474938Y-125415318D01*
X171375772Y-125614469D01*
X171314885Y-125828464D01*
X171299500Y-125994494D01*
X171299500Y-126505505D01*
X152539877Y-126505505D01*
X152539873Y-126505498D01*
X152532533Y-126492784D01*
X152478249Y-126432495D01*
X152405875Y-126352116D01*
X152405870Y-126352111D01*
X152273999Y-126256302D01*
X152252730Y-126240849D01*
X152252725Y-126240847D01*
X152252722Y-126240845D01*
X152079805Y-126163857D01*
X152079803Y-126163856D01*
X152079800Y-126163855D01*
X152079799Y-126163855D01*
X152042909Y-126156014D01*
X151894646Y-126124500D01*
X151705354Y-126124500D01*
X151587289Y-126149595D01*
X151520200Y-126163855D01*
X151520194Y-126163857D01*
X151347277Y-126240845D01*
X151347268Y-126240850D01*
X151194129Y-126352111D01*
X151194124Y-126352116D01*
X151067469Y-126492781D01*
X151067465Y-126492787D01*
X150972825Y-126656706D01*
X150972819Y-126656720D01*
X150914327Y-126836738D01*
X150914326Y-126836742D01*
X150914326Y-126836744D01*
X150894540Y-127025000D01*
X150601748Y-127025000D01*
X150594254Y-126867670D01*
X150544704Y-126663424D01*
X150500102Y-126565760D01*
X150457397Y-126472248D01*
X150457395Y-126472245D01*
X150335488Y-126301050D01*
X150334635Y-126300237D01*
X150183378Y-126156014D01*
X150006572Y-126042387D01*
X150006569Y-126042386D01*
X150006568Y-126042385D01*
X149897409Y-125998685D01*
X149811457Y-125964275D01*
X149605085Y-125924500D01*
X149447575Y-125924500D01*
X149290781Y-125939472D01*
X149089120Y-125998685D01*
X148902320Y-126094987D01*
X148902317Y-126094989D01*
X148737113Y-126224907D01*
X148599480Y-126383744D01*
X148494397Y-126565753D01*
X148494394Y-126565760D01*
X148425657Y-126764362D01*
X148425655Y-126764368D01*
X148395746Y-126972393D01*
X148395746Y-126972400D01*
X141599243Y-126972400D01*
X141594254Y-126867670D01*
X141544704Y-126663424D01*
X141500102Y-126565760D01*
X141457397Y-126472248D01*
X141457395Y-126472245D01*
X141335488Y-126301050D01*
X141334635Y-126300237D01*
X141183378Y-126156014D01*
X141006572Y-126042387D01*
X141006569Y-126042386D01*
X141006568Y-126042385D01*
X140897409Y-125998685D01*
X140811457Y-125964275D01*
X140605085Y-125924500D01*
X140447575Y-125924500D01*
X140290781Y-125939472D01*
X140089120Y-125998685D01*
X139902320Y-126094987D01*
X139902317Y-126094989D01*
X139737113Y-126224907D01*
X139599480Y-126383744D01*
X139494397Y-126565753D01*
X139494394Y-126565760D01*
X139425657Y-126764362D01*
X139425655Y-126764368D01*
X139395746Y-126972393D01*
X139395746Y-126972400D01*
X139099932Y-126972400D01*
X139085674Y-126836744D01*
X139027179Y-126656716D01*
X139027176Y-126656711D01*
X139027174Y-126656706D01*
X138939873Y-126505498D01*
X138932533Y-126492784D01*
X138878249Y-126432495D01*
X138805875Y-126352116D01*
X138805870Y-126352111D01*
X138673999Y-126256302D01*
X138652730Y-126240849D01*
X138652725Y-126240847D01*
X138652722Y-126240845D01*
X138479805Y-126163857D01*
X138479803Y-126163856D01*
X138479800Y-126163855D01*
X138479799Y-126163855D01*
X138442909Y-126156014D01*
X138294646Y-126124500D01*
X138105354Y-126124500D01*
X137987288Y-126149595D01*
X137920200Y-126163855D01*
X137920194Y-126163857D01*
X137747277Y-126240845D01*
X137747268Y-126240850D01*
X137594129Y-126352111D01*
X137594124Y-126352116D01*
X137467469Y-126492781D01*
X137467465Y-126492787D01*
X137372825Y-126656706D01*
X137372819Y-126656720D01*
X137314327Y-126836738D01*
X137314326Y-126836742D01*
X137314326Y-126836744D01*
X137294540Y-127025000D01*
X134625000Y-127025000D01*
X132069004Y-124469004D01*
X132041227Y-124414487D01*
X132050798Y-124354055D01*
X132094063Y-124310790D01*
X132139008Y-124300000D01*
X134099999Y-124300000D01*
X134100000Y-124300000D01*
X134100000Y-124275000D01*
X152944435Y-124275000D01*
X152964632Y-124454257D01*
X152964633Y-124454261D01*
X153024211Y-124624522D01*
X153024211Y-124624523D01*
X153120181Y-124777258D01*
X153120184Y-124777262D01*
X153247738Y-124904816D01*
X153247740Y-124904817D01*
X153247741Y-124904818D01*
X153389192Y-124993698D01*
X153400478Y-125000789D01*
X153468657Y-125024646D01*
X153570738Y-125060366D01*
X153570742Y-125060367D01*
X153570745Y-125060368D01*
X153750000Y-125080565D01*
X153929255Y-125060368D01*
X154099522Y-125000789D01*
X154252262Y-124904816D01*
X154379816Y-124777262D01*
X154475789Y-124624522D01*
X154535368Y-124454255D01*
X154555565Y-124275000D01*
X154535368Y-124095745D01*
X154534289Y-124092662D01*
X154498145Y-123989368D01*
X154475789Y-123925478D01*
X154452506Y-123888424D01*
X154379818Y-123772741D01*
X154379817Y-123772740D01*
X154379816Y-123772738D01*
X154252262Y-123645184D01*
X154252259Y-123645182D01*
X154252258Y-123645181D01*
X154099523Y-123549211D01*
X153929261Y-123489633D01*
X153929257Y-123489632D01*
X153750000Y-123469435D01*
X153570742Y-123489632D01*
X153570738Y-123489633D01*
X153400477Y-123549211D01*
X153400476Y-123549211D01*
X153247741Y-123645181D01*
X153120181Y-123772741D01*
X153024211Y-123925476D01*
X153024211Y-123925477D01*
X152964633Y-124095738D01*
X152964632Y-124095742D01*
X152944435Y-124275000D01*
X134100000Y-124275000D01*
X134100000Y-123450000D01*
X157994435Y-123450000D01*
X158014632Y-123629257D01*
X158014633Y-123629261D01*
X158074211Y-123799522D01*
X158074211Y-123799523D01*
X158153354Y-123925478D01*
X158170184Y-123952262D01*
X158297738Y-124079816D01*
X158297740Y-124079817D01*
X158297741Y-124079818D01*
X158413028Y-124152258D01*
X158450478Y-124175789D01*
X158512219Y-124197393D01*
X158620738Y-124235366D01*
X158620742Y-124235367D01*
X158620745Y-124235368D01*
X158800000Y-124255565D01*
X158979255Y-124235368D01*
X159087761Y-124197400D01*
X177645746Y-124197400D01*
X177655746Y-124407330D01*
X177655747Y-124407337D01*
X177705295Y-124611573D01*
X177705300Y-124611586D01*
X177792602Y-124802751D01*
X177792604Y-124802754D01*
X177914511Y-124973949D01*
X177914513Y-124973951D01*
X177914514Y-124973952D01*
X178066622Y-125118986D01*
X178243428Y-125232613D01*
X178438543Y-125310725D01*
X178644915Y-125350500D01*
X178644918Y-125350500D01*
X178802425Y-125350500D01*
X178959218Y-125335528D01*
X179160875Y-125276316D01*
X179347682Y-125180011D01*
X179512886Y-125050092D01*
X179650519Y-124891256D01*
X179755604Y-124709244D01*
X179824344Y-124510633D01*
X179854254Y-124302602D01*
X179844254Y-124092670D01*
X179794704Y-123888424D01*
X179750102Y-123790760D01*
X179707397Y-123697248D01*
X179707395Y-123697245D01*
X179585488Y-123526050D01*
X179547295Y-123489633D01*
X179433378Y-123381014D01*
X179256572Y-123267387D01*
X179256569Y-123267386D01*
X179256568Y-123267385D01*
X179147409Y-123223685D01*
X179061457Y-123189275D01*
X178855085Y-123149500D01*
X178697575Y-123149500D01*
X178540781Y-123164472D01*
X178339120Y-123223685D01*
X178152320Y-123319987D01*
X178152317Y-123319989D01*
X177987113Y-123449907D01*
X177849480Y-123608744D01*
X177744397Y-123790753D01*
X177744394Y-123790760D01*
X177675657Y-123989362D01*
X177675655Y-123989368D01*
X177645746Y-124197393D01*
X177645746Y-124197400D01*
X159087761Y-124197400D01*
X159149522Y-124175789D01*
X159302262Y-124079816D01*
X159429816Y-123952262D01*
X159525789Y-123799522D01*
X159585368Y-123629255D01*
X159605565Y-123450000D01*
X159585368Y-123270745D01*
X159584193Y-123267388D01*
X159548181Y-123164472D01*
X159525789Y-123100478D01*
X159462654Y-123000000D01*
X159429818Y-122947741D01*
X159429817Y-122947740D01*
X159429816Y-122947738D01*
X159302262Y-122820184D01*
X159302259Y-122820182D01*
X159302258Y-122820181D01*
X159149523Y-122724211D01*
X158979261Y-122664633D01*
X158979257Y-122664632D01*
X158800000Y-122644435D01*
X158620742Y-122664632D01*
X158620738Y-122664633D01*
X158450477Y-122724211D01*
X158450476Y-122724211D01*
X158297741Y-122820181D01*
X158170181Y-122947741D01*
X158074211Y-123100476D01*
X158074211Y-123100477D01*
X158014633Y-123270738D01*
X158014632Y-123270742D01*
X157994435Y-123450000D01*
X134100000Y-123450000D01*
X134100000Y-123000000D01*
X134099999Y-123000000D01*
X130641008Y-123000000D01*
X130582817Y-122981093D01*
X130571004Y-122971004D01*
X129675001Y-122075001D01*
X136119722Y-122075001D01*
X136138762Y-122231816D01*
X136138763Y-122231817D01*
X136194780Y-122379523D01*
X136284515Y-122509528D01*
X136284516Y-122509529D01*
X136284517Y-122509530D01*
X136402760Y-122614283D01*
X136542635Y-122687696D01*
X136696015Y-122725500D01*
X136696018Y-122725500D01*
X136853982Y-122725500D01*
X136853985Y-122725500D01*
X137007365Y-122687696D01*
X137147240Y-122614283D01*
X137265483Y-122509530D01*
X137355220Y-122379523D01*
X137411237Y-122231818D01*
X137427242Y-122100001D01*
X137430278Y-122075001D01*
X137430278Y-122074998D01*
X137411237Y-121918183D01*
X137411237Y-121918182D01*
X137355220Y-121770477D01*
X137265483Y-121640470D01*
X137147240Y-121535717D01*
X137067095Y-121493653D01*
X137007364Y-121462303D01*
X136853987Y-121424500D01*
X136853985Y-121424500D01*
X136696015Y-121424500D01*
X136696012Y-121424500D01*
X136542635Y-121462303D01*
X136402758Y-121535718D01*
X136284515Y-121640471D01*
X136194780Y-121770476D01*
X136138763Y-121918182D01*
X136138762Y-121918183D01*
X136119722Y-122074998D01*
X136119722Y-122075001D01*
X129675001Y-122075001D01*
X129328996Y-121728996D01*
X129301219Y-121674479D01*
X129300000Y-121658992D01*
X129300000Y-120886242D01*
X141099500Y-120886242D01*
X141136948Y-121086573D01*
X141140382Y-121104940D01*
X141220753Y-121312401D01*
X141337876Y-121501562D01*
X141487764Y-121665981D01*
X141665311Y-121800058D01*
X141864472Y-121899229D01*
X142078464Y-121960115D01*
X142244497Y-121975500D01*
X142244502Y-121975500D01*
X142755498Y-121975500D01*
X142755503Y-121975500D01*
X142921536Y-121960115D01*
X143135528Y-121899229D01*
X143334689Y-121800058D01*
X143512236Y-121665981D01*
X143662124Y-121501562D01*
X143779247Y-121312401D01*
X143859618Y-121104940D01*
X143900500Y-120886243D01*
X143900500Y-120886242D01*
X146099500Y-120886242D01*
X146136948Y-121086573D01*
X146140382Y-121104940D01*
X146220753Y-121312401D01*
X146337876Y-121501562D01*
X146487764Y-121665981D01*
X146665311Y-121800058D01*
X146864472Y-121899229D01*
X147078464Y-121960115D01*
X147244497Y-121975500D01*
X147244502Y-121975500D01*
X147755498Y-121975500D01*
X147755503Y-121975500D01*
X147921536Y-121960115D01*
X148135528Y-121899229D01*
X148334689Y-121800058D01*
X148512236Y-121665981D01*
X148662124Y-121501562D01*
X148779247Y-121312401D01*
X148859618Y-121104940D01*
X148900500Y-120886243D01*
X148900500Y-120672400D01*
X160145746Y-120672400D01*
X160155746Y-120882330D01*
X160155747Y-120882337D01*
X160205295Y-121086573D01*
X160205300Y-121086586D01*
X160292602Y-121277751D01*
X160292604Y-121277754D01*
X160414511Y-121448949D01*
X160414513Y-121448951D01*
X160414514Y-121448952D01*
X160566622Y-121593986D01*
X160743428Y-121707613D01*
X160938543Y-121785725D01*
X161144915Y-121825500D01*
X161144918Y-121825500D01*
X161302425Y-121825500D01*
X161459218Y-121810528D01*
X161660875Y-121751316D01*
X161847682Y-121655011D01*
X162012886Y-121525092D01*
X162150519Y-121366256D01*
X162255604Y-121184244D01*
X162324344Y-120985633D01*
X162354254Y-120777602D01*
X162344254Y-120567670D01*
X162294704Y-120363424D01*
X162294699Y-120363413D01*
X162207397Y-120172248D01*
X162207395Y-120172245D01*
X162085488Y-120001050D01*
X162005631Y-119924907D01*
X161933378Y-119856014D01*
X161756572Y-119742387D01*
X161756569Y-119742386D01*
X161756568Y-119742385D01*
X161647409Y-119698685D01*
X161561457Y-119664275D01*
X161355085Y-119624500D01*
X161197575Y-119624500D01*
X161040781Y-119639472D01*
X160839120Y-119698685D01*
X160652320Y-119794987D01*
X160652317Y-119794989D01*
X160487113Y-119924907D01*
X160349480Y-120083744D01*
X160244397Y-120265753D01*
X160244394Y-120265760D01*
X160175657Y-120464362D01*
X160175655Y-120464368D01*
X160145746Y-120672393D01*
X160145746Y-120672400D01*
X148900500Y-120672400D01*
X148900500Y-120663757D01*
X148859618Y-120445060D01*
X148779247Y-120237599D01*
X148662124Y-120048438D01*
X148512236Y-119884019D01*
X148334689Y-119749942D01*
X148135528Y-119650771D01*
X147921536Y-119589885D01*
X147866191Y-119584756D01*
X147755505Y-119574500D01*
X147755503Y-119574500D01*
X147244497Y-119574500D01*
X147244494Y-119574500D01*
X147078464Y-119589884D01*
X147078464Y-119589885D01*
X146864472Y-119650771D01*
X146864471Y-119650771D01*
X146864469Y-119650772D01*
X146665318Y-119749938D01*
X146665309Y-119749943D01*
X146605659Y-119794989D01*
X146495829Y-119877929D01*
X146487763Y-119884020D01*
X146365689Y-120017929D01*
X146337876Y-120048438D01*
X146220753Y-120237599D01*
X146208924Y-120268134D01*
X146140381Y-120445062D01*
X146099500Y-120663757D01*
X146099500Y-120886242D01*
X143900500Y-120886242D01*
X143900500Y-120663757D01*
X143859618Y-120445060D01*
X143779247Y-120237599D01*
X143662124Y-120048438D01*
X143512236Y-119884019D01*
X143334689Y-119749942D01*
X143135528Y-119650771D01*
X142921536Y-119589885D01*
X142866191Y-119584756D01*
X142755505Y-119574500D01*
X142755503Y-119574500D01*
X142244497Y-119574500D01*
X142244494Y-119574500D01*
X142078464Y-119589884D01*
X142078464Y-119589885D01*
X141864472Y-119650771D01*
X141864471Y-119650771D01*
X141864469Y-119650772D01*
X141665318Y-119749938D01*
X141665309Y-119749943D01*
X141605659Y-119794989D01*
X141495829Y-119877929D01*
X141487763Y-119884020D01*
X141365689Y-120017929D01*
X141337876Y-120048438D01*
X141220753Y-120237599D01*
X141208924Y-120268134D01*
X141140381Y-120445062D01*
X141099500Y-120663757D01*
X141099500Y-120886242D01*
X129300000Y-120886242D01*
X129300000Y-118980503D01*
X153799500Y-118980503D01*
X153814885Y-119146536D01*
X153875771Y-119360528D01*
X153974942Y-119559689D01*
X154109019Y-119737236D01*
X154273438Y-119887124D01*
X154462599Y-120004247D01*
X154670060Y-120084618D01*
X154888757Y-120125500D01*
X155111243Y-120125500D01*
X155329940Y-120084618D01*
X155537401Y-120004247D01*
X155726562Y-119887124D01*
X155890981Y-119737236D01*
X156025058Y-119559689D01*
X156124229Y-119360528D01*
X156185115Y-119146536D01*
X156200500Y-118980503D01*
X166299500Y-118980503D01*
X166314885Y-119146536D01*
X166375771Y-119360528D01*
X166474942Y-119559689D01*
X166609019Y-119737236D01*
X166773438Y-119887124D01*
X166962599Y-120004247D01*
X167170060Y-120084618D01*
X167388757Y-120125500D01*
X167611243Y-120125500D01*
X167829940Y-120084618D01*
X168037401Y-120004247D01*
X168226562Y-119887124D01*
X168390981Y-119737236D01*
X168525058Y-119559689D01*
X168624229Y-119360528D01*
X168648564Y-119275000D01*
X170419435Y-119275000D01*
X170439632Y-119454257D01*
X170439633Y-119454261D01*
X170499211Y-119624522D01*
X170499211Y-119624523D01*
X170578018Y-119749943D01*
X170595184Y-119777262D01*
X170722738Y-119904816D01*
X170722740Y-119904817D01*
X170722741Y-119904818D01*
X170754712Y-119924907D01*
X170875478Y-120000789D01*
X170924464Y-120017930D01*
X171045738Y-120060366D01*
X171045742Y-120060367D01*
X171045745Y-120060368D01*
X171225000Y-120080565D01*
X171404255Y-120060368D01*
X171574522Y-120000789D01*
X171727262Y-119904816D01*
X171854816Y-119777262D01*
X171950789Y-119624522D01*
X172010368Y-119454255D01*
X172030565Y-119275000D01*
X172010368Y-119095745D01*
X172005583Y-119082071D01*
X171986014Y-119026145D01*
X171950789Y-118925478D01*
X171854816Y-118772738D01*
X171727262Y-118645184D01*
X171727259Y-118645182D01*
X171727258Y-118645181D01*
X171574523Y-118549211D01*
X171404261Y-118489633D01*
X171404257Y-118489632D01*
X171225000Y-118469435D01*
X171045742Y-118489632D01*
X171045738Y-118489633D01*
X170875477Y-118549211D01*
X170875476Y-118549211D01*
X170722741Y-118645181D01*
X170595181Y-118772741D01*
X170499211Y-118925476D01*
X170499211Y-118925477D01*
X170439633Y-119095738D01*
X170439632Y-119095742D01*
X170419435Y-119275000D01*
X168648564Y-119275000D01*
X168685115Y-119146536D01*
X168700500Y-118980503D01*
X168700500Y-118469497D01*
X168698693Y-118450000D01*
X175494435Y-118450000D01*
X175514632Y-118629257D01*
X175514633Y-118629261D01*
X175574211Y-118799522D01*
X175574211Y-118799523D01*
X175653354Y-118925478D01*
X175670184Y-118952262D01*
X175797738Y-119079816D01*
X175797740Y-119079817D01*
X175797741Y-119079818D01*
X175903920Y-119146535D01*
X175950478Y-119175789D01*
X176018657Y-119199646D01*
X176120738Y-119235366D01*
X176120742Y-119235367D01*
X176120745Y-119235368D01*
X176300000Y-119255565D01*
X176479255Y-119235368D01*
X176649522Y-119175789D01*
X176802262Y-119079816D01*
X176929816Y-118952262D01*
X177025789Y-118799522D01*
X177085368Y-118629255D01*
X177105565Y-118450000D01*
X177085368Y-118270745D01*
X177025789Y-118100478D01*
X177018873Y-118089472D01*
X176929818Y-117947741D01*
X176929817Y-117947740D01*
X176929816Y-117947738D01*
X176802262Y-117820184D01*
X176802259Y-117820182D01*
X176802258Y-117820181D01*
X176649523Y-117724211D01*
X176479261Y-117664633D01*
X176479257Y-117664632D01*
X176300000Y-117644435D01*
X176120742Y-117664632D01*
X176120738Y-117664633D01*
X175950477Y-117724211D01*
X175950476Y-117724211D01*
X175797741Y-117820181D01*
X175670181Y-117947741D01*
X175574211Y-118100476D01*
X175574211Y-118100477D01*
X175514633Y-118270738D01*
X175514632Y-118270742D01*
X175494435Y-118450000D01*
X168698693Y-118450000D01*
X168685115Y-118303464D01*
X168624229Y-118089472D01*
X168525058Y-117890311D01*
X168390981Y-117712764D01*
X168226562Y-117562876D01*
X168037401Y-117445753D01*
X167829940Y-117365382D01*
X167829939Y-117365381D01*
X167829937Y-117365381D01*
X167611243Y-117324500D01*
X167388757Y-117324500D01*
X167170062Y-117365381D01*
X167093797Y-117394926D01*
X166962599Y-117445753D01*
X166868105Y-117504261D01*
X166773438Y-117562876D01*
X166609020Y-117712763D01*
X166474943Y-117890309D01*
X166474938Y-117890318D01*
X166386043Y-118068843D01*
X166375771Y-118089472D01*
X166365662Y-118125001D01*
X166314885Y-118303464D01*
X166299506Y-118469435D01*
X166299500Y-118469497D01*
X166299500Y-118980503D01*
X156200500Y-118980503D01*
X156200500Y-118469497D01*
X156185115Y-118303464D01*
X156124229Y-118089472D01*
X156025058Y-117890311D01*
X155890981Y-117712764D01*
X155726562Y-117562876D01*
X155537401Y-117445753D01*
X155329940Y-117365382D01*
X155329939Y-117365381D01*
X155329937Y-117365381D01*
X155111243Y-117324500D01*
X154888757Y-117324500D01*
X154670062Y-117365381D01*
X154593797Y-117394926D01*
X154462599Y-117445753D01*
X154368105Y-117504261D01*
X154273438Y-117562876D01*
X154109020Y-117712763D01*
X153974943Y-117890309D01*
X153974938Y-117890318D01*
X153886043Y-118068843D01*
X153875771Y-118089472D01*
X153865662Y-118125001D01*
X153814885Y-118303464D01*
X153799506Y-118469435D01*
X153799500Y-118469497D01*
X153799500Y-118980503D01*
X129300000Y-118980503D01*
X129300000Y-117325000D01*
X137244435Y-117325000D01*
X137264632Y-117504257D01*
X137264633Y-117504261D01*
X137324211Y-117674522D01*
X137324211Y-117674523D01*
X137420181Y-117827258D01*
X137420184Y-117827262D01*
X137547738Y-117954816D01*
X137547740Y-117954817D01*
X137547741Y-117954818D01*
X137620443Y-118000500D01*
X137700478Y-118050789D01*
X137768657Y-118074646D01*
X137870738Y-118110366D01*
X137870742Y-118110367D01*
X137870745Y-118110368D01*
X138050000Y-118130565D01*
X138229255Y-118110368D01*
X138399522Y-118050789D01*
X138552262Y-117954816D01*
X138679816Y-117827262D01*
X138775789Y-117674522D01*
X138835368Y-117504255D01*
X138855565Y-117325000D01*
X138835368Y-117145745D01*
X138830253Y-117131128D01*
X138785161Y-117002262D01*
X138775789Y-116975478D01*
X138681551Y-116825500D01*
X138679818Y-116822741D01*
X138679817Y-116822740D01*
X138679816Y-116822738D01*
X138552262Y-116695184D01*
X138552259Y-116695182D01*
X138552258Y-116695181D01*
X138399523Y-116599211D01*
X138229261Y-116539633D01*
X138229257Y-116539632D01*
X138050000Y-116519435D01*
X137870742Y-116539632D01*
X137870738Y-116539633D01*
X137700477Y-116599211D01*
X137700476Y-116599211D01*
X137547741Y-116695181D01*
X137420181Y-116822741D01*
X137324211Y-116975476D01*
X137324211Y-116975477D01*
X137264633Y-117145738D01*
X137264632Y-117145742D01*
X137244435Y-117325000D01*
X129300000Y-117325000D01*
X129300000Y-116500000D01*
X141844435Y-116500000D01*
X141864632Y-116679257D01*
X141864633Y-116679261D01*
X141924211Y-116849522D01*
X141924211Y-116849523D01*
X142003354Y-116975478D01*
X142020184Y-117002262D01*
X142147738Y-117129816D01*
X142147740Y-117129817D01*
X142147741Y-117129818D01*
X142173077Y-117145738D01*
X142300478Y-117225789D01*
X142368657Y-117249646D01*
X142470738Y-117285366D01*
X142470742Y-117285367D01*
X142470745Y-117285368D01*
X142650000Y-117305565D01*
X142829255Y-117285368D01*
X142999522Y-117225789D01*
X143152262Y-117129816D01*
X143279816Y-117002262D01*
X143375789Y-116849522D01*
X143435368Y-116679255D01*
X143455565Y-116500000D01*
X143435368Y-116320745D01*
X143420324Y-116277753D01*
X143387602Y-116184239D01*
X143375789Y-116150478D01*
X143279816Y-115997738D01*
X143152262Y-115870184D01*
X143152259Y-115870182D01*
X143152258Y-115870181D01*
X142999523Y-115774211D01*
X142829261Y-115714633D01*
X142829257Y-115714632D01*
X142650000Y-115694435D01*
X142470742Y-115714632D01*
X142470738Y-115714633D01*
X142300477Y-115774211D01*
X142300476Y-115774211D01*
X142147741Y-115870181D01*
X142020181Y-115997741D01*
X141924211Y-116150476D01*
X141924211Y-116150477D01*
X141864633Y-116320738D01*
X141864632Y-116320742D01*
X141844435Y-116500000D01*
X129300000Y-116500000D01*
X129300000Y-115900001D01*
X129300000Y-115900000D01*
X127500000Y-115900000D01*
X127500000Y-115900001D01*
X127500000Y-122100001D01*
X128087355Y-122696985D01*
X128114689Y-122751725D01*
X128104626Y-122812078D01*
X128061011Y-122854989D01*
X128005701Y-122864795D01*
X128004255Y-122864632D01*
X127825000Y-122844435D01*
X127645742Y-122864632D01*
X127645738Y-122864633D01*
X127475477Y-122924211D01*
X127475476Y-122924211D01*
X127322741Y-123020181D01*
X127195181Y-123147741D01*
X127099211Y-123300476D01*
X127099211Y-123300477D01*
X127039633Y-123470738D01*
X127039632Y-123470742D01*
X127019435Y-123650000D01*
X96282935Y-123650000D01*
X96175483Y-122892820D01*
X96078323Y-121931157D01*
X96019964Y-120966362D01*
X96000500Y-120000000D01*
X96009564Y-119550001D01*
X124194355Y-119550001D01*
X124197330Y-119574500D01*
X124214860Y-119718872D01*
X124275182Y-119877930D01*
X124371817Y-120017929D01*
X124499148Y-120130734D01*
X124649775Y-120209790D01*
X124814944Y-120250500D01*
X124814947Y-120250500D01*
X124985053Y-120250500D01*
X124985056Y-120250500D01*
X125150225Y-120209790D01*
X125183344Y-120192407D01*
X125243653Y-120182107D01*
X125298502Y-120209223D01*
X125326937Y-120263399D01*
X125327628Y-120268134D01*
X125339860Y-120368872D01*
X125400182Y-120527930D01*
X125496817Y-120667929D01*
X125624148Y-120780734D01*
X125774775Y-120859790D01*
X125939944Y-120900500D01*
X125939947Y-120900500D01*
X126110053Y-120900500D01*
X126110056Y-120900500D01*
X126275225Y-120859790D01*
X126425852Y-120780734D01*
X126553183Y-120667929D01*
X126649818Y-120527930D01*
X126710140Y-120368872D01*
X126730645Y-120200000D01*
X126710140Y-120031128D01*
X126649818Y-119872070D01*
X126553183Y-119732071D01*
X126538284Y-119718872D01*
X126425853Y-119619267D01*
X126425852Y-119619266D01*
X126275225Y-119540210D01*
X126275224Y-119540209D01*
X126275223Y-119540209D01*
X126110058Y-119499500D01*
X126110056Y-119499500D01*
X125939944Y-119499500D01*
X125939941Y-119499500D01*
X125774776Y-119540209D01*
X125741655Y-119557592D01*
X125681343Y-119567892D01*
X125626495Y-119540774D01*
X125598062Y-119486597D01*
X125597375Y-119481892D01*
X125585140Y-119381128D01*
X125524818Y-119222070D01*
X125428183Y-119082071D01*
X125300852Y-118969266D01*
X125150225Y-118890210D01*
X125150224Y-118890209D01*
X125150223Y-118890209D01*
X124985058Y-118849500D01*
X124985056Y-118849500D01*
X124814944Y-118849500D01*
X124814941Y-118849500D01*
X124649776Y-118890209D01*
X124499146Y-118969267D01*
X124371818Y-119082069D01*
X124371816Y-119082072D01*
X124362378Y-119095745D01*
X124275182Y-119222070D01*
X124222673Y-119360528D01*
X124214860Y-119381129D01*
X124194355Y-119549998D01*
X124194355Y-119550001D01*
X96009564Y-119550001D01*
X96019964Y-119033638D01*
X96074926Y-118125001D01*
X119469355Y-118125001D01*
X119470031Y-118130565D01*
X119489860Y-118293872D01*
X119550182Y-118452930D01*
X119646816Y-118592927D01*
X119646818Y-118592930D01*
X119689260Y-118630530D01*
X119774148Y-118705734D01*
X119924775Y-118784790D01*
X120089944Y-118825500D01*
X120089947Y-118825500D01*
X120260053Y-118825500D01*
X120260056Y-118825500D01*
X120425225Y-118784790D01*
X120575852Y-118705734D01*
X120703183Y-118592929D01*
X120799818Y-118452930D01*
X120860140Y-118293872D01*
X120880645Y-118125000D01*
X120877667Y-118100478D01*
X120871634Y-118050788D01*
X120860140Y-117956128D01*
X120799818Y-117797070D01*
X120703183Y-117657071D01*
X120670289Y-117627930D01*
X120575853Y-117544267D01*
X120575852Y-117544266D01*
X120425225Y-117465210D01*
X120425224Y-117465209D01*
X120425223Y-117465209D01*
X120260058Y-117424500D01*
X120260056Y-117424500D01*
X120089944Y-117424500D01*
X120089941Y-117424500D01*
X119924776Y-117465209D01*
X119774146Y-117544267D01*
X119646818Y-117657069D01*
X119646816Y-117657072D01*
X119550182Y-117797070D01*
X119489860Y-117956129D01*
X119469355Y-118124998D01*
X119469355Y-118125001D01*
X96074926Y-118125001D01*
X96078323Y-118068843D01*
X96156002Y-117300001D01*
X124019355Y-117300001D01*
X124020031Y-117305565D01*
X124039860Y-117468872D01*
X124100182Y-117627930D01*
X124196816Y-117767927D01*
X124196818Y-117767930D01*
X124239260Y-117805530D01*
X124324148Y-117880734D01*
X124474775Y-117959790D01*
X124639944Y-118000500D01*
X124639947Y-118000500D01*
X124810053Y-118000500D01*
X124810056Y-118000500D01*
X124975225Y-117959790D01*
X125125852Y-117880734D01*
X125253183Y-117767929D01*
X125349818Y-117627930D01*
X125410140Y-117468872D01*
X125430645Y-117300000D01*
X125410140Y-117131128D01*
X125349818Y-116972070D01*
X125253183Y-116832071D01*
X125125852Y-116719266D01*
X124975225Y-116640210D01*
X124975224Y-116640209D01*
X124975223Y-116640209D01*
X124810058Y-116599500D01*
X124810056Y-116599500D01*
X124639944Y-116599500D01*
X124639941Y-116599500D01*
X124474776Y-116640209D01*
X124324146Y-116719267D01*
X124196818Y-116832069D01*
X124196816Y-116832072D01*
X124100182Y-116972070D01*
X124039860Y-117131129D01*
X124019355Y-117299998D01*
X124019355Y-117300001D01*
X96156002Y-117300001D01*
X96175483Y-117107180D01*
X96311287Y-116150209D01*
X96485514Y-115199483D01*
X96558594Y-114875000D01*
X127094435Y-114875000D01*
X127114632Y-115054257D01*
X127114633Y-115054261D01*
X127174211Y-115224522D01*
X127174211Y-115224523D01*
X127261482Y-115363413D01*
X127270184Y-115377262D01*
X127397738Y-115504816D01*
X127397740Y-115504817D01*
X127397741Y-115504818D01*
X127497756Y-115567662D01*
X127550478Y-115600789D01*
X127618657Y-115624646D01*
X127720738Y-115660366D01*
X127720742Y-115660367D01*
X127720745Y-115660368D01*
X127900000Y-115680565D01*
X127972467Y-115672400D01*
X177595746Y-115672400D01*
X177605746Y-115882330D01*
X177605747Y-115882337D01*
X177655295Y-116086573D01*
X177655300Y-116086586D01*
X177742602Y-116277751D01*
X177742604Y-116277754D01*
X177864511Y-116448949D01*
X177864513Y-116448951D01*
X177864514Y-116448952D01*
X178016622Y-116593986D01*
X178193428Y-116707613D01*
X178388543Y-116785725D01*
X178594915Y-116825500D01*
X178594918Y-116825500D01*
X178752425Y-116825500D01*
X178909218Y-116810528D01*
X179110875Y-116751316D01*
X179297682Y-116655011D01*
X179462886Y-116525092D01*
X179600519Y-116366256D01*
X179705604Y-116184244D01*
X179774344Y-115985633D01*
X179804254Y-115777602D01*
X179794254Y-115567670D01*
X179744704Y-115363424D01*
X179700102Y-115265760D01*
X179657397Y-115172248D01*
X179657395Y-115172245D01*
X179535488Y-115001050D01*
X179416005Y-114887124D01*
X179383378Y-114856014D01*
X179206572Y-114742387D01*
X179206569Y-114742386D01*
X179206568Y-114742385D01*
X179097409Y-114698685D01*
X179011457Y-114664275D01*
X178805085Y-114624500D01*
X178647575Y-114624500D01*
X178490781Y-114639472D01*
X178289120Y-114698685D01*
X178102320Y-114794987D01*
X178102317Y-114794989D01*
X177937113Y-114924907D01*
X177799480Y-115083744D01*
X177694397Y-115265753D01*
X177694394Y-115265760D01*
X177625657Y-115464362D01*
X177625655Y-115464368D01*
X177595746Y-115672393D01*
X177595746Y-115672400D01*
X127972467Y-115672400D01*
X128079255Y-115660368D01*
X128249522Y-115600789D01*
X128402262Y-115504816D01*
X128529816Y-115377262D01*
X128625789Y-115224522D01*
X128685368Y-115054255D01*
X128705565Y-114875000D01*
X128685368Y-114695745D01*
X128625789Y-114525478D01*
X128529816Y-114372738D01*
X128402262Y-114245184D01*
X128402259Y-114245182D01*
X128402258Y-114245181D01*
X128249523Y-114149211D01*
X128079261Y-114089633D01*
X128079257Y-114089632D01*
X127900000Y-114069435D01*
X127720742Y-114089632D01*
X127720738Y-114089633D01*
X127550477Y-114149211D01*
X127550476Y-114149211D01*
X127397741Y-114245181D01*
X127270181Y-114372741D01*
X127174211Y-114525476D01*
X127174211Y-114525477D01*
X127114633Y-114695738D01*
X127114632Y-114695742D01*
X127094435Y-114875000D01*
X96558594Y-114875000D01*
X96697882Y-114256544D01*
X96826912Y-113774999D01*
X139644540Y-113774999D01*
X139664327Y-113963261D01*
X139722819Y-114143279D01*
X139722825Y-114143293D01*
X139798015Y-114273525D01*
X139817467Y-114307216D01*
X139944129Y-114447888D01*
X140097270Y-114559151D01*
X140270197Y-114636144D01*
X140455354Y-114675500D01*
X140455357Y-114675500D01*
X140644643Y-114675500D01*
X140644646Y-114675500D01*
X140829803Y-114636144D01*
X141002730Y-114559151D01*
X141155871Y-114447888D01*
X141282533Y-114307216D01*
X141373757Y-114149211D01*
X141377174Y-114143293D01*
X141377174Y-114143291D01*
X141377179Y-114143284D01*
X141430070Y-113980503D01*
X153799500Y-113980503D01*
X153814885Y-114146536D01*
X153875771Y-114360528D01*
X153974942Y-114559689D01*
X154109019Y-114737236D01*
X154273438Y-114887124D01*
X154462599Y-115004247D01*
X154670060Y-115084618D01*
X154888757Y-115125500D01*
X155111243Y-115125500D01*
X155329940Y-115084618D01*
X155537401Y-115004247D01*
X155726562Y-114887124D01*
X155890981Y-114737236D01*
X156025058Y-114559689D01*
X156124229Y-114360528D01*
X156185115Y-114146536D01*
X156200500Y-113980503D01*
X166299500Y-113980503D01*
X166314885Y-114146536D01*
X166375771Y-114360528D01*
X166474942Y-114559689D01*
X166609019Y-114737236D01*
X166773438Y-114887124D01*
X166962599Y-115004247D01*
X167170060Y-115084618D01*
X167388757Y-115125500D01*
X167611243Y-115125500D01*
X167829940Y-115084618D01*
X168037401Y-115004247D01*
X168226562Y-114887124D01*
X168390981Y-114737236D01*
X168525058Y-114559689D01*
X168624229Y-114360528D01*
X168685115Y-114146536D01*
X168700500Y-113980503D01*
X171249500Y-113980503D01*
X171264885Y-114146536D01*
X171325771Y-114360528D01*
X171424942Y-114559689D01*
X171559019Y-114737236D01*
X171723438Y-114887124D01*
X171912599Y-115004247D01*
X172120060Y-115084618D01*
X172338757Y-115125500D01*
X172561243Y-115125500D01*
X172779940Y-115084618D01*
X172987401Y-115004247D01*
X173176562Y-114887124D01*
X173340981Y-114737236D01*
X173475058Y-114559689D01*
X173574229Y-114360528D01*
X173635115Y-114146536D01*
X173650500Y-113980503D01*
X183749500Y-113980503D01*
X183764885Y-114146536D01*
X183825771Y-114360528D01*
X183924942Y-114559689D01*
X184059019Y-114737236D01*
X184223438Y-114887124D01*
X184412599Y-115004247D01*
X184620060Y-115084618D01*
X184838757Y-115125500D01*
X185061243Y-115125500D01*
X185279940Y-115084618D01*
X185487401Y-115004247D01*
X185676562Y-114887124D01*
X185840981Y-114737236D01*
X185975058Y-114559689D01*
X186074229Y-114360528D01*
X186135115Y-114146536D01*
X186150500Y-113980503D01*
X186150500Y-113469497D01*
X186135115Y-113303464D01*
X186074229Y-113089472D01*
X185975058Y-112890311D01*
X185840981Y-112712764D01*
X185676562Y-112562876D01*
X185487401Y-112445753D01*
X185279940Y-112365382D01*
X185279939Y-112365381D01*
X185279937Y-112365381D01*
X185061243Y-112324500D01*
X184838757Y-112324500D01*
X184620062Y-112365381D01*
X184543797Y-112394926D01*
X184412599Y-112445753D01*
X184284462Y-112525092D01*
X184223438Y-112562876D01*
X184064672Y-112707611D01*
X184059019Y-112712764D01*
X184029906Y-112751316D01*
X183924943Y-112890309D01*
X183924938Y-112890318D01*
X183874879Y-112990850D01*
X183825771Y-113089472D01*
X183764885Y-113303464D01*
X183749500Y-113469497D01*
X183749500Y-113980503D01*
X173650500Y-113980503D01*
X173650500Y-113469497D01*
X173635115Y-113303464D01*
X173574229Y-113089472D01*
X173475058Y-112890311D01*
X173340981Y-112712764D01*
X173176562Y-112562876D01*
X172987401Y-112445753D01*
X172779940Y-112365382D01*
X172779939Y-112365381D01*
X172779937Y-112365381D01*
X172561243Y-112324500D01*
X172338757Y-112324500D01*
X172120062Y-112365381D01*
X172043797Y-112394926D01*
X171912599Y-112445753D01*
X171784462Y-112525092D01*
X171723438Y-112562876D01*
X171564672Y-112707611D01*
X171559019Y-112712764D01*
X171529906Y-112751316D01*
X171424943Y-112890309D01*
X171424938Y-112890318D01*
X171374879Y-112990850D01*
X171325771Y-113089472D01*
X171264885Y-113303464D01*
X171249500Y-113469497D01*
X171249500Y-113980503D01*
X168700500Y-113980503D01*
X168700500Y-113469497D01*
X168685115Y-113303464D01*
X168624229Y-113089472D01*
X168525058Y-112890311D01*
X168390981Y-112712764D01*
X168226562Y-112562876D01*
X168037401Y-112445753D01*
X167829940Y-112365382D01*
X167829939Y-112365381D01*
X167829937Y-112365381D01*
X167611243Y-112324500D01*
X167388757Y-112324500D01*
X167170062Y-112365381D01*
X167093797Y-112394926D01*
X166962599Y-112445753D01*
X166834462Y-112525092D01*
X166773438Y-112562876D01*
X166614672Y-112707611D01*
X166609019Y-112712764D01*
X166579906Y-112751316D01*
X166474943Y-112890309D01*
X166474938Y-112890318D01*
X166424879Y-112990850D01*
X166375771Y-113089472D01*
X166314885Y-113303464D01*
X166299500Y-113469497D01*
X166299500Y-113980503D01*
X156200500Y-113980503D01*
X156200500Y-113469497D01*
X156185115Y-113303464D01*
X156124229Y-113089472D01*
X156025058Y-112890311D01*
X155890981Y-112712764D01*
X155726562Y-112562876D01*
X155537401Y-112445753D01*
X155329940Y-112365382D01*
X155329939Y-112365381D01*
X155329937Y-112365381D01*
X155111243Y-112324500D01*
X154888757Y-112324500D01*
X154670062Y-112365381D01*
X154593797Y-112394926D01*
X154462599Y-112445753D01*
X154334462Y-112525092D01*
X154273438Y-112562876D01*
X154114672Y-112707611D01*
X154109019Y-112712764D01*
X154079906Y-112751316D01*
X153974943Y-112890309D01*
X153974938Y-112890318D01*
X153924879Y-112990850D01*
X153875771Y-113089472D01*
X153814885Y-113303464D01*
X153799500Y-113469497D01*
X153799500Y-113980503D01*
X141430070Y-113980503D01*
X141435674Y-113963256D01*
X141455460Y-113775000D01*
X141435674Y-113586744D01*
X141377179Y-113406716D01*
X141377176Y-113406711D01*
X141377174Y-113406706D01*
X141328551Y-113322490D01*
X141282533Y-113242784D01*
X141155871Y-113102112D01*
X141138473Y-113089472D01*
X141002731Y-112990850D01*
X141002732Y-112990850D01*
X141002730Y-112990849D01*
X141002725Y-112990847D01*
X141002722Y-112990845D01*
X140829805Y-112913857D01*
X140829803Y-112913856D01*
X140829800Y-112913855D01*
X140829799Y-112913855D01*
X140794580Y-112906369D01*
X140644646Y-112874500D01*
X140455354Y-112874500D01*
X140337289Y-112899595D01*
X140270200Y-112913855D01*
X140270194Y-112913857D01*
X140097277Y-112990845D01*
X140097268Y-112990850D01*
X139944129Y-113102111D01*
X139944124Y-113102116D01*
X139817469Y-113242781D01*
X139817465Y-113242787D01*
X139722825Y-113406706D01*
X139722819Y-113406720D01*
X139664327Y-113586738D01*
X139664326Y-113586742D01*
X139664326Y-113586744D01*
X139648922Y-113733298D01*
X139644540Y-113774999D01*
X96826912Y-113774999D01*
X96948046Y-113322920D01*
X97235600Y-112400126D01*
X97404928Y-111925001D01*
X129944722Y-111925001D01*
X129963762Y-112081816D01*
X129963763Y-112081818D01*
X130002606Y-112184239D01*
X130019780Y-112229523D01*
X130109515Y-112359528D01*
X130109516Y-112359529D01*
X130109517Y-112359530D01*
X130227760Y-112464283D01*
X130367635Y-112537696D01*
X130521015Y-112575500D01*
X130521018Y-112575500D01*
X130678982Y-112575500D01*
X130678985Y-112575500D01*
X130832365Y-112537696D01*
X130972240Y-112464283D01*
X131090483Y-112359530D01*
X131180220Y-112229523D01*
X131236237Y-112081818D01*
X131255278Y-111925000D01*
X131236237Y-111768182D01*
X131199912Y-111672400D01*
X160145746Y-111672400D01*
X160155746Y-111882330D01*
X160155747Y-111882337D01*
X160205295Y-112086573D01*
X160205300Y-112086586D01*
X160292602Y-112277751D01*
X160292604Y-112277754D01*
X160414511Y-112448949D01*
X160414513Y-112448951D01*
X160414514Y-112448952D01*
X160566622Y-112593986D01*
X160743428Y-112707613D01*
X160938543Y-112785725D01*
X161144915Y-112825500D01*
X161144918Y-112825500D01*
X161302425Y-112825500D01*
X161459218Y-112810528D01*
X161660875Y-112751316D01*
X161847682Y-112655011D01*
X162012886Y-112525092D01*
X162150519Y-112366256D01*
X162255604Y-112184244D01*
X162324344Y-111985633D01*
X162354254Y-111777602D01*
X162344254Y-111567670D01*
X162294704Y-111363424D01*
X162250102Y-111265760D01*
X162207397Y-111172248D01*
X162207395Y-111172245D01*
X162085488Y-111001050D01*
X162005631Y-110924907D01*
X161933378Y-110856014D01*
X161756572Y-110742387D01*
X161756569Y-110742386D01*
X161756568Y-110742385D01*
X161647409Y-110698685D01*
X161561457Y-110664275D01*
X161355085Y-110624500D01*
X161197575Y-110624500D01*
X161040781Y-110639472D01*
X160839120Y-110698685D01*
X160652320Y-110794987D01*
X160652317Y-110794989D01*
X160487113Y-110924907D01*
X160349480Y-111083744D01*
X160244397Y-111265753D01*
X160244394Y-111265760D01*
X160175657Y-111464362D01*
X160175655Y-111464368D01*
X160145746Y-111672393D01*
X160145746Y-111672400D01*
X131199912Y-111672400D01*
X131180220Y-111620477D01*
X131090483Y-111490470D01*
X130972240Y-111385717D01*
X130902302Y-111349010D01*
X130832364Y-111312303D01*
X130678987Y-111274500D01*
X130678985Y-111274500D01*
X130521015Y-111274500D01*
X130521012Y-111274500D01*
X130367635Y-111312303D01*
X130227758Y-111385718D01*
X130109515Y-111490471D01*
X130019780Y-111620476D01*
X129963763Y-111768182D01*
X129963762Y-111768183D01*
X129944722Y-111924998D01*
X129944722Y-111925001D01*
X97404928Y-111925001D01*
X97560078Y-111489660D01*
X97920953Y-110592997D01*
X98317641Y-109711593D01*
X98438831Y-109468931D01*
X104945668Y-109468931D01*
X104976133Y-109641707D01*
X105045622Y-109802802D01*
X105045623Y-109802804D01*
X105150389Y-109943529D01*
X105150391Y-109943531D01*
X105284783Y-110056300D01*
X105284784Y-110056300D01*
X105284786Y-110056302D01*
X105441567Y-110135040D01*
X105441572Y-110135041D01*
X105441576Y-110135043D01*
X105612277Y-110175500D01*
X105612279Y-110175500D01*
X105743704Y-110175500D01*
X105743709Y-110175500D01*
X105874255Y-110160241D01*
X106039117Y-110100237D01*
X106185696Y-110003830D01*
X106306092Y-109876218D01*
X106393812Y-109724281D01*
X106444130Y-109556210D01*
X106454331Y-109381065D01*
X106438941Y-109293786D01*
X106435628Y-109275000D01*
X147294540Y-109275000D01*
X147303529Y-109360530D01*
X147314327Y-109463261D01*
X147372819Y-109643279D01*
X147372825Y-109643293D01*
X147427064Y-109737236D01*
X147467467Y-109807216D01*
X147467469Y-109807218D01*
X147590205Y-109943531D01*
X147594129Y-109947888D01*
X147747270Y-110059151D01*
X147920197Y-110136144D01*
X148105354Y-110175500D01*
X148105357Y-110175500D01*
X148294643Y-110175500D01*
X148294646Y-110175500D01*
X148479803Y-110136144D01*
X148652730Y-110059151D01*
X148805871Y-109947888D01*
X148932533Y-109807216D01*
X149027179Y-109643284D01*
X149085674Y-109463256D01*
X149105460Y-109275000D01*
X157094540Y-109275000D01*
X157103529Y-109360530D01*
X157114327Y-109463261D01*
X157172819Y-109643279D01*
X157172825Y-109643293D01*
X157227064Y-109737236D01*
X157267467Y-109807216D01*
X157267469Y-109807218D01*
X157390205Y-109943531D01*
X157394129Y-109947888D01*
X157547270Y-110059151D01*
X157720197Y-110136144D01*
X157905354Y-110175500D01*
X157905357Y-110175500D01*
X158094643Y-110175500D01*
X158094646Y-110175500D01*
X158279803Y-110136144D01*
X158452730Y-110059151D01*
X158605871Y-109947888D01*
X158732533Y-109807216D01*
X158827179Y-109643284D01*
X158885674Y-109463256D01*
X158905460Y-109275000D01*
X158885674Y-109086744D01*
X158851154Y-108980503D01*
X171249500Y-108980503D01*
X171264885Y-109146536D01*
X171325771Y-109360528D01*
X171424942Y-109559689D01*
X171559019Y-109737236D01*
X171723438Y-109887124D01*
X171912599Y-110004247D01*
X172120060Y-110084618D01*
X172338757Y-110125500D01*
X172561243Y-110125500D01*
X172779940Y-110084618D01*
X172987401Y-110004247D01*
X173176562Y-109887124D01*
X173340981Y-109737236D01*
X173475058Y-109559689D01*
X173574229Y-109360528D01*
X173635115Y-109146536D01*
X173650500Y-108980503D01*
X183749500Y-108980503D01*
X183764885Y-109146536D01*
X183825771Y-109360528D01*
X183924942Y-109559689D01*
X184059019Y-109737236D01*
X184223438Y-109887124D01*
X184412599Y-110004247D01*
X184620060Y-110084618D01*
X184838757Y-110125500D01*
X185061243Y-110125500D01*
X185279940Y-110084618D01*
X185487401Y-110004247D01*
X185676562Y-109887124D01*
X185840981Y-109737236D01*
X185975058Y-109559689D01*
X186074229Y-109360528D01*
X186135115Y-109146536D01*
X186150500Y-108980503D01*
X186150500Y-108469497D01*
X186135115Y-108303464D01*
X186074229Y-108089472D01*
X185975058Y-107890311D01*
X185840981Y-107712764D01*
X185676562Y-107562876D01*
X185487401Y-107445753D01*
X185279940Y-107365382D01*
X185279939Y-107365381D01*
X185279937Y-107365381D01*
X185061243Y-107324500D01*
X184838757Y-107324500D01*
X184620062Y-107365381D01*
X184543797Y-107394926D01*
X184412599Y-107445753D01*
X184284462Y-107525092D01*
X184223438Y-107562876D01*
X184064672Y-107707611D01*
X184059019Y-107712764D01*
X184029906Y-107751316D01*
X183924943Y-107890309D01*
X183924938Y-107890318D01*
X183825772Y-108089469D01*
X183825771Y-108089472D01*
X183764885Y-108303464D01*
X183749500Y-108469497D01*
X183749500Y-108980503D01*
X173650500Y-108980503D01*
X173650500Y-108469497D01*
X173635115Y-108303464D01*
X173574229Y-108089472D01*
X173475058Y-107890311D01*
X173340981Y-107712764D01*
X173176562Y-107562876D01*
X172987401Y-107445753D01*
X172779940Y-107365382D01*
X172779939Y-107365381D01*
X172779937Y-107365381D01*
X172561243Y-107324500D01*
X172338757Y-107324500D01*
X172120062Y-107365381D01*
X172043797Y-107394926D01*
X171912599Y-107445753D01*
X171784462Y-107525092D01*
X171723438Y-107562876D01*
X171564672Y-107707611D01*
X171559019Y-107712764D01*
X171529906Y-107751316D01*
X171424943Y-107890309D01*
X171424938Y-107890318D01*
X171325772Y-108089469D01*
X171325771Y-108089472D01*
X171264885Y-108303464D01*
X171249500Y-108469497D01*
X171249500Y-108980503D01*
X158851154Y-108980503D01*
X158827179Y-108906716D01*
X158827176Y-108906711D01*
X158827174Y-108906706D01*
X158778551Y-108822490D01*
X158732533Y-108742784D01*
X158605871Y-108602112D01*
X158452730Y-108490849D01*
X158452725Y-108490847D01*
X158452722Y-108490845D01*
X158279805Y-108413857D01*
X158279803Y-108413856D01*
X158279800Y-108413855D01*
X158279799Y-108413855D01*
X158244580Y-108406369D01*
X158094646Y-108374500D01*
X157905354Y-108374500D01*
X157787288Y-108399595D01*
X157720200Y-108413855D01*
X157720194Y-108413857D01*
X157547277Y-108490845D01*
X157547268Y-108490850D01*
X157394129Y-108602111D01*
X157394124Y-108602116D01*
X157267469Y-108742781D01*
X157267465Y-108742787D01*
X157172825Y-108906706D01*
X157172819Y-108906720D01*
X157114327Y-109086738D01*
X157114326Y-109086742D01*
X157114326Y-109086744D01*
X157094540Y-109275000D01*
X149105460Y-109275000D01*
X149085674Y-109086744D01*
X149027179Y-108906716D01*
X149027176Y-108906711D01*
X149027174Y-108906706D01*
X148978551Y-108822490D01*
X148932533Y-108742784D01*
X148805871Y-108602112D01*
X148652730Y-108490849D01*
X148652725Y-108490847D01*
X148652722Y-108490845D01*
X148479805Y-108413857D01*
X148479803Y-108413856D01*
X148479800Y-108413855D01*
X148479799Y-108413855D01*
X148444580Y-108406369D01*
X148294646Y-108374500D01*
X148105354Y-108374500D01*
X147987289Y-108399595D01*
X147920200Y-108413855D01*
X147920194Y-108413857D01*
X147747277Y-108490845D01*
X147747268Y-108490850D01*
X147594129Y-108602111D01*
X147594124Y-108602116D01*
X147467469Y-108742781D01*
X147467465Y-108742787D01*
X147372825Y-108906706D01*
X147372819Y-108906720D01*
X147314327Y-109086738D01*
X147314326Y-109086742D01*
X147314326Y-109086744D01*
X147294540Y-109275000D01*
X106435628Y-109275000D01*
X106423866Y-109208292D01*
X106423865Y-109208289D01*
X106354377Y-109047196D01*
X106249610Y-108906470D01*
X106178589Y-108846876D01*
X106115216Y-108793699D01*
X106114530Y-108793354D01*
X105958433Y-108714960D01*
X105958429Y-108714959D01*
X105958423Y-108714956D01*
X105787723Y-108674500D01*
X105787721Y-108674500D01*
X105656291Y-108674500D01*
X105525745Y-108689759D01*
X105525742Y-108689759D01*
X105525741Y-108689760D01*
X105360883Y-108749762D01*
X105214306Y-108846168D01*
X105214303Y-108846170D01*
X105093909Y-108973780D01*
X105093908Y-108973780D01*
X105006188Y-109125719D01*
X104955870Y-109293786D01*
X104955869Y-109293793D01*
X104945668Y-109468931D01*
X98438831Y-109468931D01*
X98749498Y-108846876D01*
X99215823Y-108000250D01*
X99715861Y-107173087D01*
X100046775Y-106672400D01*
X177595746Y-106672400D01*
X177605746Y-106882330D01*
X177605747Y-106882337D01*
X177655295Y-107086573D01*
X177655300Y-107086586D01*
X177742602Y-107277751D01*
X177742604Y-107277754D01*
X177864511Y-107448949D01*
X177864513Y-107448951D01*
X177864514Y-107448952D01*
X178016622Y-107593986D01*
X178193428Y-107707613D01*
X178388543Y-107785725D01*
X178594915Y-107825500D01*
X178594918Y-107825500D01*
X178752425Y-107825500D01*
X178909218Y-107810528D01*
X179110875Y-107751316D01*
X179297682Y-107655011D01*
X179462886Y-107525092D01*
X179600519Y-107366256D01*
X179705604Y-107184244D01*
X179774344Y-106985633D01*
X179804254Y-106777602D01*
X179794254Y-106567670D01*
X179744704Y-106363424D01*
X179700102Y-106265760D01*
X179657397Y-106172248D01*
X179657395Y-106172245D01*
X179535488Y-106001050D01*
X179455631Y-105924907D01*
X179383378Y-105856014D01*
X179206572Y-105742387D01*
X179206569Y-105742386D01*
X179206568Y-105742385D01*
X179097409Y-105698685D01*
X179011457Y-105664275D01*
X178805085Y-105624500D01*
X178647575Y-105624500D01*
X178490781Y-105639472D01*
X178289120Y-105698685D01*
X178102320Y-105794987D01*
X178102317Y-105794989D01*
X177937113Y-105924907D01*
X177799480Y-106083744D01*
X177694397Y-106265753D01*
X177694394Y-106265760D01*
X177625657Y-106464362D01*
X177625655Y-106464368D01*
X177595746Y-106672393D01*
X177595746Y-106672400D01*
X100046775Y-106672400D01*
X100248799Y-106366730D01*
X100813773Y-105582486D01*
X101409868Y-104821627D01*
X102036116Y-104085388D01*
X102483899Y-103600000D01*
X102691503Y-103374962D01*
X103374962Y-102691503D01*
X103776458Y-102321112D01*
X104085388Y-102036116D01*
X104821627Y-101409868D01*
X105582486Y-100813773D01*
X106366730Y-100248799D01*
X107173087Y-99715861D01*
X108000250Y-99215823D01*
X108846876Y-98749498D01*
X109711593Y-98317641D01*
X110592997Y-97920953D01*
X111489660Y-97560078D01*
X112400126Y-97235600D01*
X113322920Y-96948046D01*
X114256544Y-96697882D01*
X114379250Y-96670246D01*
X114440171Y-96675906D01*
X114486132Y-96716294D01*
X114500000Y-96766827D01*
X114500000Y-104500000D01*
X114500001Y-104500000D01*
X121499999Y-104500000D01*
X121500000Y-104500000D01*
X121500000Y-102321113D01*
X139824500Y-102321113D01*
X139839486Y-102458910D01*
X139847720Y-102483346D01*
X139898555Y-102634219D01*
X139898556Y-102634222D01*
X139993927Y-102792733D01*
X139993931Y-102792737D01*
X140121149Y-102927039D01*
X140121148Y-102927039D01*
X140274267Y-103030857D01*
X140274270Y-103030858D01*
X140446125Y-103099331D01*
X140628683Y-103129260D01*
X140813407Y-103119245D01*
X140991659Y-103069754D01*
X141155104Y-102983100D01*
X141296100Y-102863337D01*
X141322188Y-102829018D01*
X141372454Y-102794137D01*
X141433625Y-102795462D01*
X141482334Y-102832490D01*
X141500000Y-102888931D01*
X141500000Y-102900000D01*
X141796183Y-102900000D01*
X141854374Y-102918907D01*
X141890338Y-102968407D01*
X141890338Y-103029593D01*
X141869754Y-103065244D01*
X141867469Y-103067781D01*
X141867465Y-103067787D01*
X141772825Y-103231706D01*
X141772819Y-103231720D01*
X141714327Y-103411738D01*
X141694540Y-103600000D01*
X141714327Y-103788261D01*
X141772819Y-103968279D01*
X141772825Y-103968293D01*
X141840430Y-104085387D01*
X141867467Y-104132216D01*
X141994129Y-104272888D01*
X142147270Y-104384151D01*
X142320197Y-104461144D01*
X142505354Y-104500500D01*
X142505357Y-104500500D01*
X142694643Y-104500500D01*
X142694646Y-104500500D01*
X142879803Y-104461144D01*
X143052730Y-104384151D01*
X143205871Y-104272888D01*
X143332533Y-104132216D01*
X143427179Y-103968284D01*
X143485674Y-103788256D01*
X143505460Y-103600000D01*
X145944540Y-103600000D01*
X145964327Y-103788261D01*
X146022819Y-103968279D01*
X146022825Y-103968293D01*
X146090430Y-104085387D01*
X146117467Y-104132216D01*
X146244129Y-104272888D01*
X146397270Y-104384151D01*
X146570197Y-104461144D01*
X146755354Y-104500500D01*
X146755357Y-104500500D01*
X146944643Y-104500500D01*
X146944646Y-104500500D01*
X147129803Y-104461144D01*
X147302730Y-104384151D01*
X147455871Y-104272888D01*
X147582533Y-104132216D01*
X147677179Y-103968284D01*
X147735674Y-103788256D01*
X147755460Y-103600000D01*
X147735674Y-103411744D01*
X147677179Y-103231716D01*
X147677176Y-103231711D01*
X147677174Y-103231706D01*
X147612243Y-103119244D01*
X147582533Y-103067784D01*
X147580246Y-103065244D01*
X147579547Y-103063675D01*
X147579482Y-103063585D01*
X147579501Y-103063571D01*
X147555359Y-103009348D01*
X147568080Y-102949500D01*
X147613550Y-102908559D01*
X147653817Y-102900000D01*
X148499999Y-102900000D01*
X148500000Y-102900000D01*
X148500000Y-102889260D01*
X148518907Y-102831070D01*
X148568407Y-102795106D01*
X148629593Y-102795106D01*
X148670870Y-102821177D01*
X148753644Y-102908559D01*
X148771151Y-102927041D01*
X148924267Y-103030857D01*
X148924270Y-103030858D01*
X149096125Y-103099331D01*
X149278683Y-103129260D01*
X149463407Y-103119245D01*
X149641659Y-103069754D01*
X149805104Y-102983100D01*
X149946100Y-102863337D01*
X149982199Y-102815849D01*
X150058052Y-102716067D01*
X150058053Y-102716065D01*
X150058052Y-102716065D01*
X150058054Y-102716064D01*
X150135732Y-102548167D01*
X150175500Y-102367497D01*
X150175500Y-101128887D01*
X150160514Y-100991090D01*
X150101444Y-100815779D01*
X150100237Y-100813773D01*
X150006072Y-100657266D01*
X150006068Y-100657262D01*
X149993883Y-100644399D01*
X149878850Y-100522960D01*
X149878851Y-100522960D01*
X149725732Y-100419142D01*
X149553875Y-100350669D01*
X149465045Y-100336106D01*
X149371317Y-100320740D01*
X149371316Y-100320740D01*
X149325135Y-100323243D01*
X149186593Y-100330755D01*
X149008341Y-100380246D01*
X149008340Y-100380246D01*
X149008338Y-100380247D01*
X149008332Y-100380250D01*
X148844896Y-100466899D01*
X148844895Y-100466900D01*
X148703901Y-100586661D01*
X148703900Y-100586662D01*
X148677813Y-100620980D01*
X148627545Y-100655862D01*
X148566374Y-100654537D01*
X148517665Y-100617508D01*
X148500000Y-100561067D01*
X148500000Y-100400001D01*
X148500000Y-100400000D01*
X146900000Y-100400000D01*
X146900000Y-100400001D01*
X146900000Y-102600500D01*
X146881093Y-102658691D01*
X146831593Y-102694655D01*
X146801000Y-102699500D01*
X146755354Y-102699500D01*
X146637289Y-102724595D01*
X146570200Y-102738855D01*
X146570194Y-102738857D01*
X146397277Y-102815845D01*
X146397268Y-102815850D01*
X146244129Y-102927111D01*
X146244124Y-102927116D01*
X146117469Y-103067781D01*
X146117465Y-103067787D01*
X146022825Y-103231706D01*
X146022819Y-103231720D01*
X145964327Y-103411738D01*
X145944540Y-103600000D01*
X143505460Y-103600000D01*
X143485674Y-103411744D01*
X143427179Y-103231716D01*
X143427176Y-103231711D01*
X143427174Y-103231706D01*
X143362243Y-103119244D01*
X143332533Y-103067784D01*
X143243053Y-102968407D01*
X143205875Y-102927116D01*
X143205872Y-102927113D01*
X143205869Y-102927111D01*
X143168555Y-102900000D01*
X143140808Y-102879840D01*
X143104845Y-102830339D01*
X143100000Y-102799748D01*
X143100000Y-101105927D01*
X143118907Y-101047736D01*
X143168407Y-101011772D01*
X143229593Y-101011772D01*
X143279093Y-101047736D01*
X143280428Y-101049621D01*
X143295824Y-101071926D01*
X143423155Y-101184731D01*
X143573782Y-101263787D01*
X143738951Y-101304497D01*
X143738954Y-101304497D01*
X143909060Y-101304497D01*
X143909063Y-101304497D01*
X144074232Y-101263787D01*
X144224859Y-101184731D01*
X144352190Y-101071926D01*
X144444410Y-100938322D01*
X144493023Y-100901176D01*
X144554190Y-100899698D01*
X144604545Y-100934455D01*
X144607357Y-100938325D01*
X144696817Y-101067929D01*
X144824148Y-101180734D01*
X144974775Y-101259790D01*
X145139944Y-101300500D01*
X145139947Y-101300500D01*
X145310053Y-101300500D01*
X145310056Y-101300500D01*
X145475225Y-101259790D01*
X145625852Y-101180734D01*
X145753183Y-101067929D01*
X145849818Y-100927930D01*
X145910140Y-100768872D01*
X145930645Y-100600000D01*
X145929025Y-100586662D01*
X145925739Y-100559597D01*
X145910140Y-100431128D01*
X145849818Y-100272070D01*
X145753183Y-100132071D01*
X145625852Y-100019266D01*
X145475225Y-99940210D01*
X145475224Y-99940209D01*
X145475223Y-99940209D01*
X145310058Y-99899500D01*
X145310056Y-99899500D01*
X145139944Y-99899500D01*
X145139941Y-99899500D01*
X144974776Y-99940209D01*
X144824146Y-100019267D01*
X144696818Y-100132069D01*
X144696816Y-100132072D01*
X144604599Y-100265671D01*
X144555982Y-100302820D01*
X144494815Y-100304298D01*
X144444461Y-100269541D01*
X144441649Y-100265671D01*
X144430003Y-100248799D01*
X144352190Y-100136068D01*
X144347679Y-100132072D01*
X144224860Y-100023264D01*
X144224859Y-100023263D01*
X144074232Y-99944207D01*
X144074231Y-99944206D01*
X144074230Y-99944206D01*
X143909065Y-99903497D01*
X143909063Y-99903497D01*
X143738951Y-99903497D01*
X143738948Y-99903497D01*
X143573783Y-99944206D01*
X143423153Y-100023264D01*
X143295825Y-100136066D01*
X143295823Y-100136069D01*
X143199189Y-100276065D01*
X143185563Y-100311995D01*
X143176419Y-100336107D01*
X143138106Y-100383810D01*
X143083853Y-100400000D01*
X141500000Y-100400000D01*
X141500000Y-100400001D01*
X141500000Y-100560738D01*
X141481093Y-100618929D01*
X141431593Y-100654893D01*
X141370407Y-100654893D01*
X141329127Y-100628820D01*
X141228850Y-100522960D01*
X141228851Y-100522960D01*
X141075732Y-100419142D01*
X140903875Y-100350669D01*
X140815045Y-100336106D01*
X140721317Y-100320740D01*
X140721316Y-100320740D01*
X140675135Y-100323243D01*
X140536593Y-100330755D01*
X140358341Y-100380246D01*
X140358340Y-100380246D01*
X140358338Y-100380247D01*
X140358332Y-100380250D01*
X140194896Y-100466899D01*
X140194895Y-100466900D01*
X140053901Y-100586661D01*
X140053896Y-100586666D01*
X139941947Y-100733932D01*
X139941946Y-100733934D01*
X139864269Y-100901829D01*
X139864268Y-100901831D01*
X139856235Y-100938326D01*
X139824500Y-101082503D01*
X139824500Y-102321113D01*
X121500000Y-102321113D01*
X121500000Y-97996113D01*
X139824500Y-97996113D01*
X139839486Y-98133910D01*
X139869561Y-98223167D01*
X139898555Y-98309219D01*
X139898556Y-98309222D01*
X139993927Y-98467733D01*
X139993931Y-98467737D01*
X140121149Y-98602039D01*
X140121148Y-98602039D01*
X140274267Y-98705857D01*
X140274270Y-98705858D01*
X140446125Y-98774331D01*
X140628683Y-98804260D01*
X140813407Y-98794245D01*
X140991659Y-98744754D01*
X141155104Y-98658100D01*
X141296100Y-98538337D01*
X141349769Y-98467737D01*
X141408052Y-98391067D01*
X141408053Y-98391065D01*
X141408052Y-98391065D01*
X141408054Y-98391064D01*
X141485732Y-98223167D01*
X141525500Y-98042497D01*
X141525500Y-97996113D01*
X148474500Y-97996113D01*
X148489486Y-98133910D01*
X148519561Y-98223167D01*
X148548555Y-98309219D01*
X148548556Y-98309222D01*
X148643927Y-98467733D01*
X148643931Y-98467737D01*
X148771149Y-98602039D01*
X148771148Y-98602039D01*
X148924267Y-98705857D01*
X148924270Y-98705858D01*
X149096125Y-98774331D01*
X149278683Y-98804260D01*
X149463407Y-98794245D01*
X149641659Y-98744754D01*
X149805104Y-98658100D01*
X149946100Y-98538337D01*
X149999769Y-98467737D01*
X150058052Y-98391067D01*
X150058053Y-98391065D01*
X150058052Y-98391065D01*
X150058054Y-98391064D01*
X150135732Y-98223167D01*
X150175500Y-98042497D01*
X150175500Y-97103887D01*
X150160514Y-96966090D01*
X150101444Y-96790779D01*
X150087033Y-96766827D01*
X150006072Y-96632266D01*
X150006068Y-96632262D01*
X149878850Y-96497960D01*
X149878851Y-96497960D01*
X149725732Y-96394142D01*
X149553875Y-96325669D01*
X149553874Y-96325669D01*
X149371317Y-96295740D01*
X149371316Y-96295740D01*
X149325135Y-96298243D01*
X149186593Y-96305755D01*
X149008341Y-96355246D01*
X149008340Y-96355246D01*
X149008338Y-96355247D01*
X149008332Y-96355250D01*
X148844896Y-96441899D01*
X148844895Y-96441900D01*
X148703901Y-96561661D01*
X148703896Y-96561666D01*
X148591947Y-96708932D01*
X148591946Y-96708934D01*
X148514269Y-96876829D01*
X148514268Y-96876831D01*
X148514268Y-96876833D01*
X148474500Y-97057503D01*
X148474500Y-97996113D01*
X141525500Y-97996113D01*
X141525500Y-97103887D01*
X141510514Y-96966090D01*
X141451444Y-96790779D01*
X141437033Y-96766827D01*
X141356072Y-96632266D01*
X141356068Y-96632262D01*
X141228850Y-96497960D01*
X141228851Y-96497960D01*
X141075732Y-96394142D01*
X140903875Y-96325669D01*
X140903874Y-96325669D01*
X140721317Y-96295740D01*
X140721316Y-96295740D01*
X140675135Y-96298243D01*
X140536593Y-96305755D01*
X140358341Y-96355246D01*
X140358340Y-96355246D01*
X140358338Y-96355247D01*
X140358332Y-96355250D01*
X140194896Y-96441899D01*
X140194895Y-96441900D01*
X140053901Y-96561661D01*
X140053896Y-96561666D01*
X139941947Y-96708932D01*
X139941946Y-96708934D01*
X139864269Y-96876829D01*
X139864268Y-96876831D01*
X139864268Y-96876833D01*
X139824500Y-97057503D01*
X139824500Y-97996113D01*
X121500000Y-97996113D01*
X121500000Y-96099500D01*
X121518907Y-96041309D01*
X121568407Y-96005345D01*
X121599000Y-96000500D01*
X168401000Y-96000500D01*
X168459191Y-96019407D01*
G37*
%TD.AperFunction*%
%TD*%
M02*
