%TF.GenerationSoftware,KiCad,Pcbnew,7.0.6*%
%TF.CreationDate,2023-11-25T17:25:05+01:00*%
%TF.ProjectId,gamepad,67616d65-7061-4642-9e6b-696361645f70,rev?*%
%TF.SameCoordinates,Original*%
%TF.FileFunction,Copper,L4,Bot*%
%TF.FilePolarity,Positive*%
%FSLAX46Y46*%
G04 Gerber Fmt 4.6, Leading zero omitted, Abs format (unit mm)*
G04 Created by KiCad (PCBNEW 7.0.6) date 2023-11-25 17:25:05*
%MOMM*%
%LPD*%
G01*
G04 APERTURE LIST*
G04 Aperture macros list*
%AMRoundRect*
0 Rectangle with rounded corners*
0 $1 Rounding radius*
0 $2 $3 $4 $5 $6 $7 $8 $9 X,Y pos of 4 corners*
0 Add a 4 corners polygon primitive as box body*
4,1,4,$2,$3,$4,$5,$6,$7,$8,$9,$2,$3,0*
0 Add four circle primitives for the rounded corners*
1,1,$1+$1,$2,$3*
1,1,$1+$1,$4,$5*
1,1,$1+$1,$6,$7*
1,1,$1+$1,$8,$9*
0 Add four rect primitives between the rounded corners*
20,1,$1+$1,$2,$3,$4,$5,0*
20,1,$1+$1,$4,$5,$6,$7,0*
20,1,$1+$1,$6,$7,$8,$9,0*
20,1,$1+$1,$8,$9,$2,$3,0*%
G04 Aperture macros list end*
%TA.AperFunction,ComponentPad*%
%ADD10O,1.600000X2.000000*%
%TD*%
%TA.AperFunction,ComponentPad*%
%ADD11O,2.000000X1.600000*%
%TD*%
%TA.AperFunction,ComponentPad*%
%ADD12C,1.000000*%
%TD*%
%TA.AperFunction,ComponentPad*%
%ADD13RoundRect,0.250000X-0.600000X-0.725000X0.600000X-0.725000X0.600000X0.725000X-0.600000X0.725000X0*%
%TD*%
%TA.AperFunction,ComponentPad*%
%ADD14O,1.700000X1.950000*%
%TD*%
%TA.AperFunction,ComponentPad*%
%ADD15O,0.900000X2.000000*%
%TD*%
%TA.AperFunction,ComponentPad*%
%ADD16O,0.900000X1.700000*%
%TD*%
%TA.AperFunction,ComponentPad*%
%ADD17O,1.600000X1.000000*%
%TD*%
%TA.AperFunction,ViaPad*%
%ADD18C,0.800000*%
%TD*%
%TA.AperFunction,ViaPad*%
%ADD19C,1.000000*%
%TD*%
%TA.AperFunction,ViaPad*%
%ADD20C,0.600000*%
%TD*%
%TA.AperFunction,Conductor*%
%ADD21C,0.400000*%
%TD*%
%TA.AperFunction,Conductor*%
%ADD22C,0.250000*%
%TD*%
%TA.AperFunction,Conductor*%
%ADD23C,0.600000*%
%TD*%
%TA.AperFunction,Conductor*%
%ADD24C,0.800000*%
%TD*%
%TA.AperFunction,Conductor*%
%ADD25C,1.200000*%
%TD*%
G04 APERTURE END LIST*
D10*
%TO.P,SW3,1*%
%TO.N,/B_A*%
X172500000Y-131250000D03*
X185000000Y-131250000D03*
%TO.P,SW3,2*%
%TO.N,GND*%
X172500000Y-126250000D03*
X185000000Y-126250000D03*
%TD*%
D11*
%TO.P,SW5,1*%
%TO.N,/B_L*%
X142500000Y-120775000D03*
X142500000Y-133275000D03*
%TO.P,SW5,2*%
%TO.N,GND*%
X147500000Y-120775000D03*
X147500000Y-133275000D03*
D12*
%TO.P,SW5,3,A*%
%TO.N,Net-(SW5-A)*%
X151800000Y-127025000D03*
%TO.P,SW5,4,K*%
%TO.N,GND*%
X138200000Y-127025000D03*
%TD*%
D13*
%TO.P,XT2,1,Pin_1*%
%TO.N,+3.3VA*%
X126950000Y-139650000D03*
D14*
%TO.P,XT2,2,Pin_2*%
%TO.N,Net-(XT2-Pin_2)*%
X129450000Y-139650000D03*
%TO.P,XT2,3,Pin_3*%
%TO.N,Net-(XT2-Pin_3)*%
X131950000Y-139650000D03*
%TO.P,XT2,4,Pin_4*%
%TO.N,GND*%
X134450000Y-139650000D03*
%TD*%
D15*
%TO.P,XT1,S1,SHIELD*%
%TO.N,Net-(XT1-SHIELD)*%
X149325000Y-101725000D03*
D16*
X149325000Y-97550000D03*
D15*
X140675000Y-101725000D03*
D16*
X140675000Y-97550000D03*
%TD*%
D10*
%TO.P,SW2,1*%
%TO.N,/B_Y*%
X155000000Y-118725000D03*
X167500000Y-118725000D03*
%TO.P,SW2,2*%
%TO.N,GND*%
X155000000Y-113725000D03*
X167500000Y-113725000D03*
%TD*%
%TO.P,SW4,1*%
%TO.N,/B_B*%
X155000000Y-136225000D03*
X167500000Y-136225000D03*
%TO.P,SW4,2*%
%TO.N,GND*%
X155000000Y-131225000D03*
X167500000Y-131225000D03*
%TD*%
D17*
%TO.P,J1,1,X*%
%TO.N,/J_X*%
X121500000Y-131175000D03*
%TO.P,J1,2,GND_SW*%
%TO.N,GND*%
X119500000Y-131175000D03*
%TO.P,J1,3,SW*%
%TO.N,/J_B*%
X117500000Y-131175000D03*
%TO.P,J1,4,Y*%
%TO.N,/J_Y*%
X115500000Y-131175000D03*
%TO.P,J1,5,GND_A*%
%TO.N,GND*%
X113500000Y-131175000D03*
%TO.P,J1,6,VCC*%
%TO.N,+3.3VA*%
X111500000Y-131175000D03*
%TD*%
D10*
%TO.P,SW1,1*%
%TO.N,/B_X*%
X172450000Y-113725000D03*
X184950000Y-113725000D03*
%TO.P,SW1,2*%
%TO.N,GND*%
X172450000Y-108725000D03*
X184950000Y-108725000D03*
%TD*%
D18*
%TO.N,+3.3VA*%
X176300000Y-120200000D03*
X142650000Y-118250000D03*
D19*
X142100000Y-113775000D03*
D18*
X181100000Y-137700000D03*
X128425000Y-116825000D03*
X131025000Y-130650000D03*
X135250000Y-123650000D03*
X158800000Y-125200000D03*
X110075000Y-137175000D03*
D19*
X161000000Y-109200000D03*
D18*
X160400000Y-140950000D03*
%TO.N,GND*%
X136775000Y-122075000D03*
X158850000Y-140950000D03*
X111925000Y-137175000D03*
X127825000Y-123650000D03*
D19*
X140550000Y-113775000D03*
D18*
X158800000Y-123450000D03*
X181100000Y-135950000D03*
X142650000Y-116500000D03*
X127900000Y-114875000D03*
X129450000Y-130650000D03*
X130600000Y-111925000D03*
X176300000Y-118450000D03*
D20*
%TO.N,/B_X*%
X126025000Y-120200000D03*
D18*
X171225000Y-119275000D03*
D20*
%TO.N,/B_Y*%
X124250000Y-131750000D03*
D18*
X153750000Y-124275000D03*
%TO.N,/B_A*%
X176000000Y-136825000D03*
D20*
X125000000Y-132500000D03*
%TO.N,/B_B*%
X125750000Y-133000000D03*
D18*
X153750000Y-141775000D03*
D20*
%TO.N,/J_X*%
X124725000Y-117300000D03*
%TO.N,/J_Y*%
X120175000Y-118125000D03*
D19*
%TO.N,+5V*%
X146850000Y-103600000D03*
X148200000Y-109275000D03*
X142600000Y-103600000D03*
X158000000Y-109275000D03*
D20*
%TO.N,/B_L*%
X124900000Y-119550000D03*
D18*
X138050000Y-117325000D03*
D20*
%TO.N,/LED*%
X142225000Y-135725000D03*
X126500000Y-133500000D03*
%TO.N,/D+*%
X143824007Y-100603997D03*
X145225000Y-100600000D03*
%TD*%
D21*
%TO.N,+3.3VA*%
X134375000Y-127925000D02*
X134375000Y-129350000D01*
X130675000Y-124225000D02*
X131250000Y-123650000D01*
X130675000Y-124225000D02*
X134375000Y-127925000D01*
X134375000Y-129350000D02*
X133075000Y-130650000D01*
X133075000Y-130650000D02*
X131025000Y-130650000D01*
X128425000Y-121975000D02*
X130675000Y-124225000D01*
X128425000Y-116825000D02*
X128425000Y-121975000D01*
X131250000Y-123650000D02*
X135250000Y-123650000D01*
%TO.N,GND*%
X127850000Y-129700000D02*
X128800000Y-130650000D01*
X127450000Y-115325000D02*
X127450000Y-123225000D01*
X127900000Y-114875000D02*
X127450000Y-115325000D01*
X127450000Y-123225000D02*
X127850000Y-123625000D01*
X128800000Y-130650000D02*
X129450000Y-130650000D01*
X127850000Y-123625000D02*
X127850000Y-129700000D01*
D22*
%TO.N,/B_X*%
X126725000Y-114725000D02*
X127775000Y-113675000D01*
X126025000Y-119425000D02*
X126725000Y-118725000D01*
X126725000Y-118725000D02*
X126725000Y-114725000D01*
X127775000Y-113675000D02*
X128675000Y-113675000D01*
X128675000Y-113675000D02*
X134000000Y-119000000D01*
X168200000Y-116250000D02*
X171225000Y-119275000D01*
X134000000Y-119000000D02*
X144375000Y-119000000D01*
X147125000Y-116250000D02*
X168200000Y-116250000D01*
X126025000Y-120200000D02*
X126025000Y-119425000D01*
X144375000Y-119000000D02*
X147125000Y-116250000D01*
%TO.N,/B_Y*%
X124250000Y-131750000D02*
X126675000Y-131750000D01*
X126675000Y-131750000D02*
X129975000Y-135050000D01*
X129975000Y-135050000D02*
X147900000Y-135050000D01*
X147900000Y-135050000D02*
X153750000Y-129200000D01*
X153750000Y-129200000D02*
X153750000Y-124275000D01*
%TO.N,/B_A*%
X162600000Y-133925000D02*
X158425000Y-138100000D01*
X173100000Y-133925000D02*
X162600000Y-133925000D01*
X145250000Y-142775000D02*
X139375000Y-136900000D01*
X139375000Y-136900000D02*
X127000000Y-136900000D01*
X125000000Y-134900000D02*
X125000000Y-132500000D01*
X127000000Y-136900000D02*
X125000000Y-134900000D01*
X158425000Y-139500000D02*
X155150000Y-142775000D01*
X155150000Y-142775000D02*
X145250000Y-142775000D01*
X176000000Y-136825000D02*
X173100000Y-133925000D01*
X158425000Y-138100000D02*
X158425000Y-139500000D01*
%TO.N,/B_B*%
X145400000Y-141775000D02*
X153750000Y-141775000D01*
X125750000Y-134625000D02*
X127425000Y-136300000D01*
X125750000Y-133000000D02*
X125750000Y-134625000D01*
X139925000Y-136300000D02*
X145400000Y-141775000D01*
X127425000Y-136300000D02*
X139925000Y-136300000D01*
%TO.N,/J_X*%
X123950000Y-117300000D02*
X121500000Y-119750000D01*
X124725000Y-117300000D02*
X123950000Y-117300000D01*
X121500000Y-119750000D02*
X121500000Y-131175000D01*
%TO.N,/J_Y*%
X120175000Y-118125000D02*
X118025000Y-118125000D01*
X115500000Y-120650000D02*
X115500000Y-131175000D01*
X118025000Y-118125000D02*
X115500000Y-120650000D01*
D23*
%TO.N,+5V*%
X147525000Y-103600000D02*
X148200000Y-104275000D01*
D24*
X158000000Y-109275000D02*
X148200000Y-109275000D01*
D23*
X146850000Y-103600000D02*
X147525000Y-103600000D01*
X142600000Y-103600000D02*
X146850000Y-103600000D01*
X148200000Y-104275000D02*
X148200000Y-109275000D01*
D22*
%TO.N,/B_L*%
X135150000Y-115425000D02*
X137050000Y-117325000D01*
D25*
X142500000Y-133275000D02*
X142500000Y-120775000D01*
D22*
X125925000Y-117775000D02*
X125925000Y-114100000D01*
X124900000Y-118800000D02*
X125925000Y-117775000D01*
X127300000Y-112725000D02*
X129475000Y-112725000D01*
X132175000Y-115425000D02*
X135150000Y-115425000D01*
X125925000Y-114100000D02*
X127300000Y-112725000D01*
X129475000Y-112725000D02*
X132175000Y-115425000D01*
X137050000Y-117325000D02*
X138050000Y-117325000D01*
X124900000Y-119550000D02*
X124900000Y-118800000D01*
D23*
%TO.N,Net-(XT1-SHIELD)*%
X140675000Y-97550000D02*
X149325000Y-97550000D01*
X140675000Y-101725000D02*
X140675000Y-97550000D01*
X149325000Y-101725000D02*
X149325000Y-97550000D01*
D22*
%TO.N,/LED*%
X126500000Y-134300000D02*
X127925000Y-135725000D01*
X127925000Y-135725000D02*
X142225000Y-135725000D01*
X126500000Y-133500000D02*
X126500000Y-134300000D01*
%TO.N,/D+*%
X145221003Y-100603997D02*
X145225000Y-100600000D01*
X143824007Y-100603997D02*
X145221003Y-100603997D01*
%TD*%
%TA.AperFunction,Conductor*%
%TO.N,GND*%
G36*
X168459191Y-96019407D02*
G01*
X168495155Y-96068907D01*
X168500000Y-96099499D01*
X168500000Y-104500000D01*
X168500001Y-104500000D01*
X175499999Y-104500000D01*
X175500000Y-104500000D01*
X175500000Y-96766826D01*
X175518907Y-96708636D01*
X175568407Y-96672672D01*
X175620749Y-96670246D01*
X175743456Y-96697882D01*
X176677080Y-96948046D01*
X177599874Y-97235600D01*
X178510340Y-97560078D01*
X179407003Y-97920953D01*
X180288407Y-98317641D01*
X181153124Y-98749498D01*
X181999750Y-99215823D01*
X182826913Y-99715861D01*
X183633270Y-100248799D01*
X184417514Y-100813773D01*
X185178373Y-101409868D01*
X185914612Y-102036116D01*
X186223542Y-102321112D01*
X186625038Y-102691503D01*
X187308497Y-103374962D01*
X187516101Y-103600000D01*
X187963884Y-104085388D01*
X188590132Y-104821627D01*
X189186227Y-105582486D01*
X189751201Y-106366730D01*
X190284139Y-107173087D01*
X190784177Y-108000250D01*
X191250502Y-108846876D01*
X191682359Y-109711593D01*
X192079047Y-110592997D01*
X192439922Y-111489660D01*
X192764400Y-112400126D01*
X193051954Y-113322920D01*
X193302118Y-114256544D01*
X193514486Y-115199483D01*
X193688713Y-116150209D01*
X193824517Y-117107180D01*
X193921677Y-118068843D01*
X193980036Y-119033638D01*
X193999500Y-120000000D01*
X193980036Y-120966362D01*
X193921677Y-121931157D01*
X193824517Y-122892820D01*
X193688713Y-123849791D01*
X193514486Y-124800517D01*
X193302118Y-125743456D01*
X193051954Y-126677080D01*
X192764400Y-127599874D01*
X192439922Y-128510340D01*
X192079047Y-129407003D01*
X191682359Y-130288407D01*
X191250502Y-131153124D01*
X190784177Y-131999750D01*
X190284139Y-132826913D01*
X189751201Y-133633270D01*
X189186227Y-134417514D01*
X188590132Y-135178373D01*
X187963884Y-135914612D01*
X187707130Y-136192929D01*
X187308497Y-136625038D01*
X186625038Y-137308497D01*
X186325729Y-137584618D01*
X185914612Y-137963884D01*
X185182557Y-138586573D01*
X185178373Y-138590132D01*
X184417514Y-139186227D01*
X183633270Y-139751201D01*
X182826913Y-140284139D01*
X181999750Y-140784177D01*
X181153124Y-141250502D01*
X180288407Y-141682359D01*
X179407003Y-142079047D01*
X178510340Y-142439922D01*
X177599874Y-142764400D01*
X176677080Y-143051954D01*
X175743456Y-143302118D01*
X175620751Y-143329752D01*
X175559828Y-143324092D01*
X175513867Y-143283703D01*
X175500000Y-143233171D01*
X175500000Y-137700000D01*
X180294435Y-137700000D01*
X180314632Y-137879257D01*
X180314633Y-137879261D01*
X180374211Y-138049522D01*
X180374211Y-138049523D01*
X180451416Y-138172393D01*
X180470184Y-138202262D01*
X180597738Y-138329816D01*
X180597740Y-138329817D01*
X180597741Y-138329818D01*
X180720446Y-138406919D01*
X180750478Y-138425789D01*
X180818657Y-138449646D01*
X180920738Y-138485366D01*
X180920742Y-138485367D01*
X180920745Y-138485368D01*
X181100000Y-138505565D01*
X181279255Y-138485368D01*
X181449522Y-138425789D01*
X181602262Y-138329816D01*
X181729816Y-138202262D01*
X181825789Y-138049522D01*
X181879974Y-137894667D01*
X181885366Y-137879261D01*
X181885367Y-137879257D01*
X181885368Y-137879255D01*
X181905565Y-137700000D01*
X181885368Y-137520745D01*
X181878476Y-137501050D01*
X181849467Y-137418146D01*
X181825789Y-137350478D01*
X181811201Y-137327262D01*
X181729818Y-137197741D01*
X181729817Y-137197740D01*
X181729816Y-137197738D01*
X181602262Y-137070184D01*
X181602259Y-137070182D01*
X181602258Y-137070181D01*
X181449523Y-136974211D01*
X181279261Y-136914633D01*
X181279257Y-136914632D01*
X181100000Y-136894435D01*
X180920742Y-136914632D01*
X180920738Y-136914633D01*
X180750477Y-136974211D01*
X180750476Y-136974211D01*
X180597741Y-137070181D01*
X180470181Y-137197741D01*
X180374211Y-137350476D01*
X180374211Y-137350477D01*
X180314633Y-137520738D01*
X180314632Y-137520742D01*
X180294435Y-137700000D01*
X175500000Y-137700000D01*
X175500000Y-137635364D01*
X175518907Y-137577173D01*
X175568407Y-137541209D01*
X175629593Y-137541209D01*
X175645359Y-137548587D01*
X175645462Y-137548374D01*
X175650474Y-137550786D01*
X175650478Y-137550789D01*
X175744658Y-137583744D01*
X175820738Y-137610366D01*
X175820742Y-137610367D01*
X175820745Y-137610368D01*
X176000000Y-137630565D01*
X176179255Y-137610368D01*
X176349522Y-137550789D01*
X176502262Y-137454816D01*
X176629816Y-137327262D01*
X176725789Y-137174522D01*
X176785368Y-137004255D01*
X176805565Y-136825000D01*
X176785368Y-136645745D01*
X176778122Y-136625038D01*
X176750179Y-136545181D01*
X176725789Y-136475478D01*
X176709284Y-136449211D01*
X176629818Y-136322741D01*
X176629817Y-136322740D01*
X176629816Y-136322738D01*
X176502262Y-136195184D01*
X176502259Y-136195182D01*
X176502258Y-136195181D01*
X176349523Y-136099211D01*
X176179261Y-136039633D01*
X176179257Y-136039632D01*
X176119503Y-136032899D01*
X176000000Y-136019435D01*
X175999997Y-136019435D01*
X175999996Y-136019435D01*
X175999995Y-136019435D01*
X175991292Y-136020415D01*
X175931351Y-136008138D01*
X175910210Y-135992041D01*
X175528996Y-135610827D01*
X175501219Y-135556310D01*
X175500000Y-135540823D01*
X175500000Y-135500001D01*
X175500000Y-135500000D01*
X175499999Y-135500000D01*
X175459177Y-135500000D01*
X175400986Y-135481093D01*
X175389173Y-135471004D01*
X173477940Y-133559771D01*
X173434757Y-133513532D01*
X173434755Y-133513531D01*
X173429986Y-133510631D01*
X173398229Y-133491319D01*
X173394039Y-133488467D01*
X173359973Y-133462634D01*
X173342492Y-133455740D01*
X173327381Y-133448235D01*
X173311325Y-133438472D01*
X173270166Y-133426940D01*
X173265360Y-133425324D01*
X173225589Y-133409641D01*
X173225592Y-133409641D01*
X173213577Y-133408406D01*
X173206892Y-133407718D01*
X173190314Y-133404567D01*
X173172228Y-133399500D01*
X173129478Y-133399500D01*
X173124414Y-133399240D01*
X173090061Y-133395709D01*
X173081890Y-133394869D01*
X173081889Y-133394869D01*
X173063375Y-133398061D01*
X173046556Y-133399500D01*
X162608985Y-133399500D01*
X162545755Y-133397340D01*
X162545748Y-133397340D01*
X162507612Y-133406634D01*
X162504224Y-133407460D01*
X162499245Y-133408406D01*
X162456893Y-133414228D01*
X162456885Y-133414230D01*
X162439653Y-133421714D01*
X162423666Y-133427090D01*
X162405414Y-133431539D01*
X162405403Y-133431543D01*
X162368140Y-133452494D01*
X162363600Y-133454749D01*
X162324388Y-133471781D01*
X162324387Y-133471782D01*
X162309813Y-133483639D01*
X162295862Y-133493135D01*
X162279488Y-133502341D01*
X162249260Y-133532569D01*
X162245497Y-133535965D01*
X162212337Y-133562943D01*
X162212330Y-133562951D01*
X162201500Y-133578293D01*
X162190627Y-133591202D01*
X158059771Y-137722058D01*
X158013530Y-137765245D01*
X157991318Y-137801770D01*
X157988466Y-137805960D01*
X157962636Y-137840024D01*
X157962635Y-137840026D01*
X157955741Y-137857506D01*
X157948237Y-137872615D01*
X157938473Y-137888673D01*
X157926939Y-137929835D01*
X157925323Y-137934641D01*
X157909641Y-137974407D01*
X157909640Y-137974413D01*
X157907718Y-137993103D01*
X157904569Y-138009676D01*
X157899500Y-138027771D01*
X157899500Y-138070521D01*
X157899240Y-138075585D01*
X157894869Y-138118110D01*
X157898061Y-138136625D01*
X157899500Y-138153444D01*
X157899500Y-139241323D01*
X157880593Y-139299514D01*
X157870504Y-139311327D01*
X154961327Y-142220504D01*
X154906810Y-142248281D01*
X154891323Y-142249500D01*
X154571584Y-142249500D01*
X154513393Y-142230593D01*
X154477429Y-142181093D01*
X154477429Y-142119907D01*
X154478140Y-142117802D01*
X154486229Y-142094687D01*
X154535368Y-141954255D01*
X154555565Y-141775000D01*
X154535368Y-141595745D01*
X154529794Y-141579816D01*
X154485161Y-141452262D01*
X154475789Y-141425478D01*
X154379816Y-141272738D01*
X154252262Y-141145184D01*
X154252259Y-141145182D01*
X154252258Y-141145181D01*
X154099523Y-141049211D01*
X153929261Y-140989633D01*
X153929257Y-140989632D01*
X153750000Y-140969435D01*
X153570742Y-140989632D01*
X153570738Y-140989633D01*
X153400477Y-141049211D01*
X153400476Y-141049211D01*
X153247741Y-141145181D01*
X153247736Y-141145185D01*
X153172417Y-141220504D01*
X153117900Y-141248281D01*
X153102414Y-141249500D01*
X145658677Y-141249500D01*
X145600486Y-141230593D01*
X145588673Y-141220504D01*
X140848672Y-136480503D01*
X153799500Y-136480503D01*
X153814885Y-136646536D01*
X153875771Y-136860528D01*
X153974942Y-137059689D01*
X154109019Y-137237236D01*
X154273438Y-137387124D01*
X154462599Y-137504247D01*
X154670060Y-137584618D01*
X154888757Y-137625500D01*
X155111243Y-137625500D01*
X155329940Y-137584618D01*
X155537401Y-137504247D01*
X155726562Y-137387124D01*
X155890981Y-137237236D01*
X156025058Y-137059689D01*
X156124229Y-136860528D01*
X156185115Y-136646536D01*
X156200500Y-136480503D01*
X156200500Y-135969497D01*
X156185115Y-135803464D01*
X156124229Y-135589472D01*
X156025058Y-135390311D01*
X155890981Y-135212764D01*
X155726562Y-135062876D01*
X155537401Y-134945753D01*
X155329940Y-134865382D01*
X155329939Y-134865381D01*
X155329937Y-134865381D01*
X155111243Y-134824500D01*
X154888757Y-134824500D01*
X154670062Y-134865381D01*
X154603894Y-134891015D01*
X154462599Y-134945753D01*
X154325734Y-135030496D01*
X154273438Y-135062876D01*
X154109020Y-135212763D01*
X153974943Y-135390309D01*
X153974938Y-135390318D01*
X153878137Y-135584720D01*
X153875771Y-135589472D01*
X153848183Y-135686434D01*
X153814885Y-135803464D01*
X153804586Y-135914613D01*
X153799500Y-135969497D01*
X153799500Y-136480503D01*
X140848672Y-136480503D01*
X140787673Y-136419504D01*
X140759896Y-136364987D01*
X140769467Y-136304555D01*
X140812732Y-136261290D01*
X140857677Y-136250500D01*
X141724255Y-136250500D01*
X141782446Y-136269407D01*
X141789904Y-136275397D01*
X141824148Y-136305734D01*
X141974775Y-136384790D01*
X142139944Y-136425500D01*
X142139947Y-136425500D01*
X142310053Y-136425500D01*
X142310056Y-136425500D01*
X142475225Y-136384790D01*
X142625852Y-136305734D01*
X142753183Y-136192929D01*
X142849818Y-136052930D01*
X142910140Y-135893872D01*
X142930645Y-135725000D01*
X142925962Y-135686433D01*
X142937717Y-135626388D01*
X142982521Y-135584720D01*
X143024240Y-135575500D01*
X147891015Y-135575500D01*
X147893251Y-135575576D01*
X147954245Y-135577660D01*
X147995777Y-135567538D01*
X148000740Y-135566594D01*
X148043111Y-135560771D01*
X148060355Y-135553280D01*
X148076343Y-135547904D01*
X148094594Y-135543457D01*
X148131855Y-135522505D01*
X148136385Y-135520255D01*
X148175609Y-135503219D01*
X148190184Y-135491360D01*
X148204136Y-135481864D01*
X148220512Y-135472658D01*
X148250749Y-135442419D01*
X148254493Y-135439040D01*
X148287665Y-135412054D01*
X148298499Y-135396704D01*
X148309363Y-135383805D01*
X150495768Y-133197400D01*
X177645746Y-133197400D01*
X177655746Y-133407330D01*
X177655747Y-133407337D01*
X177705295Y-133611573D01*
X177705300Y-133611586D01*
X177792602Y-133802751D01*
X177792604Y-133802754D01*
X177914511Y-133973949D01*
X177914513Y-133973951D01*
X177914514Y-133973952D01*
X178066622Y-134118986D01*
X178243428Y-134232613D01*
X178438543Y-134310725D01*
X178644915Y-134350500D01*
X178644918Y-134350500D01*
X178802425Y-134350500D01*
X178959218Y-134335528D01*
X179160875Y-134276316D01*
X179347682Y-134180011D01*
X179512886Y-134050092D01*
X179650519Y-133891256D01*
X179755604Y-133709244D01*
X179824344Y-133510633D01*
X179854254Y-133302602D01*
X179844254Y-133092670D01*
X179794704Y-132888424D01*
X179781068Y-132858565D01*
X179707397Y-132697248D01*
X179707395Y-132697245D01*
X179585488Y-132526050D01*
X179577997Y-132518907D01*
X179433378Y-132381014D01*
X179256572Y-132267387D01*
X179256569Y-132267386D01*
X179256568Y-132267385D01*
X179147409Y-132223685D01*
X179061457Y-132189275D01*
X178855085Y-132149500D01*
X178697575Y-132149500D01*
X178540781Y-132164472D01*
X178339120Y-132223685D01*
X178152320Y-132319987D01*
X178152317Y-132319989D01*
X177987113Y-132449907D01*
X177849480Y-132608744D01*
X177744397Y-132790753D01*
X177744394Y-132790760D01*
X177675657Y-132989362D01*
X177675655Y-132989368D01*
X177645746Y-133197393D01*
X177645746Y-133197400D01*
X150495768Y-133197400D01*
X152217455Y-131475713D01*
X154000000Y-131475713D01*
X154015418Y-131627335D01*
X154015419Y-131627337D01*
X154076302Y-131821387D01*
X154142650Y-131940926D01*
X154603704Y-131479871D01*
X154614835Y-131550148D01*
X154672359Y-131663045D01*
X154687866Y-131678552D01*
X154263786Y-132102632D01*
X154263786Y-132102634D01*
X154307482Y-132153533D01*
X154468306Y-132278019D01*
X154468308Y-132278020D01*
X154650902Y-132367586D01*
X154847795Y-132418566D01*
X155050914Y-132428866D01*
X155251941Y-132398069D01*
X155442666Y-132327433D01*
X155615263Y-132219853D01*
X155615265Y-132219851D01*
X155737364Y-132103786D01*
X155312132Y-131678554D01*
X155327641Y-131663045D01*
X155385165Y-131550148D01*
X155396295Y-131479873D01*
X155858488Y-131942066D01*
X155878856Y-131912805D01*
X155959060Y-131725905D01*
X155959061Y-131725902D01*
X155999999Y-131526696D01*
X156000000Y-131526688D01*
X156000000Y-131475713D01*
X166500000Y-131475713D01*
X166515418Y-131627335D01*
X166515419Y-131627337D01*
X166576302Y-131821387D01*
X166642650Y-131940926D01*
X167103704Y-131479871D01*
X167114835Y-131550148D01*
X167172359Y-131663045D01*
X167187866Y-131678552D01*
X166763786Y-132102632D01*
X166763786Y-132102634D01*
X166807482Y-132153533D01*
X166968306Y-132278019D01*
X166968308Y-132278020D01*
X167150902Y-132367586D01*
X167347795Y-132418566D01*
X167550914Y-132428866D01*
X167751941Y-132398069D01*
X167942666Y-132327433D01*
X168115263Y-132219853D01*
X168115265Y-132219851D01*
X168237364Y-132103786D01*
X167812132Y-131678554D01*
X167827641Y-131663045D01*
X167885165Y-131550148D01*
X167896295Y-131479873D01*
X168358488Y-131942066D01*
X168378856Y-131912805D01*
X168459060Y-131725905D01*
X168459061Y-131725902D01*
X168499999Y-131526696D01*
X168500000Y-131526688D01*
X168500000Y-131505503D01*
X171299500Y-131505503D01*
X171314885Y-131671536D01*
X171375771Y-131885528D01*
X171474942Y-132084689D01*
X171609019Y-132262236D01*
X171773438Y-132412124D01*
X171962599Y-132529247D01*
X172170060Y-132609618D01*
X172388757Y-132650500D01*
X172611243Y-132650500D01*
X172829940Y-132609618D01*
X173037401Y-132529247D01*
X173226562Y-132412124D01*
X173390981Y-132262236D01*
X173525058Y-132084689D01*
X173624229Y-131885528D01*
X173685115Y-131671536D01*
X173700500Y-131505503D01*
X183799500Y-131505503D01*
X183814885Y-131671536D01*
X183875771Y-131885528D01*
X183974942Y-132084689D01*
X184109019Y-132262236D01*
X184273438Y-132412124D01*
X184462599Y-132529247D01*
X184670060Y-132609618D01*
X184888757Y-132650500D01*
X185111243Y-132650500D01*
X185329940Y-132609618D01*
X185537401Y-132529247D01*
X185726562Y-132412124D01*
X185890981Y-132262236D01*
X186025058Y-132084689D01*
X186124229Y-131885528D01*
X186185115Y-131671536D01*
X186200500Y-131505503D01*
X186200500Y-130994497D01*
X186185115Y-130828464D01*
X186124229Y-130614472D01*
X186025058Y-130415311D01*
X185890981Y-130237764D01*
X185726562Y-130087876D01*
X185537401Y-129970753D01*
X185329940Y-129890382D01*
X185329939Y-129890381D01*
X185329937Y-129890381D01*
X185111243Y-129849500D01*
X184888757Y-129849500D01*
X184670062Y-129890381D01*
X184593797Y-129919926D01*
X184462599Y-129970753D01*
X184273438Y-130087876D01*
X184109019Y-130237764D01*
X184071317Y-130287690D01*
X183974943Y-130415309D01*
X183974938Y-130415318D01*
X183898349Y-130569129D01*
X183875771Y-130614472D01*
X183859051Y-130673238D01*
X183814885Y-130828464D01*
X183799591Y-130993519D01*
X183799500Y-130994497D01*
X183799500Y-131505503D01*
X173700500Y-131505503D01*
X173700500Y-130994497D01*
X173685115Y-130828464D01*
X173624229Y-130614472D01*
X173525058Y-130415311D01*
X173390981Y-130237764D01*
X173226562Y-130087876D01*
X173037401Y-129970753D01*
X172829940Y-129890382D01*
X172829939Y-129890381D01*
X172829937Y-129890381D01*
X172611243Y-129849500D01*
X172388757Y-129849500D01*
X172170062Y-129890381D01*
X172093797Y-129919926D01*
X171962599Y-129970753D01*
X171773438Y-130087876D01*
X171609019Y-130237764D01*
X171571317Y-130287690D01*
X171474943Y-130415309D01*
X171474938Y-130415318D01*
X171398349Y-130569129D01*
X171375771Y-130614472D01*
X171359051Y-130673238D01*
X171314885Y-130828464D01*
X171299591Y-130993519D01*
X171299500Y-130994497D01*
X171299500Y-131505503D01*
X168500000Y-131505503D01*
X168500000Y-130974286D01*
X168484581Y-130822664D01*
X168484580Y-130822662D01*
X168423696Y-130628608D01*
X168423695Y-130628607D01*
X168357348Y-130509072D01*
X167896294Y-130970125D01*
X167885165Y-130899852D01*
X167827641Y-130786955D01*
X167812131Y-130771445D01*
X168236212Y-130347364D01*
X168236212Y-130347363D01*
X168192524Y-130296472D01*
X168192520Y-130296468D01*
X168031693Y-130171980D01*
X168031691Y-130171979D01*
X167849097Y-130082413D01*
X167652204Y-130031433D01*
X167449085Y-130021133D01*
X167248058Y-130051930D01*
X167057333Y-130122566D01*
X166884735Y-130230147D01*
X166884734Y-130230148D01*
X166762634Y-130346212D01*
X167187868Y-130771446D01*
X167172359Y-130786955D01*
X167114835Y-130899852D01*
X167103704Y-130970126D01*
X166641510Y-130507932D01*
X166621143Y-130537196D01*
X166540939Y-130724094D01*
X166540938Y-130724097D01*
X166500000Y-130923303D01*
X166500000Y-131475713D01*
X156000000Y-131475713D01*
X156000000Y-130974286D01*
X155984581Y-130822664D01*
X155984580Y-130822662D01*
X155923696Y-130628608D01*
X155923695Y-130628607D01*
X155857348Y-130509072D01*
X155396294Y-130970125D01*
X155385165Y-130899852D01*
X155327641Y-130786955D01*
X155312130Y-130771444D01*
X155736212Y-130347364D01*
X155736212Y-130347363D01*
X155692524Y-130296472D01*
X155692520Y-130296468D01*
X155531693Y-130171980D01*
X155531691Y-130171979D01*
X155349097Y-130082413D01*
X155152204Y-130031433D01*
X154949085Y-130021133D01*
X154748058Y-130051930D01*
X154557333Y-130122566D01*
X154384735Y-130230147D01*
X154384734Y-130230148D01*
X154262634Y-130346212D01*
X154687868Y-130771446D01*
X154672359Y-130786955D01*
X154614835Y-130899852D01*
X154603704Y-130970126D01*
X154141510Y-130507932D01*
X154121143Y-130537196D01*
X154040939Y-130724094D01*
X154040938Y-130724097D01*
X154000000Y-130923303D01*
X154000000Y-131475713D01*
X152217455Y-131475713D01*
X154115228Y-129577940D01*
X154161469Y-129534755D01*
X154183679Y-129498229D01*
X154186529Y-129494042D01*
X154192906Y-129485633D01*
X154212364Y-129459975D01*
X154219257Y-129442496D01*
X154226769Y-129427372D01*
X154236526Y-129411328D01*
X154248061Y-129370155D01*
X154249674Y-129365361D01*
X154265357Y-129325593D01*
X154265359Y-129325589D01*
X154267280Y-129306890D01*
X154270430Y-129290317D01*
X154275500Y-129272228D01*
X154275500Y-129229478D01*
X154275760Y-129224413D01*
X154276504Y-129217167D01*
X154280131Y-129181891D01*
X154278495Y-129172400D01*
X160145746Y-129172400D01*
X160155746Y-129382330D01*
X160155747Y-129382337D01*
X160205295Y-129586573D01*
X160205300Y-129586586D01*
X160292602Y-129777751D01*
X160292604Y-129777754D01*
X160414511Y-129948949D01*
X160414513Y-129948951D01*
X160414514Y-129948952D01*
X160566622Y-130093986D01*
X160743428Y-130207613D01*
X160938543Y-130285725D01*
X161144915Y-130325500D01*
X161144918Y-130325500D01*
X161302425Y-130325500D01*
X161459218Y-130310528D01*
X161660875Y-130251316D01*
X161847682Y-130155011D01*
X162012886Y-130025092D01*
X162150519Y-129866256D01*
X162255604Y-129684244D01*
X162324344Y-129485633D01*
X162354254Y-129277602D01*
X162344254Y-129067670D01*
X162294704Y-128863424D01*
X162250102Y-128765760D01*
X162207397Y-128672248D01*
X162207395Y-128672245D01*
X162085488Y-128501050D01*
X162005631Y-128424907D01*
X161933378Y-128356014D01*
X161756572Y-128242387D01*
X161756569Y-128242386D01*
X161756568Y-128242385D01*
X161687520Y-128214743D01*
X161561457Y-128164275D01*
X161355085Y-128124500D01*
X161197575Y-128124500D01*
X161040781Y-128139472D01*
X160839120Y-128198685D01*
X160652320Y-128294987D01*
X160652317Y-128294989D01*
X160487113Y-128424907D01*
X160349480Y-128583744D01*
X160244397Y-128765753D01*
X160244394Y-128765760D01*
X160175657Y-128964362D01*
X160175655Y-128964368D01*
X160145746Y-129172393D01*
X160145746Y-129172400D01*
X154278495Y-129172400D01*
X154276939Y-129163376D01*
X154275500Y-129146557D01*
X154275500Y-126500713D01*
X171500000Y-126500713D01*
X171515418Y-126652335D01*
X171515419Y-126652337D01*
X171576302Y-126846387D01*
X171642650Y-126965926D01*
X172103704Y-126504871D01*
X172114835Y-126575148D01*
X172172359Y-126688045D01*
X172187866Y-126703552D01*
X171763786Y-127127632D01*
X171763786Y-127127634D01*
X171807482Y-127178533D01*
X171968306Y-127303019D01*
X171968308Y-127303020D01*
X172150902Y-127392586D01*
X172347795Y-127443566D01*
X172550914Y-127453866D01*
X172751941Y-127423069D01*
X172942666Y-127352433D01*
X173115263Y-127244853D01*
X173115265Y-127244851D01*
X173237364Y-127128786D01*
X172812131Y-126703553D01*
X172827641Y-126688045D01*
X172885165Y-126575148D01*
X172896295Y-126504873D01*
X173358488Y-126967066D01*
X173378856Y-126937805D01*
X173459060Y-126750905D01*
X173459061Y-126750902D01*
X173499999Y-126551696D01*
X173500000Y-126551688D01*
X173500000Y-126500713D01*
X184000000Y-126500713D01*
X184015418Y-126652335D01*
X184015419Y-126652337D01*
X184076302Y-126846387D01*
X184142650Y-126965926D01*
X184603704Y-126504871D01*
X184614835Y-126575148D01*
X184672359Y-126688045D01*
X184687866Y-126703552D01*
X184263786Y-127127632D01*
X184263786Y-127127634D01*
X184307482Y-127178533D01*
X184468306Y-127303019D01*
X184468308Y-127303020D01*
X184650902Y-127392586D01*
X184847795Y-127443566D01*
X185050914Y-127453866D01*
X185251941Y-127423069D01*
X185442666Y-127352433D01*
X185615263Y-127244853D01*
X185615265Y-127244851D01*
X185737364Y-127128786D01*
X185312132Y-126703554D01*
X185327641Y-126688045D01*
X185385165Y-126575148D01*
X185396295Y-126504873D01*
X185858488Y-126967066D01*
X185878856Y-126937805D01*
X185959060Y-126750905D01*
X185959061Y-126750902D01*
X185999999Y-126551696D01*
X186000000Y-126551688D01*
X186000000Y-125999286D01*
X185984581Y-125847664D01*
X185984580Y-125847662D01*
X185923696Y-125653608D01*
X185923695Y-125653607D01*
X185857348Y-125534072D01*
X185396294Y-125995125D01*
X185385165Y-125924852D01*
X185327641Y-125811955D01*
X185312131Y-125796445D01*
X185736212Y-125372364D01*
X185736212Y-125372363D01*
X185692524Y-125321472D01*
X185692520Y-125321468D01*
X185531693Y-125196980D01*
X185531691Y-125196979D01*
X185349097Y-125107413D01*
X185152204Y-125056433D01*
X184949085Y-125046133D01*
X184748058Y-125076930D01*
X184557333Y-125147566D01*
X184384735Y-125255147D01*
X184384734Y-125255148D01*
X184262634Y-125371212D01*
X184687868Y-125796446D01*
X184672359Y-125811955D01*
X184614835Y-125924852D01*
X184603704Y-125995126D01*
X184141510Y-125532932D01*
X184121143Y-125562196D01*
X184040939Y-125749094D01*
X184040938Y-125749097D01*
X184000000Y-125948303D01*
X184000000Y-126500713D01*
X173500000Y-126500713D01*
X173500000Y-125999286D01*
X173484581Y-125847664D01*
X173484580Y-125847662D01*
X173423696Y-125653608D01*
X173423695Y-125653607D01*
X173357348Y-125534072D01*
X172896294Y-125995125D01*
X172885165Y-125924852D01*
X172827641Y-125811955D01*
X172812131Y-125796444D01*
X173236212Y-125372364D01*
X173236212Y-125372363D01*
X173192524Y-125321472D01*
X173192520Y-125321468D01*
X173031693Y-125196980D01*
X173031691Y-125196979D01*
X172849097Y-125107413D01*
X172652204Y-125056433D01*
X172449085Y-125046133D01*
X172248058Y-125076930D01*
X172057333Y-125147566D01*
X171884735Y-125255147D01*
X171884734Y-125255148D01*
X171762634Y-125371212D01*
X172187868Y-125796446D01*
X172172359Y-125811955D01*
X172114835Y-125924852D01*
X172103704Y-125995126D01*
X171641510Y-125532932D01*
X171621143Y-125562196D01*
X171540939Y-125749094D01*
X171540938Y-125749097D01*
X171500000Y-125948303D01*
X171500000Y-126500713D01*
X154275500Y-126500713D01*
X154275500Y-125200000D01*
X157994435Y-125200000D01*
X158014632Y-125379257D01*
X158014633Y-125379261D01*
X158074211Y-125549522D01*
X158074211Y-125549523D01*
X158149243Y-125668935D01*
X158170184Y-125702262D01*
X158297738Y-125829816D01*
X158297740Y-125829817D01*
X158297741Y-125829818D01*
X158448986Y-125924852D01*
X158450478Y-125925789D01*
X158489582Y-125939472D01*
X158620738Y-125985366D01*
X158620742Y-125985367D01*
X158620745Y-125985368D01*
X158800000Y-126005565D01*
X158979255Y-125985368D01*
X159149522Y-125925789D01*
X159302262Y-125829816D01*
X159429816Y-125702262D01*
X159525789Y-125549522D01*
X159585368Y-125379255D01*
X159605565Y-125200000D01*
X159585368Y-125020745D01*
X159568994Y-124973952D01*
X159545600Y-124907096D01*
X159525789Y-124850478D01*
X159495801Y-124802753D01*
X159429818Y-124697741D01*
X159429817Y-124697740D01*
X159429816Y-124697738D01*
X159302262Y-124570184D01*
X159302259Y-124570182D01*
X159302258Y-124570181D01*
X159149523Y-124474211D01*
X158979261Y-124414633D01*
X158979257Y-124414632D01*
X158800000Y-124394435D01*
X158620742Y-124414632D01*
X158620738Y-124414633D01*
X158450477Y-124474211D01*
X158450476Y-124474211D01*
X158297741Y-124570181D01*
X158170181Y-124697741D01*
X158074211Y-124850476D01*
X158074211Y-124850477D01*
X158014633Y-125020738D01*
X158014632Y-125020742D01*
X157994435Y-125200000D01*
X154275500Y-125200000D01*
X154275500Y-124922585D01*
X154294407Y-124864394D01*
X154304490Y-124852587D01*
X154379816Y-124777262D01*
X154475789Y-124624522D01*
X154535368Y-124454255D01*
X154555565Y-124275000D01*
X154546822Y-124197400D01*
X177645746Y-124197400D01*
X177655746Y-124407330D01*
X177655747Y-124407337D01*
X177705295Y-124611573D01*
X177705300Y-124611586D01*
X177792602Y-124802751D01*
X177792604Y-124802754D01*
X177914511Y-124973949D01*
X177914513Y-124973951D01*
X177914514Y-124973952D01*
X178066622Y-125118986D01*
X178243428Y-125232613D01*
X178438543Y-125310725D01*
X178644915Y-125350500D01*
X178644918Y-125350500D01*
X178802425Y-125350500D01*
X178959218Y-125335528D01*
X179160875Y-125276316D01*
X179347682Y-125180011D01*
X179512886Y-125050092D01*
X179650519Y-124891256D01*
X179755604Y-124709244D01*
X179824344Y-124510633D01*
X179854254Y-124302602D01*
X179844254Y-124092670D01*
X179794704Y-123888424D01*
X179750102Y-123790760D01*
X179707397Y-123697248D01*
X179707395Y-123697245D01*
X179585488Y-123526050D01*
X179585486Y-123526048D01*
X179433378Y-123381014D01*
X179256572Y-123267387D01*
X179256569Y-123267386D01*
X179256568Y-123267385D01*
X179147409Y-123223685D01*
X179061457Y-123189275D01*
X178855085Y-123149500D01*
X178697575Y-123149500D01*
X178540781Y-123164472D01*
X178339120Y-123223685D01*
X178152320Y-123319987D01*
X178152317Y-123319989D01*
X177987113Y-123449907D01*
X177849480Y-123608744D01*
X177744397Y-123790753D01*
X177744394Y-123790760D01*
X177675657Y-123989362D01*
X177675655Y-123989368D01*
X177645746Y-124197393D01*
X177645746Y-124197400D01*
X154546822Y-124197400D01*
X154535368Y-124095745D01*
X154534289Y-124092662D01*
X154498145Y-123989368D01*
X154475789Y-123925478D01*
X154452506Y-123888424D01*
X154379818Y-123772741D01*
X154379817Y-123772740D01*
X154379816Y-123772738D01*
X154252262Y-123645184D01*
X154252259Y-123645182D01*
X154252258Y-123645181D01*
X154099523Y-123549211D01*
X153929261Y-123489633D01*
X153929257Y-123489632D01*
X153750000Y-123469435D01*
X153570742Y-123489632D01*
X153570738Y-123489633D01*
X153400477Y-123549211D01*
X153400476Y-123549211D01*
X153247741Y-123645181D01*
X153120181Y-123772741D01*
X153024211Y-123925476D01*
X153024211Y-123925477D01*
X152964633Y-124095738D01*
X152964632Y-124095742D01*
X152944435Y-124275000D01*
X152964632Y-124454257D01*
X152964633Y-124454261D01*
X153024211Y-124624522D01*
X153024211Y-124624523D01*
X153120184Y-124777263D01*
X153195503Y-124852580D01*
X153223281Y-124907096D01*
X153224500Y-124922584D01*
X153224500Y-128941321D01*
X153205593Y-128999512D01*
X153195504Y-129011325D01*
X148870875Y-133335954D01*
X148816358Y-133363731D01*
X148755926Y-133354160D01*
X148712661Y-133310895D01*
X148701998Y-133260935D01*
X148703866Y-133224085D01*
X148673069Y-133023058D01*
X148602433Y-132832333D01*
X148494852Y-132659735D01*
X148494847Y-132659729D01*
X148378785Y-132537634D01*
X147953552Y-132962866D01*
X147938045Y-132947359D01*
X147825148Y-132889835D01*
X147754871Y-132878704D01*
X148217066Y-132416510D01*
X148187812Y-132396148D01*
X148187801Y-132396142D01*
X148000905Y-132315939D01*
X148000902Y-132315938D01*
X147801696Y-132275000D01*
X147249286Y-132275000D01*
X147097664Y-132290418D01*
X147097662Y-132290419D01*
X146903609Y-132351303D01*
X146784072Y-132417650D01*
X147245126Y-132878704D01*
X147174852Y-132889835D01*
X147061955Y-132947359D01*
X147046446Y-132962867D01*
X146622364Y-132538786D01*
X146571469Y-132582479D01*
X146571468Y-132582480D01*
X146446980Y-132743306D01*
X146446979Y-132743308D01*
X146357413Y-132925902D01*
X146306433Y-133122793D01*
X146306433Y-133122797D01*
X146296133Y-133325910D01*
X146296132Y-133325913D01*
X146326930Y-133526941D01*
X146397566Y-133717666D01*
X146505147Y-133890264D01*
X146505152Y-133890270D01*
X146621212Y-134012363D01*
X147046444Y-133587130D01*
X147061955Y-133602641D01*
X147174852Y-133660165D01*
X147245125Y-133671294D01*
X146782932Y-134133487D01*
X146812199Y-134153858D01*
X146999094Y-134234060D01*
X146999097Y-134234061D01*
X147198303Y-134274999D01*
X147198311Y-134275000D01*
X147692824Y-134275000D01*
X147751015Y-134293907D01*
X147786979Y-134343407D01*
X147786979Y-134404593D01*
X147762829Y-134444001D01*
X147711325Y-134495505D01*
X147656811Y-134523281D01*
X147641324Y-134524500D01*
X143304871Y-134524500D01*
X143246680Y-134505593D01*
X143210716Y-134456093D01*
X143210716Y-134394907D01*
X143246680Y-134345407D01*
X143260743Y-134336879D01*
X143263788Y-134335362D01*
X143334689Y-134300058D01*
X143512236Y-134165981D01*
X143662124Y-134001562D01*
X143779247Y-133812401D01*
X143859618Y-133604940D01*
X143900500Y-133386243D01*
X143900500Y-133163757D01*
X143859618Y-132945060D01*
X143779247Y-132737599D01*
X143662124Y-132548438D01*
X143526338Y-132399488D01*
X143501108Y-132343746D01*
X143500500Y-132332792D01*
X143500500Y-126972400D01*
X148395746Y-126972400D01*
X148405746Y-127182330D01*
X148405747Y-127182337D01*
X148455295Y-127386573D01*
X148455300Y-127386586D01*
X148542602Y-127577751D01*
X148542604Y-127577754D01*
X148664511Y-127748949D01*
X148664513Y-127748951D01*
X148664514Y-127748952D01*
X148816622Y-127893986D01*
X148993428Y-128007613D01*
X149188543Y-128085725D01*
X149394915Y-128125500D01*
X149394918Y-128125500D01*
X149552425Y-128125500D01*
X149709218Y-128110528D01*
X149910875Y-128051316D01*
X150097682Y-127955011D01*
X150262886Y-127825092D01*
X150400519Y-127666256D01*
X150505604Y-127484244D01*
X150574344Y-127285633D01*
X150604254Y-127077602D01*
X150601748Y-127025000D01*
X150894540Y-127025000D01*
X150911076Y-127182337D01*
X150914327Y-127213261D01*
X150972819Y-127393279D01*
X150972825Y-127393293D01*
X151032541Y-127496722D01*
X151067467Y-127557216D01*
X151067469Y-127557218D01*
X151181909Y-127684317D01*
X151194129Y-127697888D01*
X151347270Y-127809151D01*
X151520197Y-127886144D01*
X151705354Y-127925500D01*
X151705357Y-127925500D01*
X151894643Y-127925500D01*
X151894646Y-127925500D01*
X152079803Y-127886144D01*
X152252730Y-127809151D01*
X152405871Y-127697888D01*
X152532533Y-127557216D01*
X152627179Y-127393284D01*
X152685674Y-127213256D01*
X152705460Y-127025000D01*
X152685674Y-126836744D01*
X152627179Y-126656716D01*
X152627176Y-126656711D01*
X152627174Y-126656706D01*
X152566541Y-126551688D01*
X152532533Y-126492784D01*
X152478249Y-126432495D01*
X152405875Y-126352116D01*
X152405870Y-126352111D01*
X152273999Y-126256302D01*
X152252730Y-126240849D01*
X152252725Y-126240847D01*
X152252722Y-126240845D01*
X152079805Y-126163857D01*
X152079803Y-126163856D01*
X152079800Y-126163855D01*
X152079799Y-126163855D01*
X152042909Y-126156014D01*
X151894646Y-126124500D01*
X151705354Y-126124500D01*
X151587289Y-126149595D01*
X151520200Y-126163855D01*
X151520194Y-126163857D01*
X151347277Y-126240845D01*
X151347268Y-126240850D01*
X151194129Y-126352111D01*
X151194124Y-126352116D01*
X151067469Y-126492781D01*
X151067465Y-126492787D01*
X150972825Y-126656706D01*
X150972819Y-126656720D01*
X150914327Y-126836738D01*
X150914326Y-126836742D01*
X150914326Y-126836744D01*
X150894540Y-127025000D01*
X150601748Y-127025000D01*
X150594254Y-126867670D01*
X150544704Y-126663424D01*
X150539640Y-126652335D01*
X150457397Y-126472248D01*
X150457395Y-126472245D01*
X150335488Y-126301050D01*
X150318067Y-126284439D01*
X150183378Y-126156014D01*
X150006572Y-126042387D01*
X150006569Y-126042386D01*
X150006568Y-126042385D01*
X149941713Y-126016421D01*
X149811457Y-125964275D01*
X149605085Y-125924500D01*
X149447575Y-125924500D01*
X149290781Y-125939472D01*
X149089120Y-125998685D01*
X148902320Y-126094987D01*
X148902317Y-126094989D01*
X148737113Y-126224907D01*
X148599480Y-126383744D01*
X148494397Y-126565753D01*
X148494394Y-126565760D01*
X148425657Y-126764362D01*
X148425655Y-126764368D01*
X148395746Y-126972393D01*
X148395746Y-126972400D01*
X143500500Y-126972400D01*
X143500500Y-121717207D01*
X143519407Y-121659016D01*
X143526331Y-121650519D01*
X143662124Y-121501562D01*
X143779247Y-121312401D01*
X143859618Y-121104940D01*
X143900500Y-120886243D01*
X143900500Y-120825913D01*
X146296132Y-120825913D01*
X146326930Y-121026941D01*
X146397566Y-121217666D01*
X146505147Y-121390264D01*
X146505152Y-121390270D01*
X146621212Y-121512363D01*
X147046444Y-121087130D01*
X147061955Y-121102641D01*
X147174852Y-121160165D01*
X147245124Y-121171294D01*
X146782932Y-121633487D01*
X146812199Y-121653858D01*
X146999094Y-121734060D01*
X146999097Y-121734061D01*
X147198303Y-121774999D01*
X147198311Y-121775000D01*
X147750714Y-121775000D01*
X147902335Y-121759581D01*
X147902337Y-121759580D01*
X148096391Y-121698696D01*
X148096392Y-121698695D01*
X148215926Y-121632348D01*
X147754873Y-121171295D01*
X147825148Y-121160165D01*
X147938045Y-121102641D01*
X147953554Y-121087132D01*
X148377634Y-121511212D01*
X148428529Y-121467520D01*
X148428536Y-121467513D01*
X148553019Y-121306693D01*
X148553020Y-121306691D01*
X148642586Y-121124097D01*
X148693566Y-120927206D01*
X148693566Y-120927202D01*
X148703866Y-120724085D01*
X148695948Y-120672400D01*
X160145746Y-120672400D01*
X160155746Y-120882330D01*
X160155747Y-120882337D01*
X160205295Y-121086573D01*
X160205300Y-121086586D01*
X160292602Y-121277751D01*
X160292604Y-121277754D01*
X160414511Y-121448949D01*
X160414513Y-121448951D01*
X160414514Y-121448952D01*
X160566622Y-121593986D01*
X160743428Y-121707613D01*
X160938543Y-121785725D01*
X161144915Y-121825500D01*
X161144918Y-121825500D01*
X161302425Y-121825500D01*
X161459218Y-121810528D01*
X161660875Y-121751316D01*
X161847682Y-121655011D01*
X162012886Y-121525092D01*
X162150519Y-121366256D01*
X162255604Y-121184244D01*
X162324344Y-120985633D01*
X162354254Y-120777602D01*
X162344254Y-120567670D01*
X162294704Y-120363424D01*
X162252979Y-120272059D01*
X162220071Y-120200000D01*
X175494435Y-120200000D01*
X175514632Y-120379257D01*
X175514633Y-120379261D01*
X175574211Y-120549522D01*
X175574211Y-120549523D01*
X175665602Y-120694970D01*
X175670184Y-120702262D01*
X175797738Y-120829816D01*
X175797740Y-120829817D01*
X175797741Y-120829818D01*
X175910230Y-120900500D01*
X175950478Y-120925789D01*
X175954528Y-120927206D01*
X176120738Y-120985366D01*
X176120742Y-120985367D01*
X176120745Y-120985368D01*
X176300000Y-121005565D01*
X176479255Y-120985368D01*
X176649522Y-120925789D01*
X176802262Y-120829816D01*
X176929816Y-120702262D01*
X177025789Y-120549522D01*
X177085368Y-120379255D01*
X177105565Y-120200000D01*
X177085368Y-120020745D01*
X177081145Y-120008677D01*
X177049293Y-119917650D01*
X177025789Y-119850478D01*
X176988051Y-119790419D01*
X176929818Y-119697741D01*
X176929817Y-119697740D01*
X176929816Y-119697738D01*
X176802262Y-119570184D01*
X176802259Y-119570182D01*
X176802258Y-119570181D01*
X176649523Y-119474211D01*
X176479261Y-119414633D01*
X176479257Y-119414632D01*
X176300000Y-119394435D01*
X176120742Y-119414632D01*
X176120738Y-119414633D01*
X175950477Y-119474211D01*
X175950476Y-119474211D01*
X175797741Y-119570181D01*
X175670181Y-119697741D01*
X175574211Y-119850476D01*
X175574211Y-119850477D01*
X175514633Y-120020738D01*
X175514632Y-120020742D01*
X175494435Y-120200000D01*
X162220071Y-120200000D01*
X162207397Y-120172248D01*
X162207395Y-120172245D01*
X162085488Y-120001050D01*
X162050479Y-119967669D01*
X161933378Y-119856014D01*
X161756572Y-119742387D01*
X161756569Y-119742386D01*
X161756568Y-119742385D01*
X161683469Y-119713121D01*
X161561457Y-119664275D01*
X161355085Y-119624500D01*
X161197575Y-119624500D01*
X161040781Y-119639472D01*
X160839120Y-119698685D01*
X160652320Y-119794987D01*
X160652317Y-119794989D01*
X160487113Y-119924907D01*
X160349480Y-120083744D01*
X160244397Y-120265753D01*
X160244394Y-120265760D01*
X160175657Y-120464362D01*
X160175655Y-120464368D01*
X160145746Y-120672393D01*
X160145746Y-120672400D01*
X148695948Y-120672400D01*
X148673069Y-120523058D01*
X148602433Y-120332333D01*
X148494852Y-120159735D01*
X148494847Y-120159729D01*
X148378785Y-120037635D01*
X147953553Y-120462867D01*
X147938045Y-120447359D01*
X147825148Y-120389835D01*
X147754871Y-120378704D01*
X148217066Y-119916510D01*
X148187812Y-119896148D01*
X148187801Y-119896142D01*
X148000905Y-119815939D01*
X148000902Y-119815938D01*
X147801696Y-119775000D01*
X147249286Y-119775000D01*
X147097664Y-119790418D01*
X147097662Y-119790419D01*
X146903609Y-119851303D01*
X146784072Y-119917650D01*
X147245126Y-120378704D01*
X147174852Y-120389835D01*
X147061955Y-120447359D01*
X147046446Y-120462868D01*
X146622364Y-120038786D01*
X146571469Y-120082479D01*
X146571468Y-120082480D01*
X146446980Y-120243306D01*
X146446979Y-120243308D01*
X146357413Y-120425902D01*
X146306433Y-120622793D01*
X146306433Y-120622797D01*
X146296133Y-120825910D01*
X146296132Y-120825913D01*
X143900500Y-120825913D01*
X143900500Y-120663757D01*
X143859618Y-120445060D01*
X143779247Y-120237599D01*
X143662124Y-120048438D01*
X143512236Y-119884019D01*
X143334689Y-119749942D01*
X143260743Y-119713121D01*
X143217080Y-119670258D01*
X143206951Y-119609917D01*
X143234224Y-119555146D01*
X143288481Y-119526866D01*
X143304871Y-119525500D01*
X144366015Y-119525500D01*
X144368251Y-119525576D01*
X144429245Y-119527660D01*
X144470777Y-119517538D01*
X144475740Y-119516594D01*
X144518111Y-119510771D01*
X144535355Y-119503280D01*
X144551343Y-119497904D01*
X144569594Y-119493457D01*
X144606855Y-119472505D01*
X144611385Y-119470255D01*
X144650609Y-119453219D01*
X144665184Y-119441360D01*
X144679136Y-119431864D01*
X144695512Y-119422658D01*
X144725749Y-119392419D01*
X144729493Y-119389040D01*
X144762665Y-119362054D01*
X144773499Y-119346704D01*
X144784363Y-119333805D01*
X145137665Y-118980503D01*
X153799500Y-118980503D01*
X153814885Y-119146536D01*
X153875771Y-119360528D01*
X153974942Y-119559689D01*
X154109019Y-119737236D01*
X154273438Y-119887124D01*
X154462599Y-120004247D01*
X154670060Y-120084618D01*
X154888757Y-120125500D01*
X155111243Y-120125500D01*
X155329940Y-120084618D01*
X155537401Y-120004247D01*
X155726562Y-119887124D01*
X155890981Y-119737236D01*
X156025058Y-119559689D01*
X156124229Y-119360528D01*
X156185115Y-119146536D01*
X156200500Y-118980503D01*
X166299500Y-118980503D01*
X166314885Y-119146536D01*
X166375771Y-119360528D01*
X166474942Y-119559689D01*
X166609019Y-119737236D01*
X166773438Y-119887124D01*
X166962599Y-120004247D01*
X167170060Y-120084618D01*
X167388757Y-120125500D01*
X167611243Y-120125500D01*
X167829940Y-120084618D01*
X168037401Y-120004247D01*
X168226562Y-119887124D01*
X168390981Y-119737236D01*
X168525058Y-119559689D01*
X168624229Y-119360528D01*
X168685115Y-119146536D01*
X168700500Y-118980503D01*
X168700500Y-118469497D01*
X168685115Y-118303464D01*
X168624229Y-118089472D01*
X168525058Y-117890311D01*
X168390981Y-117712764D01*
X168226562Y-117562876D01*
X168037401Y-117445753D01*
X167829940Y-117365382D01*
X167829939Y-117365381D01*
X167829937Y-117365381D01*
X167611243Y-117324500D01*
X167388757Y-117324500D01*
X167170062Y-117365381D01*
X167093797Y-117394926D01*
X166962599Y-117445753D01*
X166803494Y-117544266D01*
X166773438Y-117562876D01*
X166710578Y-117620181D01*
X166609019Y-117712764D01*
X166591118Y-117736469D01*
X166474943Y-117890309D01*
X166474938Y-117890318D01*
X166375772Y-118089469D01*
X166375771Y-118089472D01*
X166365662Y-118125001D01*
X166314885Y-118303464D01*
X166299506Y-118469435D01*
X166299500Y-118469497D01*
X166299500Y-118980503D01*
X156200500Y-118980503D01*
X156200500Y-118469497D01*
X156185115Y-118303464D01*
X156124229Y-118089472D01*
X156025058Y-117890311D01*
X155890981Y-117712764D01*
X155726562Y-117562876D01*
X155537401Y-117445753D01*
X155329940Y-117365382D01*
X155329939Y-117365381D01*
X155329937Y-117365381D01*
X155111243Y-117324500D01*
X154888757Y-117324500D01*
X154670062Y-117365381D01*
X154593797Y-117394926D01*
X154462599Y-117445753D01*
X154303494Y-117544266D01*
X154273438Y-117562876D01*
X154210578Y-117620181D01*
X154109019Y-117712764D01*
X154091118Y-117736469D01*
X153974943Y-117890309D01*
X153974938Y-117890318D01*
X153875772Y-118089469D01*
X153875771Y-118089472D01*
X153865662Y-118125001D01*
X153814885Y-118303464D01*
X153799506Y-118469435D01*
X153799500Y-118469497D01*
X153799500Y-118980503D01*
X145137665Y-118980503D01*
X147313673Y-116804495D01*
X147368190Y-116776719D01*
X147383677Y-116775500D01*
X167941322Y-116775500D01*
X167999513Y-116794407D01*
X168011326Y-116804496D01*
X170392041Y-119185210D01*
X170419818Y-119239727D01*
X170420415Y-119266292D01*
X170419435Y-119274995D01*
X170419435Y-119274996D01*
X170419435Y-119275000D01*
X170429244Y-119362054D01*
X170439632Y-119454257D01*
X170439633Y-119454261D01*
X170499211Y-119624522D01*
X170499211Y-119624523D01*
X170595181Y-119777258D01*
X170595184Y-119777262D01*
X170722738Y-119904816D01*
X170722740Y-119904817D01*
X170722741Y-119904818D01*
X170754712Y-119924907D01*
X170875478Y-120000789D01*
X170932509Y-120020745D01*
X171045738Y-120060366D01*
X171045742Y-120060367D01*
X171045745Y-120060368D01*
X171225000Y-120080565D01*
X171404255Y-120060368D01*
X171574522Y-120000789D01*
X171727262Y-119904816D01*
X171854816Y-119777262D01*
X171950789Y-119624522D01*
X172010368Y-119454255D01*
X172030565Y-119275000D01*
X172010368Y-119095745D01*
X172008443Y-119090245D01*
X171983048Y-119017669D01*
X171950789Y-118925478D01*
X171900202Y-118844970D01*
X171854818Y-118772741D01*
X171854817Y-118772740D01*
X171854816Y-118772738D01*
X171727262Y-118645184D01*
X171727259Y-118645182D01*
X171727258Y-118645181D01*
X171574523Y-118549211D01*
X171404261Y-118489633D01*
X171404257Y-118489632D01*
X171344503Y-118482899D01*
X171225000Y-118469435D01*
X171224997Y-118469435D01*
X171224996Y-118469435D01*
X171216293Y-118470415D01*
X171156352Y-118458138D01*
X171135211Y-118442041D01*
X168577940Y-115884771D01*
X168534757Y-115838532D01*
X168534755Y-115838531D01*
X168498232Y-115816321D01*
X168494039Y-115813467D01*
X168459973Y-115787634D01*
X168442492Y-115780740D01*
X168427381Y-115773235D01*
X168411325Y-115763472D01*
X168370166Y-115751940D01*
X168365360Y-115750324D01*
X168325589Y-115734641D01*
X168325592Y-115734641D01*
X168313577Y-115733406D01*
X168306892Y-115732718D01*
X168290314Y-115729567D01*
X168272228Y-115724500D01*
X168229478Y-115724500D01*
X168224414Y-115724240D01*
X168190061Y-115720709D01*
X168181890Y-115719869D01*
X168181889Y-115719869D01*
X168163375Y-115723061D01*
X168146556Y-115724500D01*
X147133985Y-115724500D01*
X147070756Y-115722340D01*
X147070751Y-115722340D01*
X147029223Y-115732460D01*
X147024242Y-115733406D01*
X146981888Y-115739228D01*
X146981885Y-115739229D01*
X146964655Y-115746714D01*
X146948656Y-115752095D01*
X146930407Y-115756542D01*
X146930399Y-115756545D01*
X146893148Y-115777491D01*
X146888607Y-115779746D01*
X146849392Y-115796780D01*
X146834807Y-115808645D01*
X146820858Y-115818138D01*
X146804486Y-115827343D01*
X146774260Y-115857569D01*
X146770497Y-115860965D01*
X146737337Y-115887943D01*
X146737330Y-115887951D01*
X146726500Y-115903293D01*
X146715627Y-115916202D01*
X144186327Y-118445504D01*
X144131810Y-118473281D01*
X144116323Y-118474500D01*
X143541051Y-118474500D01*
X143482860Y-118455593D01*
X143446896Y-118406093D01*
X143442673Y-118364418D01*
X143455565Y-118250000D01*
X143435368Y-118070745D01*
X143434702Y-118068843D01*
X143395262Y-117956129D01*
X143375789Y-117900478D01*
X143369399Y-117890309D01*
X143279818Y-117747741D01*
X143279817Y-117747740D01*
X143279816Y-117747738D01*
X143152262Y-117620184D01*
X143152259Y-117620182D01*
X143152258Y-117620181D01*
X142999523Y-117524211D01*
X142829261Y-117464633D01*
X142829257Y-117464632D01*
X142650000Y-117444435D01*
X142470742Y-117464632D01*
X142470738Y-117464633D01*
X142300477Y-117524211D01*
X142300476Y-117524211D01*
X142147741Y-117620181D01*
X142020181Y-117747741D01*
X141924211Y-117900476D01*
X141924211Y-117900477D01*
X141864633Y-118070738D01*
X141864632Y-118070742D01*
X141845148Y-118243669D01*
X141844435Y-118250000D01*
X141857326Y-118364417D01*
X141845053Y-118424357D01*
X141799891Y-118465637D01*
X141758949Y-118474500D01*
X134258677Y-118474500D01*
X134200486Y-118455593D01*
X134188673Y-118445504D01*
X131761284Y-116018115D01*
X131733507Y-115963598D01*
X131743078Y-115903166D01*
X131786343Y-115859901D01*
X131846775Y-115850330D01*
X131891108Y-115869228D01*
X131915023Y-115887364D01*
X131915024Y-115887364D01*
X131915025Y-115887365D01*
X131928696Y-115892756D01*
X131932505Y-115894258D01*
X131947624Y-115901767D01*
X131963672Y-115911526D01*
X132004840Y-115923060D01*
X132009622Y-115924667D01*
X132049411Y-115940359D01*
X132068106Y-115942280D01*
X132084686Y-115945432D01*
X132094323Y-115948132D01*
X132102771Y-115950500D01*
X132102772Y-115950500D01*
X132145515Y-115950500D01*
X132150580Y-115950760D01*
X132159995Y-115951727D01*
X132193110Y-115955132D01*
X132211623Y-115951939D01*
X132228445Y-115950500D01*
X134891322Y-115950500D01*
X134949513Y-115969407D01*
X134961326Y-115979496D01*
X136672073Y-117690243D01*
X136715242Y-117736467D01*
X136715245Y-117736469D01*
X136751766Y-117758678D01*
X136755957Y-117761531D01*
X136790025Y-117787365D01*
X136803696Y-117792756D01*
X136807505Y-117794258D01*
X136822624Y-117801767D01*
X136838672Y-117811526D01*
X136879840Y-117823060D01*
X136884622Y-117824667D01*
X136924411Y-117840359D01*
X136943106Y-117842280D01*
X136959686Y-117845432D01*
X136969323Y-117848132D01*
X136977771Y-117850500D01*
X136977772Y-117850500D01*
X137020515Y-117850500D01*
X137025580Y-117850760D01*
X137034995Y-117851727D01*
X137068110Y-117855132D01*
X137086623Y-117851939D01*
X137103445Y-117850500D01*
X137402414Y-117850500D01*
X137460605Y-117869407D01*
X137472417Y-117879496D01*
X137528614Y-117935692D01*
X137547738Y-117954816D01*
X137547740Y-117954817D01*
X137547741Y-117954818D01*
X137620443Y-118000500D01*
X137700478Y-118050789D01*
X137757509Y-118070745D01*
X137870738Y-118110366D01*
X137870742Y-118110367D01*
X137870745Y-118110368D01*
X138050000Y-118130565D01*
X138229255Y-118110368D01*
X138399522Y-118050789D01*
X138552262Y-117954816D01*
X138679816Y-117827262D01*
X138775789Y-117674522D01*
X138835368Y-117504255D01*
X138855565Y-117325000D01*
X138835368Y-117145745D01*
X138775789Y-116975478D01*
X138769960Y-116966202D01*
X138679818Y-116822741D01*
X138679817Y-116822740D01*
X138679816Y-116822738D01*
X138552262Y-116695184D01*
X138552259Y-116695182D01*
X138552258Y-116695181D01*
X138399523Y-116599211D01*
X138229261Y-116539633D01*
X138229257Y-116539632D01*
X138050000Y-116519435D01*
X137870742Y-116539632D01*
X137870738Y-116539633D01*
X137700477Y-116599211D01*
X137700476Y-116599211D01*
X137547741Y-116695181D01*
X137547736Y-116695185D01*
X137472417Y-116770504D01*
X137417900Y-116798281D01*
X137402414Y-116799500D01*
X137308678Y-116799500D01*
X137250487Y-116780593D01*
X137238674Y-116770504D01*
X136140569Y-115672400D01*
X177595746Y-115672400D01*
X177605746Y-115882330D01*
X177605747Y-115882337D01*
X177655295Y-116086573D01*
X177655300Y-116086586D01*
X177742602Y-116277751D01*
X177742604Y-116277754D01*
X177864511Y-116448949D01*
X177864513Y-116448951D01*
X177864514Y-116448952D01*
X178016622Y-116593986D01*
X178193428Y-116707613D01*
X178388543Y-116785725D01*
X178594915Y-116825500D01*
X178594918Y-116825500D01*
X178752425Y-116825500D01*
X178909218Y-116810528D01*
X179110875Y-116751316D01*
X179297682Y-116655011D01*
X179462886Y-116525092D01*
X179600519Y-116366256D01*
X179705604Y-116184244D01*
X179774344Y-115985633D01*
X179804254Y-115777602D01*
X179794254Y-115567670D01*
X179744704Y-115363424D01*
X179700102Y-115265760D01*
X179657397Y-115172248D01*
X179657395Y-115172245D01*
X179535488Y-115001050D01*
X179535486Y-115001048D01*
X179383378Y-114856014D01*
X179206572Y-114742387D01*
X179206569Y-114742386D01*
X179206568Y-114742385D01*
X179097409Y-114698685D01*
X179011457Y-114664275D01*
X178805085Y-114624500D01*
X178647575Y-114624500D01*
X178490781Y-114639472D01*
X178289120Y-114698685D01*
X178102320Y-114794987D01*
X178102317Y-114794989D01*
X177937113Y-114924907D01*
X177799480Y-115083744D01*
X177694397Y-115265753D01*
X177694394Y-115265760D01*
X177625657Y-115464362D01*
X177625655Y-115464368D01*
X177595746Y-115672393D01*
X177595746Y-115672400D01*
X136140569Y-115672400D01*
X135527940Y-115059771D01*
X135484757Y-115013532D01*
X135484755Y-115013531D01*
X135464231Y-115001050D01*
X135448229Y-114991319D01*
X135444039Y-114988467D01*
X135409973Y-114962634D01*
X135392492Y-114955740D01*
X135377381Y-114948235D01*
X135361325Y-114938472D01*
X135320166Y-114926940D01*
X135315360Y-114925324D01*
X135275589Y-114909641D01*
X135275592Y-114909641D01*
X135263628Y-114908411D01*
X135256892Y-114907718D01*
X135240314Y-114904567D01*
X135222228Y-114899500D01*
X135179478Y-114899500D01*
X135174414Y-114899240D01*
X135140061Y-114895709D01*
X135131890Y-114894869D01*
X135131889Y-114894869D01*
X135113375Y-114898061D01*
X135096556Y-114899500D01*
X132433677Y-114899500D01*
X132375486Y-114880593D01*
X132363673Y-114870504D01*
X131268169Y-113775000D01*
X141194540Y-113775000D01*
X141210813Y-113929835D01*
X141214327Y-113963261D01*
X141272819Y-114143279D01*
X141272825Y-114143293D01*
X141348015Y-114273525D01*
X141367467Y-114307216D01*
X141367469Y-114307218D01*
X141488886Y-114442066D01*
X141494129Y-114447888D01*
X141647270Y-114559151D01*
X141820197Y-114636144D01*
X142005354Y-114675500D01*
X142005357Y-114675500D01*
X142194643Y-114675500D01*
X142194646Y-114675500D01*
X142379803Y-114636144D01*
X142552730Y-114559151D01*
X142705871Y-114447888D01*
X142832533Y-114307216D01*
X142921313Y-114153444D01*
X142927174Y-114143293D01*
X142927174Y-114143291D01*
X142927179Y-114143284D01*
X142981626Y-113975713D01*
X154000000Y-113975713D01*
X154015418Y-114127335D01*
X154015419Y-114127337D01*
X154076302Y-114321387D01*
X154142650Y-114440926D01*
X154603704Y-113979871D01*
X154614835Y-114050148D01*
X154672359Y-114163045D01*
X154687866Y-114178552D01*
X154263786Y-114602632D01*
X154263786Y-114602634D01*
X154307482Y-114653533D01*
X154468306Y-114778019D01*
X154468308Y-114778020D01*
X154650902Y-114867586D01*
X154847795Y-114918566D01*
X155050914Y-114928866D01*
X155251941Y-114898069D01*
X155442666Y-114827433D01*
X155615263Y-114719853D01*
X155615265Y-114719851D01*
X155737364Y-114603786D01*
X155312132Y-114178554D01*
X155327641Y-114163045D01*
X155385165Y-114050148D01*
X155396295Y-113979873D01*
X155858488Y-114442066D01*
X155878856Y-114412805D01*
X155959060Y-114225905D01*
X155959061Y-114225902D01*
X155999999Y-114026696D01*
X156000000Y-114026688D01*
X156000000Y-113975713D01*
X166500000Y-113975713D01*
X166515418Y-114127335D01*
X166515419Y-114127337D01*
X166576302Y-114321387D01*
X166642650Y-114440926D01*
X167103704Y-113979871D01*
X167114835Y-114050148D01*
X167172359Y-114163045D01*
X167187866Y-114178552D01*
X166763786Y-114602632D01*
X166763786Y-114602634D01*
X166807482Y-114653533D01*
X166968306Y-114778019D01*
X166968308Y-114778020D01*
X167150902Y-114867586D01*
X167347795Y-114918566D01*
X167550914Y-114928866D01*
X167751941Y-114898069D01*
X167942666Y-114827433D01*
X168115263Y-114719853D01*
X168115265Y-114719851D01*
X168237364Y-114603786D01*
X167812132Y-114178553D01*
X167827641Y-114163045D01*
X167885165Y-114050148D01*
X167896295Y-113979873D01*
X168358488Y-114442066D01*
X168378856Y-114412805D01*
X168459060Y-114225905D01*
X168459061Y-114225902D01*
X168499999Y-114026696D01*
X168500000Y-114026688D01*
X168500000Y-113980505D01*
X171249500Y-113980505D01*
X171259756Y-114091191D01*
X171264885Y-114146536D01*
X171325771Y-114360528D01*
X171424942Y-114559689D01*
X171559019Y-114737236D01*
X171723438Y-114887124D01*
X171912599Y-115004247D01*
X172120060Y-115084618D01*
X172338757Y-115125500D01*
X172561243Y-115125500D01*
X172779940Y-115084618D01*
X172987401Y-115004247D01*
X173176562Y-114887124D01*
X173340981Y-114737236D01*
X173475058Y-114559689D01*
X173574229Y-114360528D01*
X173635115Y-114146536D01*
X173650500Y-113980505D01*
X183749500Y-113980505D01*
X183759756Y-114091191D01*
X183764885Y-114146536D01*
X183825771Y-114360528D01*
X183924942Y-114559689D01*
X184059019Y-114737236D01*
X184223438Y-114887124D01*
X184412599Y-115004247D01*
X184620060Y-115084618D01*
X184838757Y-115125500D01*
X185061243Y-115125500D01*
X185279940Y-115084618D01*
X185487401Y-115004247D01*
X185676562Y-114887124D01*
X185840981Y-114737236D01*
X185975058Y-114559689D01*
X186074229Y-114360528D01*
X186135115Y-114146536D01*
X186150500Y-113980503D01*
X186150500Y-113469497D01*
X186135115Y-113303464D01*
X186074229Y-113089472D01*
X185975058Y-112890311D01*
X185840981Y-112712764D01*
X185676562Y-112562876D01*
X185487401Y-112445753D01*
X185279940Y-112365382D01*
X185279939Y-112365381D01*
X185279937Y-112365381D01*
X185061243Y-112324500D01*
X184838757Y-112324500D01*
X184620062Y-112365381D01*
X184586733Y-112378293D01*
X184412599Y-112445753D01*
X184223438Y-112562876D01*
X184064672Y-112707611D01*
X184059019Y-112712764D01*
X184029906Y-112751316D01*
X183924943Y-112890309D01*
X183924938Y-112890318D01*
X183825772Y-113089469D01*
X183825771Y-113089472D01*
X183787468Y-113224094D01*
X183764885Y-113303464D01*
X183749500Y-113469494D01*
X183749500Y-113980505D01*
X173650500Y-113980505D01*
X173650500Y-113980503D01*
X173650500Y-113469497D01*
X173635115Y-113303464D01*
X173574229Y-113089472D01*
X173475058Y-112890311D01*
X173340981Y-112712764D01*
X173176562Y-112562876D01*
X172987401Y-112445753D01*
X172779940Y-112365382D01*
X172779939Y-112365381D01*
X172779937Y-112365381D01*
X172561243Y-112324500D01*
X172338757Y-112324500D01*
X172120062Y-112365381D01*
X172086733Y-112378293D01*
X171912599Y-112445753D01*
X171723438Y-112562875D01*
X171723438Y-112562876D01*
X171564672Y-112707611D01*
X171559019Y-112712764D01*
X171529906Y-112751316D01*
X171424943Y-112890309D01*
X171424938Y-112890318D01*
X171325772Y-113089469D01*
X171325771Y-113089472D01*
X171287468Y-113224094D01*
X171264885Y-113303464D01*
X171249500Y-113469494D01*
X171249500Y-113980505D01*
X168500000Y-113980505D01*
X168500000Y-113474286D01*
X168484581Y-113322664D01*
X168484580Y-113322662D01*
X168423696Y-113128608D01*
X168423695Y-113128607D01*
X168357348Y-113009072D01*
X167896294Y-113470125D01*
X167885165Y-113399852D01*
X167827641Y-113286955D01*
X167812131Y-113271444D01*
X168236212Y-112847364D01*
X168236212Y-112847363D01*
X168192524Y-112796472D01*
X168192520Y-112796468D01*
X168031693Y-112671980D01*
X168031691Y-112671979D01*
X167849097Y-112582413D01*
X167652204Y-112531433D01*
X167449085Y-112521133D01*
X167248058Y-112551930D01*
X167057333Y-112622566D01*
X166884735Y-112730147D01*
X166884734Y-112730148D01*
X166762634Y-112846212D01*
X167187868Y-113271446D01*
X167172359Y-113286955D01*
X167114835Y-113399852D01*
X167103704Y-113470126D01*
X166641510Y-113007932D01*
X166621143Y-113037196D01*
X166540939Y-113224094D01*
X166540938Y-113224097D01*
X166500000Y-113423303D01*
X166500000Y-113975713D01*
X156000000Y-113975713D01*
X156000000Y-113474286D01*
X155984581Y-113322664D01*
X155984580Y-113322662D01*
X155923696Y-113128608D01*
X155923695Y-113128607D01*
X155857348Y-113009072D01*
X155396294Y-113470125D01*
X155385165Y-113399852D01*
X155327641Y-113286955D01*
X155312131Y-113271445D01*
X155736212Y-112847364D01*
X155736212Y-112847363D01*
X155692524Y-112796472D01*
X155692520Y-112796468D01*
X155531693Y-112671980D01*
X155531691Y-112671979D01*
X155349097Y-112582413D01*
X155152204Y-112531433D01*
X154949085Y-112521133D01*
X154748058Y-112551930D01*
X154557333Y-112622566D01*
X154384735Y-112730147D01*
X154384734Y-112730148D01*
X154262634Y-112846212D01*
X154687868Y-113271446D01*
X154672359Y-113286955D01*
X154614835Y-113399852D01*
X154603704Y-113470126D01*
X154141510Y-113007932D01*
X154121143Y-113037196D01*
X154040939Y-113224094D01*
X154040938Y-113224097D01*
X154000000Y-113423303D01*
X154000000Y-113975713D01*
X142981626Y-113975713D01*
X142985674Y-113963256D01*
X143005460Y-113775000D01*
X142985674Y-113586744D01*
X142927179Y-113406716D01*
X142927176Y-113406711D01*
X142927174Y-113406706D01*
X142871208Y-113309771D01*
X142832533Y-113242784D01*
X142729728Y-113128608D01*
X142705875Y-113102116D01*
X142705870Y-113102111D01*
X142552731Y-112990850D01*
X142552732Y-112990850D01*
X142552730Y-112990849D01*
X142552725Y-112990847D01*
X142552722Y-112990845D01*
X142379805Y-112913857D01*
X142379803Y-112913856D01*
X142379800Y-112913855D01*
X142379799Y-112913855D01*
X142344580Y-112906369D01*
X142194646Y-112874500D01*
X142005354Y-112874500D01*
X141887288Y-112899595D01*
X141820200Y-112913855D01*
X141820194Y-112913857D01*
X141647277Y-112990845D01*
X141647268Y-112990850D01*
X141494129Y-113102111D01*
X141494124Y-113102116D01*
X141367469Y-113242781D01*
X141367465Y-113242787D01*
X141272825Y-113406706D01*
X141272819Y-113406720D01*
X141214327Y-113586738D01*
X141214326Y-113586742D01*
X141214326Y-113586744D01*
X141194540Y-113775000D01*
X131268169Y-113775000D01*
X129852940Y-112359771D01*
X129809757Y-112313532D01*
X129809755Y-112313531D01*
X129809754Y-112313530D01*
X129773229Y-112291319D01*
X129769039Y-112288467D01*
X129734973Y-112262634D01*
X129717492Y-112255740D01*
X129702381Y-112248235D01*
X129686325Y-112238472D01*
X129645166Y-112226940D01*
X129640360Y-112225324D01*
X129600589Y-112209641D01*
X129600592Y-112209641D01*
X129588577Y-112208406D01*
X129581892Y-112207718D01*
X129565314Y-112204567D01*
X129547228Y-112199500D01*
X129504478Y-112199500D01*
X129499414Y-112199240D01*
X129465061Y-112195709D01*
X129456890Y-112194869D01*
X129456889Y-112194869D01*
X129438375Y-112198061D01*
X129421556Y-112199500D01*
X127308985Y-112199500D01*
X127245755Y-112197340D01*
X127245748Y-112197340D01*
X127207612Y-112206634D01*
X127204224Y-112207460D01*
X127199245Y-112208406D01*
X127156893Y-112214228D01*
X127156885Y-112214230D01*
X127139653Y-112221714D01*
X127123666Y-112227090D01*
X127105414Y-112231539D01*
X127105403Y-112231543D01*
X127068140Y-112252494D01*
X127063600Y-112254749D01*
X127024388Y-112271781D01*
X127024387Y-112271782D01*
X127009813Y-112283639D01*
X126995862Y-112293135D01*
X126979488Y-112302341D01*
X126949260Y-112332569D01*
X126945497Y-112335965D01*
X126912337Y-112362943D01*
X126912330Y-112362951D01*
X126901500Y-112378293D01*
X126890627Y-112391202D01*
X125559771Y-113722058D01*
X125513530Y-113765245D01*
X125491318Y-113801770D01*
X125488466Y-113805960D01*
X125462636Y-113840024D01*
X125462635Y-113840026D01*
X125455741Y-113857506D01*
X125448237Y-113872615D01*
X125438473Y-113888673D01*
X125426939Y-113929835D01*
X125425323Y-113934641D01*
X125409641Y-113974407D01*
X125409640Y-113974413D01*
X125407718Y-113993103D01*
X125404569Y-114009676D01*
X125399500Y-114027771D01*
X125399500Y-114070521D01*
X125399240Y-114075585D01*
X125394869Y-114118110D01*
X125398061Y-114136625D01*
X125399500Y-114153444D01*
X125399500Y-116741727D01*
X125380593Y-116799918D01*
X125331093Y-116835882D01*
X125269907Y-116835882D01*
X125234851Y-116815830D01*
X125125853Y-116719267D01*
X125125852Y-116719266D01*
X124975225Y-116640210D01*
X124975224Y-116640209D01*
X124975223Y-116640209D01*
X124810058Y-116599500D01*
X124810056Y-116599500D01*
X124639944Y-116599500D01*
X124639941Y-116599500D01*
X124474776Y-116640209D01*
X124324146Y-116719267D01*
X124289904Y-116749603D01*
X124233810Y-116774038D01*
X124224255Y-116774500D01*
X123958985Y-116774500D01*
X123895756Y-116772340D01*
X123895751Y-116772340D01*
X123854223Y-116782460D01*
X123849242Y-116783406D01*
X123806888Y-116789228D01*
X123806885Y-116789229D01*
X123789655Y-116796714D01*
X123773656Y-116802095D01*
X123755407Y-116806542D01*
X123755399Y-116806545D01*
X123718148Y-116827491D01*
X123713607Y-116829746D01*
X123674392Y-116846780D01*
X123659807Y-116858645D01*
X123645858Y-116868138D01*
X123629486Y-116877343D01*
X123599260Y-116907569D01*
X123595497Y-116910965D01*
X123562337Y-116937943D01*
X123562330Y-116937951D01*
X123551500Y-116953293D01*
X123540627Y-116966202D01*
X121134771Y-119372058D01*
X121088530Y-119415245D01*
X121066318Y-119451770D01*
X121063466Y-119455960D01*
X121037636Y-119490024D01*
X121037635Y-119490026D01*
X121030741Y-119507506D01*
X121023237Y-119522615D01*
X121013473Y-119538673D01*
X121001939Y-119579835D01*
X121000323Y-119584641D01*
X120984641Y-119624407D01*
X120984640Y-119624413D01*
X120982718Y-119643103D01*
X120979569Y-119659676D01*
X120974500Y-119677771D01*
X120974500Y-119720521D01*
X120974240Y-119725585D01*
X120969869Y-119768110D01*
X120973061Y-119786625D01*
X120974500Y-119803444D01*
X120974500Y-130229500D01*
X120955593Y-130287691D01*
X120906093Y-130323654D01*
X120831720Y-130347819D01*
X120831706Y-130347825D01*
X120667787Y-130442465D01*
X120667781Y-130442469D01*
X120527116Y-130569124D01*
X120527115Y-130569125D01*
X120527112Y-130569128D01*
X120527112Y-130569129D01*
X120494171Y-130614469D01*
X120451472Y-130673239D01*
X120401971Y-130709203D01*
X120340786Y-130709203D01*
X120297277Y-130680698D01*
X120267596Y-130647195D01*
X120267594Y-130647194D01*
X120127693Y-130550628D01*
X120127690Y-130550626D01*
X119968758Y-130490351D01*
X119968748Y-130490348D01*
X119842351Y-130475000D01*
X119600001Y-130475000D01*
X119600000Y-130475001D01*
X119600000Y-130975000D01*
X119400000Y-130975000D01*
X119400000Y-130475001D01*
X119399999Y-130475000D01*
X119157648Y-130475000D01*
X119031251Y-130490348D01*
X119031241Y-130490351D01*
X118872309Y-130550626D01*
X118872306Y-130550628D01*
X118732405Y-130647194D01*
X118732402Y-130647196D01*
X118702721Y-130680699D01*
X118649981Y-130711716D01*
X118589081Y-130705810D01*
X118548527Y-130673238D01*
X118529606Y-130647196D01*
X118472888Y-130569129D01*
X118472884Y-130569125D01*
X118472883Y-130569124D01*
X118332218Y-130442469D01*
X118332216Y-130442467D01*
X118298525Y-130423015D01*
X118168293Y-130347825D01*
X118168279Y-130347819D01*
X117988261Y-130289327D01*
X117988258Y-130289326D01*
X117988256Y-130289326D01*
X117872773Y-130277188D01*
X117847193Y-130274500D01*
X117847192Y-130274500D01*
X117152808Y-130274500D01*
X117152806Y-130274500D01*
X117101644Y-130279877D01*
X117011744Y-130289326D01*
X117011742Y-130289326D01*
X117011738Y-130289327D01*
X116831720Y-130347819D01*
X116831706Y-130347825D01*
X116667787Y-130442465D01*
X116667786Y-130442465D01*
X116566244Y-130533894D01*
X116510348Y-130558780D01*
X116450500Y-130546058D01*
X116433756Y-130533894D01*
X116385396Y-130490351D01*
X116332216Y-130442467D01*
X116298525Y-130423015D01*
X116168293Y-130347825D01*
X116168288Y-130347823D01*
X116168286Y-130347822D01*
X116168284Y-130347821D01*
X116093902Y-130323652D01*
X116044406Y-130287691D01*
X116025500Y-130229503D01*
X116025500Y-120908676D01*
X116044407Y-120850486D01*
X116054496Y-120838673D01*
X118213673Y-118679496D01*
X118268190Y-118651719D01*
X118283677Y-118650500D01*
X119674255Y-118650500D01*
X119732446Y-118669407D01*
X119739904Y-118675397D01*
X119774148Y-118705734D01*
X119924775Y-118784790D01*
X120089944Y-118825500D01*
X120089947Y-118825500D01*
X120260053Y-118825500D01*
X120260056Y-118825500D01*
X120425225Y-118784790D01*
X120575852Y-118705734D01*
X120703183Y-118592929D01*
X120799818Y-118452930D01*
X120860140Y-118293872D01*
X120880645Y-118125000D01*
X120860140Y-117956128D01*
X120799818Y-117797070D01*
X120703183Y-117657071D01*
X120699417Y-117653735D01*
X120618295Y-117581867D01*
X120575852Y-117544266D01*
X120425225Y-117465210D01*
X120425224Y-117465209D01*
X120425223Y-117465209D01*
X120260058Y-117424500D01*
X120260056Y-117424500D01*
X120089944Y-117424500D01*
X120089941Y-117424500D01*
X119924776Y-117465209D01*
X119774146Y-117544267D01*
X119739904Y-117574603D01*
X119683810Y-117599038D01*
X119674255Y-117599500D01*
X118033985Y-117599500D01*
X117970756Y-117597340D01*
X117970751Y-117597340D01*
X117929223Y-117607460D01*
X117924242Y-117608406D01*
X117881888Y-117614228D01*
X117881885Y-117614229D01*
X117864655Y-117621714D01*
X117848656Y-117627095D01*
X117830407Y-117631542D01*
X117830399Y-117631545D01*
X117793148Y-117652491D01*
X117788607Y-117654746D01*
X117749392Y-117671780D01*
X117734807Y-117683645D01*
X117720858Y-117693138D01*
X117704486Y-117702343D01*
X117674260Y-117732569D01*
X117670497Y-117735965D01*
X117637337Y-117762943D01*
X117637330Y-117762951D01*
X117626500Y-117778293D01*
X117615627Y-117791202D01*
X115134771Y-120272058D01*
X115088530Y-120315245D01*
X115066318Y-120351770D01*
X115063466Y-120355960D01*
X115037636Y-120390024D01*
X115037635Y-120390026D01*
X115030741Y-120407506D01*
X115023237Y-120422615D01*
X115013473Y-120438673D01*
X115001939Y-120479835D01*
X115000323Y-120484641D01*
X114984641Y-120524407D01*
X114984640Y-120524413D01*
X114982718Y-120543103D01*
X114979569Y-120559676D01*
X114974500Y-120577771D01*
X114974500Y-120620521D01*
X114974240Y-120625585D01*
X114969869Y-120668110D01*
X114973061Y-120686625D01*
X114974500Y-120703444D01*
X114974499Y-130229500D01*
X114955592Y-130287691D01*
X114906092Y-130323654D01*
X114831720Y-130347819D01*
X114831706Y-130347825D01*
X114667787Y-130442465D01*
X114667781Y-130442469D01*
X114527116Y-130569124D01*
X114527115Y-130569125D01*
X114527112Y-130569128D01*
X114527112Y-130569129D01*
X114494171Y-130614469D01*
X114451472Y-130673239D01*
X114401971Y-130709203D01*
X114340786Y-130709203D01*
X114297277Y-130680698D01*
X114267596Y-130647195D01*
X114267594Y-130647194D01*
X114127693Y-130550628D01*
X114127690Y-130550626D01*
X113968758Y-130490351D01*
X113968748Y-130490348D01*
X113842351Y-130475000D01*
X113600001Y-130475000D01*
X113599999Y-130475001D01*
X113599999Y-130975000D01*
X113400000Y-130975000D01*
X113400000Y-130475001D01*
X113399999Y-130475000D01*
X113157648Y-130475000D01*
X113031251Y-130490348D01*
X113031241Y-130490351D01*
X112872309Y-130550626D01*
X112872306Y-130550628D01*
X112732405Y-130647194D01*
X112732402Y-130647196D01*
X112702721Y-130680699D01*
X112649981Y-130711716D01*
X112589081Y-130705810D01*
X112548527Y-130673238D01*
X112529606Y-130647196D01*
X112472888Y-130569129D01*
X112472884Y-130569125D01*
X112472883Y-130569124D01*
X112332218Y-130442469D01*
X112332216Y-130442467D01*
X112298525Y-130423015D01*
X112168293Y-130347825D01*
X112168279Y-130347819D01*
X111988261Y-130289327D01*
X111988258Y-130289326D01*
X111988256Y-130289326D01*
X111872773Y-130277188D01*
X111847193Y-130274500D01*
X111847192Y-130274500D01*
X111152808Y-130274500D01*
X111152806Y-130274500D01*
X111101644Y-130279877D01*
X111011744Y-130289326D01*
X111011742Y-130289326D01*
X111011738Y-130289327D01*
X110831720Y-130347819D01*
X110831706Y-130347825D01*
X110667787Y-130442465D01*
X110667781Y-130442469D01*
X110527116Y-130569124D01*
X110527111Y-130569129D01*
X110415850Y-130722268D01*
X110415845Y-130722277D01*
X110338857Y-130895194D01*
X110338855Y-130895200D01*
X110332882Y-130923303D01*
X110299500Y-131080354D01*
X110299500Y-131269646D01*
X110331898Y-131422070D01*
X110338855Y-131454799D01*
X110338857Y-131454805D01*
X110395100Y-131581129D01*
X110415849Y-131627730D01*
X110441507Y-131663045D01*
X110527111Y-131780870D01*
X110527116Y-131780875D01*
X110607495Y-131853249D01*
X110667784Y-131907533D01*
X110727597Y-131942066D01*
X110831706Y-132002174D01*
X110831711Y-132002176D01*
X110831716Y-132002179D01*
X111011744Y-132060674D01*
X111152808Y-132075500D01*
X111152811Y-132075500D01*
X111847189Y-132075500D01*
X111847192Y-132075500D01*
X111988256Y-132060674D01*
X112168284Y-132002179D01*
X112332216Y-131907533D01*
X112472888Y-131780871D01*
X112548529Y-131676759D01*
X112598027Y-131640797D01*
X112659212Y-131640796D01*
X112702722Y-131669301D01*
X112732403Y-131702804D01*
X112732405Y-131702805D01*
X112872306Y-131799371D01*
X112872309Y-131799373D01*
X113031241Y-131859648D01*
X113031251Y-131859651D01*
X113157648Y-131874999D01*
X113157665Y-131875000D01*
X113399999Y-131875000D01*
X113400000Y-131874999D01*
X113400000Y-131375000D01*
X113599999Y-131375000D01*
X113599999Y-131874999D01*
X113600001Y-131875000D01*
X113842335Y-131875000D01*
X113842351Y-131874999D01*
X113968748Y-131859651D01*
X113968758Y-131859648D01*
X114127690Y-131799373D01*
X114127693Y-131799371D01*
X114267594Y-131702805D01*
X114267595Y-131702805D01*
X114297276Y-131669302D01*
X114350016Y-131638284D01*
X114410915Y-131644188D01*
X114451470Y-131676758D01*
X114527112Y-131780871D01*
X114527115Y-131780873D01*
X114527116Y-131780875D01*
X114607496Y-131853249D01*
X114667784Y-131907533D01*
X114727597Y-131942066D01*
X114831706Y-132002174D01*
X114831711Y-132002176D01*
X114831716Y-132002179D01*
X115011744Y-132060674D01*
X115152808Y-132075500D01*
X115152811Y-132075500D01*
X115847189Y-132075500D01*
X115847192Y-132075500D01*
X115988256Y-132060674D01*
X116168284Y-132002179D01*
X116332216Y-131907533D01*
X116433757Y-131816104D01*
X116489651Y-131791218D01*
X116549500Y-131803939D01*
X116566239Y-131816102D01*
X116667784Y-131907533D01*
X116727597Y-131942066D01*
X116831706Y-132002174D01*
X116831711Y-132002176D01*
X116831716Y-132002179D01*
X117011744Y-132060674D01*
X117152808Y-132075500D01*
X117152811Y-132075500D01*
X117847189Y-132075500D01*
X117847192Y-132075500D01*
X117988256Y-132060674D01*
X118168284Y-132002179D01*
X118332216Y-131907533D01*
X118472888Y-131780871D01*
X118548529Y-131676759D01*
X118598027Y-131640797D01*
X118659212Y-131640796D01*
X118702722Y-131669301D01*
X118732403Y-131702804D01*
X118732405Y-131702805D01*
X118872306Y-131799371D01*
X118872309Y-131799373D01*
X119031241Y-131859648D01*
X119031251Y-131859651D01*
X119157648Y-131874999D01*
X119157665Y-131875000D01*
X119399999Y-131875000D01*
X119400000Y-131874999D01*
X119400000Y-131375000D01*
X119600000Y-131375000D01*
X119600000Y-131874999D01*
X119600001Y-131875000D01*
X119842335Y-131875000D01*
X119842351Y-131874999D01*
X119968748Y-131859651D01*
X119968758Y-131859648D01*
X120127690Y-131799373D01*
X120127693Y-131799371D01*
X120267594Y-131702805D01*
X120267595Y-131702805D01*
X120297276Y-131669302D01*
X120350016Y-131638284D01*
X120410915Y-131644188D01*
X120451470Y-131676758D01*
X120527112Y-131780871D01*
X120527115Y-131780873D01*
X120527116Y-131780875D01*
X120607496Y-131853249D01*
X120667784Y-131907533D01*
X120727597Y-131942066D01*
X120831706Y-132002174D01*
X120831711Y-132002176D01*
X120831716Y-132002179D01*
X121011744Y-132060674D01*
X121152808Y-132075500D01*
X121152811Y-132075500D01*
X121847189Y-132075500D01*
X121847192Y-132075500D01*
X121988256Y-132060674D01*
X122168284Y-132002179D01*
X122332216Y-131907533D01*
X122472888Y-131780871D01*
X122584151Y-131627730D01*
X122661144Y-131454803D01*
X122700500Y-131269646D01*
X122700500Y-131080354D01*
X122661144Y-130895197D01*
X122584151Y-130722270D01*
X122472888Y-130569129D01*
X122472884Y-130569125D01*
X122472883Y-130569124D01*
X122332218Y-130442469D01*
X122332216Y-130442467D01*
X122298525Y-130423015D01*
X122168293Y-130347825D01*
X122168279Y-130347819D01*
X122093907Y-130323654D01*
X122044407Y-130287690D01*
X122025500Y-130229500D01*
X122025500Y-125668931D01*
X122995668Y-125668931D01*
X123026133Y-125841707D01*
X123095622Y-126002802D01*
X123095623Y-126002804D01*
X123200389Y-126143529D01*
X123200391Y-126143531D01*
X123334783Y-126256300D01*
X123334784Y-126256300D01*
X123334786Y-126256302D01*
X123491567Y-126335040D01*
X123491572Y-126335041D01*
X123491576Y-126335043D01*
X123662277Y-126375500D01*
X123662279Y-126375500D01*
X123793704Y-126375500D01*
X123793709Y-126375500D01*
X123924255Y-126360241D01*
X124089117Y-126300237D01*
X124235696Y-126203830D01*
X124356092Y-126076218D01*
X124443812Y-125924281D01*
X124494130Y-125756210D01*
X124504331Y-125581065D01*
X124473865Y-125408289D01*
X124404377Y-125247196D01*
X124299610Y-125106470D01*
X124264406Y-125076930D01*
X124165216Y-124993699D01*
X124125890Y-124973949D01*
X124008433Y-124914960D01*
X124008429Y-124914959D01*
X124008423Y-124914956D01*
X123837723Y-124874500D01*
X123837721Y-124874500D01*
X123706291Y-124874500D01*
X123575745Y-124889759D01*
X123575742Y-124889759D01*
X123575741Y-124889760D01*
X123410883Y-124949762D01*
X123264306Y-125046168D01*
X123264303Y-125046170D01*
X123143909Y-125173780D01*
X123143908Y-125173780D01*
X123056188Y-125325719D01*
X123005870Y-125493786D01*
X123005869Y-125493793D01*
X122995668Y-125668931D01*
X122025500Y-125668931D01*
X122025500Y-120008677D01*
X122044407Y-119950486D01*
X122054496Y-119938673D01*
X124138673Y-117854496D01*
X124193190Y-117826719D01*
X124208677Y-117825500D01*
X124224255Y-117825500D01*
X124282446Y-117844407D01*
X124289904Y-117850397D01*
X124324148Y-117880734D01*
X124474775Y-117959790D01*
X124639944Y-118000500D01*
X124639947Y-118000500D01*
X124717322Y-118000500D01*
X124775513Y-118019407D01*
X124811477Y-118068907D01*
X124811477Y-118130093D01*
X124787326Y-118169502D01*
X124713161Y-118243669D01*
X124534771Y-118422058D01*
X124488530Y-118465245D01*
X124466318Y-118501770D01*
X124463466Y-118505960D01*
X124437636Y-118540024D01*
X124437635Y-118540026D01*
X124430741Y-118557506D01*
X124423237Y-118572615D01*
X124413473Y-118588673D01*
X124401939Y-118629835D01*
X124400323Y-118634641D01*
X124384641Y-118674407D01*
X124384640Y-118674413D01*
X124382718Y-118693103D01*
X124379569Y-118709676D01*
X124374500Y-118727771D01*
X124374500Y-118770521D01*
X124374240Y-118775585D01*
X124369869Y-118818110D01*
X124373061Y-118836625D01*
X124374500Y-118853444D01*
X124374500Y-119047333D01*
X124356976Y-119103571D01*
X124275181Y-119222070D01*
X124251545Y-119284396D01*
X124218300Y-119372059D01*
X124214860Y-119381129D01*
X124194355Y-119549998D01*
X124194355Y-119550001D01*
X124196805Y-119570181D01*
X124214860Y-119718872D01*
X124275182Y-119877930D01*
X124362373Y-120004247D01*
X124371816Y-120017927D01*
X124371818Y-120017930D01*
X124395360Y-120038786D01*
X124499148Y-120130734D01*
X124649775Y-120209790D01*
X124814944Y-120250500D01*
X124814947Y-120250500D01*
X124985053Y-120250500D01*
X124985056Y-120250500D01*
X125150225Y-120209790D01*
X125183344Y-120192407D01*
X125243653Y-120182107D01*
X125298502Y-120209223D01*
X125326937Y-120263399D01*
X125327628Y-120268134D01*
X125328105Y-120272059D01*
X125339860Y-120368872D01*
X125400182Y-120527930D01*
X125496816Y-120667927D01*
X125496818Y-120667930D01*
X125527340Y-120694970D01*
X125624148Y-120780734D01*
X125774775Y-120859790D01*
X125939944Y-120900500D01*
X125939947Y-120900500D01*
X126110053Y-120900500D01*
X126110056Y-120900500D01*
X126275225Y-120859790D01*
X126425852Y-120780734D01*
X126553183Y-120667929D01*
X126649818Y-120527930D01*
X126710140Y-120368872D01*
X126730645Y-120200000D01*
X126710140Y-120031128D01*
X126649818Y-119872070D01*
X126638735Y-119856014D01*
X126568024Y-119753571D01*
X126550500Y-119697340D01*
X126550500Y-119683680D01*
X126569402Y-119625492D01*
X126579496Y-119613673D01*
X126880997Y-119312173D01*
X126935513Y-119284396D01*
X126995945Y-119293967D01*
X127039210Y-119337232D01*
X127050000Y-119382177D01*
X127050000Y-121450000D01*
X127050000Y-124250000D01*
X127438935Y-124570299D01*
X127471835Y-124621886D01*
X127475000Y-124646720D01*
X127475000Y-125750000D01*
X127475000Y-130300000D01*
X128550000Y-131300000D01*
X128550001Y-131300000D01*
X130124999Y-131300000D01*
X130125000Y-131300000D01*
X130125000Y-131065903D01*
X130143907Y-131007713D01*
X130193407Y-130971749D01*
X130254593Y-130971749D01*
X130304093Y-131007713D01*
X130307826Y-131013233D01*
X130340921Y-131065904D01*
X130395184Y-131152262D01*
X130522738Y-131279816D01*
X130522740Y-131279817D01*
X130522741Y-131279818D01*
X130650074Y-131359827D01*
X130675478Y-131375789D01*
X130743657Y-131399646D01*
X130845738Y-131435366D01*
X130845742Y-131435367D01*
X130845745Y-131435368D01*
X131025000Y-131455565D01*
X131204255Y-131435368D01*
X131374522Y-131375789D01*
X131527262Y-131279816D01*
X131527583Y-131279494D01*
X131527807Y-131279380D01*
X131531605Y-131276352D01*
X131532225Y-131277129D01*
X131582098Y-131251719D01*
X131597585Y-131250500D01*
X133032391Y-131250500D01*
X133038859Y-131250924D01*
X133074999Y-131255682D01*
X133075000Y-131255682D01*
X133075001Y-131255682D01*
X133115698Y-131250324D01*
X133231762Y-131235044D01*
X133377841Y-131174536D01*
X133406869Y-131152262D01*
X133466883Y-131106211D01*
X133503280Y-131078284D01*
X133503280Y-131078283D01*
X133503282Y-131078282D01*
X133525475Y-131049357D01*
X133529744Y-131044490D01*
X134769490Y-129804744D01*
X134774357Y-129800475D01*
X134803282Y-129778282D01*
X134803688Y-129777754D01*
X134875438Y-129684246D01*
X134899536Y-129652841D01*
X134960044Y-129506762D01*
X134975500Y-129389361D01*
X134980682Y-129350000D01*
X134977468Y-129325590D01*
X134975924Y-129313858D01*
X134975500Y-129307390D01*
X134975500Y-127967608D01*
X134975924Y-127961140D01*
X134980682Y-127925000D01*
X134980682Y-127924999D01*
X134966523Y-127817454D01*
X134960044Y-127768238D01*
X134953576Y-127752623D01*
X134899537Y-127622161D01*
X134899534Y-127622156D01*
X134882436Y-127599874D01*
X134865462Y-127577753D01*
X134803282Y-127496718D01*
X134803277Y-127496714D01*
X134803276Y-127496713D01*
X134774365Y-127474529D01*
X134769491Y-127470255D01*
X134324237Y-127025001D01*
X137494859Y-127025001D01*
X137515348Y-127193749D01*
X137515351Y-127193758D01*
X137575626Y-127352688D01*
X137575630Y-127352696D01*
X137639029Y-127444547D01*
X137891245Y-127192331D01*
X137938936Y-127265327D01*
X138030121Y-127336299D01*
X137779108Y-127587313D01*
X137799434Y-127605319D01*
X137799438Y-127605322D01*
X137949952Y-127684317D01*
X137949955Y-127684318D01*
X138115002Y-127724999D01*
X138115008Y-127725000D01*
X138284992Y-127725000D01*
X138284997Y-127724999D01*
X138450044Y-127684318D01*
X138450047Y-127684317D01*
X138600565Y-127605320D01*
X138600566Y-127605319D01*
X138620890Y-127587313D01*
X138620890Y-127587312D01*
X138366460Y-127332881D01*
X138417947Y-127305019D01*
X138497060Y-127219079D01*
X138508780Y-127192357D01*
X138760969Y-127444546D01*
X138824371Y-127352693D01*
X138824373Y-127352690D01*
X138884648Y-127193758D01*
X138884651Y-127193749D01*
X138905141Y-127025001D01*
X138905141Y-127024998D01*
X138884651Y-126856250D01*
X138884648Y-126856241D01*
X138824371Y-126697305D01*
X138824371Y-126697304D01*
X138760970Y-126605451D01*
X138760969Y-126605451D01*
X138508753Y-126857666D01*
X138461064Y-126784673D01*
X138369876Y-126713700D01*
X138620891Y-126462686D01*
X138600564Y-126444678D01*
X138450042Y-126365680D01*
X138284997Y-126325000D01*
X138115002Y-126325000D01*
X137949955Y-126365681D01*
X137949952Y-126365682D01*
X137799439Y-126444676D01*
X137799430Y-126444682D01*
X137779108Y-126462685D01*
X138033540Y-126717117D01*
X137982053Y-126744981D01*
X137902940Y-126830921D01*
X137891219Y-126857642D01*
X137639028Y-126605451D01*
X137575632Y-126697298D01*
X137575626Y-126697311D01*
X137515351Y-126856241D01*
X137515348Y-126856250D01*
X137494859Y-127024998D01*
X137494859Y-127025001D01*
X134324237Y-127025001D01*
X131718739Y-124419504D01*
X131690962Y-124364987D01*
X131700533Y-124304555D01*
X131743798Y-124261290D01*
X131788743Y-124250500D01*
X134677415Y-124250500D01*
X134735606Y-124269407D01*
X134747412Y-124279490D01*
X134747738Y-124279816D01*
X134747740Y-124279817D01*
X134747741Y-124279818D01*
X134883286Y-124364987D01*
X134900478Y-124375789D01*
X134953765Y-124394435D01*
X135070738Y-124435366D01*
X135070742Y-124435367D01*
X135070745Y-124435368D01*
X135250000Y-124455565D01*
X135429255Y-124435368D01*
X135599522Y-124375789D01*
X135752262Y-124279816D01*
X135879816Y-124152262D01*
X135975789Y-123999522D01*
X136035368Y-123829255D01*
X136055565Y-123650000D01*
X136035368Y-123470745D01*
X136028076Y-123449907D01*
X136002133Y-123375764D01*
X135975789Y-123300478D01*
X135944472Y-123250638D01*
X135879818Y-123147741D01*
X135879817Y-123147740D01*
X135879816Y-123147738D01*
X135752262Y-123020184D01*
X135752259Y-123020182D01*
X135752258Y-123020181D01*
X135599523Y-122924211D01*
X135429261Y-122864633D01*
X135429257Y-122864632D01*
X135250000Y-122844435D01*
X135070742Y-122864632D01*
X135070738Y-122864633D01*
X134900477Y-122924211D01*
X134900476Y-122924211D01*
X134747741Y-123020181D01*
X134747738Y-123020183D01*
X134747738Y-123020184D01*
X134747416Y-123020505D01*
X134747192Y-123020619D01*
X134743395Y-123023648D01*
X134742774Y-123022870D01*
X134692902Y-123048281D01*
X134677415Y-123049500D01*
X131292609Y-123049500D01*
X131286141Y-123049076D01*
X131250001Y-123044318D01*
X131250000Y-123044318D01*
X131210639Y-123049500D01*
X131093241Y-123064955D01*
X131093233Y-123064957D01*
X130947161Y-123125462D01*
X130947160Y-123125462D01*
X130821723Y-123221713D01*
X130821717Y-123221719D01*
X130799525Y-123250638D01*
X130795253Y-123255510D01*
X130745003Y-123305760D01*
X130690486Y-123333537D01*
X130630054Y-123323966D01*
X130604998Y-123305762D01*
X129054494Y-121755259D01*
X129026718Y-121700743D01*
X129025499Y-121685268D01*
X129025499Y-117397584D01*
X129044406Y-117339394D01*
X129054498Y-117327579D01*
X129054816Y-117327262D01*
X129122952Y-117218823D01*
X129150787Y-117174526D01*
X129150787Y-117174524D01*
X129150789Y-117174522D01*
X129210368Y-117004255D01*
X129230565Y-116825000D01*
X129210368Y-116645745D01*
X129208431Y-116640210D01*
X129173237Y-116539632D01*
X129150789Y-116475478D01*
X129054816Y-116322738D01*
X128927262Y-116195184D01*
X128927259Y-116195182D01*
X128927258Y-116195181D01*
X128774523Y-116099211D01*
X128604261Y-116039633D01*
X128604257Y-116039632D01*
X128425000Y-116019435D01*
X128245742Y-116039632D01*
X128245738Y-116039633D01*
X128075477Y-116099211D01*
X128075471Y-116099214D01*
X128026669Y-116129878D01*
X127967338Y-116144828D01*
X127910552Y-116122048D01*
X127878000Y-116070241D01*
X127874999Y-116046052D01*
X127875000Y-115945433D01*
X127874999Y-115749000D01*
X127893908Y-115690809D01*
X127943408Y-115654845D01*
X127974000Y-115650000D01*
X128724999Y-115650000D01*
X128725000Y-115650000D01*
X128725000Y-114707176D01*
X128743907Y-114648985D01*
X128793407Y-114613021D01*
X128854593Y-114613021D01*
X128894001Y-114637170D01*
X131261086Y-117004255D01*
X133622059Y-119365228D01*
X133665241Y-119411466D01*
X133665243Y-119411467D01*
X133665245Y-119411469D01*
X133701769Y-119433679D01*
X133705957Y-119436530D01*
X133726054Y-119451770D01*
X133740025Y-119462364D01*
X133740026Y-119462364D01*
X133740027Y-119462365D01*
X133757499Y-119469255D01*
X133772618Y-119476764D01*
X133788668Y-119486524D01*
X133788670Y-119486525D01*
X133788672Y-119486526D01*
X133829837Y-119498059D01*
X133834630Y-119499671D01*
X133874411Y-119515359D01*
X133893091Y-119517279D01*
X133909682Y-119520432D01*
X133927768Y-119525499D01*
X133927770Y-119525500D01*
X133927772Y-119525500D01*
X133970522Y-119525500D01*
X133975586Y-119525760D01*
X133987059Y-119526939D01*
X134018110Y-119530131D01*
X134033316Y-119527509D01*
X134036625Y-119526939D01*
X134053444Y-119525500D01*
X141695129Y-119525500D01*
X141753320Y-119544407D01*
X141789284Y-119593907D01*
X141789284Y-119655093D01*
X141753320Y-119704593D01*
X141739257Y-119713121D01*
X141665318Y-119749938D01*
X141665309Y-119749943D01*
X141545326Y-119840549D01*
X141495829Y-119877929D01*
X141487763Y-119884020D01*
X141365689Y-120017929D01*
X141337876Y-120048438D01*
X141220753Y-120237599D01*
X141207403Y-120272059D01*
X141140381Y-120445062D01*
X141099500Y-120663757D01*
X141099500Y-120886242D01*
X141136948Y-121086573D01*
X141140382Y-121104940D01*
X141220753Y-121312401D01*
X141337876Y-121501562D01*
X141473662Y-121650512D01*
X141498892Y-121706252D01*
X141499500Y-121717207D01*
X141499500Y-126226248D01*
X141480593Y-126284439D01*
X141431093Y-126320403D01*
X141369907Y-126320403D01*
X141332182Y-126297898D01*
X141183378Y-126156014D01*
X141006572Y-126042387D01*
X141006569Y-126042386D01*
X141006568Y-126042385D01*
X140941713Y-126016421D01*
X140811457Y-125964275D01*
X140605085Y-125924500D01*
X140447575Y-125924500D01*
X140290781Y-125939472D01*
X140089120Y-125998685D01*
X139902320Y-126094987D01*
X139902317Y-126094989D01*
X139737113Y-126224907D01*
X139599480Y-126383744D01*
X139494397Y-126565753D01*
X139494394Y-126565760D01*
X139425657Y-126764362D01*
X139425655Y-126764368D01*
X139395746Y-126972393D01*
X139395746Y-126972400D01*
X139405746Y-127182330D01*
X139405747Y-127182337D01*
X139455295Y-127386573D01*
X139455300Y-127386586D01*
X139542602Y-127577751D01*
X139542604Y-127577754D01*
X139664511Y-127748949D01*
X139664513Y-127748951D01*
X139664514Y-127748952D01*
X139816622Y-127893986D01*
X139993428Y-128007613D01*
X140188543Y-128085725D01*
X140394915Y-128125500D01*
X140394918Y-128125500D01*
X140552425Y-128125500D01*
X140709218Y-128110528D01*
X140910875Y-128051316D01*
X141097682Y-127955011D01*
X141262886Y-127825092D01*
X141325681Y-127752622D01*
X141378077Y-127721027D01*
X141439038Y-127726263D01*
X141485279Y-127766331D01*
X141499500Y-127817454D01*
X141499500Y-132332792D01*
X141480593Y-132390983D01*
X141473662Y-132399488D01*
X141462144Y-132412123D01*
X141337876Y-132548438D01*
X141220753Y-132737599D01*
X141185759Y-132827929D01*
X141140381Y-132945062D01*
X141107157Y-133122797D01*
X141099500Y-133163757D01*
X141099500Y-133386243D01*
X141106806Y-133425324D01*
X141137813Y-133591202D01*
X141140382Y-133604940D01*
X141220753Y-133812401D01*
X141337876Y-134001562D01*
X141487764Y-134165981D01*
X141665311Y-134300058D01*
X141733338Y-134333931D01*
X141739257Y-134336879D01*
X141782920Y-134379742D01*
X141793049Y-134440083D01*
X141765776Y-134494854D01*
X141711519Y-134523134D01*
X141695129Y-134524500D01*
X130233678Y-134524500D01*
X130175487Y-134505593D01*
X130163674Y-134495504D01*
X127052940Y-131384771D01*
X127009757Y-131338532D01*
X127009755Y-131338531D01*
X126973232Y-131316321D01*
X126969039Y-131313467D01*
X126934973Y-131287634D01*
X126917492Y-131280740D01*
X126902381Y-131273235D01*
X126886325Y-131263472D01*
X126845166Y-131251940D01*
X126840360Y-131250324D01*
X126800589Y-131234641D01*
X126800592Y-131234641D01*
X126788628Y-131233411D01*
X126781892Y-131232718D01*
X126765314Y-131229567D01*
X126747228Y-131224500D01*
X126704478Y-131224500D01*
X126699414Y-131224240D01*
X126664478Y-131220649D01*
X126656890Y-131219869D01*
X126656889Y-131219869D01*
X126638375Y-131223061D01*
X126621556Y-131224500D01*
X124750745Y-131224500D01*
X124692554Y-131205593D01*
X124685096Y-131199603D01*
X124656801Y-131174536D01*
X124650852Y-131169266D01*
X124500225Y-131090210D01*
X124500224Y-131090209D01*
X124500223Y-131090209D01*
X124335058Y-131049500D01*
X124335056Y-131049500D01*
X124164944Y-131049500D01*
X124164941Y-131049500D01*
X123999776Y-131090209D01*
X123849146Y-131169267D01*
X123721818Y-131282069D01*
X123721816Y-131282072D01*
X123663594Y-131366421D01*
X123625182Y-131422070D01*
X123593541Y-131505503D01*
X123564860Y-131581129D01*
X123545138Y-131743554D01*
X123544355Y-131750000D01*
X123564860Y-131918872D01*
X123625182Y-132077930D01*
X123721817Y-132217929D01*
X123849148Y-132330734D01*
X123999775Y-132409790D01*
X124164944Y-132450500D01*
X124200638Y-132450500D01*
X124258829Y-132469407D01*
X124294793Y-132518907D01*
X124298916Y-132537566D01*
X124304370Y-132582479D01*
X124314860Y-132668872D01*
X124374797Y-132826913D01*
X124375182Y-132827929D01*
X124375184Y-132827934D01*
X124456975Y-132946428D01*
X124474500Y-133002666D01*
X124474500Y-134891015D01*
X124472340Y-134954244D01*
X124472340Y-134954250D01*
X124482458Y-134995766D01*
X124483405Y-135000749D01*
X124489228Y-135043109D01*
X124496715Y-135060346D01*
X124502094Y-135076341D01*
X124504208Y-135085013D01*
X124506543Y-135094594D01*
X124506545Y-135094597D01*
X124527490Y-135131848D01*
X124529746Y-135136390D01*
X124546781Y-135175610D01*
X124558636Y-135190181D01*
X124568135Y-135204137D01*
X124577341Y-135220511D01*
X124607576Y-135250747D01*
X124610973Y-135254511D01*
X124637948Y-135287667D01*
X124653284Y-135298492D01*
X124666199Y-135309369D01*
X126622059Y-137265228D01*
X126665241Y-137311466D01*
X126665243Y-137311467D01*
X126665245Y-137311469D01*
X126701769Y-137333679D01*
X126705957Y-137336530D01*
X126724348Y-137350476D01*
X126740025Y-137362364D01*
X126740026Y-137362364D01*
X126740027Y-137362365D01*
X126757499Y-137369255D01*
X126772618Y-137376764D01*
X126788668Y-137386524D01*
X126788670Y-137386525D01*
X126788672Y-137386526D01*
X126829837Y-137398059D01*
X126834630Y-137399671D01*
X126874411Y-137415359D01*
X126893091Y-137417279D01*
X126909682Y-137420432D01*
X126927768Y-137425499D01*
X126927770Y-137425500D01*
X126927772Y-137425500D01*
X126970522Y-137425500D01*
X126975586Y-137425760D01*
X126987059Y-137426939D01*
X127018110Y-137430131D01*
X127033316Y-137427509D01*
X127036625Y-137426939D01*
X127053444Y-137425500D01*
X139116322Y-137425500D01*
X139174513Y-137444407D01*
X139186326Y-137454496D01*
X144872073Y-143140243D01*
X144915242Y-143186467D01*
X144915245Y-143186469D01*
X144951766Y-143208678D01*
X144955957Y-143211531D01*
X144990025Y-143237365D01*
X145003696Y-143242756D01*
X145007505Y-143244258D01*
X145022624Y-143251767D01*
X145038672Y-143261526D01*
X145079840Y-143273060D01*
X145084622Y-143274667D01*
X145124411Y-143290359D01*
X145143106Y-143292280D01*
X145159686Y-143295432D01*
X145169323Y-143298132D01*
X145177771Y-143300500D01*
X145177772Y-143300500D01*
X145220515Y-143300500D01*
X145225580Y-143300760D01*
X145234995Y-143301727D01*
X145268110Y-143305132D01*
X145286623Y-143301939D01*
X145303445Y-143300500D01*
X155141015Y-143300500D01*
X155143251Y-143300576D01*
X155204245Y-143302660D01*
X155245777Y-143292538D01*
X155250740Y-143291594D01*
X155293111Y-143285771D01*
X155310355Y-143278280D01*
X155326343Y-143272904D01*
X155344594Y-143268457D01*
X155381855Y-143247505D01*
X155386385Y-143245255D01*
X155425609Y-143228219D01*
X155440184Y-143216360D01*
X155454136Y-143206864D01*
X155470512Y-143197658D01*
X155500749Y-143167419D01*
X155504493Y-143164040D01*
X155537665Y-143137054D01*
X155548499Y-143121704D01*
X155559363Y-143108805D01*
X157718168Y-140950000D01*
X159594435Y-140950000D01*
X159614632Y-141129257D01*
X159614633Y-141129261D01*
X159674211Y-141299522D01*
X159674211Y-141299523D01*
X159753354Y-141425478D01*
X159770184Y-141452262D01*
X159897738Y-141579816D01*
X159897740Y-141579817D01*
X159897741Y-141579818D01*
X159923077Y-141595738D01*
X160050478Y-141675789D01*
X160118657Y-141699646D01*
X160220738Y-141735366D01*
X160220742Y-141735367D01*
X160220745Y-141735368D01*
X160400000Y-141755565D01*
X160579255Y-141735368D01*
X160749522Y-141675789D01*
X160902262Y-141579816D01*
X161029816Y-141452262D01*
X161125789Y-141299522D01*
X161185368Y-141129255D01*
X161205565Y-140950000D01*
X161185368Y-140770745D01*
X161180428Y-140756628D01*
X161161014Y-140701145D01*
X161125789Y-140600478D01*
X161070820Y-140512996D01*
X161029818Y-140447741D01*
X161029817Y-140447740D01*
X161029816Y-140447738D01*
X160902262Y-140320184D01*
X160902259Y-140320182D01*
X160902258Y-140320181D01*
X160749523Y-140224211D01*
X160579261Y-140164633D01*
X160579257Y-140164632D01*
X160400000Y-140144435D01*
X160220742Y-140164632D01*
X160220738Y-140164633D01*
X160050477Y-140224211D01*
X160050476Y-140224211D01*
X159897741Y-140320181D01*
X159770181Y-140447741D01*
X159674211Y-140600476D01*
X159674211Y-140600477D01*
X159614633Y-140770738D01*
X159614632Y-140770742D01*
X159594435Y-140950000D01*
X157718168Y-140950000D01*
X158790228Y-139877940D01*
X158836469Y-139834755D01*
X158858679Y-139798229D01*
X158861529Y-139794042D01*
X158887364Y-139759975D01*
X158894257Y-139742492D01*
X158901761Y-139727383D01*
X158911526Y-139711328D01*
X158923061Y-139670157D01*
X158924666Y-139665381D01*
X158940359Y-139625590D01*
X158942280Y-139606892D01*
X158945429Y-139590324D01*
X158950500Y-139572228D01*
X158950500Y-139529478D01*
X158950760Y-139524413D01*
X158951504Y-139517167D01*
X158955131Y-139481891D01*
X158951939Y-139463376D01*
X158950500Y-139446557D01*
X158950500Y-138358678D01*
X158969407Y-138300487D01*
X158979496Y-138288674D01*
X159095770Y-138172400D01*
X160145746Y-138172400D01*
X160155746Y-138382330D01*
X160155747Y-138382337D01*
X160205295Y-138586573D01*
X160205300Y-138586586D01*
X160292602Y-138777751D01*
X160292604Y-138777754D01*
X160414511Y-138948949D01*
X160414513Y-138948951D01*
X160414514Y-138948952D01*
X160566622Y-139093986D01*
X160743428Y-139207613D01*
X160938543Y-139285725D01*
X161144915Y-139325500D01*
X161144918Y-139325500D01*
X161302425Y-139325500D01*
X161459218Y-139310528D01*
X161660875Y-139251316D01*
X161670615Y-139246295D01*
X161680259Y-139241323D01*
X161847682Y-139155011D01*
X162012886Y-139025092D01*
X162150519Y-138866256D01*
X162255604Y-138684244D01*
X162324344Y-138485633D01*
X162354254Y-138277602D01*
X162344254Y-138067670D01*
X162294704Y-137863424D01*
X162292001Y-137857506D01*
X162207397Y-137672248D01*
X162207395Y-137672245D01*
X162085488Y-137501050D01*
X162026082Y-137444407D01*
X161933378Y-137356014D01*
X161756572Y-137242387D01*
X161756569Y-137242386D01*
X161756568Y-137242385D01*
X161647409Y-137198685D01*
X161561457Y-137164275D01*
X161355085Y-137124500D01*
X161197575Y-137124500D01*
X161040781Y-137139472D01*
X160839120Y-137198685D01*
X160652320Y-137294987D01*
X160652317Y-137294989D01*
X160487113Y-137424907D01*
X160349480Y-137583744D01*
X160244397Y-137765753D01*
X160244394Y-137765760D01*
X160175657Y-137964362D01*
X160175655Y-137964368D01*
X160145746Y-138172393D01*
X160145746Y-138172400D01*
X159095770Y-138172400D01*
X162788674Y-134479496D01*
X162843191Y-134451719D01*
X162858678Y-134450500D01*
X172841322Y-134450500D01*
X172899513Y-134469407D01*
X172911326Y-134479496D01*
X173762826Y-135330996D01*
X173790603Y-135385513D01*
X173781032Y-135445945D01*
X173737767Y-135489210D01*
X173692822Y-135500000D01*
X168640975Y-135500000D01*
X168582784Y-135481093D01*
X168552354Y-135445128D01*
X168525061Y-135390318D01*
X168525058Y-135390311D01*
X168390981Y-135212764D01*
X168226562Y-135062876D01*
X168037401Y-134945753D01*
X167829940Y-134865382D01*
X167829939Y-134865381D01*
X167829937Y-134865381D01*
X167611243Y-134824500D01*
X167388757Y-134824500D01*
X167170062Y-134865381D01*
X167103894Y-134891015D01*
X166962599Y-134945753D01*
X166825734Y-135030496D01*
X166773438Y-135062876D01*
X166609020Y-135212763D01*
X166474943Y-135390309D01*
X166474938Y-135390318D01*
X166378137Y-135584720D01*
X166375771Y-135589472D01*
X166348183Y-135686434D01*
X166314885Y-135803464D01*
X166304586Y-135914613D01*
X166299500Y-135969497D01*
X166299500Y-136480503D01*
X166314885Y-136646536D01*
X166375771Y-136860528D01*
X166474942Y-137059689D01*
X166609019Y-137237236D01*
X166773438Y-137387124D01*
X166962599Y-137504247D01*
X167170060Y-137584618D01*
X167388757Y-137625500D01*
X167611243Y-137625500D01*
X167829940Y-137584618D01*
X168037401Y-137504247D01*
X168226562Y-137387124D01*
X168334306Y-137288902D01*
X168390045Y-137263673D01*
X168449971Y-137276025D01*
X168491191Y-137321242D01*
X168500000Y-137362065D01*
X168500000Y-143900500D01*
X168481093Y-143958691D01*
X168431593Y-143994655D01*
X168401000Y-143999500D01*
X121599000Y-143999500D01*
X121540809Y-143980593D01*
X121504845Y-143931093D01*
X121500000Y-143900500D01*
X121500000Y-140440690D01*
X125699500Y-140440690D01*
X125702401Y-140477565D01*
X125702401Y-140477568D01*
X125702402Y-140477569D01*
X125748256Y-140635398D01*
X125831919Y-140776865D01*
X125948135Y-140893081D01*
X126089602Y-140976744D01*
X126247431Y-141022598D01*
X126284306Y-141025500D01*
X126284310Y-141025500D01*
X127615690Y-141025500D01*
X127615694Y-141025500D01*
X127652569Y-141022598D01*
X127810398Y-140976744D01*
X127951865Y-140893081D01*
X128068081Y-140776865D01*
X128151744Y-140635398D01*
X128197598Y-140477569D01*
X128197766Y-140475432D01*
X128198162Y-140474475D01*
X128198507Y-140472590D01*
X128198912Y-140472664D01*
X128221178Y-140418904D01*
X128273346Y-140386932D01*
X128334343Y-140391730D01*
X128376552Y-140425004D01*
X128504478Y-140601078D01*
X128667175Y-140756632D01*
X128855032Y-140880635D01*
X128855035Y-140880636D01*
X128855036Y-140880637D01*
X129062012Y-140969103D01*
X129281463Y-141019191D01*
X129468852Y-141027606D01*
X129506328Y-141029290D01*
X129506328Y-141029289D01*
X129506330Y-141029290D01*
X129729387Y-140999075D01*
X129943464Y-140929517D01*
X130141681Y-140822852D01*
X130317666Y-140682508D01*
X130465765Y-140512996D01*
X130581215Y-140319764D01*
X130606340Y-140252816D01*
X130644486Y-140204983D01*
X130703466Y-140188705D01*
X130760750Y-140210203D01*
X130788222Y-140244651D01*
X130872169Y-140418970D01*
X130872170Y-140418972D01*
X130872171Y-140418973D01*
X131004478Y-140601078D01*
X131167175Y-140756632D01*
X131355032Y-140880635D01*
X131355035Y-140880636D01*
X131355036Y-140880637D01*
X131562011Y-140969103D01*
X131562012Y-140969103D01*
X131781463Y-141019191D01*
X131968852Y-141027606D01*
X132006328Y-141029290D01*
X132006328Y-141029289D01*
X132006330Y-141029290D01*
X132229387Y-140999075D01*
X132443464Y-140929517D01*
X132641681Y-140822852D01*
X132817666Y-140682508D01*
X132965765Y-140512996D01*
X133081215Y-140319764D01*
X133160307Y-140109024D01*
X133200500Y-139887547D01*
X133200500Y-139826595D01*
X133400000Y-139826595D01*
X133415190Y-139980831D01*
X133415191Y-139980836D01*
X133475232Y-140178762D01*
X133475234Y-140178767D01*
X133572724Y-140361160D01*
X133572731Y-140361170D01*
X133703940Y-140521050D01*
X133703949Y-140521059D01*
X133863829Y-140652268D01*
X133863839Y-140652275D01*
X134046232Y-140749765D01*
X134046237Y-140749767D01*
X134244166Y-140809808D01*
X134349998Y-140820231D01*
X134350000Y-140820230D01*
X134350000Y-140115506D01*
X134416025Y-140125000D01*
X134483975Y-140125000D01*
X134550000Y-140115506D01*
X134550000Y-140820230D01*
X134550001Y-140820231D01*
X134655833Y-140809808D01*
X134853762Y-140749767D01*
X134853767Y-140749765D01*
X135036160Y-140652275D01*
X135036170Y-140652268D01*
X135196050Y-140521059D01*
X135196059Y-140521050D01*
X135327268Y-140361170D01*
X135327275Y-140361160D01*
X135424765Y-140178767D01*
X135424767Y-140178762D01*
X135484808Y-139980836D01*
X135484809Y-139980831D01*
X135500000Y-139826595D01*
X135500000Y-139750001D01*
X135499999Y-139750000D01*
X134915691Y-139750000D01*
X134925000Y-139718295D01*
X134925000Y-139581705D01*
X134915691Y-139550000D01*
X135499999Y-139550000D01*
X135500000Y-139549999D01*
X135500000Y-139473404D01*
X135484809Y-139319168D01*
X135484808Y-139319163D01*
X135424767Y-139121237D01*
X135424765Y-139121232D01*
X135327275Y-138938839D01*
X135327268Y-138938829D01*
X135196059Y-138778949D01*
X135196050Y-138778940D01*
X135036170Y-138647731D01*
X135036160Y-138647724D01*
X134853767Y-138550234D01*
X134853762Y-138550232D01*
X134655836Y-138490191D01*
X134655831Y-138490190D01*
X134550000Y-138479767D01*
X134550000Y-139184493D01*
X134483975Y-139175000D01*
X134416025Y-139175000D01*
X134350000Y-139184493D01*
X134350000Y-138479767D01*
X134349999Y-138479767D01*
X134244168Y-138490190D01*
X134244163Y-138490191D01*
X134046237Y-138550232D01*
X134046232Y-138550234D01*
X133863839Y-138647724D01*
X133863829Y-138647731D01*
X133703949Y-138778940D01*
X133703940Y-138778949D01*
X133572731Y-138938829D01*
X133572724Y-138938839D01*
X133475234Y-139121232D01*
X133475232Y-139121237D01*
X133415191Y-139319163D01*
X133415190Y-139319168D01*
X133400000Y-139473404D01*
X133400000Y-139549999D01*
X133400001Y-139550000D01*
X133984309Y-139550000D01*
X133975000Y-139581705D01*
X133975000Y-139718295D01*
X133984309Y-139750000D01*
X133400000Y-139750000D01*
X133400000Y-139826595D01*
X133200500Y-139826595D01*
X133200500Y-139468845D01*
X133187029Y-139319163D01*
X133185378Y-139300819D01*
X133185376Y-139300808D01*
X133135815Y-139121232D01*
X133125493Y-139083830D01*
X133027829Y-138881027D01*
X132895522Y-138698922D01*
X132732825Y-138543368D01*
X132544968Y-138419365D01*
X132544965Y-138419363D01*
X132544964Y-138419363D01*
X132544963Y-138419362D01*
X132337987Y-138330896D01*
X132182186Y-138295336D01*
X132118537Y-138280809D01*
X132118531Y-138280808D01*
X132118526Y-138280808D01*
X131893671Y-138270709D01*
X131670612Y-138300925D01*
X131456533Y-138370483D01*
X131258318Y-138477148D01*
X131258317Y-138477148D01*
X131082334Y-138617491D01*
X131082333Y-138617492D01*
X130934236Y-138787002D01*
X130934234Y-138787004D01*
X130934235Y-138787004D01*
X130843519Y-138938839D01*
X130818783Y-138980240D01*
X130793660Y-139047180D01*
X130755512Y-139095017D01*
X130696531Y-139111294D01*
X130639247Y-139089795D01*
X130611777Y-139055348D01*
X130527830Y-138881029D01*
X130517097Y-138866256D01*
X130395522Y-138698922D01*
X130232825Y-138543368D01*
X130044968Y-138419365D01*
X130044965Y-138419363D01*
X130044964Y-138419363D01*
X130044963Y-138419362D01*
X129837987Y-138330896D01*
X129682186Y-138295336D01*
X129618537Y-138280809D01*
X129618531Y-138280808D01*
X129618526Y-138280808D01*
X129393671Y-138270709D01*
X129170612Y-138300925D01*
X128956533Y-138370483D01*
X128758318Y-138477148D01*
X128758317Y-138477148D01*
X128582334Y-138617491D01*
X128582333Y-138617492D01*
X128434234Y-138787004D01*
X128381987Y-138874451D01*
X128335910Y-138914707D01*
X128274971Y-138920191D01*
X128222446Y-138888808D01*
X128198399Y-138832547D01*
X128198314Y-138831541D01*
X128197598Y-138822431D01*
X128151744Y-138664602D01*
X128068081Y-138523135D01*
X127951865Y-138406919D01*
X127810398Y-138323256D01*
X127652569Y-138277402D01*
X127652568Y-138277401D01*
X127652565Y-138277401D01*
X127627298Y-138275413D01*
X127615694Y-138274500D01*
X126284306Y-138274500D01*
X126273548Y-138275346D01*
X126247434Y-138277401D01*
X126247427Y-138277403D01*
X126089602Y-138323256D01*
X125948136Y-138406918D01*
X125831918Y-138523136D01*
X125748256Y-138664602D01*
X125702403Y-138822427D01*
X125702401Y-138822434D01*
X125699500Y-138859310D01*
X125699500Y-140440690D01*
X121500000Y-140440690D01*
X121500000Y-135500001D01*
X121500000Y-135500000D01*
X114500000Y-135500000D01*
X114500000Y-135500001D01*
X114500000Y-143233171D01*
X114481093Y-143291362D01*
X114431593Y-143327326D01*
X114379249Y-143329752D01*
X114256544Y-143302118D01*
X113322920Y-143051954D01*
X112400126Y-142764400D01*
X111489660Y-142439922D01*
X110592997Y-142079047D01*
X109711593Y-141682359D01*
X108846876Y-141250502D01*
X108000250Y-140784177D01*
X107173087Y-140284139D01*
X106366730Y-139751201D01*
X105582486Y-139186227D01*
X104821627Y-138590132D01*
X104817443Y-138586573D01*
X104085388Y-137963884D01*
X103674271Y-137584618D01*
X103374962Y-137308497D01*
X103241465Y-137175000D01*
X109269435Y-137175000D01*
X109289632Y-137354257D01*
X109289633Y-137354261D01*
X109349211Y-137524522D01*
X109349211Y-137524523D01*
X109442033Y-137672248D01*
X109445184Y-137677262D01*
X109572738Y-137804816D01*
X109572740Y-137804817D01*
X109572741Y-137804818D01*
X109706195Y-137888673D01*
X109725478Y-137900789D01*
X109793657Y-137924646D01*
X109895738Y-137960366D01*
X109895742Y-137960367D01*
X109895745Y-137960368D01*
X110075000Y-137980565D01*
X110254255Y-137960368D01*
X110424522Y-137900789D01*
X110577262Y-137804816D01*
X110704816Y-137677262D01*
X110800789Y-137524522D01*
X110859752Y-137356015D01*
X110860366Y-137354261D01*
X110860367Y-137354257D01*
X110860368Y-137354255D01*
X110880565Y-137175000D01*
X110860368Y-136995745D01*
X110800789Y-136825478D01*
X110704816Y-136672738D01*
X110577262Y-136545184D01*
X110577259Y-136545182D01*
X110577258Y-136545181D01*
X110424523Y-136449211D01*
X110254261Y-136389633D01*
X110254257Y-136389632D01*
X110075000Y-136369435D01*
X109895742Y-136389632D01*
X109895738Y-136389633D01*
X109725477Y-136449211D01*
X109725476Y-136449211D01*
X109572741Y-136545181D01*
X109445181Y-136672741D01*
X109349211Y-136825476D01*
X109349211Y-136825477D01*
X109289633Y-136995738D01*
X109289632Y-136995742D01*
X109269435Y-137175000D01*
X103241465Y-137175000D01*
X102691503Y-136625038D01*
X102292870Y-136192929D01*
X102036116Y-135914612D01*
X101409868Y-135178373D01*
X100813773Y-134417514D01*
X100248799Y-133633270D01*
X99715861Y-132826913D01*
X99215823Y-131999750D01*
X98749498Y-131153124D01*
X98317641Y-130288407D01*
X97920953Y-129407003D01*
X97560078Y-128510340D01*
X97235600Y-127599874D01*
X96948046Y-126677080D01*
X96697882Y-125743456D01*
X96485514Y-124800517D01*
X96311287Y-123849791D01*
X96175483Y-122892820D01*
X96078323Y-121931157D01*
X96019964Y-120966362D01*
X96000500Y-120000000D01*
X96019964Y-119033638D01*
X96078323Y-118068843D01*
X96175483Y-117107180D01*
X96311287Y-116150209D01*
X96485514Y-115199483D01*
X96697882Y-114256544D01*
X96948046Y-113322920D01*
X97235600Y-112400126D01*
X97494952Y-111672400D01*
X160145746Y-111672400D01*
X160155746Y-111882330D01*
X160155747Y-111882337D01*
X160205295Y-112086573D01*
X160205300Y-112086586D01*
X160292602Y-112277751D01*
X160292604Y-112277754D01*
X160414511Y-112448949D01*
X160414513Y-112448951D01*
X160414514Y-112448952D01*
X160566622Y-112593986D01*
X160743428Y-112707613D01*
X160938543Y-112785725D01*
X161144915Y-112825500D01*
X161144918Y-112825500D01*
X161302425Y-112825500D01*
X161459218Y-112810528D01*
X161660875Y-112751316D01*
X161847682Y-112655011D01*
X162012886Y-112525092D01*
X162150519Y-112366256D01*
X162255604Y-112184244D01*
X162324344Y-111985633D01*
X162354254Y-111777602D01*
X162344254Y-111567670D01*
X162294704Y-111363424D01*
X162250102Y-111265760D01*
X162207397Y-111172248D01*
X162207395Y-111172245D01*
X162085488Y-111001050D01*
X162005631Y-110924907D01*
X161933378Y-110856014D01*
X161756572Y-110742387D01*
X161756569Y-110742386D01*
X161756568Y-110742385D01*
X161647409Y-110698685D01*
X161561457Y-110664275D01*
X161355085Y-110624500D01*
X161197575Y-110624500D01*
X161040781Y-110639472D01*
X160839120Y-110698685D01*
X160652320Y-110794987D01*
X160652317Y-110794989D01*
X160487113Y-110924907D01*
X160349480Y-111083744D01*
X160244397Y-111265753D01*
X160244394Y-111265760D01*
X160175657Y-111464362D01*
X160175655Y-111464368D01*
X160145746Y-111672393D01*
X160145746Y-111672400D01*
X97494952Y-111672400D01*
X97560078Y-111489660D01*
X97920953Y-110592997D01*
X98317641Y-109711593D01*
X98438831Y-109468931D01*
X104945668Y-109468931D01*
X104976133Y-109641707D01*
X105045622Y-109802802D01*
X105045623Y-109802804D01*
X105150389Y-109943529D01*
X105150391Y-109943531D01*
X105284783Y-110056300D01*
X105284784Y-110056300D01*
X105284786Y-110056302D01*
X105441567Y-110135040D01*
X105441572Y-110135041D01*
X105441576Y-110135043D01*
X105612277Y-110175500D01*
X105612279Y-110175500D01*
X105743704Y-110175500D01*
X105743709Y-110175500D01*
X105874255Y-110160241D01*
X106039117Y-110100237D01*
X106185696Y-110003830D01*
X106306092Y-109876218D01*
X106393812Y-109724281D01*
X106444130Y-109556210D01*
X106454331Y-109381065D01*
X106438941Y-109293786D01*
X106423866Y-109208292D01*
X106423865Y-109208289D01*
X106354377Y-109047196D01*
X106249610Y-108906470D01*
X106178589Y-108846876D01*
X106115216Y-108793699D01*
X106114530Y-108793354D01*
X105958433Y-108714960D01*
X105958429Y-108714959D01*
X105958423Y-108714956D01*
X105787723Y-108674500D01*
X105787721Y-108674500D01*
X105656291Y-108674500D01*
X105525745Y-108689759D01*
X105525742Y-108689759D01*
X105525741Y-108689760D01*
X105360883Y-108749762D01*
X105214306Y-108846168D01*
X105214303Y-108846170D01*
X105093909Y-108973780D01*
X105093908Y-108973780D01*
X105006188Y-109125719D01*
X104955870Y-109293786D01*
X104955869Y-109293793D01*
X104945668Y-109468931D01*
X98438831Y-109468931D01*
X98749498Y-108846876D01*
X99215823Y-108000250D01*
X99715861Y-107173087D01*
X100248799Y-106366730D01*
X100813773Y-105582486D01*
X101409868Y-104821627D01*
X102036116Y-104085388D01*
X102483899Y-103600000D01*
X102691503Y-103374962D01*
X103374962Y-102691503D01*
X103776458Y-102321112D01*
X104085388Y-102036116D01*
X104821627Y-101409868D01*
X105582486Y-100813773D01*
X106366730Y-100248799D01*
X107173087Y-99715861D01*
X108000250Y-99215823D01*
X108846876Y-98749498D01*
X109711593Y-98317641D01*
X110592997Y-97920953D01*
X111489660Y-97560078D01*
X112400126Y-97235600D01*
X113322920Y-96948046D01*
X114256544Y-96697882D01*
X114379250Y-96670246D01*
X114440171Y-96675906D01*
X114486132Y-96716294D01*
X114500000Y-96766827D01*
X114500000Y-104500000D01*
X114500001Y-104500000D01*
X121499999Y-104500000D01*
X121500000Y-104500000D01*
X121500000Y-102321113D01*
X139824500Y-102321113D01*
X139839486Y-102458910D01*
X139847720Y-102483346D01*
X139898555Y-102634219D01*
X139898556Y-102634222D01*
X139993927Y-102792733D01*
X139993931Y-102792737D01*
X140121149Y-102927039D01*
X140121148Y-102927039D01*
X140274267Y-103030857D01*
X140274270Y-103030858D01*
X140446125Y-103099331D01*
X140628683Y-103129260D01*
X140813407Y-103119245D01*
X140991659Y-103069754D01*
X141155104Y-102983100D01*
X141296100Y-102863337D01*
X141322188Y-102829018D01*
X141372454Y-102794137D01*
X141433625Y-102795462D01*
X141482334Y-102832490D01*
X141500000Y-102888931D01*
X141500000Y-102900000D01*
X141796183Y-102900000D01*
X141854374Y-102918907D01*
X141890338Y-102968407D01*
X141890338Y-103029593D01*
X141869754Y-103065244D01*
X141867469Y-103067781D01*
X141867465Y-103067787D01*
X141772825Y-103231706D01*
X141772819Y-103231720D01*
X141714327Y-103411738D01*
X141714326Y-103411742D01*
X141714326Y-103411744D01*
X141694540Y-103600000D01*
X141711740Y-103763654D01*
X141714327Y-103788261D01*
X141772819Y-103968279D01*
X141772825Y-103968293D01*
X141828697Y-104065064D01*
X141867467Y-104132216D01*
X141994129Y-104272888D01*
X142147270Y-104384151D01*
X142320197Y-104461144D01*
X142505354Y-104500500D01*
X142505357Y-104500500D01*
X142694643Y-104500500D01*
X142694646Y-104500500D01*
X142879803Y-104461144D01*
X143052730Y-104384151D01*
X143141842Y-104319407D01*
X143200033Y-104300500D01*
X146249967Y-104300500D01*
X146308157Y-104319407D01*
X146397270Y-104384151D01*
X146570197Y-104461144D01*
X146755354Y-104500500D01*
X146755357Y-104500500D01*
X146944643Y-104500500D01*
X146944646Y-104500500D01*
X147129803Y-104461144D01*
X147251481Y-104406968D01*
X147312327Y-104400573D01*
X147361749Y-104427406D01*
X147470504Y-104536161D01*
X147498281Y-104590678D01*
X147499500Y-104606165D01*
X147499500Y-108669204D01*
X147480593Y-108727395D01*
X147474072Y-108735447D01*
X147467470Y-108742778D01*
X147467467Y-108742783D01*
X147372825Y-108906706D01*
X147372819Y-108906720D01*
X147314327Y-109086738D01*
X147314326Y-109086742D01*
X147314326Y-109086744D01*
X147294540Y-109275000D01*
X147311979Y-109440926D01*
X147314327Y-109463261D01*
X147372819Y-109643279D01*
X147372825Y-109643293D01*
X147424167Y-109732218D01*
X147467467Y-109807216D01*
X147467469Y-109807218D01*
X147590205Y-109943531D01*
X147594129Y-109947888D01*
X147747270Y-110059151D01*
X147920197Y-110136144D01*
X148105354Y-110175500D01*
X148105357Y-110175500D01*
X148294643Y-110175500D01*
X148294646Y-110175500D01*
X148479803Y-110136144D01*
X148596786Y-110084058D01*
X148637053Y-110075500D01*
X157562947Y-110075500D01*
X157603213Y-110084058D01*
X157720197Y-110136144D01*
X157905354Y-110175500D01*
X157905357Y-110175500D01*
X158094643Y-110175500D01*
X158094646Y-110175500D01*
X158279803Y-110136144D01*
X158452730Y-110059151D01*
X158605871Y-109947888D01*
X158732533Y-109807216D01*
X158827179Y-109643284D01*
X158885674Y-109463256D01*
X158905460Y-109275000D01*
X158897577Y-109200000D01*
X160094540Y-109200000D01*
X160113570Y-109381065D01*
X160114327Y-109388261D01*
X160172819Y-109568279D01*
X160172825Y-109568293D01*
X160216119Y-109643279D01*
X160267467Y-109732216D01*
X160394129Y-109872888D01*
X160547270Y-109984151D01*
X160720197Y-110061144D01*
X160905354Y-110100500D01*
X160905357Y-110100500D01*
X161094643Y-110100500D01*
X161094646Y-110100500D01*
X161279803Y-110061144D01*
X161452730Y-109984151D01*
X161605871Y-109872888D01*
X161732533Y-109732216D01*
X161827179Y-109568284D01*
X161885674Y-109388256D01*
X161905460Y-109200000D01*
X161885674Y-109011744D01*
X161873967Y-108975713D01*
X171450000Y-108975713D01*
X171465418Y-109127335D01*
X171465419Y-109127337D01*
X171526302Y-109321387D01*
X171592650Y-109440926D01*
X172053704Y-108979871D01*
X172064835Y-109050148D01*
X172122359Y-109163045D01*
X172137866Y-109178552D01*
X171713786Y-109602632D01*
X171713786Y-109602634D01*
X171757482Y-109653533D01*
X171918306Y-109778019D01*
X171918308Y-109778020D01*
X172100902Y-109867586D01*
X172297795Y-109918566D01*
X172500914Y-109928866D01*
X172701941Y-109898069D01*
X172892666Y-109827433D01*
X173065263Y-109719853D01*
X173065265Y-109719851D01*
X173187364Y-109603786D01*
X172762132Y-109178554D01*
X172777641Y-109163045D01*
X172835165Y-109050148D01*
X172846295Y-108979873D01*
X173308488Y-109442066D01*
X173328856Y-109412805D01*
X173409060Y-109225905D01*
X173409061Y-109225902D01*
X173449999Y-109026696D01*
X173450000Y-109026688D01*
X173450000Y-108975713D01*
X183950000Y-108975713D01*
X183965418Y-109127335D01*
X183965419Y-109127337D01*
X184026302Y-109321387D01*
X184092650Y-109440926D01*
X184553704Y-108979871D01*
X184564835Y-109050148D01*
X184622359Y-109163045D01*
X184637866Y-109178552D01*
X184213786Y-109602632D01*
X184213786Y-109602634D01*
X184257482Y-109653533D01*
X184418306Y-109778019D01*
X184418308Y-109778020D01*
X184600902Y-109867586D01*
X184797795Y-109918566D01*
X185000914Y-109928866D01*
X185201941Y-109898069D01*
X185392666Y-109827433D01*
X185565263Y-109719853D01*
X185565265Y-109719851D01*
X185687364Y-109603786D01*
X185262132Y-109178554D01*
X185277641Y-109163045D01*
X185335165Y-109050148D01*
X185346295Y-108979873D01*
X185808488Y-109442066D01*
X185828856Y-109412805D01*
X185909060Y-109225905D01*
X185909061Y-109225902D01*
X185949999Y-109026696D01*
X185950000Y-109026688D01*
X185950000Y-108474286D01*
X185934581Y-108322664D01*
X185934580Y-108322662D01*
X185873696Y-108128608D01*
X185873695Y-108128607D01*
X185807348Y-108009072D01*
X185346294Y-108470125D01*
X185335165Y-108399852D01*
X185277641Y-108286955D01*
X185262130Y-108271445D01*
X185686212Y-107847364D01*
X185686212Y-107847363D01*
X185642524Y-107796472D01*
X185642520Y-107796468D01*
X185481693Y-107671980D01*
X185481691Y-107671979D01*
X185299097Y-107582413D01*
X185102204Y-107531433D01*
X184899085Y-107521133D01*
X184698058Y-107551930D01*
X184507333Y-107622566D01*
X184334735Y-107730147D01*
X184334734Y-107730148D01*
X184212634Y-107846212D01*
X184637868Y-108271446D01*
X184622359Y-108286955D01*
X184564835Y-108399852D01*
X184553704Y-108470126D01*
X184091510Y-108007932D01*
X184071143Y-108037196D01*
X183990939Y-108224094D01*
X183990938Y-108224097D01*
X183950000Y-108423303D01*
X183950000Y-108975713D01*
X173450000Y-108975713D01*
X173450000Y-108474286D01*
X173434581Y-108322664D01*
X173434580Y-108322662D01*
X173373696Y-108128608D01*
X173373695Y-108128607D01*
X173307348Y-108009072D01*
X172846294Y-108470125D01*
X172835165Y-108399852D01*
X172777641Y-108286955D01*
X172762131Y-108271445D01*
X173186212Y-107847364D01*
X173186212Y-107847363D01*
X173142524Y-107796472D01*
X173142520Y-107796468D01*
X172981693Y-107671980D01*
X172981691Y-107671979D01*
X172799097Y-107582413D01*
X172602204Y-107531433D01*
X172399085Y-107521133D01*
X172198058Y-107551930D01*
X172007333Y-107622566D01*
X171834735Y-107730147D01*
X171834734Y-107730148D01*
X171712634Y-107846212D01*
X172137868Y-108271446D01*
X172122359Y-108286955D01*
X172064835Y-108399852D01*
X172053704Y-108470126D01*
X171591510Y-108007932D01*
X171571143Y-108037196D01*
X171490939Y-108224094D01*
X171490938Y-108224097D01*
X171450000Y-108423303D01*
X171450000Y-108975713D01*
X161873967Y-108975713D01*
X161827179Y-108831716D01*
X161827176Y-108831711D01*
X161827174Y-108831706D01*
X161759769Y-108714959D01*
X161732533Y-108667784D01*
X161673405Y-108602116D01*
X161605875Y-108527116D01*
X161605870Y-108527111D01*
X161507433Y-108455593D01*
X161452730Y-108415849D01*
X161452725Y-108415847D01*
X161452722Y-108415845D01*
X161279805Y-108338857D01*
X161279803Y-108338856D01*
X161279800Y-108338855D01*
X161279799Y-108338855D01*
X161244580Y-108331369D01*
X161094646Y-108299500D01*
X160905354Y-108299500D01*
X160796375Y-108322664D01*
X160720200Y-108338855D01*
X160720194Y-108338857D01*
X160547277Y-108415845D01*
X160547268Y-108415850D01*
X160394129Y-108527111D01*
X160394124Y-108527116D01*
X160267469Y-108667781D01*
X160267465Y-108667787D01*
X160172825Y-108831706D01*
X160172819Y-108831720D01*
X160114327Y-109011738D01*
X160114326Y-109011742D01*
X160114326Y-109011744D01*
X160094540Y-109200000D01*
X158897577Y-109200000D01*
X158885674Y-109086744D01*
X158827179Y-108906716D01*
X158827176Y-108906711D01*
X158827174Y-108906706D01*
X158778551Y-108822490D01*
X158732533Y-108742784D01*
X158605871Y-108602112D01*
X158452730Y-108490849D01*
X158452725Y-108490847D01*
X158452722Y-108490845D01*
X158301021Y-108423303D01*
X158279803Y-108413856D01*
X158279800Y-108413855D01*
X158279799Y-108413855D01*
X158243281Y-108406093D01*
X158094646Y-108374500D01*
X157905354Y-108374500D01*
X157787288Y-108399595D01*
X157720200Y-108413855D01*
X157720198Y-108413855D01*
X157720197Y-108413856D01*
X157626456Y-108455593D01*
X157603214Y-108465941D01*
X157562947Y-108474500D01*
X148999500Y-108474500D01*
X148941309Y-108455593D01*
X148905345Y-108406093D01*
X148900500Y-108375500D01*
X148900500Y-106672400D01*
X177595746Y-106672400D01*
X177605746Y-106882330D01*
X177605747Y-106882337D01*
X177655295Y-107086573D01*
X177655300Y-107086586D01*
X177742602Y-107277751D01*
X177742604Y-107277754D01*
X177864511Y-107448949D01*
X177864513Y-107448951D01*
X177864514Y-107448952D01*
X178016622Y-107593986D01*
X178193428Y-107707613D01*
X178388543Y-107785725D01*
X178594915Y-107825500D01*
X178594918Y-107825500D01*
X178752425Y-107825500D01*
X178909218Y-107810528D01*
X179110875Y-107751316D01*
X179297682Y-107655011D01*
X179462886Y-107525092D01*
X179600519Y-107366256D01*
X179705604Y-107184244D01*
X179774344Y-106985633D01*
X179804254Y-106777602D01*
X179794254Y-106567670D01*
X179744704Y-106363424D01*
X179700102Y-106265760D01*
X179657397Y-106172248D01*
X179657395Y-106172245D01*
X179535488Y-106001050D01*
X179455631Y-105924907D01*
X179383378Y-105856014D01*
X179206572Y-105742387D01*
X179206569Y-105742386D01*
X179206568Y-105742385D01*
X179097409Y-105698685D01*
X179011457Y-105664275D01*
X178805085Y-105624500D01*
X178647575Y-105624500D01*
X178490781Y-105639472D01*
X178289120Y-105698685D01*
X178102320Y-105794987D01*
X178102317Y-105794989D01*
X177937113Y-105924907D01*
X177799480Y-106083744D01*
X177694397Y-106265753D01*
X177694394Y-106265760D01*
X177625657Y-106464362D01*
X177625655Y-106464368D01*
X177595746Y-106672393D01*
X177595746Y-106672400D01*
X148900500Y-106672400D01*
X148900500Y-104297647D01*
X148900589Y-104294682D01*
X148904357Y-104232394D01*
X148893103Y-104170986D01*
X148892664Y-104168100D01*
X148885140Y-104106128D01*
X148880740Y-104094528D01*
X148875930Y-104077275D01*
X148873694Y-104065068D01*
X148848083Y-104008163D01*
X148846943Y-104005409D01*
X148839038Y-103984566D01*
X148824818Y-103947070D01*
X148817769Y-103936857D01*
X148808968Y-103921251D01*
X148803881Y-103909948D01*
X148803879Y-103909945D01*
X148803878Y-103909943D01*
X148765392Y-103860820D01*
X148763629Y-103858422D01*
X148745684Y-103832426D01*
X148728183Y-103807071D01*
X148728181Y-103807069D01*
X148728177Y-103807065D01*
X148681489Y-103765704D01*
X148679312Y-103763654D01*
X148036344Y-103120686D01*
X148034294Y-103118508D01*
X147988958Y-103067335D01*
X147990292Y-103066152D01*
X147963362Y-103020365D01*
X147969266Y-102959465D01*
X148009838Y-102913666D01*
X148060029Y-102900000D01*
X148499999Y-102900000D01*
X148500000Y-102900000D01*
X148500000Y-102889260D01*
X148518907Y-102831070D01*
X148568407Y-102795106D01*
X148629593Y-102795106D01*
X148670870Y-102821177D01*
X148763446Y-102918907D01*
X148771151Y-102927041D01*
X148924267Y-103030857D01*
X148924270Y-103030858D01*
X149096125Y-103099331D01*
X149278683Y-103129260D01*
X149463407Y-103119245D01*
X149641659Y-103069754D01*
X149805104Y-102983100D01*
X149946100Y-102863337D01*
X149982199Y-102815849D01*
X150058052Y-102716067D01*
X150058053Y-102716065D01*
X150058052Y-102716065D01*
X150058054Y-102716064D01*
X150135732Y-102548167D01*
X150175500Y-102367497D01*
X150175500Y-101128887D01*
X150160514Y-100991090D01*
X150101444Y-100815779D01*
X150100237Y-100813773D01*
X150039671Y-100713109D01*
X150025500Y-100662070D01*
X150025500Y-98467244D01*
X150044407Y-98409053D01*
X150045637Y-98407398D01*
X150058054Y-98391064D01*
X150135732Y-98223167D01*
X150175500Y-98042497D01*
X150175500Y-97103887D01*
X150160514Y-96966090D01*
X150101444Y-96790779D01*
X150087033Y-96766827D01*
X150006072Y-96632266D01*
X150006068Y-96632262D01*
X149878850Y-96497960D01*
X149878851Y-96497960D01*
X149725732Y-96394142D01*
X149553875Y-96325669D01*
X149553874Y-96325669D01*
X149371317Y-96295740D01*
X149371316Y-96295740D01*
X149325135Y-96298243D01*
X149186593Y-96305755D01*
X149008341Y-96355246D01*
X149008340Y-96355246D01*
X149008338Y-96355247D01*
X149008332Y-96355250D01*
X148844896Y-96441899D01*
X148844895Y-96441900D01*
X148703901Y-96561661D01*
X148703896Y-96561666D01*
X148591947Y-96708932D01*
X148591946Y-96708934D01*
X148553484Y-96792069D01*
X148511890Y-96836943D01*
X148463634Y-96849500D01*
X141541891Y-96849500D01*
X141483700Y-96830593D01*
X141454576Y-96795157D01*
X141454211Y-96795378D01*
X141452716Y-96792894D01*
X141452044Y-96792076D01*
X141451444Y-96790780D01*
X141451444Y-96790779D01*
X141419652Y-96737940D01*
X141356072Y-96632266D01*
X141356068Y-96632262D01*
X141228850Y-96497960D01*
X141228851Y-96497960D01*
X141075732Y-96394142D01*
X140903875Y-96325669D01*
X140903874Y-96325669D01*
X140721317Y-96295740D01*
X140721316Y-96295740D01*
X140675135Y-96298243D01*
X140536593Y-96305755D01*
X140358341Y-96355246D01*
X140358340Y-96355246D01*
X140358338Y-96355247D01*
X140358332Y-96355250D01*
X140194896Y-96441899D01*
X140194895Y-96441900D01*
X140053901Y-96561661D01*
X140053896Y-96561666D01*
X139941947Y-96708932D01*
X139941946Y-96708934D01*
X139864269Y-96876829D01*
X139864268Y-96876831D01*
X139864268Y-96876833D01*
X139824500Y-97057503D01*
X139824500Y-97996113D01*
X139839486Y-98133910D01*
X139869561Y-98223167D01*
X139898555Y-98309219D01*
X139898556Y-98309222D01*
X139960329Y-98411890D01*
X139974500Y-98462929D01*
X139974500Y-100657754D01*
X139955593Y-100715945D01*
X139954314Y-100717665D01*
X139941949Y-100733931D01*
X139941947Y-100733933D01*
X139941946Y-100733936D01*
X139864268Y-100901833D01*
X139824500Y-101082503D01*
X139824500Y-102321113D01*
X121500000Y-102321113D01*
X121500000Y-96099500D01*
X121518907Y-96041309D01*
X121568407Y-96005345D01*
X121599000Y-96000500D01*
X168401000Y-96000500D01*
X168459191Y-96019407D01*
G37*
%TD.AperFunction*%
%TD*%
M02*
