M48
; DRILL file {KiCad 7.0.6} date Sat Nov 25 17:25:14 2023
; FORMAT={-:-/ absolute / inch / decimal}
; #@! TF.CreationDate,2023-11-25T17:25:14+01:00
; #@! TF.GenerationSoftware,Kicad,Pcbnew,7.0.6
; #@! TF.FileFunction,Plated,1,4,PTH
FMAT,2
INCH
; #@! TA.AperFunction,Plated,PTH,ViaDrill
T1C0.0118
; #@! TA.AperFunction,Plated,PTH,ComponentDrill
T2C0.0157
; #@! TA.AperFunction,Plated,PTH,ViaDrill
T3C0.0197
; #@! TA.AperFunction,Plated,PTH,ViaDrill
T4C0.0236
; #@! TA.AperFunction,Plated,PTH,ComponentDrill
T5C0.0236
; #@! TA.AperFunction,Plated,PTH,ComponentDrill
T6C0.0276
; #@! TA.AperFunction,Plated,PTH,ComponentDrill
T7C0.0315
; #@! TA.AperFunction,Plated,PTH,ComponentDrill
T8C0.0374
%
G90
G05
T1
X4.7313Y-4.6506
X4.8917Y-5.187
X4.9104Y-4.6181
X4.9173Y-4.7067
X4.9213Y-5.2165
X4.9508Y-5.2362
X4.9616Y-4.7323
X4.9803Y-5.2559
X5.5994Y-5.3435
X5.6624Y-3.9608
X5.7175Y-3.9606
T3
X4.3337Y-5.4006
X4.4065Y-5.4006
X5.0325Y-4.8681
X5.0354Y-4.5226
X5.0561Y-4.5994
X5.0965Y-5.1437
X5.1417Y-4.4065
X5.1585Y-5.1437
X5.3248Y-4.8681
X5.3848Y-4.8061
X5.435Y-4.6191
X5.6161Y-4.5866
X5.6161Y-4.6555
X6.0531Y-4.8927
X6.0531Y-5.5817
X6.252Y-4.8602
X6.252Y-4.9291
X6.2539Y-5.5492
X6.315Y-5.5492
X6.7411Y-4.6959
X6.9291Y-5.3868
X6.9409Y-4.6634
X6.9409Y-4.7323
X7.1299Y-5.3524
X7.1299Y-5.4213
T4
X5.5335Y-4.4793
X5.5945Y-4.4793
X5.6142Y-4.0787
X5.7815Y-4.0787
X5.8346Y-4.3022
X6.2205Y-4.3022
X6.3386Y-4.2992
T6
X5.4409Y-5.001
X5.9764Y-5.001
T8
X4.998Y-5.498
X5.0965Y-5.498
X5.1949Y-5.498
X5.2933Y-5.498
T2
G00X4.3819Y-5.1644
M15
G01X4.3976Y-5.1644
M16
G05
G00X4.4606Y-5.1644
M15
G01X4.4764Y-5.1644
M16
G05
G00X4.5394Y-5.1644
M15
G01X4.5551Y-5.1644
M16
G05
G00X4.6181Y-5.1644
M15
G01X4.6339Y-5.1644
M16
G05
G00X4.6969Y-5.1644
M15
G01X4.7126Y-5.1644
M16
G05
G00X4.7756Y-5.1644
M15
G01X4.7913Y-5.1644
M16
G05
T5
G00X5.5384Y-3.8563
M15
G01X5.5384Y-3.8248
M16
G05
G00X5.5384Y-4.0266
M15
G01X5.5384Y-3.9833
M16
G05
G00X5.8789Y-3.8563
M15
G01X5.8789Y-3.8248
M16
G05
G00X5.8789Y-4.0266
M15
G01X5.8789Y-3.9833
M16
G05
T7
G00X5.6024Y-4.7549
M15
G01X5.6181Y-4.7549
M16
G05
G00X5.6181Y-5.247
M15
G01X5.6024Y-5.247
M16
G05
G00X5.7992Y-4.7549
M15
G01X5.815Y-4.7549
M16
G05
G00X5.7992Y-5.247
M15
G01X5.815Y-5.247
M16
G05
G00X6.1024Y-4.4852
M15
G01X6.1024Y-4.4695
M16
G05
G00X6.1024Y-4.6821
M15
G01X6.1024Y-4.6663
M16
G05
G00X6.1024Y-5.1742
M15
G01X6.1024Y-5.1585
M16
G05
G00X6.1024Y-5.3711
M15
G01X6.1024Y-5.3553
M16
G05
G00X6.5945Y-4.4852
M15
G01X6.5945Y-4.4695
M16
G05
G00X6.5945Y-4.6663
M15
G01X6.5945Y-4.6821
M16
G05
G00X6.5945Y-5.1742
M15
G01X6.5945Y-5.1585
M16
G05
G00X6.5945Y-5.3553
M15
G01X6.5945Y-5.3711
M16
G05
G00X6.7894Y-4.2884
M15
G01X6.7894Y-4.2726
M16
G05
G00X6.7894Y-4.4852
M15
G01X6.7894Y-4.4695
M16
G05
G00X6.7913Y-4.9783
M15
G01X6.7913Y-4.9626
M16
G05
G00X6.7913Y-5.1752
M15
G01X6.7913Y-5.1594
M16
G05
G00X7.2815Y-4.2884
M15
G01X7.2815Y-4.2726
M16
G05
G00X7.2815Y-4.4695
M15
G01X7.2815Y-4.4852
M16
G05
G00X7.2835Y-4.9783
M15
G01X7.2835Y-4.9626
M16
G05
G00X7.2835Y-5.1594
M15
G01X7.2835Y-5.1752
M16
G05
T0
M30
